%TF.GenerationSoftware,KiCad,Pcbnew,5.1.10*%
%TF.CreationDate,2021-08-02T03:21:32+08:00*%
%TF.ProjectId,HappyAAC-Type-A,48617070-7941-4414-932d-547970652d41,0.2e*%
%TF.SameCoordinates,Original*%
%TF.FileFunction,Copper,L1,Top*%
%TF.FilePolarity,Positive*%
%FSLAX46Y46*%
G04 Gerber Fmt 4.6, Leading zero omitted, Abs format (unit mm)*
G04 Created by KiCad (PCBNEW 5.1.10) date 2021-08-02 03:21:32*
%MOMM*%
%LPD*%
G01*
G04 APERTURE LIST*
%TA.AperFunction,EtchedComponent*%
%ADD10C,0.100000*%
%TD*%
%TA.AperFunction,ComponentPad*%
%ADD11R,2.000000X2.000000*%
%TD*%
%TA.AperFunction,ComponentPad*%
%ADD12C,1.700000*%
%TD*%
%TA.AperFunction,ComponentPad*%
%ADD13R,1.700000X1.700000*%
%TD*%
%TA.AperFunction,ComponentPad*%
%ADD14O,1.700000X1.700000*%
%TD*%
%TA.AperFunction,ComponentPad*%
%ADD15O,2.000000X1.700000*%
%TD*%
%TA.AperFunction,ComponentPad*%
%ADD16O,1.700000X3.000000*%
%TD*%
%TA.AperFunction,ComponentPad*%
%ADD17O,1.800000X3.000000*%
%TD*%
%TA.AperFunction,ComponentPad*%
%ADD18C,1.500000*%
%TD*%
%TA.AperFunction,ComponentPad*%
%ADD19R,1.500000X1.500000*%
%TD*%
%TA.AperFunction,ComponentPad*%
%ADD20O,1.950000X1.700000*%
%TD*%
%TA.AperFunction,ComponentPad*%
%ADD21C,1.600000*%
%TD*%
%TA.AperFunction,SMDPad,CuDef*%
%ADD22R,2.000000X1.800000*%
%TD*%
%TA.AperFunction,SMDPad,CuDef*%
%ADD23C,0.100000*%
%TD*%
%TA.AperFunction,ViaPad*%
%ADD24C,0.800000*%
%TD*%
%TA.AperFunction,Conductor*%
%ADD25C,0.600000*%
%TD*%
%TA.AperFunction,Conductor*%
%ADD26C,0.250000*%
%TD*%
%TA.AperFunction,Conductor*%
%ADD27C,0.254000*%
%TD*%
%TA.AperFunction,Conductor*%
%ADD28C,0.100000*%
%TD*%
G04 APERTURE END LIST*
D10*
%TO.C,JP1*%
G36*
X63432500Y-34383700D02*
G01*
X62932500Y-34383700D01*
X62932500Y-34983700D01*
X63432500Y-34983700D01*
X63432500Y-34383700D01*
G37*
%TO.C,JP4*%
G36*
X86057400Y-53153500D02*
G01*
X86057400Y-53653500D01*
X86657400Y-53653500D01*
X86657400Y-53153500D01*
X86057400Y-53153500D01*
G37*
%TD*%
%TO.P,U2,4*%
%TO.N,+5V*%
%TA.AperFunction,ComponentPad*%
G36*
G01*
X79340200Y-28821000D02*
X79340200Y-27821000D01*
G75*
G02*
X79840200Y-27321000I500000J0D01*
G01*
X80840200Y-27321000D01*
G75*
G02*
X81340200Y-27821000I0J-500000D01*
G01*
X81340200Y-28821000D01*
G75*
G02*
X80840200Y-29321000I-500000J0D01*
G01*
X79840200Y-29321000D01*
G75*
G02*
X79340200Y-28821000I0J500000D01*
G01*
G37*
%TD.AperFunction*%
%TO.P,U2,3*%
%TO.N,+BATT*%
%TA.AperFunction,ComponentPad*%
G36*
G01*
X79340200Y-38981000D02*
X79340200Y-37981000D01*
G75*
G02*
X79840200Y-37481000I500000J0D01*
G01*
X80840200Y-37481000D01*
G75*
G02*
X81340200Y-37981000I0J-500000D01*
G01*
X81340200Y-38981000D01*
G75*
G02*
X80840200Y-39481000I-500000J0D01*
G01*
X79840200Y-39481000D01*
G75*
G02*
X79340200Y-38981000I0J500000D01*
G01*
G37*
%TD.AperFunction*%
%TO.P,U2,2*%
%TO.N,GND*%
%TA.AperFunction,ComponentPad*%
G36*
G01*
X66640200Y-38981000D02*
X66640200Y-37981000D01*
G75*
G02*
X67140200Y-37481000I500000J0D01*
G01*
X68140200Y-37481000D01*
G75*
G02*
X68640200Y-37981000I0J-500000D01*
G01*
X68640200Y-38981000D01*
G75*
G02*
X68140200Y-39481000I-500000J0D01*
G01*
X67140200Y-39481000D01*
G75*
G02*
X66640200Y-38981000I0J500000D01*
G01*
G37*
%TD.AperFunction*%
D11*
%TO.P,U2,1*%
X67640200Y-28321000D03*
%TD*%
D12*
%TO.P,U1,16*%
%TO.N,/DFP_BUSY*%
X96215000Y-46101000D03*
%TO.P,U1,15*%
%TO.N,N/C*%
X96215000Y-43561000D03*
%TO.P,U1,14*%
X96215000Y-41021000D03*
%TO.P,U1,13*%
X96215000Y-38481000D03*
%TO.P,U1,12*%
X96215000Y-35941000D03*
%TO.P,U1,11*%
X96215000Y-33401000D03*
%TO.P,U1,10*%
%TO.N,GND*%
X96215000Y-30861000D03*
%TO.P,U1,9*%
%TO.N,N/C*%
X96215000Y-28321000D03*
%TO.P,U1,8*%
%TO.N,/SPK2*%
X113995000Y-28321000D03*
%TO.P,U1,7*%
%TO.N,GND*%
X113995000Y-30861000D03*
%TO.P,U1,6*%
%TO.N,/SPK1*%
X113995000Y-33401000D03*
%TO.P,U1,5*%
%TO.N,Net-(J18-PadT)*%
X113995000Y-35941000D03*
%TO.P,U1,4*%
%TO.N,Net-(J18-PadS)*%
X113995000Y-38481000D03*
%TO.P,U1,3*%
%TO.N,/D8*%
X113995000Y-41021000D03*
%TO.P,U1,2*%
%TO.N,Net-(R1-Pad2)*%
X113995000Y-43561000D03*
D13*
%TO.P,U1,1*%
%TO.N,/CAP_IN*%
X113995000Y-46101000D03*
%TD*%
D14*
%TO.P,J11,6*%
%TO.N,GND*%
X111556800Y-35991800D03*
%TO.P,J11,5*%
%TO.N,/LCD_RST*%
X109016800Y-35991800D03*
%TO.P,J11,4*%
%TO.N,/COL7*%
X106476800Y-35991800D03*
%TO.P,J11,3*%
%TO.N,/COL8*%
X103936800Y-35991800D03*
%TO.P,J11,2*%
%TO.N,VDD*%
X101396800Y-35991800D03*
D13*
%TO.P,J11,1*%
%TO.N,/COL5*%
X98856800Y-35991800D03*
%TD*%
%TO.P,J10,1*%
%TO.N,/SPK2*%
%TA.AperFunction,ComponentPad*%
G36*
G01*
X66870400Y-63115900D02*
X68020400Y-63115900D01*
G75*
G02*
X68445400Y-63540900I0J-425000D01*
G01*
X68445400Y-64390900D01*
G75*
G02*
X68020400Y-64815900I-425000J0D01*
G01*
X66870400Y-64815900D01*
G75*
G02*
X66445400Y-64390900I0J425000D01*
G01*
X66445400Y-63540900D01*
G75*
G02*
X66870400Y-63115900I425000J0D01*
G01*
G37*
%TD.AperFunction*%
D15*
%TO.P,J10,2*%
%TO.N,/SPK1*%
X67445400Y-61465900D03*
%TD*%
%TO.P,J9,1*%
%TO.N,+BATT*%
%TA.AperFunction,ComponentPad*%
G36*
G01*
X66870400Y-54417300D02*
X68020400Y-54417300D01*
G75*
G02*
X68445400Y-54842300I0J-425000D01*
G01*
X68445400Y-55692300D01*
G75*
G02*
X68020400Y-56117300I-425000J0D01*
G01*
X66870400Y-56117300D01*
G75*
G02*
X66445400Y-55692300I0J425000D01*
G01*
X66445400Y-54842300D01*
G75*
G02*
X66870400Y-54417300I425000J0D01*
G01*
G37*
%TD.AperFunction*%
%TO.P,J9,2*%
%TO.N,GND*%
X67445400Y-52767300D03*
%TD*%
%TO.P,J8,1*%
%TO.N,/SRC_FOR_VDD*%
%TA.AperFunction,ComponentPad*%
G36*
G01*
X66870400Y-45655200D02*
X68020400Y-45655200D01*
G75*
G02*
X68445400Y-46080200I0J-425000D01*
G01*
X68445400Y-46930200D01*
G75*
G02*
X68020400Y-47355200I-425000J0D01*
G01*
X66870400Y-47355200D01*
G75*
G02*
X66445400Y-46930200I0J425000D01*
G01*
X66445400Y-46080200D01*
G75*
G02*
X66870400Y-45655200I425000J0D01*
G01*
G37*
%TD.AperFunction*%
%TO.P,J8,2*%
%TO.N,VDD*%
X67445400Y-44005200D03*
%TD*%
D12*
%TO.P,U3,11*%
%TO.N,/D8*%
X117602600Y-56261000D03*
%TO.P,U3,12*%
%TO.N,/D9*%
X117602600Y-58801000D03*
%TO.P,U3,9*%
%TO.N,/COL2*%
X117602600Y-51181000D03*
%TO.P,U3,10*%
%TO.N,/D7*%
X117602600Y-53721000D03*
%TO.P,U3,16*%
%TO.N,/COL8*%
X132842600Y-51181000D03*
%TO.P,U3,14*%
%TO.N,/COL7*%
X132842600Y-56261000D03*
%TO.P,U3,13*%
%TO.N,/COL3*%
X132842600Y-58801000D03*
%TO.P,U3,15*%
%TO.N,/COL5*%
X132842600Y-53721000D03*
%TO.P,U3,1*%
%TO.N,/D1*%
X117602600Y-30861000D03*
%TO.P,U3,2*%
%TO.N,/D0*%
X117602600Y-33401000D03*
%TO.P,U3,3*%
%TO.N,GND*%
X117602600Y-35941000D03*
%TO.P,U3,4*%
X117602600Y-38481000D03*
%TO.P,U3,5*%
%TO.N,/D2*%
X117602600Y-41021000D03*
%TO.P,U3,6*%
%TO.N,/D3*%
X117602600Y-43561000D03*
%TO.P,U3,7*%
%TO.N,/COL1*%
X117602600Y-46101000D03*
%TO.P,U3,8*%
%TO.N,/D5*%
X117602600Y-48641000D03*
%TO.P,U3,17*%
%TO.N,/A0*%
X132842600Y-48641000D03*
%TO.P,U3,18*%
%TO.N,/A1*%
X132842600Y-46101000D03*
%TO.P,U3,19*%
%TO.N,/A2*%
X132842600Y-43561000D03*
%TO.P,U3,20*%
%TO.N,/A3*%
X132842600Y-41021000D03*
D13*
%TO.P,U3,21*%
%TO.N,VDD*%
X132842600Y-38481000D03*
D12*
%TO.P,U3,22*%
%TO.N,/LCD_RST*%
X132842600Y-35941000D03*
%TO.P,U3,23*%
%TO.N,GND*%
X132842600Y-33401000D03*
D13*
%TO.P,U3,24*%
%TO.N,N/C*%
X132842600Y-30861000D03*
%TD*%
%TO.P,J18,G*%
%TO.N,GND*%
%TA.AperFunction,ComponentPad*%
G36*
G01*
X89866600Y-32417000D02*
X89866600Y-33917000D01*
G75*
G02*
X89116600Y-34667000I-750000J0D01*
G01*
X87616600Y-34667000D01*
G75*
G02*
X86866600Y-33917000I0J750000D01*
G01*
X86866600Y-32417000D01*
G75*
G02*
X87616600Y-31667000I750000J0D01*
G01*
X89116600Y-31667000D01*
G75*
G02*
X89866600Y-32417000I0J-750000D01*
G01*
G37*
%TD.AperFunction*%
D16*
%TO.P,J18,S*%
%TO.N,Net-(J18-PadS)*%
X93451600Y-38267000D03*
%TO.P,J18,T*%
%TO.N,Net-(J18-PadT)*%
X83281600Y-38277800D03*
D17*
%TO.P,J18,R2*%
%TO.N,N/C*%
X90996600Y-38267000D03*
%TO.P,J18,R1*%
X85736600Y-38267000D03*
%TD*%
D18*
%TO.P,C1,2*%
%TO.N,GND*%
X75387200Y-43601700D03*
D19*
%TO.P,C1,1*%
%TO.N,/CAP_IN*%
X75387200Y-47101700D03*
%TD*%
D20*
%TO.P,J1,3*%
%TO.N,VDD*%
X137004000Y-61941100D03*
%TO.P,J1,2*%
%TO.N,GND*%
X137004000Y-64441100D03*
%TO.P,J1,1*%
%TO.N,/D7*%
%TA.AperFunction,ComponentPad*%
G36*
G01*
X137729000Y-67791100D02*
X136279000Y-67791100D01*
G75*
G02*
X136029000Y-67541100I0J250000D01*
G01*
X136029000Y-66341100D01*
G75*
G02*
X136279000Y-66091100I250000J0D01*
G01*
X137729000Y-66091100D01*
G75*
G02*
X137979000Y-66341100I0J-250000D01*
G01*
X137979000Y-67541100D01*
G75*
G02*
X137729000Y-67791100I-250000J0D01*
G01*
G37*
%TD.AperFunction*%
%TD*%
%TO.P,J2,3*%
%TO.N,VDD*%
X73228200Y-58403500D03*
%TO.P,J2,2*%
%TO.N,GND*%
X73228200Y-55903500D03*
%TO.P,J2,1*%
%TO.N,/D5*%
%TA.AperFunction,ComponentPad*%
G36*
G01*
X72503200Y-52553500D02*
X73953200Y-52553500D01*
G75*
G02*
X74203200Y-52803500I0J-250000D01*
G01*
X74203200Y-54003500D01*
G75*
G02*
X73953200Y-54253500I-250000J0D01*
G01*
X72503200Y-54253500D01*
G75*
G02*
X72253200Y-54003500I0J250000D01*
G01*
X72253200Y-52803500D01*
G75*
G02*
X72503200Y-52553500I250000J0D01*
G01*
G37*
%TD.AperFunction*%
%TD*%
%TO.P,J3,3*%
%TO.N,VDD*%
X137004000Y-50206900D03*
%TO.P,J3,2*%
%TO.N,GND*%
X137004000Y-52706900D03*
%TO.P,J3,1*%
%TO.N,/A1*%
%TA.AperFunction,ComponentPad*%
G36*
G01*
X137729000Y-56056900D02*
X136279000Y-56056900D01*
G75*
G02*
X136029000Y-55806900I0J250000D01*
G01*
X136029000Y-54606900D01*
G75*
G02*
X136279000Y-54356900I250000J0D01*
G01*
X137729000Y-54356900D01*
G75*
G02*
X137979000Y-54606900I0J-250000D01*
G01*
X137979000Y-55806900D01*
G75*
G02*
X137729000Y-56056900I-250000J0D01*
G01*
G37*
%TD.AperFunction*%
%TD*%
D21*
%TO.P,R1,1*%
%TO.N,/D9*%
X136804000Y-43705700D03*
%TO.P,R1,2*%
%TO.N,Net-(R1-Pad2)*%
X136804000Y-33705700D03*
%TD*%
D14*
%TO.P,J4,8*%
%TO.N,GND*%
X130162000Y-62372200D03*
%TO.P,J4,7*%
X130162000Y-64912200D03*
%TO.P,J4,6*%
%TO.N,VDD*%
X127622000Y-62372200D03*
%TO.P,J4,5*%
X127622000Y-64912200D03*
%TO.P,J4,4*%
%TO.N,/D3*%
X125082000Y-62372200D03*
%TO.P,J4,3*%
X125082000Y-64912200D03*
%TO.P,J4,2*%
%TO.N,/D2*%
X122542000Y-62372200D03*
D13*
%TO.P,J4,1*%
X122542000Y-64912200D03*
%TD*%
D14*
%TO.P,J5,16*%
%TO.N,/D0*%
X86086400Y-70045900D03*
%TO.P,J5,15*%
%TO.N,/COL8*%
X86086400Y-72585900D03*
%TO.P,J5,14*%
%TO.N,/D0*%
X83546400Y-70045900D03*
%TO.P,J5,13*%
%TO.N,/COL7*%
X83546400Y-72585900D03*
%TO.P,J5,12*%
%TO.N,/D0*%
X81006400Y-70045900D03*
%TO.P,J5,11*%
%TO.N,/A2*%
X81006400Y-72585900D03*
%TO.P,J5,10*%
%TO.N,/D0*%
X78466400Y-70045900D03*
%TO.P,J5,9*%
%TO.N,/COL5*%
X78466400Y-72585900D03*
%TO.P,J5,8*%
%TO.N,/D0*%
X75926400Y-70045900D03*
%TO.P,J5,7*%
%TO.N,/A0*%
X75926400Y-72585900D03*
%TO.P,J5,6*%
%TO.N,/D0*%
X73386400Y-70045900D03*
%TO.P,J5,5*%
%TO.N,/COL3*%
X73386400Y-72585900D03*
%TO.P,J5,4*%
%TO.N,/D0*%
X70846400Y-70045900D03*
%TO.P,J5,3*%
%TO.N,/COL2*%
X70846400Y-72585900D03*
%TO.P,J5,2*%
%TO.N,/D0*%
X68306400Y-70045900D03*
D13*
%TO.P,J5,1*%
%TO.N,/COL1*%
X68306400Y-72585900D03*
%TD*%
%TO.P,J14_GPIO1,1*%
%TO.N,/D0*%
X104877000Y-54663300D03*
D14*
%TO.P,J14_GPIO1,VCC*%
%TO.N,VDD*%
X104877000Y-52123300D03*
%TO.P,J14_GPIO1,2*%
%TO.N,/D1*%
X107417000Y-54663300D03*
%TO.P,J14_GPIO1,VCC*%
%TO.N,VDD*%
X107417000Y-52123300D03*
%TO.P,J14_GPIO1,3*%
%TO.N,/COL1*%
X109957000Y-54663300D03*
%TO.P,J14_GPIO1,VCC*%
%TO.N,VDD*%
X109957000Y-52123300D03*
%TO.P,J14_GPIO1,4*%
%TO.N,/D5*%
X112497000Y-54663300D03*
%TO.P,J14_GPIO1,VCC*%
%TO.N,VDD*%
X112497000Y-52123300D03*
%TO.P,J14_GPIO1,GND*%
%TO.N,GND*%
X112484300Y-49583300D03*
X104864300Y-49583300D03*
X107404300Y-49583300D03*
X109944300Y-49583300D03*
%TD*%
D13*
%TO.P,J15_GPIO2,1*%
%TO.N,/COL2*%
X78066900Y-64185800D03*
D14*
%TO.P,J15_GPIO2,VCC*%
%TO.N,VDD*%
X78066900Y-61645800D03*
%TO.P,J15_GPIO2,2*%
%TO.N,/D7*%
X80606900Y-64185800D03*
%TO.P,J15_GPIO2,VCC*%
%TO.N,VDD*%
X80606900Y-61645800D03*
%TO.P,J15_GPIO2,3*%
%TO.N,/D8*%
X83146900Y-64185800D03*
%TO.P,J15_GPIO2,VCC*%
%TO.N,VDD*%
X83146900Y-61645800D03*
%TO.P,J15_GPIO2,4*%
%TO.N,/D9*%
X85686900Y-64185800D03*
%TO.P,J15_GPIO2,VCC*%
%TO.N,VDD*%
X85686900Y-61645800D03*
%TO.P,J15_GPIO2,GND*%
%TO.N,GND*%
X85674200Y-59105800D03*
X78054200Y-59105800D03*
X80594200Y-59105800D03*
X83134200Y-59105800D03*
%TD*%
D13*
%TO.P,J16_GPIO3,1*%
%TO.N,/COL3*%
X91471900Y-64173100D03*
D14*
%TO.P,J16_GPIO3,VCC*%
%TO.N,VDD*%
X91471900Y-61633100D03*
%TO.P,J16_GPIO3,2*%
%TO.N,/COL5*%
X94011900Y-64173100D03*
%TO.P,J16_GPIO3,VCC*%
%TO.N,VDD*%
X94011900Y-61633100D03*
%TO.P,J16_GPIO3,3*%
%TO.N,/COL8*%
X96551900Y-64173100D03*
%TO.P,J16_GPIO3,VCC*%
%TO.N,VDD*%
X96551900Y-61633100D03*
%TO.P,J16_GPIO3,4*%
%TO.N,/COL7*%
X99091900Y-64173100D03*
%TO.P,J16_GPIO3,VCC*%
%TO.N,VDD*%
X99091900Y-61633100D03*
%TO.P,J16_GPIO3,GND*%
%TO.N,GND*%
X99079200Y-59093100D03*
X91459200Y-59093100D03*
X93999200Y-59093100D03*
X96539200Y-59093100D03*
%TD*%
D13*
%TO.P,J17_GPIO4,1*%
%TO.N,/A0*%
X104877000Y-64173100D03*
D14*
%TO.P,J17_GPIO4,VCC*%
%TO.N,VDD*%
X104877000Y-61633100D03*
%TO.P,J17_GPIO4,2*%
%TO.N,/A1*%
X107417000Y-64173100D03*
%TO.P,J17_GPIO4,VCC*%
%TO.N,VDD*%
X107417000Y-61633100D03*
%TO.P,J17_GPIO4,3*%
%TO.N,/A2*%
X109957000Y-64173100D03*
%TO.P,J17_GPIO4,VCC*%
%TO.N,VDD*%
X109957000Y-61633100D03*
%TO.P,J17_GPIO4,4*%
%TO.N,/A3*%
X112497000Y-64173100D03*
%TO.P,J17_GPIO4,VCC*%
%TO.N,VDD*%
X112497000Y-61633100D03*
%TO.P,J17_GPIO4,GND*%
%TO.N,GND*%
X112484300Y-59093100D03*
X104864300Y-59093100D03*
X107404300Y-59093100D03*
X109944300Y-59093100D03*
%TD*%
D22*
%TO.P,D1,1*%
%TO.N,/SRC_FOR_VDD*%
X88484300Y-43841000D03*
%TO.P,D1,2*%
%TO.N,+5V*%
X92284300Y-43841000D03*
%TD*%
%TO.P,D2,1*%
%TO.N,/SRC_FOR_VDD*%
X84754800Y-43841000D03*
%TO.P,D2,2*%
%TO.N,+BATT*%
X80954800Y-43841000D03*
%TD*%
D14*
%TO.P,J12,5*%
%TO.N,/LCD_CS*%
X92379800Y-48602900D03*
%TO.P,J12,4*%
%TO.N,/A3*%
X89839800Y-48602900D03*
%TO.P,J12,3*%
%TO.N,/LCD_RST*%
X87299800Y-48602900D03*
%TO.P,J12,2*%
%TO.N,/COL7*%
X84759800Y-48602900D03*
D13*
%TO.P,J12,1*%
%TO.N,/COL8*%
X82219800Y-48602900D03*
%TD*%
%TA.AperFunction,SMDPad,CuDef*%
D23*
%TO.P,JP1,1*%
%TO.N,VDD*%
G36*
X63032500Y-35433700D02*
G01*
X62532500Y-35433700D01*
X62532500Y-35433098D01*
X62507966Y-35433098D01*
X62459135Y-35428288D01*
X62411010Y-35418716D01*
X62364055Y-35404472D01*
X62318722Y-35385695D01*
X62275449Y-35362564D01*
X62234650Y-35335304D01*
X62196721Y-35304176D01*
X62162024Y-35269479D01*
X62130896Y-35231550D01*
X62103636Y-35190751D01*
X62080505Y-35147478D01*
X62061728Y-35102145D01*
X62047484Y-35055190D01*
X62037912Y-35007065D01*
X62033102Y-34958234D01*
X62033102Y-34933700D01*
X62032500Y-34933700D01*
X62032500Y-34433700D01*
X62033102Y-34433700D01*
X62033102Y-34409166D01*
X62037912Y-34360335D01*
X62047484Y-34312210D01*
X62061728Y-34265255D01*
X62080505Y-34219922D01*
X62103636Y-34176649D01*
X62130896Y-34135850D01*
X62162024Y-34097921D01*
X62196721Y-34063224D01*
X62234650Y-34032096D01*
X62275449Y-34004836D01*
X62318722Y-33981705D01*
X62364055Y-33962928D01*
X62411010Y-33948684D01*
X62459135Y-33939112D01*
X62507966Y-33934302D01*
X62532500Y-33934302D01*
X62532500Y-33933700D01*
X63032500Y-33933700D01*
X63032500Y-35433700D01*
G37*
%TD.AperFunction*%
%TA.AperFunction,SMDPad,CuDef*%
%TO.P,JP1,2*%
%TO.N,/CAP_IN*%
G36*
X63832500Y-33934302D02*
G01*
X63857034Y-33934302D01*
X63905865Y-33939112D01*
X63953990Y-33948684D01*
X64000945Y-33962928D01*
X64046278Y-33981705D01*
X64089551Y-34004836D01*
X64130350Y-34032096D01*
X64168279Y-34063224D01*
X64202976Y-34097921D01*
X64234104Y-34135850D01*
X64261364Y-34176649D01*
X64284495Y-34219922D01*
X64303272Y-34265255D01*
X64317516Y-34312210D01*
X64327088Y-34360335D01*
X64331898Y-34409166D01*
X64331898Y-34433700D01*
X64332500Y-34433700D01*
X64332500Y-34933700D01*
X64331898Y-34933700D01*
X64331898Y-34958234D01*
X64327088Y-35007065D01*
X64317516Y-35055190D01*
X64303272Y-35102145D01*
X64284495Y-35147478D01*
X64261364Y-35190751D01*
X64234104Y-35231550D01*
X64202976Y-35269479D01*
X64168279Y-35304176D01*
X64130350Y-35335304D01*
X64089551Y-35362564D01*
X64046278Y-35385695D01*
X64000945Y-35404472D01*
X63953990Y-35418716D01*
X63905865Y-35428288D01*
X63857034Y-35433098D01*
X63832500Y-35433098D01*
X63832500Y-35433700D01*
X63332500Y-35433700D01*
X63332500Y-33933700D01*
X63832500Y-33933700D01*
X63832500Y-33934302D01*
G37*
%TD.AperFunction*%
%TD*%
%TA.AperFunction,SMDPad,CuDef*%
%TO.P,JP2,2*%
%TO.N,/CAP_IN*%
G36*
X63870600Y-38188802D02*
G01*
X63895134Y-38188802D01*
X63943965Y-38193612D01*
X63992090Y-38203184D01*
X64039045Y-38217428D01*
X64084378Y-38236205D01*
X64127651Y-38259336D01*
X64168450Y-38286596D01*
X64206379Y-38317724D01*
X64241076Y-38352421D01*
X64272204Y-38390350D01*
X64299464Y-38431149D01*
X64322595Y-38474422D01*
X64341372Y-38519755D01*
X64355616Y-38566710D01*
X64365188Y-38614835D01*
X64369998Y-38663666D01*
X64369998Y-38688200D01*
X64370600Y-38688200D01*
X64370600Y-39188200D01*
X64369998Y-39188200D01*
X64369998Y-39212734D01*
X64365188Y-39261565D01*
X64355616Y-39309690D01*
X64341372Y-39356645D01*
X64322595Y-39401978D01*
X64299464Y-39445251D01*
X64272204Y-39486050D01*
X64241076Y-39523979D01*
X64206379Y-39558676D01*
X64168450Y-39589804D01*
X64127651Y-39617064D01*
X64084378Y-39640195D01*
X64039045Y-39658972D01*
X63992090Y-39673216D01*
X63943965Y-39682788D01*
X63895134Y-39687598D01*
X63870600Y-39687598D01*
X63870600Y-39688200D01*
X63370600Y-39688200D01*
X63370600Y-38188200D01*
X63870600Y-38188200D01*
X63870600Y-38188802D01*
G37*
%TD.AperFunction*%
%TA.AperFunction,SMDPad,CuDef*%
%TO.P,JP2,1*%
%TO.N,/SRC_FOR_VDD*%
G36*
X63070600Y-39688200D02*
G01*
X62570600Y-39688200D01*
X62570600Y-39687598D01*
X62546066Y-39687598D01*
X62497235Y-39682788D01*
X62449110Y-39673216D01*
X62402155Y-39658972D01*
X62356822Y-39640195D01*
X62313549Y-39617064D01*
X62272750Y-39589804D01*
X62234821Y-39558676D01*
X62200124Y-39523979D01*
X62168996Y-39486050D01*
X62141736Y-39445251D01*
X62118605Y-39401978D01*
X62099828Y-39356645D01*
X62085584Y-39309690D01*
X62076012Y-39261565D01*
X62071202Y-39212734D01*
X62071202Y-39188200D01*
X62070600Y-39188200D01*
X62070600Y-38688200D01*
X62071202Y-38688200D01*
X62071202Y-38663666D01*
X62076012Y-38614835D01*
X62085584Y-38566710D01*
X62099828Y-38519755D01*
X62118605Y-38474422D01*
X62141736Y-38431149D01*
X62168996Y-38390350D01*
X62200124Y-38352421D01*
X62234821Y-38317724D01*
X62272750Y-38286596D01*
X62313549Y-38259336D01*
X62356822Y-38236205D01*
X62402155Y-38217428D01*
X62449110Y-38203184D01*
X62497235Y-38193612D01*
X62546066Y-38188802D01*
X62570600Y-38188802D01*
X62570600Y-38188200D01*
X63070600Y-38188200D01*
X63070600Y-39688200D01*
G37*
%TD.AperFunction*%
%TD*%
%TA.AperFunction,SMDPad,CuDef*%
%TO.P,JP3,2*%
%TO.N,/A2*%
G36*
X81761202Y-52753500D02*
G01*
X81761202Y-52728966D01*
X81766012Y-52680135D01*
X81775584Y-52632010D01*
X81789828Y-52585055D01*
X81808605Y-52539722D01*
X81831736Y-52496449D01*
X81858996Y-52455650D01*
X81890124Y-52417721D01*
X81924821Y-52383024D01*
X81962750Y-52351896D01*
X82003549Y-52324636D01*
X82046822Y-52301505D01*
X82092155Y-52282728D01*
X82139110Y-52268484D01*
X82187235Y-52258912D01*
X82236066Y-52254102D01*
X82260600Y-52254102D01*
X82260600Y-52253500D01*
X82760600Y-52253500D01*
X82760600Y-52254102D01*
X82785134Y-52254102D01*
X82833965Y-52258912D01*
X82882090Y-52268484D01*
X82929045Y-52282728D01*
X82974378Y-52301505D01*
X83017651Y-52324636D01*
X83058450Y-52351896D01*
X83096379Y-52383024D01*
X83131076Y-52417721D01*
X83162204Y-52455650D01*
X83189464Y-52496449D01*
X83212595Y-52539722D01*
X83231372Y-52585055D01*
X83245616Y-52632010D01*
X83255188Y-52680135D01*
X83259998Y-52728966D01*
X83259998Y-52753500D01*
X83260600Y-52753500D01*
X83260600Y-53253500D01*
X81760600Y-53253500D01*
X81760600Y-52753500D01*
X81761202Y-52753500D01*
G37*
%TD.AperFunction*%
%TA.AperFunction,SMDPad,CuDef*%
%TO.P,JP3,1*%
%TO.N,/LCD_CS*%
G36*
X83260600Y-53553500D02*
G01*
X83260600Y-54053500D01*
X83259998Y-54053500D01*
X83259998Y-54078034D01*
X83255188Y-54126865D01*
X83245616Y-54174990D01*
X83231372Y-54221945D01*
X83212595Y-54267278D01*
X83189464Y-54310551D01*
X83162204Y-54351350D01*
X83131076Y-54389279D01*
X83096379Y-54423976D01*
X83058450Y-54455104D01*
X83017651Y-54482364D01*
X82974378Y-54505495D01*
X82929045Y-54524272D01*
X82882090Y-54538516D01*
X82833965Y-54548088D01*
X82785134Y-54552898D01*
X82760600Y-54552898D01*
X82760600Y-54553500D01*
X82260600Y-54553500D01*
X82260600Y-54552898D01*
X82236066Y-54552898D01*
X82187235Y-54548088D01*
X82139110Y-54538516D01*
X82092155Y-54524272D01*
X82046822Y-54505495D01*
X82003549Y-54482364D01*
X81962750Y-54455104D01*
X81924821Y-54423976D01*
X81890124Y-54389279D01*
X81858996Y-54351350D01*
X81831736Y-54310551D01*
X81808605Y-54267278D01*
X81789828Y-54221945D01*
X81775584Y-54174990D01*
X81766012Y-54126865D01*
X81761202Y-54078034D01*
X81761202Y-54053500D01*
X81760600Y-54053500D01*
X81760600Y-53553500D01*
X83260600Y-53553500D01*
G37*
%TD.AperFunction*%
%TD*%
%TA.AperFunction,SMDPad,CuDef*%
%TO.P,JP4,1*%
%TO.N,/LCD_CS*%
G36*
X87107400Y-53553500D02*
G01*
X87107400Y-54053500D01*
X87106798Y-54053500D01*
X87106798Y-54078034D01*
X87101988Y-54126865D01*
X87092416Y-54174990D01*
X87078172Y-54221945D01*
X87059395Y-54267278D01*
X87036264Y-54310551D01*
X87009004Y-54351350D01*
X86977876Y-54389279D01*
X86943179Y-54423976D01*
X86905250Y-54455104D01*
X86864451Y-54482364D01*
X86821178Y-54505495D01*
X86775845Y-54524272D01*
X86728890Y-54538516D01*
X86680765Y-54548088D01*
X86631934Y-54552898D01*
X86607400Y-54552898D01*
X86607400Y-54553500D01*
X86107400Y-54553500D01*
X86107400Y-54552898D01*
X86082866Y-54552898D01*
X86034035Y-54548088D01*
X85985910Y-54538516D01*
X85938955Y-54524272D01*
X85893622Y-54505495D01*
X85850349Y-54482364D01*
X85809550Y-54455104D01*
X85771621Y-54423976D01*
X85736924Y-54389279D01*
X85705796Y-54351350D01*
X85678536Y-54310551D01*
X85655405Y-54267278D01*
X85636628Y-54221945D01*
X85622384Y-54174990D01*
X85612812Y-54126865D01*
X85608002Y-54078034D01*
X85608002Y-54053500D01*
X85607400Y-54053500D01*
X85607400Y-53553500D01*
X87107400Y-53553500D01*
G37*
%TD.AperFunction*%
%TA.AperFunction,SMDPad,CuDef*%
%TO.P,JP4,2*%
%TO.N,GND*%
G36*
X85608002Y-52753500D02*
G01*
X85608002Y-52728966D01*
X85612812Y-52680135D01*
X85622384Y-52632010D01*
X85636628Y-52585055D01*
X85655405Y-52539722D01*
X85678536Y-52496449D01*
X85705796Y-52455650D01*
X85736924Y-52417721D01*
X85771621Y-52383024D01*
X85809550Y-52351896D01*
X85850349Y-52324636D01*
X85893622Y-52301505D01*
X85938955Y-52282728D01*
X85985910Y-52268484D01*
X86034035Y-52258912D01*
X86082866Y-52254102D01*
X86107400Y-52254102D01*
X86107400Y-52253500D01*
X86607400Y-52253500D01*
X86607400Y-52254102D01*
X86631934Y-52254102D01*
X86680765Y-52258912D01*
X86728890Y-52268484D01*
X86775845Y-52282728D01*
X86821178Y-52301505D01*
X86864451Y-52324636D01*
X86905250Y-52351896D01*
X86943179Y-52383024D01*
X86977876Y-52417721D01*
X87009004Y-52455650D01*
X87036264Y-52496449D01*
X87059395Y-52539722D01*
X87078172Y-52585055D01*
X87092416Y-52632010D01*
X87101988Y-52680135D01*
X87106798Y-52728966D01*
X87106798Y-52753500D01*
X87107400Y-52753500D01*
X87107400Y-53253500D01*
X85607400Y-53253500D01*
X85607400Y-52753500D01*
X85608002Y-52753500D01*
G37*
%TD.AperFunction*%
%TD*%
%TA.AperFunction,SMDPad,CuDef*%
%TO.P,JP5,2*%
%TO.N,/COL5*%
G36*
X99976700Y-48285302D02*
G01*
X100001234Y-48285302D01*
X100050065Y-48290112D01*
X100098190Y-48299684D01*
X100145145Y-48313928D01*
X100190478Y-48332705D01*
X100233751Y-48355836D01*
X100274550Y-48383096D01*
X100312479Y-48414224D01*
X100347176Y-48448921D01*
X100378304Y-48486850D01*
X100405564Y-48527649D01*
X100428695Y-48570922D01*
X100447472Y-48616255D01*
X100461716Y-48663210D01*
X100471288Y-48711335D01*
X100476098Y-48760166D01*
X100476098Y-48784700D01*
X100476700Y-48784700D01*
X100476700Y-49284700D01*
X100476098Y-49284700D01*
X100476098Y-49309234D01*
X100471288Y-49358065D01*
X100461716Y-49406190D01*
X100447472Y-49453145D01*
X100428695Y-49498478D01*
X100405564Y-49541751D01*
X100378304Y-49582550D01*
X100347176Y-49620479D01*
X100312479Y-49655176D01*
X100274550Y-49686304D01*
X100233751Y-49713564D01*
X100190478Y-49736695D01*
X100145145Y-49755472D01*
X100098190Y-49769716D01*
X100050065Y-49779288D01*
X100001234Y-49784098D01*
X99976700Y-49784098D01*
X99976700Y-49784700D01*
X99476700Y-49784700D01*
X99476700Y-48284700D01*
X99976700Y-48284700D01*
X99976700Y-48285302D01*
G37*
%TD.AperFunction*%
%TA.AperFunction,SMDPad,CuDef*%
%TO.P,JP5,1*%
%TO.N,/DFP_BUSY*%
G36*
X99176700Y-49784700D02*
G01*
X98676700Y-49784700D01*
X98676700Y-49784098D01*
X98652166Y-49784098D01*
X98603335Y-49779288D01*
X98555210Y-49769716D01*
X98508255Y-49755472D01*
X98462922Y-49736695D01*
X98419649Y-49713564D01*
X98378850Y-49686304D01*
X98340921Y-49655176D01*
X98306224Y-49620479D01*
X98275096Y-49582550D01*
X98247836Y-49541751D01*
X98224705Y-49498478D01*
X98205928Y-49453145D01*
X98191684Y-49406190D01*
X98182112Y-49358065D01*
X98177302Y-49309234D01*
X98177302Y-49284700D01*
X98176700Y-49284700D01*
X98176700Y-48784700D01*
X98177302Y-48784700D01*
X98177302Y-48760166D01*
X98182112Y-48711335D01*
X98191684Y-48663210D01*
X98205928Y-48616255D01*
X98224705Y-48570922D01*
X98247836Y-48527649D01*
X98275096Y-48486850D01*
X98306224Y-48448921D01*
X98340921Y-48414224D01*
X98378850Y-48383096D01*
X98419649Y-48355836D01*
X98462922Y-48332705D01*
X98508255Y-48313928D01*
X98555210Y-48299684D01*
X98603335Y-48290112D01*
X98652166Y-48285302D01*
X98676700Y-48285302D01*
X98676700Y-48284700D01*
X99176700Y-48284700D01*
X99176700Y-49784700D01*
G37*
%TD.AperFunction*%
%TD*%
D14*
%TO.P,J13,4*%
%TO.N,/COL5*%
X99098100Y-53213000D03*
%TO.P,J13,3*%
%TO.N,/COL7*%
X96558100Y-53213000D03*
%TO.P,J13,2*%
%TO.N,/COL8*%
X94018100Y-53213000D03*
D13*
%TO.P,J13,1*%
%TO.N,Net-(J13-Pad1)*%
X91478100Y-53213000D03*
%TD*%
%TA.AperFunction,SMDPad,CuDef*%
D23*
%TO.P,JP6,2*%
%TO.N,/A1*%
G36*
X77914402Y-52753500D02*
G01*
X77914402Y-52728966D01*
X77919212Y-52680135D01*
X77928784Y-52632010D01*
X77943028Y-52585055D01*
X77961805Y-52539722D01*
X77984936Y-52496449D01*
X78012196Y-52455650D01*
X78043324Y-52417721D01*
X78078021Y-52383024D01*
X78115950Y-52351896D01*
X78156749Y-52324636D01*
X78200022Y-52301505D01*
X78245355Y-52282728D01*
X78292310Y-52268484D01*
X78340435Y-52258912D01*
X78389266Y-52254102D01*
X78413800Y-52254102D01*
X78413800Y-52253500D01*
X78913800Y-52253500D01*
X78913800Y-52254102D01*
X78938334Y-52254102D01*
X78987165Y-52258912D01*
X79035290Y-52268484D01*
X79082245Y-52282728D01*
X79127578Y-52301505D01*
X79170851Y-52324636D01*
X79211650Y-52351896D01*
X79249579Y-52383024D01*
X79284276Y-52417721D01*
X79315404Y-52455650D01*
X79342664Y-52496449D01*
X79365795Y-52539722D01*
X79384572Y-52585055D01*
X79398816Y-52632010D01*
X79408388Y-52680135D01*
X79413198Y-52728966D01*
X79413198Y-52753500D01*
X79413800Y-52753500D01*
X79413800Y-53253500D01*
X77913800Y-53253500D01*
X77913800Y-52753500D01*
X77914402Y-52753500D01*
G37*
%TD.AperFunction*%
%TA.AperFunction,SMDPad,CuDef*%
%TO.P,JP6,1*%
%TO.N,Net-(J13-Pad1)*%
G36*
X79413800Y-53553500D02*
G01*
X79413800Y-54053500D01*
X79413198Y-54053500D01*
X79413198Y-54078034D01*
X79408388Y-54126865D01*
X79398816Y-54174990D01*
X79384572Y-54221945D01*
X79365795Y-54267278D01*
X79342664Y-54310551D01*
X79315404Y-54351350D01*
X79284276Y-54389279D01*
X79249579Y-54423976D01*
X79211650Y-54455104D01*
X79170851Y-54482364D01*
X79127578Y-54505495D01*
X79082245Y-54524272D01*
X79035290Y-54538516D01*
X78987165Y-54548088D01*
X78938334Y-54552898D01*
X78913800Y-54552898D01*
X78913800Y-54553500D01*
X78413800Y-54553500D01*
X78413800Y-54552898D01*
X78389266Y-54552898D01*
X78340435Y-54548088D01*
X78292310Y-54538516D01*
X78245355Y-54524272D01*
X78200022Y-54505495D01*
X78156749Y-54482364D01*
X78115950Y-54455104D01*
X78078021Y-54423976D01*
X78043324Y-54389279D01*
X78012196Y-54351350D01*
X77984936Y-54310551D01*
X77961805Y-54267278D01*
X77943028Y-54221945D01*
X77928784Y-54174990D01*
X77919212Y-54126865D01*
X77914402Y-54078034D01*
X77914402Y-54053500D01*
X77913800Y-54053500D01*
X77913800Y-53553500D01*
X79413800Y-53553500D01*
G37*
%TD.AperFunction*%
%TD*%
D14*
%TO.P,J6,16*%
%TO.N,/D1*%
X109248700Y-70045900D03*
%TO.P,J6,15*%
%TO.N,/COL8*%
X109248700Y-72585900D03*
%TO.P,J6,14*%
%TO.N,/D1*%
X106708700Y-70045900D03*
%TO.P,J6,13*%
%TO.N,/COL7*%
X106708700Y-72585900D03*
%TO.P,J6,12*%
%TO.N,/D1*%
X104168700Y-70045900D03*
%TO.P,J6,11*%
%TO.N,/A2*%
X104168700Y-72585900D03*
%TO.P,J6,10*%
%TO.N,/D1*%
X101628700Y-70045900D03*
%TO.P,J6,9*%
%TO.N,/COL5*%
X101628700Y-72585900D03*
%TO.P,J6,8*%
%TO.N,/D1*%
X99088700Y-70045900D03*
%TO.P,J6,7*%
%TO.N,/A0*%
X99088700Y-72585900D03*
%TO.P,J6,6*%
%TO.N,/D1*%
X96548700Y-70045900D03*
%TO.P,J6,5*%
%TO.N,/COL3*%
X96548700Y-72585900D03*
%TO.P,J6,4*%
%TO.N,/D1*%
X94008700Y-70045900D03*
%TO.P,J6,3*%
%TO.N,/COL2*%
X94008700Y-72585900D03*
%TO.P,J6,2*%
%TO.N,/D1*%
X91468700Y-70045900D03*
D13*
%TO.P,J6,1*%
%TO.N,/COL1*%
X91468700Y-72585900D03*
%TD*%
D14*
%TO.P,J7,16*%
%TO.N,/D5*%
X132411000Y-70045900D03*
%TO.P,J7,15*%
%TO.N,/COL8*%
X132411000Y-72585900D03*
%TO.P,J7,14*%
%TO.N,/D5*%
X129871000Y-70045900D03*
%TO.P,J7,13*%
%TO.N,/COL7*%
X129871000Y-72585900D03*
%TO.P,J7,12*%
%TO.N,/D5*%
X127331000Y-70045900D03*
%TO.P,J7,11*%
%TO.N,/A2*%
X127331000Y-72585900D03*
%TO.P,J7,10*%
%TO.N,/D5*%
X124791000Y-70045900D03*
%TO.P,J7,9*%
%TO.N,/COL5*%
X124791000Y-72585900D03*
%TO.P,J7,8*%
%TO.N,/D5*%
X122251000Y-70045900D03*
%TO.P,J7,7*%
%TO.N,/A0*%
X122251000Y-72585900D03*
%TO.P,J7,6*%
%TO.N,/D5*%
X119711000Y-70045900D03*
%TO.P,J7,5*%
%TO.N,/COL3*%
X119711000Y-72585900D03*
%TO.P,J7,4*%
%TO.N,/D5*%
X117171000Y-70045900D03*
%TO.P,J7,3*%
%TO.N,/COL2*%
X117171000Y-72585900D03*
%TO.P,J7,2*%
%TO.N,/D5*%
X114631000Y-70045900D03*
D13*
%TO.P,J7,1*%
%TO.N,/COL1*%
X114631000Y-72585900D03*
%TD*%
D24*
%TO.N,/D0*%
X106846100Y-56631400D03*
X91509200Y-55857100D03*
X120180100Y-53784500D03*
%TO.N,VDD*%
X101370100Y-47066900D03*
%TO.N,/A3*%
X120660410Y-61879500D03*
%TO.N,/A0*%
X119476600Y-65380200D03*
%TO.N,/COL2*%
X91969700Y-67187100D03*
X115966900Y-67187100D03*
%TO.N,/COL5*%
X88527400Y-73462600D03*
X99747900Y-47033400D03*
%TO.N,/A1*%
X102692500Y-54646700D03*
%TO.N,/A2*%
X83877700Y-52753500D03*
%TO.N,/D7*%
X117903500Y-66295700D03*
%TO.N,/COL7*%
X89680600Y-62616900D03*
%TO.N,/D8*%
X118754600Y-49577300D03*
%TD*%
D25*
%TO.N,/CAP_IN*%
X75387200Y-47101700D02*
X74136900Y-47101700D01*
X74136900Y-47101700D02*
X67893100Y-40857900D01*
X67893100Y-40857900D02*
X65790300Y-40857900D01*
X65790300Y-40857900D02*
X63870600Y-38938200D01*
X63870600Y-38938200D02*
X63870600Y-34721800D01*
X63870600Y-34721800D02*
X63832500Y-34683700D01*
%TO.N,GND*%
X91459200Y-59093100D02*
X90108900Y-59093100D01*
X85674200Y-59105800D02*
X90096200Y-59105800D01*
X90096200Y-59105800D02*
X90108900Y-59093100D01*
X83134200Y-59105800D02*
X85674200Y-59105800D01*
X113995000Y-30861000D02*
X116231200Y-33097200D01*
X116231200Y-33097200D02*
X116231200Y-34270500D01*
X116231200Y-34270500D02*
X117602600Y-35641900D01*
X88366600Y-33167000D02*
X90672600Y-30861000D01*
X90672600Y-30861000D02*
X96215000Y-30861000D01*
X86357400Y-52753500D02*
X85348800Y-51744900D01*
X85348800Y-51744900D02*
X72460500Y-51744900D01*
X72460500Y-51744900D02*
X71740600Y-52464800D01*
X71740600Y-52464800D02*
X71740600Y-54415900D01*
X71740600Y-54415900D02*
X73228200Y-55903500D01*
X96539200Y-59093100D02*
X99079200Y-59093100D01*
X93999200Y-59093100D02*
X96539200Y-59093100D01*
X96215000Y-30861000D02*
X113995000Y-30861000D01*
X130162000Y-64441100D02*
X130162000Y-63722500D01*
X130162000Y-64912200D02*
X130162000Y-64441100D01*
X135528700Y-64441100D02*
X130162000Y-64441100D01*
X137004000Y-64441100D02*
X135528700Y-64441100D01*
X130162000Y-62372200D02*
X130162000Y-63722500D01*
X107404300Y-59093100D02*
X109944300Y-59093100D01*
X104864300Y-59093100D02*
X107404300Y-59093100D01*
X83134200Y-59105800D02*
X80594200Y-59105800D01*
X67640200Y-38481000D02*
X67640200Y-28321000D01*
X117602600Y-35641900D02*
X130601700Y-35641900D01*
X130601700Y-35641900D02*
X132842600Y-33401000D01*
X117602600Y-35641900D02*
X117602600Y-35941000D01*
X107404300Y-49583300D02*
X109944300Y-49583300D01*
X104864300Y-49583300D02*
X107404300Y-49583300D01*
X112484300Y-49583300D02*
X109944300Y-49583300D01*
X99079200Y-59093100D02*
X104864300Y-59093100D01*
X112484300Y-59093100D02*
X109944300Y-59093100D01*
X76430500Y-59105800D02*
X73228200Y-55903500D01*
X78054200Y-59105800D02*
X76430500Y-59105800D01*
%TO.N,+5V*%
X92284300Y-43841000D02*
X92284300Y-42440700D01*
X92284300Y-42440700D02*
X84873000Y-42440700D01*
X84873000Y-42440700D02*
X81836800Y-39404500D01*
X81836800Y-39404500D02*
X81836800Y-29817600D01*
X81836800Y-29817600D02*
X80340200Y-28321000D01*
%TO.N,/SRC_FOR_VDD*%
X84754800Y-43841000D02*
X86984000Y-43841000D01*
X68960900Y-44989700D02*
X72328500Y-48357300D01*
X72328500Y-48357300D02*
X77491900Y-48357300D01*
X77491900Y-48357300D02*
X80593200Y-45256000D01*
X80593200Y-45256000D02*
X83339800Y-45256000D01*
X83339800Y-45256000D02*
X84754800Y-43841000D01*
X88484300Y-43841000D02*
X86984000Y-43841000D01*
X68960900Y-44989700D02*
X67445400Y-46505200D01*
X62570600Y-38938200D02*
X62570600Y-39649600D01*
X62570600Y-39649600D02*
X64862000Y-41941000D01*
X64862000Y-41941000D02*
X67459300Y-41941000D01*
X67459300Y-41941000D02*
X68960900Y-43442600D01*
X68960900Y-43442600D02*
X68960900Y-44989700D01*
%TO.N,+BATT*%
X80954800Y-43841000D02*
X80954800Y-42440700D01*
X80954800Y-42440700D02*
X80340200Y-41826100D01*
X80340200Y-41826100D02*
X80340200Y-38481000D01*
D26*
%TO.N,/D0*%
X103701700Y-54663300D02*
X102507900Y-55857100D01*
X102507900Y-55857100D02*
X91509200Y-55857100D01*
X104877000Y-54663300D02*
X103701700Y-54663300D01*
X70846400Y-70045900D02*
X68306400Y-70045900D01*
X73386400Y-70045900D02*
X70846400Y-70045900D01*
X75926400Y-70045900D02*
X73386400Y-70045900D01*
X78466400Y-70045900D02*
X75926400Y-70045900D01*
X81006400Y-70045900D02*
X78466400Y-70045900D01*
X83546400Y-70045900D02*
X81006400Y-70045900D01*
X86086400Y-70045900D02*
X83546400Y-70045900D01*
X113750500Y-56631400D02*
X115390900Y-54991000D01*
X115390900Y-54991000D02*
X118973600Y-54991000D01*
X118973600Y-54991000D02*
X120180100Y-53784500D01*
X106846100Y-56631400D02*
X113750500Y-56631400D01*
D25*
%TO.N,VDD*%
X90121600Y-61633100D02*
X90108900Y-61645800D01*
X90108900Y-61645800D02*
X87037200Y-61645800D01*
X104877000Y-52123300D02*
X101370100Y-48616400D01*
X101370100Y-48616400D02*
X101370100Y-47066900D01*
X107417000Y-52123300D02*
X104877000Y-52123300D01*
X127622000Y-62372200D02*
X127622000Y-61021900D01*
X109957000Y-61633100D02*
X112497000Y-61633100D01*
X62532500Y-34683700D02*
X61536500Y-35679700D01*
X61536500Y-35679700D02*
X61536500Y-39791700D01*
X61536500Y-39791700D02*
X65750000Y-44005200D01*
X65750000Y-44005200D02*
X65891500Y-44005200D01*
X65891500Y-44005200D02*
X65891500Y-47672600D01*
X65891500Y-47672600D02*
X70194700Y-51975800D01*
X70194700Y-51975800D02*
X70194700Y-55370000D01*
X70194700Y-55370000D02*
X73228200Y-58403500D01*
X65891500Y-44005200D02*
X65945100Y-44005200D01*
X67445400Y-44005200D02*
X65945100Y-44005200D01*
X127622000Y-62372200D02*
X127622000Y-64912200D01*
X83146900Y-61645800D02*
X84336600Y-61645800D01*
X80606900Y-61645800D02*
X83146900Y-61645800D01*
X85686900Y-61645800D02*
X84336600Y-61645800D01*
X78066900Y-61645800D02*
X80606900Y-61645800D01*
X91471900Y-61633100D02*
X90121600Y-61633100D01*
X109957000Y-52123300D02*
X112497000Y-52123300D01*
X107417000Y-52123300D02*
X109957000Y-52123300D01*
X109957000Y-61633100D02*
X107417000Y-61633100D01*
X104877000Y-61633100D02*
X107417000Y-61633100D01*
X86362100Y-61645800D02*
X85686900Y-61645800D01*
X86362100Y-61645800D02*
X87037200Y-61645800D01*
X94011900Y-61633100D02*
X91471900Y-61633100D01*
X96551900Y-61633100D02*
X94011900Y-61633100D01*
X99091900Y-61633100D02*
X96551900Y-61633100D01*
X136084800Y-61021900D02*
X127622000Y-61021900D01*
X137004000Y-61941100D02*
X136084800Y-61021900D01*
X116459000Y-61633100D02*
X112497000Y-61633100D01*
X117070200Y-61021900D02*
X116459000Y-61633100D01*
X120135100Y-61021900D02*
X117070200Y-61021900D01*
X120177800Y-60979200D02*
X120135100Y-61021900D01*
X127579300Y-60979200D02*
X120177800Y-60979200D01*
X127622000Y-61021900D02*
X127579300Y-60979200D01*
X76470500Y-61645800D02*
X78066900Y-61645800D01*
X73228200Y-58403500D02*
X76470500Y-61645800D01*
D26*
%TO.N,/A3*%
X118366810Y-64173100D02*
X120660410Y-61879500D01*
X112497000Y-64173100D02*
X118366810Y-64173100D01*
%TO.N,/COL1*%
X113455700Y-72585900D02*
X109739000Y-68869200D01*
X109739000Y-68869200D02*
X90971100Y-68869200D01*
X90971100Y-68869200D02*
X90293400Y-69546900D01*
X90293400Y-69546900D02*
X90293400Y-70602700D01*
X90293400Y-70602700D02*
X89485500Y-71410600D01*
X89485500Y-71410600D02*
X70289600Y-71410600D01*
X70289600Y-71410600D02*
X69481700Y-72218500D01*
X69481700Y-72218500D02*
X69481700Y-72585900D01*
X68306400Y-72585900D02*
X69481700Y-72585900D01*
X114631000Y-72585900D02*
X113455700Y-72585900D01*
X91468700Y-71778000D02*
X91468700Y-72585900D01*
X90293400Y-70602700D02*
X91468700Y-71778000D01*
%TO.N,/A0*%
X77557000Y-74216500D02*
X75926400Y-72585900D01*
X95278700Y-72995100D02*
X94057300Y-74216500D01*
X95278700Y-72191700D02*
X95278700Y-72995100D01*
X96059900Y-71410500D02*
X95278700Y-72191700D01*
X94057300Y-74216500D02*
X77557000Y-74216500D01*
X97913300Y-71410500D02*
X96059900Y-71410500D01*
X99088700Y-72585900D02*
X97913300Y-71410500D01*
X105685000Y-64173100D02*
X104877000Y-64173100D01*
X106892100Y-65380200D02*
X105685000Y-64173100D01*
X119476600Y-65380200D02*
X106892100Y-65380200D01*
%TO.N,/COL2*%
X115966900Y-67187100D02*
X91969700Y-67187100D01*
X91969700Y-67187100D02*
X81876200Y-67187100D01*
X81876200Y-67187100D02*
X79242200Y-64553100D01*
X79242200Y-64553100D02*
X79242200Y-64185800D01*
X78066900Y-64185800D02*
X79242200Y-64185800D01*
%TO.N,/COL3*%
X96548700Y-72585900D02*
X96548700Y-73761200D01*
X75489200Y-74688700D02*
X73386400Y-72585900D01*
X76297200Y-74688700D02*
X75489200Y-74688700D01*
X76302000Y-74693500D02*
X76297200Y-74688700D01*
X95616400Y-74693500D02*
X76302000Y-74693500D01*
X96548700Y-73761200D02*
X95616400Y-74693500D01*
X104736100Y-73761200D02*
X96548700Y-73761200D01*
X105438700Y-72154900D02*
X105438700Y-73058600D01*
X106183100Y-71410500D02*
X105438700Y-72154900D01*
X111295500Y-71410500D02*
X106183100Y-71410500D01*
X113646200Y-73761200D02*
X111295500Y-71410500D01*
X118535700Y-73761200D02*
X113646200Y-73761200D01*
X105438700Y-73058600D02*
X104736100Y-73761200D01*
X119711000Y-72585900D02*
X118535700Y-73761200D01*
%TO.N,/COL5*%
X99747900Y-47033400D02*
X100456400Y-46324900D01*
X100456400Y-46324900D02*
X111984200Y-46324900D01*
X111984200Y-46324900D02*
X115570300Y-49911000D01*
X115570300Y-49911000D02*
X118062600Y-49911000D01*
X118062600Y-49911000D02*
X119199000Y-51047400D01*
X119199000Y-51047400D02*
X130169000Y-51047400D01*
X130169000Y-51047400D02*
X132842600Y-53721000D01*
X99976700Y-49034700D02*
X99747900Y-48805900D01*
X99747900Y-48805900D02*
X99747900Y-47033400D01*
X79641700Y-73761200D02*
X78466400Y-72585900D01*
X88228800Y-73761200D02*
X79641700Y-73761200D01*
X88527400Y-73462600D02*
X88228800Y-73761200D01*
X99976700Y-52334400D02*
X99976700Y-49034700D01*
X99098100Y-53213000D02*
X99976700Y-52334400D01*
%TO.N,/A1*%
X134089500Y-54899900D02*
X134089500Y-47347900D01*
X134089500Y-47347900D02*
X132842600Y-46101000D01*
X137004000Y-55206900D02*
X136697000Y-54899900D01*
X136697000Y-54899900D02*
X134089500Y-54899900D01*
X78663800Y-52753500D02*
X78183600Y-52753500D01*
X78183600Y-52753500D02*
X77583200Y-53353900D01*
X77583200Y-53353900D02*
X77583200Y-54386700D01*
X77583200Y-54386700D02*
X78559500Y-55363000D01*
X78559500Y-55363000D02*
X90516500Y-55363000D01*
X90516500Y-55363000D02*
X91027000Y-54852500D01*
X91027000Y-54852500D02*
X102486700Y-54852500D01*
X102486700Y-54852500D02*
X102692500Y-54646700D01*
X131186800Y-54899900D02*
X134089500Y-54899900D01*
X128737900Y-52451000D02*
X131186800Y-54899900D01*
X115390900Y-52451000D02*
X128737900Y-52451000D01*
X114354000Y-53487900D02*
X115390900Y-52451000D01*
X103851300Y-53487900D02*
X114354000Y-53487900D01*
X102692500Y-54646700D02*
X103851300Y-53487900D01*
%TO.N,/A2*%
X82510600Y-52753500D02*
X83877700Y-52753500D01*
D25*
%TO.N,/SPK2*%
X113995000Y-28321000D02*
X132943100Y-28321000D01*
X132943100Y-28321000D02*
X136913500Y-32291400D01*
X136913500Y-32291400D02*
X137285800Y-32291400D01*
X137285800Y-32291400D02*
X138999800Y-34005400D01*
X138999800Y-34005400D02*
X138999800Y-67369600D01*
X138999800Y-67369600D02*
X138076600Y-68292800D01*
X138076600Y-68292800D02*
X135969500Y-68292800D01*
X135969500Y-68292800D02*
X135915100Y-68238400D01*
X135915100Y-68238400D02*
X71717900Y-68238400D01*
X71717900Y-68238400D02*
X67445400Y-63965900D01*
D26*
%TO.N,/D1*%
X106708700Y-70045900D02*
X109248700Y-70045900D01*
X104168700Y-70045900D02*
X106708700Y-70045900D01*
X99088700Y-70045900D02*
X100453400Y-70045900D01*
X96548700Y-70045900D02*
X99088700Y-70045900D01*
X101628700Y-70045900D02*
X100453400Y-70045900D01*
X101628700Y-70045900D02*
X104168700Y-70045900D01*
X94008700Y-70045900D02*
X96548700Y-70045900D01*
X91468700Y-70045900D02*
X94008700Y-70045900D01*
%TO.N,Net-(R1-Pad2)*%
X113995000Y-43561000D02*
X115265000Y-42291000D01*
X115265000Y-42291000D02*
X129672400Y-42291000D01*
X129672400Y-42291000D02*
X132307000Y-39656400D01*
X132307000Y-39656400D02*
X133843200Y-39656400D01*
X133843200Y-39656400D02*
X136804000Y-36695600D01*
X136804000Y-36695600D02*
X136804000Y-33705700D01*
%TO.N,/D7*%
X117903500Y-66295700D02*
X136358600Y-66295700D01*
X136358600Y-66295700D02*
X137004000Y-66941100D01*
X82716800Y-66295700D02*
X117903500Y-66295700D01*
X80606900Y-64185800D02*
X82716800Y-66295700D01*
%TO.N,/COL7*%
X97916600Y-62997800D02*
X90061500Y-62997800D01*
X90061500Y-62997800D02*
X89680600Y-62616900D01*
X99091900Y-64173100D02*
X97916600Y-62997800D01*
X108815100Y-74692300D02*
X106708700Y-72585900D01*
X127764600Y-74692300D02*
X108815100Y-74692300D01*
X129871000Y-72585900D02*
X127764600Y-74692300D01*
X97637600Y-44831000D02*
X106476800Y-35991800D01*
X95007600Y-45636200D02*
X95812800Y-44831000D01*
X95007600Y-51662500D02*
X95007600Y-45636200D01*
X95812800Y-44831000D02*
X97637600Y-44831000D01*
X96558100Y-53213000D02*
X95007600Y-51662500D01*
X92867700Y-47427600D02*
X85935100Y-47427600D01*
X93560700Y-48120600D02*
X92867700Y-47427600D01*
X92824900Y-50058000D02*
X93560700Y-49322200D01*
X92824900Y-53727300D02*
X92824900Y-50058000D01*
X93499700Y-54402100D02*
X92824900Y-53727300D01*
X85935100Y-47427600D02*
X84759800Y-48602900D01*
X93560700Y-49322200D02*
X93560700Y-48120600D01*
X95369000Y-54402100D02*
X93499700Y-54402100D01*
X96558100Y-53213000D02*
X95369000Y-54402100D01*
%TO.N,/D3*%
X125082000Y-64912200D02*
X125082000Y-62372200D01*
%TO.N,/D8*%
X88149200Y-63010500D02*
X84322200Y-63010500D01*
X90487100Y-65348400D02*
X88149200Y-63010500D01*
X100301300Y-64648000D02*
X99600900Y-65348400D01*
X99528800Y-60356800D02*
X100301300Y-61129300D01*
X99600900Y-65348400D02*
X90487100Y-65348400D01*
X93587000Y-60356800D02*
X99528800Y-60356800D01*
X84322200Y-63010500D02*
X83146900Y-64185800D01*
X92823800Y-59593600D02*
X93587000Y-60356800D01*
X100301300Y-61129300D02*
X100301300Y-64648000D01*
X92823800Y-58604200D02*
X92823800Y-59593600D01*
X93870200Y-57557800D02*
X92823800Y-58604200D01*
X116305800Y-57557800D02*
X93870200Y-57557800D01*
X117602600Y-56261000D02*
X116305800Y-57557800D01*
X116370100Y-47358300D02*
X117995800Y-47358300D01*
X115595400Y-46583600D02*
X116370100Y-47358300D01*
X118792200Y-49539700D02*
X118754600Y-49577300D01*
X115044400Y-44925600D02*
X115595400Y-45476600D01*
X118792200Y-48154700D02*
X118792200Y-49539700D01*
X113665500Y-44925600D02*
X115044400Y-44925600D01*
X115595400Y-45476600D02*
X115595400Y-46583600D01*
X112816400Y-44076500D02*
X113665500Y-44925600D01*
X112816400Y-42199600D02*
X112816400Y-44076500D01*
X117995800Y-47358300D02*
X118792200Y-48154700D01*
X113995000Y-41021000D02*
X112816400Y-42199600D01*
%TO.N,/D9*%
X117602600Y-58801000D02*
X118783200Y-57620400D01*
X118783200Y-57620400D02*
X136741300Y-57620400D01*
X136741300Y-57620400D02*
X138343300Y-56018400D01*
X138343300Y-56018400D02*
X138343300Y-45245000D01*
X138343300Y-45245000D02*
X136804000Y-43705700D01*
X100910700Y-64675500D02*
X99787500Y-65798700D01*
X99787500Y-65798700D02*
X87299800Y-65798700D01*
X100910700Y-63920900D02*
X100910700Y-64675500D01*
X87299800Y-65798700D02*
X85686900Y-64185800D01*
X104435100Y-60396500D02*
X100910700Y-63920900D01*
X116007100Y-60396500D02*
X104435100Y-60396500D01*
X117602600Y-58801000D02*
X116007100Y-60396500D01*
%TO.N,/LCD_RST*%
X131614100Y-37169500D02*
X132842600Y-35941000D01*
X110194500Y-37169500D02*
X131614100Y-37169500D01*
X109016800Y-35991800D02*
X110194500Y-37169500D01*
%TO.N,/LCD_CS*%
X82510600Y-54053500D02*
X86357400Y-54053500D01*
X86929200Y-54053500D02*
X86357400Y-54053500D01*
X92379800Y-48602900D02*
X86929200Y-54053500D01*
%TO.N,/DFP_BUSY*%
X98676700Y-49034700D02*
X96215000Y-46573000D01*
X96215000Y-46573000D02*
X96215000Y-46101000D01*
%TO.N,/D5*%
X124791000Y-70045900D02*
X122251000Y-70045900D01*
X127331000Y-70045900D02*
X124791000Y-70045900D01*
X117171000Y-70045900D02*
X114631000Y-70045900D01*
X119711000Y-70045900D02*
X117171000Y-70045900D01*
X122251000Y-70045900D02*
X119711000Y-70045900D01*
X129871000Y-70045900D02*
X127331000Y-70045900D01*
X132411000Y-70045900D02*
X129871000Y-70045900D01*
X76458100Y-56633400D02*
X73228200Y-53403500D01*
X102765600Y-56633400D02*
X76458100Y-56633400D01*
X103560400Y-55838600D02*
X102765600Y-56633400D01*
X111321700Y-55838600D02*
X103560400Y-55838600D01*
X112497000Y-54663300D02*
X111321700Y-55838600D01*
%TO.N,Net-(J13-Pad1)*%
X90302800Y-53213000D02*
X88603200Y-54912600D01*
X88603200Y-54912600D02*
X79522900Y-54912600D01*
X79522900Y-54912600D02*
X78663800Y-54053500D01*
X91478100Y-53213000D02*
X90302800Y-53213000D01*
%TO.N,/COL8*%
X94018100Y-52037700D02*
X94018100Y-47861000D01*
X94018100Y-47861000D02*
X93115500Y-46958400D01*
X94018100Y-53213000D02*
X94018100Y-52037700D01*
X110874300Y-74211500D02*
X109248700Y-72585900D01*
X124828400Y-74211500D02*
X110874300Y-74211500D01*
X126061000Y-72978900D02*
X124828400Y-74211500D01*
X126061000Y-72154900D02*
X126061000Y-72978900D01*
X126805400Y-71410500D02*
X126061000Y-72154900D01*
X131235600Y-71410500D02*
X126805400Y-71410500D01*
X132411000Y-72585900D02*
X131235600Y-71410500D01*
X97637600Y-42291000D02*
X103936800Y-35991800D01*
X94347600Y-43756200D02*
X95812800Y-42291000D01*
X95812800Y-42291000D02*
X97637600Y-42291000D01*
X94347600Y-45726300D02*
X94347600Y-43756200D01*
X93115500Y-46958400D02*
X94347600Y-45726300D01*
X84672300Y-46958400D02*
X83027800Y-48602900D01*
X83027800Y-48602900D02*
X82219800Y-48602900D01*
X93115500Y-46958400D02*
X84672300Y-46958400D01*
%TO.N,Net-(J18-PadS)*%
X113995000Y-38481000D02*
X109815300Y-38481000D01*
X109815300Y-38481000D02*
X107746800Y-36412500D01*
X107746800Y-36412500D02*
X107746800Y-35537200D01*
X107746800Y-35537200D02*
X107026000Y-34816400D01*
X107026000Y-34816400D02*
X97815000Y-34816400D01*
X97815000Y-34816400D02*
X97586800Y-35044600D01*
X97586800Y-35044600D02*
X97586800Y-36263100D01*
X97586800Y-36263100D02*
X96638900Y-37211000D01*
X96638900Y-37211000D02*
X94507600Y-37211000D01*
X94507600Y-37211000D02*
X93451600Y-38267000D01*
%TO.N,Net-(J18-PadT)*%
X113995000Y-35941000D02*
X112411100Y-34357100D01*
X112411100Y-34357100D02*
X97002200Y-34357100D01*
X97002200Y-34357100D02*
X96632800Y-34726500D01*
X96632800Y-34726500D02*
X90040000Y-34726500D01*
X90040000Y-34726500D02*
X88404600Y-36361900D01*
X88404600Y-36361900D02*
X83372200Y-36361900D01*
X83372200Y-36361900D02*
X83281600Y-36452500D01*
X83281600Y-38277800D02*
X83281600Y-36452500D01*
%TD*%
D27*
%TO.N,GND*%
X60872157Y-40456044D02*
X60907836Y-40485325D01*
X64956500Y-44533989D01*
X64956501Y-47626658D01*
X64951976Y-47672600D01*
X64970029Y-47855891D01*
X65011704Y-47993273D01*
X65023494Y-48032140D01*
X65110315Y-48194572D01*
X65227157Y-48336944D01*
X65262836Y-48366225D01*
X68474548Y-51577937D01*
X68352212Y-51488275D01*
X68088145Y-51365204D01*
X67805142Y-51296015D01*
X67572400Y-51440068D01*
X67572400Y-52640300D01*
X68915555Y-52640300D01*
X69036876Y-52410410D01*
X69034954Y-52398039D01*
X68935254Y-52124291D01*
X68802913Y-51906302D01*
X69259700Y-52363089D01*
X69259701Y-55324058D01*
X69255176Y-55370000D01*
X69273229Y-55553291D01*
X69320195Y-55708115D01*
X69326694Y-55729540D01*
X69413515Y-55891972D01*
X69530357Y-56034344D01*
X69566036Y-56063625D01*
X71637456Y-58135045D01*
X71611015Y-58403500D01*
X71639687Y-58694611D01*
X71724601Y-58974534D01*
X71862494Y-59232514D01*
X72048066Y-59458634D01*
X72274186Y-59644206D01*
X72532166Y-59782099D01*
X72812089Y-59867013D01*
X73030250Y-59888500D01*
X73390911Y-59888500D01*
X75776870Y-62274459D01*
X75806156Y-62310144D01*
X75948528Y-62426986D01*
X76054380Y-62483565D01*
X76110959Y-62513807D01*
X76287208Y-62567272D01*
X76470500Y-62585324D01*
X76516435Y-62580800D01*
X76905653Y-62580800D01*
X76913425Y-62592432D01*
X77045280Y-62724287D01*
X76972720Y-62746298D01*
X76862406Y-62805263D01*
X76765715Y-62884615D01*
X76686363Y-62981306D01*
X76627398Y-63091620D01*
X76591088Y-63211318D01*
X76578828Y-63335800D01*
X76578828Y-65035800D01*
X76591088Y-65160282D01*
X76627398Y-65279980D01*
X76686363Y-65390294D01*
X76765715Y-65486985D01*
X76862406Y-65566337D01*
X76972720Y-65625302D01*
X77092418Y-65661612D01*
X77216900Y-65673872D01*
X78916900Y-65673872D01*
X79041382Y-65661612D01*
X79161080Y-65625302D01*
X79212250Y-65597951D01*
X80917698Y-67303400D01*
X72105190Y-67303400D01*
X69083472Y-64281683D01*
X69083472Y-63540900D01*
X69063045Y-63333505D01*
X69002550Y-63134080D01*
X68904312Y-62950289D01*
X68772105Y-62789195D01*
X68611011Y-62656988D01*
X68534624Y-62616159D01*
X68650534Y-62521034D01*
X68836106Y-62294914D01*
X68973999Y-62036934D01*
X69058913Y-61757011D01*
X69087585Y-61465900D01*
X69058913Y-61174789D01*
X68973999Y-60894866D01*
X68836106Y-60636886D01*
X68650534Y-60410766D01*
X68424414Y-60225194D01*
X68166434Y-60087301D01*
X67886511Y-60002387D01*
X67668350Y-59980900D01*
X67222450Y-59980900D01*
X67004289Y-60002387D01*
X66724366Y-60087301D01*
X66466386Y-60225194D01*
X66240266Y-60410766D01*
X66054694Y-60636886D01*
X65916801Y-60894866D01*
X65831887Y-61174789D01*
X65803215Y-61465900D01*
X65831887Y-61757011D01*
X65916801Y-62036934D01*
X66054694Y-62294914D01*
X66240266Y-62521034D01*
X66356176Y-62616159D01*
X66279789Y-62656988D01*
X66118695Y-62789195D01*
X65986488Y-62950289D01*
X65888250Y-63134080D01*
X65827755Y-63333505D01*
X65807328Y-63540900D01*
X65807328Y-64390900D01*
X65827755Y-64598295D01*
X65888250Y-64797720D01*
X65986488Y-64981511D01*
X66118695Y-65142605D01*
X66279789Y-65274812D01*
X66463580Y-65373050D01*
X66663005Y-65433545D01*
X66870400Y-65453972D01*
X67611183Y-65453972D01*
X70718110Y-68560900D01*
X70700140Y-68560900D01*
X70413242Y-68617968D01*
X70142989Y-68729910D01*
X69899768Y-68892425D01*
X69692925Y-69099268D01*
X69576400Y-69273660D01*
X69459875Y-69099268D01*
X69253032Y-68892425D01*
X69009811Y-68729910D01*
X68739558Y-68617968D01*
X68452660Y-68560900D01*
X68160140Y-68560900D01*
X67873242Y-68617968D01*
X67602989Y-68729910D01*
X67359768Y-68892425D01*
X67152925Y-69099268D01*
X66990410Y-69342489D01*
X66878468Y-69612742D01*
X66821400Y-69899640D01*
X66821400Y-70192160D01*
X66878468Y-70479058D01*
X66990410Y-70749311D01*
X67152925Y-70992532D01*
X67284780Y-71124387D01*
X67212220Y-71146398D01*
X67101906Y-71205363D01*
X67005215Y-71284715D01*
X66925863Y-71381406D01*
X66866898Y-71491720D01*
X66830588Y-71611418D01*
X66818328Y-71735900D01*
X66818328Y-73435900D01*
X66830588Y-73560382D01*
X66866898Y-73680080D01*
X66925863Y-73790394D01*
X67005215Y-73887085D01*
X67101906Y-73966437D01*
X67212220Y-74025402D01*
X67331918Y-74061712D01*
X67456400Y-74073972D01*
X69156400Y-74073972D01*
X69280882Y-74061712D01*
X69400580Y-74025402D01*
X69510894Y-73966437D01*
X69607585Y-73887085D01*
X69686937Y-73790394D01*
X69745902Y-73680080D01*
X69767913Y-73607520D01*
X69899768Y-73739375D01*
X70142989Y-73901890D01*
X70413242Y-74013832D01*
X70700140Y-74070900D01*
X70992660Y-74070900D01*
X71279558Y-74013832D01*
X71549811Y-73901890D01*
X71793032Y-73739375D01*
X71999875Y-73532532D01*
X72116400Y-73358140D01*
X72232925Y-73532532D01*
X72439768Y-73739375D01*
X72682989Y-73901890D01*
X72953242Y-74013832D01*
X73240140Y-74070900D01*
X73532660Y-74070900D01*
X73752808Y-74027109D01*
X74389798Y-74664100D01*
X63216005Y-74664100D01*
X62724161Y-74615874D01*
X62283281Y-74482764D01*
X61876655Y-74266557D01*
X61519764Y-73975485D01*
X61226206Y-73620634D01*
X61007167Y-73215531D01*
X60870981Y-72775583D01*
X60819500Y-72285779D01*
X60819500Y-72068903D01*
X61093605Y-72068903D01*
X61093605Y-72507897D01*
X61179249Y-72938457D01*
X61347245Y-73344035D01*
X61591137Y-73709046D01*
X61901554Y-74019463D01*
X62266565Y-74263355D01*
X62672143Y-74431351D01*
X63102703Y-74516995D01*
X63541697Y-74516995D01*
X63972257Y-74431351D01*
X64377835Y-74263355D01*
X64742846Y-74019463D01*
X65053263Y-73709046D01*
X65297155Y-73344035D01*
X65465151Y-72938457D01*
X65550795Y-72507897D01*
X65550795Y-72068903D01*
X65465151Y-71638343D01*
X65297155Y-71232765D01*
X65053263Y-70867754D01*
X64742846Y-70557337D01*
X64377835Y-70313445D01*
X63972257Y-70145449D01*
X63541697Y-70059805D01*
X63102703Y-70059805D01*
X62672143Y-70145449D01*
X62266565Y-70313445D01*
X61901554Y-70557337D01*
X61591137Y-70867754D01*
X61347245Y-71232765D01*
X61179249Y-71638343D01*
X61093605Y-72068903D01*
X60819500Y-72068903D01*
X60819500Y-54842300D01*
X65807328Y-54842300D01*
X65807328Y-55692300D01*
X65827755Y-55899695D01*
X65888250Y-56099120D01*
X65986488Y-56282911D01*
X66118695Y-56444005D01*
X66279789Y-56576212D01*
X66463580Y-56674450D01*
X66663005Y-56734945D01*
X66870400Y-56755372D01*
X68020400Y-56755372D01*
X68227795Y-56734945D01*
X68427220Y-56674450D01*
X68611011Y-56576212D01*
X68772105Y-56444005D01*
X68904312Y-56282911D01*
X69002550Y-56099120D01*
X69063045Y-55899695D01*
X69083472Y-55692300D01*
X69083472Y-54842300D01*
X69063045Y-54634905D01*
X69002550Y-54435480D01*
X68904312Y-54251689D01*
X68772105Y-54090595D01*
X68611011Y-53958388D01*
X68530737Y-53915481D01*
X68587195Y-53874102D01*
X68784064Y-53659346D01*
X68935254Y-53410309D01*
X69034954Y-53136561D01*
X69036876Y-53124190D01*
X68915555Y-52894300D01*
X67572400Y-52894300D01*
X67572400Y-52914300D01*
X67318400Y-52914300D01*
X67318400Y-52894300D01*
X65975245Y-52894300D01*
X65853924Y-53124190D01*
X65855846Y-53136561D01*
X65955546Y-53410309D01*
X66106736Y-53659346D01*
X66303605Y-53874102D01*
X66360063Y-53915481D01*
X66279789Y-53958388D01*
X66118695Y-54090595D01*
X65986488Y-54251689D01*
X65888250Y-54435480D01*
X65827755Y-54634905D01*
X65807328Y-54842300D01*
X60819500Y-54842300D01*
X60819500Y-52410410D01*
X65853924Y-52410410D01*
X65975245Y-52640300D01*
X67318400Y-52640300D01*
X67318400Y-51440068D01*
X67085658Y-51296015D01*
X66802655Y-51365204D01*
X66538588Y-51488275D01*
X66303605Y-51660498D01*
X66106736Y-51875254D01*
X65955546Y-52124291D01*
X65855846Y-52398039D01*
X65853924Y-52410410D01*
X60819500Y-52410410D01*
X60819500Y-40391881D01*
X60872157Y-40456044D01*
%TA.AperFunction,Conductor*%
D28*
G36*
X60872157Y-40456044D02*
G01*
X60907836Y-40485325D01*
X64956500Y-44533989D01*
X64956501Y-47626658D01*
X64951976Y-47672600D01*
X64970029Y-47855891D01*
X65011704Y-47993273D01*
X65023494Y-48032140D01*
X65110315Y-48194572D01*
X65227157Y-48336944D01*
X65262836Y-48366225D01*
X68474548Y-51577937D01*
X68352212Y-51488275D01*
X68088145Y-51365204D01*
X67805142Y-51296015D01*
X67572400Y-51440068D01*
X67572400Y-52640300D01*
X68915555Y-52640300D01*
X69036876Y-52410410D01*
X69034954Y-52398039D01*
X68935254Y-52124291D01*
X68802913Y-51906302D01*
X69259700Y-52363089D01*
X69259701Y-55324058D01*
X69255176Y-55370000D01*
X69273229Y-55553291D01*
X69320195Y-55708115D01*
X69326694Y-55729540D01*
X69413515Y-55891972D01*
X69530357Y-56034344D01*
X69566036Y-56063625D01*
X71637456Y-58135045D01*
X71611015Y-58403500D01*
X71639687Y-58694611D01*
X71724601Y-58974534D01*
X71862494Y-59232514D01*
X72048066Y-59458634D01*
X72274186Y-59644206D01*
X72532166Y-59782099D01*
X72812089Y-59867013D01*
X73030250Y-59888500D01*
X73390911Y-59888500D01*
X75776870Y-62274459D01*
X75806156Y-62310144D01*
X75948528Y-62426986D01*
X76054380Y-62483565D01*
X76110959Y-62513807D01*
X76287208Y-62567272D01*
X76470500Y-62585324D01*
X76516435Y-62580800D01*
X76905653Y-62580800D01*
X76913425Y-62592432D01*
X77045280Y-62724287D01*
X76972720Y-62746298D01*
X76862406Y-62805263D01*
X76765715Y-62884615D01*
X76686363Y-62981306D01*
X76627398Y-63091620D01*
X76591088Y-63211318D01*
X76578828Y-63335800D01*
X76578828Y-65035800D01*
X76591088Y-65160282D01*
X76627398Y-65279980D01*
X76686363Y-65390294D01*
X76765715Y-65486985D01*
X76862406Y-65566337D01*
X76972720Y-65625302D01*
X77092418Y-65661612D01*
X77216900Y-65673872D01*
X78916900Y-65673872D01*
X79041382Y-65661612D01*
X79161080Y-65625302D01*
X79212250Y-65597951D01*
X80917698Y-67303400D01*
X72105190Y-67303400D01*
X69083472Y-64281683D01*
X69083472Y-63540900D01*
X69063045Y-63333505D01*
X69002550Y-63134080D01*
X68904312Y-62950289D01*
X68772105Y-62789195D01*
X68611011Y-62656988D01*
X68534624Y-62616159D01*
X68650534Y-62521034D01*
X68836106Y-62294914D01*
X68973999Y-62036934D01*
X69058913Y-61757011D01*
X69087585Y-61465900D01*
X69058913Y-61174789D01*
X68973999Y-60894866D01*
X68836106Y-60636886D01*
X68650534Y-60410766D01*
X68424414Y-60225194D01*
X68166434Y-60087301D01*
X67886511Y-60002387D01*
X67668350Y-59980900D01*
X67222450Y-59980900D01*
X67004289Y-60002387D01*
X66724366Y-60087301D01*
X66466386Y-60225194D01*
X66240266Y-60410766D01*
X66054694Y-60636886D01*
X65916801Y-60894866D01*
X65831887Y-61174789D01*
X65803215Y-61465900D01*
X65831887Y-61757011D01*
X65916801Y-62036934D01*
X66054694Y-62294914D01*
X66240266Y-62521034D01*
X66356176Y-62616159D01*
X66279789Y-62656988D01*
X66118695Y-62789195D01*
X65986488Y-62950289D01*
X65888250Y-63134080D01*
X65827755Y-63333505D01*
X65807328Y-63540900D01*
X65807328Y-64390900D01*
X65827755Y-64598295D01*
X65888250Y-64797720D01*
X65986488Y-64981511D01*
X66118695Y-65142605D01*
X66279789Y-65274812D01*
X66463580Y-65373050D01*
X66663005Y-65433545D01*
X66870400Y-65453972D01*
X67611183Y-65453972D01*
X70718110Y-68560900D01*
X70700140Y-68560900D01*
X70413242Y-68617968D01*
X70142989Y-68729910D01*
X69899768Y-68892425D01*
X69692925Y-69099268D01*
X69576400Y-69273660D01*
X69459875Y-69099268D01*
X69253032Y-68892425D01*
X69009811Y-68729910D01*
X68739558Y-68617968D01*
X68452660Y-68560900D01*
X68160140Y-68560900D01*
X67873242Y-68617968D01*
X67602989Y-68729910D01*
X67359768Y-68892425D01*
X67152925Y-69099268D01*
X66990410Y-69342489D01*
X66878468Y-69612742D01*
X66821400Y-69899640D01*
X66821400Y-70192160D01*
X66878468Y-70479058D01*
X66990410Y-70749311D01*
X67152925Y-70992532D01*
X67284780Y-71124387D01*
X67212220Y-71146398D01*
X67101906Y-71205363D01*
X67005215Y-71284715D01*
X66925863Y-71381406D01*
X66866898Y-71491720D01*
X66830588Y-71611418D01*
X66818328Y-71735900D01*
X66818328Y-73435900D01*
X66830588Y-73560382D01*
X66866898Y-73680080D01*
X66925863Y-73790394D01*
X67005215Y-73887085D01*
X67101906Y-73966437D01*
X67212220Y-74025402D01*
X67331918Y-74061712D01*
X67456400Y-74073972D01*
X69156400Y-74073972D01*
X69280882Y-74061712D01*
X69400580Y-74025402D01*
X69510894Y-73966437D01*
X69607585Y-73887085D01*
X69686937Y-73790394D01*
X69745902Y-73680080D01*
X69767913Y-73607520D01*
X69899768Y-73739375D01*
X70142989Y-73901890D01*
X70413242Y-74013832D01*
X70700140Y-74070900D01*
X70992660Y-74070900D01*
X71279558Y-74013832D01*
X71549811Y-73901890D01*
X71793032Y-73739375D01*
X71999875Y-73532532D01*
X72116400Y-73358140D01*
X72232925Y-73532532D01*
X72439768Y-73739375D01*
X72682989Y-73901890D01*
X72953242Y-74013832D01*
X73240140Y-74070900D01*
X73532660Y-74070900D01*
X73752808Y-74027109D01*
X74389798Y-74664100D01*
X63216005Y-74664100D01*
X62724161Y-74615874D01*
X62283281Y-74482764D01*
X61876655Y-74266557D01*
X61519764Y-73975485D01*
X61226206Y-73620634D01*
X61007167Y-73215531D01*
X60870981Y-72775583D01*
X60819500Y-72285779D01*
X60819500Y-72068903D01*
X61093605Y-72068903D01*
X61093605Y-72507897D01*
X61179249Y-72938457D01*
X61347245Y-73344035D01*
X61591137Y-73709046D01*
X61901554Y-74019463D01*
X62266565Y-74263355D01*
X62672143Y-74431351D01*
X63102703Y-74516995D01*
X63541697Y-74516995D01*
X63972257Y-74431351D01*
X64377835Y-74263355D01*
X64742846Y-74019463D01*
X65053263Y-73709046D01*
X65297155Y-73344035D01*
X65465151Y-72938457D01*
X65550795Y-72507897D01*
X65550795Y-72068903D01*
X65465151Y-71638343D01*
X65297155Y-71232765D01*
X65053263Y-70867754D01*
X64742846Y-70557337D01*
X64377835Y-70313445D01*
X63972257Y-70145449D01*
X63541697Y-70059805D01*
X63102703Y-70059805D01*
X62672143Y-70145449D01*
X62266565Y-70313445D01*
X61901554Y-70557337D01*
X61591137Y-70867754D01*
X61347245Y-71232765D01*
X61179249Y-71638343D01*
X61093605Y-72068903D01*
X60819500Y-72068903D01*
X60819500Y-54842300D01*
X65807328Y-54842300D01*
X65807328Y-55692300D01*
X65827755Y-55899695D01*
X65888250Y-56099120D01*
X65986488Y-56282911D01*
X66118695Y-56444005D01*
X66279789Y-56576212D01*
X66463580Y-56674450D01*
X66663005Y-56734945D01*
X66870400Y-56755372D01*
X68020400Y-56755372D01*
X68227795Y-56734945D01*
X68427220Y-56674450D01*
X68611011Y-56576212D01*
X68772105Y-56444005D01*
X68904312Y-56282911D01*
X69002550Y-56099120D01*
X69063045Y-55899695D01*
X69083472Y-55692300D01*
X69083472Y-54842300D01*
X69063045Y-54634905D01*
X69002550Y-54435480D01*
X68904312Y-54251689D01*
X68772105Y-54090595D01*
X68611011Y-53958388D01*
X68530737Y-53915481D01*
X68587195Y-53874102D01*
X68784064Y-53659346D01*
X68935254Y-53410309D01*
X69034954Y-53136561D01*
X69036876Y-53124190D01*
X68915555Y-52894300D01*
X67572400Y-52894300D01*
X67572400Y-52914300D01*
X67318400Y-52914300D01*
X67318400Y-52894300D01*
X65975245Y-52894300D01*
X65853924Y-53124190D01*
X65855846Y-53136561D01*
X65955546Y-53410309D01*
X66106736Y-53659346D01*
X66303605Y-53874102D01*
X66360063Y-53915481D01*
X66279789Y-53958388D01*
X66118695Y-54090595D01*
X65986488Y-54251689D01*
X65888250Y-54435480D01*
X65827755Y-54634905D01*
X65807328Y-54842300D01*
X60819500Y-54842300D01*
X60819500Y-52410410D01*
X65853924Y-52410410D01*
X65975245Y-52640300D01*
X67318400Y-52640300D01*
X67318400Y-51440068D01*
X67085658Y-51296015D01*
X66802655Y-51365204D01*
X66538588Y-51488275D01*
X66303605Y-51660498D01*
X66106736Y-51875254D01*
X65955546Y-52124291D01*
X65855846Y-52398039D01*
X65853924Y-52410410D01*
X60819500Y-52410410D01*
X60819500Y-40391881D01*
X60872157Y-40456044D01*
G37*
%TD.AperFunction*%
D27*
X135415487Y-62232211D02*
X135500401Y-62512134D01*
X135638294Y-62770114D01*
X135823866Y-62996234D01*
X136049986Y-63181806D01*
X136075722Y-63195562D01*
X135869571Y-63352051D01*
X135676504Y-63569907D01*
X135529648Y-63821242D01*
X135437524Y-64084210D01*
X135558845Y-64314100D01*
X136877000Y-64314100D01*
X136877000Y-64294100D01*
X137131000Y-64294100D01*
X137131000Y-64314100D01*
X137151000Y-64314100D01*
X137151000Y-64568100D01*
X137131000Y-64568100D01*
X137131000Y-64588100D01*
X136877000Y-64588100D01*
X136877000Y-64568100D01*
X135558845Y-64568100D01*
X135437524Y-64797990D01*
X135529648Y-65060958D01*
X135676504Y-65312293D01*
X135869571Y-65530149D01*
X135876884Y-65535700D01*
X131508907Y-65535700D01*
X131603481Y-65269091D01*
X131482814Y-65039200D01*
X130289000Y-65039200D01*
X130289000Y-65059200D01*
X130035000Y-65059200D01*
X130035000Y-65039200D01*
X130015000Y-65039200D01*
X130015000Y-64785200D01*
X130035000Y-64785200D01*
X130035000Y-62499200D01*
X130289000Y-62499200D01*
X130289000Y-64785200D01*
X131482814Y-64785200D01*
X131603481Y-64555309D01*
X131506157Y-64280948D01*
X131357178Y-64030845D01*
X131162269Y-63814612D01*
X130931120Y-63642200D01*
X131162269Y-63469788D01*
X131357178Y-63253555D01*
X131506157Y-63003452D01*
X131603481Y-62729091D01*
X131482814Y-62499200D01*
X130289000Y-62499200D01*
X130035000Y-62499200D01*
X130015000Y-62499200D01*
X130015000Y-62245200D01*
X130035000Y-62245200D01*
X130035000Y-62225200D01*
X130289000Y-62225200D01*
X130289000Y-62245200D01*
X131482814Y-62245200D01*
X131603481Y-62015309D01*
X131582762Y-61956900D01*
X135388371Y-61956900D01*
X135415487Y-62232211D01*
%TA.AperFunction,Conductor*%
D28*
G36*
X135415487Y-62232211D02*
G01*
X135500401Y-62512134D01*
X135638294Y-62770114D01*
X135823866Y-62996234D01*
X136049986Y-63181806D01*
X136075722Y-63195562D01*
X135869571Y-63352051D01*
X135676504Y-63569907D01*
X135529648Y-63821242D01*
X135437524Y-64084210D01*
X135558845Y-64314100D01*
X136877000Y-64314100D01*
X136877000Y-64294100D01*
X137131000Y-64294100D01*
X137131000Y-64314100D01*
X137151000Y-64314100D01*
X137151000Y-64568100D01*
X137131000Y-64568100D01*
X137131000Y-64588100D01*
X136877000Y-64588100D01*
X136877000Y-64568100D01*
X135558845Y-64568100D01*
X135437524Y-64797990D01*
X135529648Y-65060958D01*
X135676504Y-65312293D01*
X135869571Y-65530149D01*
X135876884Y-65535700D01*
X131508907Y-65535700D01*
X131603481Y-65269091D01*
X131482814Y-65039200D01*
X130289000Y-65039200D01*
X130289000Y-65059200D01*
X130035000Y-65059200D01*
X130035000Y-65039200D01*
X130015000Y-65039200D01*
X130015000Y-64785200D01*
X130035000Y-64785200D01*
X130035000Y-62499200D01*
X130289000Y-62499200D01*
X130289000Y-64785200D01*
X131482814Y-64785200D01*
X131603481Y-64555309D01*
X131506157Y-64280948D01*
X131357178Y-64030845D01*
X131162269Y-63814612D01*
X130931120Y-63642200D01*
X131162269Y-63469788D01*
X131357178Y-63253555D01*
X131506157Y-63003452D01*
X131603481Y-62729091D01*
X131482814Y-62499200D01*
X130289000Y-62499200D01*
X130035000Y-62499200D01*
X130015000Y-62499200D01*
X130015000Y-62245200D01*
X130035000Y-62245200D01*
X130035000Y-62225200D01*
X130289000Y-62225200D01*
X130289000Y-62245200D01*
X131482814Y-62245200D01*
X131603481Y-62015309D01*
X131582762Y-61956900D01*
X135388371Y-61956900D01*
X135415487Y-62232211D01*
G37*
%TD.AperFunction*%
D27*
X103520143Y-58461848D02*
X103422819Y-58736209D01*
X103543486Y-58966100D01*
X104737300Y-58966100D01*
X104737300Y-58946100D01*
X104991300Y-58946100D01*
X104991300Y-58966100D01*
X107277300Y-58966100D01*
X107277300Y-58946100D01*
X107531300Y-58946100D01*
X107531300Y-58966100D01*
X109817300Y-58966100D01*
X109817300Y-58946100D01*
X110071300Y-58946100D01*
X110071300Y-58966100D01*
X112357300Y-58966100D01*
X112357300Y-58946100D01*
X112611300Y-58946100D01*
X112611300Y-58966100D01*
X113805114Y-58966100D01*
X113925781Y-58736209D01*
X113828457Y-58461848D01*
X113742652Y-58317800D01*
X116195396Y-58317800D01*
X116174668Y-58367842D01*
X116117600Y-58654740D01*
X116117600Y-58947260D01*
X116161391Y-59167408D01*
X115692299Y-59636500D01*
X113859621Y-59636500D01*
X113925781Y-59449991D01*
X113805114Y-59220100D01*
X112611300Y-59220100D01*
X112611300Y-59240100D01*
X112357300Y-59240100D01*
X112357300Y-59220100D01*
X110071300Y-59220100D01*
X110071300Y-59240100D01*
X109817300Y-59240100D01*
X109817300Y-59220100D01*
X107531300Y-59220100D01*
X107531300Y-59240100D01*
X107277300Y-59240100D01*
X107277300Y-59220100D01*
X104991300Y-59220100D01*
X104991300Y-59240100D01*
X104737300Y-59240100D01*
X104737300Y-59220100D01*
X103543486Y-59220100D01*
X103422819Y-59449991D01*
X103520143Y-59724352D01*
X103669122Y-59974455D01*
X103722796Y-60034002D01*
X101061300Y-62695499D01*
X101061300Y-61166623D01*
X101064976Y-61129300D01*
X101061300Y-61091977D01*
X101061300Y-61091967D01*
X101050303Y-60980314D01*
X101006846Y-60837053D01*
X100976925Y-60781076D01*
X100936274Y-60705023D01*
X100865099Y-60618297D01*
X100841301Y-60589299D01*
X100812304Y-60565502D01*
X100249195Y-60002393D01*
X100274378Y-59974455D01*
X100423357Y-59724352D01*
X100520681Y-59449991D01*
X100400014Y-59220100D01*
X99206200Y-59220100D01*
X99206200Y-59240100D01*
X98952200Y-59240100D01*
X98952200Y-59220100D01*
X96666200Y-59220100D01*
X96666200Y-59240100D01*
X96412200Y-59240100D01*
X96412200Y-59220100D01*
X94126200Y-59220100D01*
X94126200Y-59240100D01*
X93872200Y-59240100D01*
X93872200Y-59220100D01*
X93852200Y-59220100D01*
X93852200Y-58966100D01*
X93872200Y-58966100D01*
X93872200Y-58946100D01*
X94126200Y-58946100D01*
X94126200Y-58966100D01*
X96412200Y-58966100D01*
X96412200Y-58946100D01*
X96666200Y-58946100D01*
X96666200Y-58966100D01*
X98952200Y-58966100D01*
X98952200Y-58946100D01*
X99206200Y-58946100D01*
X99206200Y-58966100D01*
X100400014Y-58966100D01*
X100520681Y-58736209D01*
X100423357Y-58461848D01*
X100337552Y-58317800D01*
X103605948Y-58317800D01*
X103520143Y-58461848D01*
%TA.AperFunction,Conductor*%
D28*
G36*
X103520143Y-58461848D02*
G01*
X103422819Y-58736209D01*
X103543486Y-58966100D01*
X104737300Y-58966100D01*
X104737300Y-58946100D01*
X104991300Y-58946100D01*
X104991300Y-58966100D01*
X107277300Y-58966100D01*
X107277300Y-58946100D01*
X107531300Y-58946100D01*
X107531300Y-58966100D01*
X109817300Y-58966100D01*
X109817300Y-58946100D01*
X110071300Y-58946100D01*
X110071300Y-58966100D01*
X112357300Y-58966100D01*
X112357300Y-58946100D01*
X112611300Y-58946100D01*
X112611300Y-58966100D01*
X113805114Y-58966100D01*
X113925781Y-58736209D01*
X113828457Y-58461848D01*
X113742652Y-58317800D01*
X116195396Y-58317800D01*
X116174668Y-58367842D01*
X116117600Y-58654740D01*
X116117600Y-58947260D01*
X116161391Y-59167408D01*
X115692299Y-59636500D01*
X113859621Y-59636500D01*
X113925781Y-59449991D01*
X113805114Y-59220100D01*
X112611300Y-59220100D01*
X112611300Y-59240100D01*
X112357300Y-59240100D01*
X112357300Y-59220100D01*
X110071300Y-59220100D01*
X110071300Y-59240100D01*
X109817300Y-59240100D01*
X109817300Y-59220100D01*
X107531300Y-59220100D01*
X107531300Y-59240100D01*
X107277300Y-59240100D01*
X107277300Y-59220100D01*
X104991300Y-59220100D01*
X104991300Y-59240100D01*
X104737300Y-59240100D01*
X104737300Y-59220100D01*
X103543486Y-59220100D01*
X103422819Y-59449991D01*
X103520143Y-59724352D01*
X103669122Y-59974455D01*
X103722796Y-60034002D01*
X101061300Y-62695499D01*
X101061300Y-61166623D01*
X101064976Y-61129300D01*
X101061300Y-61091977D01*
X101061300Y-61091967D01*
X101050303Y-60980314D01*
X101006846Y-60837053D01*
X100976925Y-60781076D01*
X100936274Y-60705023D01*
X100865099Y-60618297D01*
X100841301Y-60589299D01*
X100812304Y-60565502D01*
X100249195Y-60002393D01*
X100274378Y-59974455D01*
X100423357Y-59724352D01*
X100520681Y-59449991D01*
X100400014Y-59220100D01*
X99206200Y-59220100D01*
X99206200Y-59240100D01*
X98952200Y-59240100D01*
X98952200Y-59220100D01*
X96666200Y-59220100D01*
X96666200Y-59240100D01*
X96412200Y-59240100D01*
X96412200Y-59220100D01*
X94126200Y-59220100D01*
X94126200Y-59240100D01*
X93872200Y-59240100D01*
X93872200Y-59220100D01*
X93852200Y-59220100D01*
X93852200Y-58966100D01*
X93872200Y-58966100D01*
X93872200Y-58946100D01*
X94126200Y-58946100D01*
X94126200Y-58966100D01*
X96412200Y-58966100D01*
X96412200Y-58946100D01*
X96666200Y-58946100D01*
X96666200Y-58966100D01*
X98952200Y-58966100D01*
X98952200Y-58946100D01*
X99206200Y-58946100D01*
X99206200Y-58966100D01*
X100400014Y-58966100D01*
X100520681Y-58736209D01*
X100423357Y-58461848D01*
X100337552Y-58317800D01*
X103605948Y-58317800D01*
X103520143Y-58461848D01*
G37*
%TD.AperFunction*%
D27*
X75894305Y-57144408D02*
X75918099Y-57173401D01*
X75947092Y-57197195D01*
X75947096Y-57197199D01*
X76017785Y-57255211D01*
X76033824Y-57268374D01*
X76165853Y-57338946D01*
X76309114Y-57382403D01*
X76420767Y-57393400D01*
X76420776Y-57393400D01*
X76458099Y-57397076D01*
X76495422Y-57393400D01*
X92959798Y-57393400D01*
X92401171Y-57952028D01*
X92226120Y-57821459D01*
X91963299Y-57696275D01*
X91816090Y-57651624D01*
X91586200Y-57772945D01*
X91586200Y-58966100D01*
X91606200Y-58966100D01*
X91606200Y-59220100D01*
X91586200Y-59220100D01*
X91586200Y-59240100D01*
X91332200Y-59240100D01*
X91332200Y-59220100D01*
X90138386Y-59220100D01*
X90017719Y-59449991D01*
X90115043Y-59724352D01*
X90264022Y-59974455D01*
X90458931Y-60190688D01*
X90692280Y-60364741D01*
X90695155Y-60366110D01*
X90525268Y-60479625D01*
X90318425Y-60686468D01*
X90310653Y-60698100D01*
X90167535Y-60698100D01*
X90121600Y-60693576D01*
X89946716Y-60710800D01*
X86848147Y-60710800D01*
X86840375Y-60699168D01*
X86633532Y-60492325D01*
X86450795Y-60370224D01*
X86674469Y-60203388D01*
X86869378Y-59987155D01*
X87018357Y-59737052D01*
X87115681Y-59462691D01*
X86995014Y-59232800D01*
X85801200Y-59232800D01*
X85801200Y-59252800D01*
X85547200Y-59252800D01*
X85547200Y-59232800D01*
X83261200Y-59232800D01*
X83261200Y-59252800D01*
X83007200Y-59252800D01*
X83007200Y-59232800D01*
X80721200Y-59232800D01*
X80721200Y-59252800D01*
X80467200Y-59252800D01*
X80467200Y-59232800D01*
X78181200Y-59232800D01*
X78181200Y-59252800D01*
X77927200Y-59252800D01*
X77927200Y-59232800D01*
X76733386Y-59232800D01*
X76612719Y-59462691D01*
X76710043Y-59737052D01*
X76859022Y-59987155D01*
X77053931Y-60203388D01*
X77287280Y-60377441D01*
X77290155Y-60378810D01*
X77120268Y-60492325D01*
X76913425Y-60699168D01*
X76905653Y-60710800D01*
X76857789Y-60710800D01*
X74895898Y-58748909D01*
X76612719Y-58748909D01*
X76733386Y-58978800D01*
X77927200Y-58978800D01*
X77927200Y-57785645D01*
X78181200Y-57785645D01*
X78181200Y-58978800D01*
X80467200Y-58978800D01*
X80467200Y-57785645D01*
X80721200Y-57785645D01*
X80721200Y-58978800D01*
X83007200Y-58978800D01*
X83007200Y-57785645D01*
X83261200Y-57785645D01*
X83261200Y-58978800D01*
X85547200Y-58978800D01*
X85547200Y-57785645D01*
X85801200Y-57785645D01*
X85801200Y-58978800D01*
X86995014Y-58978800D01*
X87115681Y-58748909D01*
X87111176Y-58736209D01*
X90017719Y-58736209D01*
X90138386Y-58966100D01*
X91332200Y-58966100D01*
X91332200Y-57772945D01*
X91102310Y-57651624D01*
X90955101Y-57696275D01*
X90692280Y-57821459D01*
X90458931Y-57995512D01*
X90264022Y-58211745D01*
X90115043Y-58461848D01*
X90017719Y-58736209D01*
X87111176Y-58736209D01*
X87018357Y-58474548D01*
X86869378Y-58224445D01*
X86674469Y-58008212D01*
X86441120Y-57834159D01*
X86178299Y-57708975D01*
X86031090Y-57664324D01*
X85801200Y-57785645D01*
X85547200Y-57785645D01*
X85317310Y-57664324D01*
X85170101Y-57708975D01*
X84907280Y-57834159D01*
X84673931Y-58008212D01*
X84479022Y-58224445D01*
X84404200Y-58350055D01*
X84329378Y-58224445D01*
X84134469Y-58008212D01*
X83901120Y-57834159D01*
X83638299Y-57708975D01*
X83491090Y-57664324D01*
X83261200Y-57785645D01*
X83007200Y-57785645D01*
X82777310Y-57664324D01*
X82630101Y-57708975D01*
X82367280Y-57834159D01*
X82133931Y-58008212D01*
X81939022Y-58224445D01*
X81864200Y-58350055D01*
X81789378Y-58224445D01*
X81594469Y-58008212D01*
X81361120Y-57834159D01*
X81098299Y-57708975D01*
X80951090Y-57664324D01*
X80721200Y-57785645D01*
X80467200Y-57785645D01*
X80237310Y-57664324D01*
X80090101Y-57708975D01*
X79827280Y-57834159D01*
X79593931Y-58008212D01*
X79399022Y-58224445D01*
X79324200Y-58350055D01*
X79249378Y-58224445D01*
X79054469Y-58008212D01*
X78821120Y-57834159D01*
X78558299Y-57708975D01*
X78411090Y-57664324D01*
X78181200Y-57785645D01*
X77927200Y-57785645D01*
X77697310Y-57664324D01*
X77550101Y-57708975D01*
X77287280Y-57834159D01*
X77053931Y-58008212D01*
X76859022Y-58224445D01*
X76710043Y-58474548D01*
X76612719Y-58748909D01*
X74895898Y-58748909D01*
X74818944Y-58671955D01*
X74845385Y-58403500D01*
X74816713Y-58112389D01*
X74731799Y-57832466D01*
X74593906Y-57574486D01*
X74408334Y-57348366D01*
X74182214Y-57162794D01*
X74156478Y-57149038D01*
X74362629Y-56992549D01*
X74555696Y-56774693D01*
X74702552Y-56523358D01*
X74794676Y-56260390D01*
X74673356Y-56030502D01*
X74780400Y-56030502D01*
X75894305Y-57144408D01*
%TA.AperFunction,Conductor*%
D28*
G36*
X75894305Y-57144408D02*
G01*
X75918099Y-57173401D01*
X75947092Y-57197195D01*
X75947096Y-57197199D01*
X76017785Y-57255211D01*
X76033824Y-57268374D01*
X76165853Y-57338946D01*
X76309114Y-57382403D01*
X76420767Y-57393400D01*
X76420776Y-57393400D01*
X76458099Y-57397076D01*
X76495422Y-57393400D01*
X92959798Y-57393400D01*
X92401171Y-57952028D01*
X92226120Y-57821459D01*
X91963299Y-57696275D01*
X91816090Y-57651624D01*
X91586200Y-57772945D01*
X91586200Y-58966100D01*
X91606200Y-58966100D01*
X91606200Y-59220100D01*
X91586200Y-59220100D01*
X91586200Y-59240100D01*
X91332200Y-59240100D01*
X91332200Y-59220100D01*
X90138386Y-59220100D01*
X90017719Y-59449991D01*
X90115043Y-59724352D01*
X90264022Y-59974455D01*
X90458931Y-60190688D01*
X90692280Y-60364741D01*
X90695155Y-60366110D01*
X90525268Y-60479625D01*
X90318425Y-60686468D01*
X90310653Y-60698100D01*
X90167535Y-60698100D01*
X90121600Y-60693576D01*
X89946716Y-60710800D01*
X86848147Y-60710800D01*
X86840375Y-60699168D01*
X86633532Y-60492325D01*
X86450795Y-60370224D01*
X86674469Y-60203388D01*
X86869378Y-59987155D01*
X87018357Y-59737052D01*
X87115681Y-59462691D01*
X86995014Y-59232800D01*
X85801200Y-59232800D01*
X85801200Y-59252800D01*
X85547200Y-59252800D01*
X85547200Y-59232800D01*
X83261200Y-59232800D01*
X83261200Y-59252800D01*
X83007200Y-59252800D01*
X83007200Y-59232800D01*
X80721200Y-59232800D01*
X80721200Y-59252800D01*
X80467200Y-59252800D01*
X80467200Y-59232800D01*
X78181200Y-59232800D01*
X78181200Y-59252800D01*
X77927200Y-59252800D01*
X77927200Y-59232800D01*
X76733386Y-59232800D01*
X76612719Y-59462691D01*
X76710043Y-59737052D01*
X76859022Y-59987155D01*
X77053931Y-60203388D01*
X77287280Y-60377441D01*
X77290155Y-60378810D01*
X77120268Y-60492325D01*
X76913425Y-60699168D01*
X76905653Y-60710800D01*
X76857789Y-60710800D01*
X74895898Y-58748909D01*
X76612719Y-58748909D01*
X76733386Y-58978800D01*
X77927200Y-58978800D01*
X77927200Y-57785645D01*
X78181200Y-57785645D01*
X78181200Y-58978800D01*
X80467200Y-58978800D01*
X80467200Y-57785645D01*
X80721200Y-57785645D01*
X80721200Y-58978800D01*
X83007200Y-58978800D01*
X83007200Y-57785645D01*
X83261200Y-57785645D01*
X83261200Y-58978800D01*
X85547200Y-58978800D01*
X85547200Y-57785645D01*
X85801200Y-57785645D01*
X85801200Y-58978800D01*
X86995014Y-58978800D01*
X87115681Y-58748909D01*
X87111176Y-58736209D01*
X90017719Y-58736209D01*
X90138386Y-58966100D01*
X91332200Y-58966100D01*
X91332200Y-57772945D01*
X91102310Y-57651624D01*
X90955101Y-57696275D01*
X90692280Y-57821459D01*
X90458931Y-57995512D01*
X90264022Y-58211745D01*
X90115043Y-58461848D01*
X90017719Y-58736209D01*
X87111176Y-58736209D01*
X87018357Y-58474548D01*
X86869378Y-58224445D01*
X86674469Y-58008212D01*
X86441120Y-57834159D01*
X86178299Y-57708975D01*
X86031090Y-57664324D01*
X85801200Y-57785645D01*
X85547200Y-57785645D01*
X85317310Y-57664324D01*
X85170101Y-57708975D01*
X84907280Y-57834159D01*
X84673931Y-58008212D01*
X84479022Y-58224445D01*
X84404200Y-58350055D01*
X84329378Y-58224445D01*
X84134469Y-58008212D01*
X83901120Y-57834159D01*
X83638299Y-57708975D01*
X83491090Y-57664324D01*
X83261200Y-57785645D01*
X83007200Y-57785645D01*
X82777310Y-57664324D01*
X82630101Y-57708975D01*
X82367280Y-57834159D01*
X82133931Y-58008212D01*
X81939022Y-58224445D01*
X81864200Y-58350055D01*
X81789378Y-58224445D01*
X81594469Y-58008212D01*
X81361120Y-57834159D01*
X81098299Y-57708975D01*
X80951090Y-57664324D01*
X80721200Y-57785645D01*
X80467200Y-57785645D01*
X80237310Y-57664324D01*
X80090101Y-57708975D01*
X79827280Y-57834159D01*
X79593931Y-58008212D01*
X79399022Y-58224445D01*
X79324200Y-58350055D01*
X79249378Y-58224445D01*
X79054469Y-58008212D01*
X78821120Y-57834159D01*
X78558299Y-57708975D01*
X78411090Y-57664324D01*
X78181200Y-57785645D01*
X77927200Y-57785645D01*
X77697310Y-57664324D01*
X77550101Y-57708975D01*
X77287280Y-57834159D01*
X77053931Y-58008212D01*
X76859022Y-58224445D01*
X76710043Y-58474548D01*
X76612719Y-58748909D01*
X74895898Y-58748909D01*
X74818944Y-58671955D01*
X74845385Y-58403500D01*
X74816713Y-58112389D01*
X74731799Y-57832466D01*
X74593906Y-57574486D01*
X74408334Y-57348366D01*
X74182214Y-57162794D01*
X74156478Y-57149038D01*
X74362629Y-56992549D01*
X74555696Y-56774693D01*
X74702552Y-56523358D01*
X74794676Y-56260390D01*
X74673356Y-56030502D01*
X74780400Y-56030502D01*
X75894305Y-57144408D01*
G37*
%TD.AperFunction*%
D27*
X73355200Y-55776500D02*
X73375200Y-55776500D01*
X73375200Y-56030500D01*
X73355200Y-56030500D01*
X73355200Y-56050500D01*
X73101200Y-56050500D01*
X73101200Y-56030500D01*
X73081200Y-56030500D01*
X73081200Y-55776500D01*
X73101200Y-55776500D01*
X73101200Y-55756500D01*
X73355200Y-55756500D01*
X73355200Y-55776500D01*
%TA.AperFunction,Conductor*%
D28*
G36*
X73355200Y-55776500D02*
G01*
X73375200Y-55776500D01*
X73375200Y-56030500D01*
X73355200Y-56030500D01*
X73355200Y-56050500D01*
X73101200Y-56050500D01*
X73101200Y-56030500D01*
X73081200Y-56030500D01*
X73081200Y-55776500D01*
X73101200Y-55776500D01*
X73101200Y-55756500D01*
X73355200Y-55756500D01*
X73355200Y-55776500D01*
G37*
%TD.AperFunction*%
D27*
X90646228Y-44741000D02*
X90658488Y-44865482D01*
X90694798Y-44985180D01*
X90753763Y-45095494D01*
X90833115Y-45192185D01*
X90929806Y-45271537D01*
X91040120Y-45330502D01*
X91159818Y-45366812D01*
X91284300Y-45379072D01*
X93284300Y-45379072D01*
X93408782Y-45366812D01*
X93528480Y-45330502D01*
X93587600Y-45298901D01*
X93587600Y-45411498D01*
X92800699Y-46198400D01*
X84709622Y-46198400D01*
X84672299Y-46194724D01*
X84634976Y-46198400D01*
X84634967Y-46198400D01*
X84523314Y-46209397D01*
X84380053Y-46252854D01*
X84248024Y-46323426D01*
X84132299Y-46418399D01*
X84108501Y-46447397D01*
X83365149Y-47190749D01*
X83313980Y-47163398D01*
X83194282Y-47127088D01*
X83069800Y-47114828D01*
X81369800Y-47114828D01*
X81245318Y-47127088D01*
X81125620Y-47163398D01*
X81015306Y-47222363D01*
X80918615Y-47301715D01*
X80839263Y-47398406D01*
X80780298Y-47508720D01*
X80743988Y-47628418D01*
X80731728Y-47752900D01*
X80731728Y-49452900D01*
X80743988Y-49577382D01*
X80780298Y-49697080D01*
X80839263Y-49807394D01*
X80918615Y-49904085D01*
X81015306Y-49983437D01*
X81125620Y-50042402D01*
X81245318Y-50078712D01*
X81369800Y-50090972D01*
X83069800Y-50090972D01*
X83194282Y-50078712D01*
X83313980Y-50042402D01*
X83424294Y-49983437D01*
X83520985Y-49904085D01*
X83600337Y-49807394D01*
X83659302Y-49697080D01*
X83681313Y-49624520D01*
X83813168Y-49756375D01*
X84056389Y-49918890D01*
X84326642Y-50030832D01*
X84613540Y-50087900D01*
X84906060Y-50087900D01*
X85192958Y-50030832D01*
X85463211Y-49918890D01*
X85706432Y-49756375D01*
X85913275Y-49549532D01*
X86029800Y-49375140D01*
X86146325Y-49549532D01*
X86353168Y-49756375D01*
X86596389Y-49918890D01*
X86866642Y-50030832D01*
X87153540Y-50087900D01*
X87446060Y-50087900D01*
X87732958Y-50030832D01*
X88003211Y-49918890D01*
X88246432Y-49756375D01*
X88453275Y-49549532D01*
X88569800Y-49375140D01*
X88686325Y-49549532D01*
X88893168Y-49756375D01*
X89136389Y-49918890D01*
X89406642Y-50030832D01*
X89693540Y-50087900D01*
X89819998Y-50087900D01*
X87150142Y-52757756D01*
X87148517Y-52755763D01*
X87111090Y-52709214D01*
X87109385Y-52707783D01*
X87107977Y-52706057D01*
X87061927Y-52667961D01*
X87016154Y-52629553D01*
X87014202Y-52628480D01*
X87012487Y-52627061D01*
X86959939Y-52598649D01*
X86907553Y-52569849D01*
X86905429Y-52569175D01*
X86903472Y-52568117D01*
X86846450Y-52550466D01*
X86789424Y-52532376D01*
X86787208Y-52532127D01*
X86785084Y-52531470D01*
X86725657Y-52525224D01*
X86666266Y-52518562D01*
X86661996Y-52518532D01*
X86661833Y-52518515D01*
X86661670Y-52518530D01*
X86657400Y-52518500D01*
X86057400Y-52518500D01*
X85997895Y-52524334D01*
X85938413Y-52529748D01*
X85936282Y-52530375D01*
X85934061Y-52530593D01*
X85876779Y-52547888D01*
X85819525Y-52564738D01*
X85817553Y-52565769D01*
X85815420Y-52566413D01*
X85762619Y-52594488D01*
X85709697Y-52622155D01*
X85707963Y-52623549D01*
X85705996Y-52624595D01*
X85659663Y-52662383D01*
X85613114Y-52699810D01*
X85611683Y-52701515D01*
X85609957Y-52702923D01*
X85571861Y-52748973D01*
X85533453Y-52794746D01*
X85532380Y-52796698D01*
X85530961Y-52798413D01*
X85502549Y-52850961D01*
X85473749Y-52903347D01*
X85473075Y-52905471D01*
X85472017Y-52907428D01*
X85463966Y-52933437D01*
X85363220Y-52963998D01*
X85252906Y-53022963D01*
X85156215Y-53102315D01*
X85076863Y-53199006D01*
X85026354Y-53293500D01*
X84761667Y-53293500D01*
X84794905Y-53243756D01*
X84872926Y-53055398D01*
X84912700Y-52855439D01*
X84912700Y-52651561D01*
X84872926Y-52451602D01*
X84794905Y-52263244D01*
X84681637Y-52093726D01*
X84537474Y-51949563D01*
X84367956Y-51836295D01*
X84179598Y-51758274D01*
X83979639Y-51718500D01*
X83775761Y-51718500D01*
X83575802Y-51758274D01*
X83414978Y-51824890D01*
X83350792Y-51782002D01*
X83240475Y-51723036D01*
X83149919Y-51685527D01*
X83030223Y-51649218D01*
X82934090Y-51630096D01*
X82809609Y-51617836D01*
X82785050Y-51617836D01*
X82760600Y-51615428D01*
X82260600Y-51615428D01*
X82236150Y-51617836D01*
X82211591Y-51617836D01*
X82087110Y-51630096D01*
X81990977Y-51649218D01*
X81871281Y-51685527D01*
X81780725Y-51723036D01*
X81670408Y-51782002D01*
X81588909Y-51836458D01*
X81492218Y-51915810D01*
X81422910Y-51985118D01*
X81343558Y-52081809D01*
X81289102Y-52163308D01*
X81230136Y-52273625D01*
X81192627Y-52364181D01*
X81156318Y-52483877D01*
X81137196Y-52580010D01*
X81124936Y-52704491D01*
X81124936Y-52729050D01*
X81122528Y-52753500D01*
X81122528Y-53253500D01*
X81134788Y-53377982D01*
X81142529Y-53403500D01*
X81134788Y-53429018D01*
X81122528Y-53553500D01*
X81122528Y-54053500D01*
X81124936Y-54077950D01*
X81124936Y-54102509D01*
X81129869Y-54152600D01*
X80044531Y-54152600D01*
X80049464Y-54102509D01*
X80049464Y-54077950D01*
X80051872Y-54053500D01*
X80051872Y-53553500D01*
X80039612Y-53429018D01*
X80031871Y-53403500D01*
X80039612Y-53377982D01*
X80051872Y-53253500D01*
X80051872Y-52753500D01*
X80049464Y-52729050D01*
X80049464Y-52704491D01*
X80037204Y-52580010D01*
X80018082Y-52483877D01*
X79981773Y-52364181D01*
X79944264Y-52273625D01*
X79885298Y-52163308D01*
X79830842Y-52081809D01*
X79751490Y-51985118D01*
X79682182Y-51915810D01*
X79585491Y-51836458D01*
X79503992Y-51782002D01*
X79393675Y-51723036D01*
X79303119Y-51685527D01*
X79183423Y-51649218D01*
X79087290Y-51630096D01*
X78962809Y-51617836D01*
X78938250Y-51617836D01*
X78913800Y-51615428D01*
X78413800Y-51615428D01*
X78389350Y-51617836D01*
X78364791Y-51617836D01*
X78240310Y-51630096D01*
X78144177Y-51649218D01*
X78024481Y-51685527D01*
X77933925Y-51723036D01*
X77823608Y-51782002D01*
X77742109Y-51836458D01*
X77645418Y-51915810D01*
X77576110Y-51985118D01*
X77496758Y-52081809D01*
X77442302Y-52163308D01*
X77383336Y-52273625D01*
X77345827Y-52364181D01*
X77309518Y-52483877D01*
X77292409Y-52569889D01*
X77072202Y-52790097D01*
X77043199Y-52813899D01*
X76993547Y-52874401D01*
X76948226Y-52929624D01*
X76894257Y-53030593D01*
X76877654Y-53061654D01*
X76834197Y-53204915D01*
X76823200Y-53316568D01*
X76823200Y-53316578D01*
X76819524Y-53353900D01*
X76823200Y-53391223D01*
X76823201Y-54349368D01*
X76819524Y-54386700D01*
X76823201Y-54424033D01*
X76834198Y-54535686D01*
X76842939Y-54564502D01*
X76877654Y-54678946D01*
X76948226Y-54810976D01*
X77000339Y-54874475D01*
X77043200Y-54926701D01*
X77072198Y-54950499D01*
X77995098Y-55873400D01*
X76772903Y-55873400D01*
X74841272Y-53941770D01*
X74841272Y-52803500D01*
X74824208Y-52630246D01*
X74773672Y-52463650D01*
X74691605Y-52310114D01*
X74581162Y-52175538D01*
X74446586Y-52065095D01*
X74293050Y-51983028D01*
X74126454Y-51932492D01*
X73953200Y-51915428D01*
X72503200Y-51915428D01*
X72329946Y-51932492D01*
X72163350Y-51983028D01*
X72009814Y-52065095D01*
X71875238Y-52175538D01*
X71764795Y-52310114D01*
X71682728Y-52463650D01*
X71632192Y-52630246D01*
X71615128Y-52803500D01*
X71615128Y-54003500D01*
X71632192Y-54176754D01*
X71682728Y-54343350D01*
X71764795Y-54496886D01*
X71875238Y-54631462D01*
X72009814Y-54741905D01*
X72115161Y-54798214D01*
X72093771Y-54814451D01*
X71900704Y-55032307D01*
X71753848Y-55283642D01*
X71669994Y-55523005D01*
X71129700Y-54982711D01*
X71129700Y-52021732D01*
X71134224Y-51975800D01*
X71116171Y-51792508D01*
X71085379Y-51691000D01*
X71062707Y-51616260D01*
X70975886Y-51453828D01*
X70859044Y-51311456D01*
X70823360Y-51282171D01*
X67534461Y-47993272D01*
X68020400Y-47993272D01*
X68227795Y-47972845D01*
X68427220Y-47912350D01*
X68611011Y-47814112D01*
X68772105Y-47681905D01*
X68904312Y-47520811D01*
X69002550Y-47337020D01*
X69063045Y-47137595D01*
X69083472Y-46930200D01*
X69083472Y-46434561D01*
X71634870Y-48985959D01*
X71664156Y-49021644D01*
X71806528Y-49138486D01*
X71891090Y-49183685D01*
X71968959Y-49225307D01*
X72145208Y-49278772D01*
X72328500Y-49296824D01*
X72374435Y-49292300D01*
X77445968Y-49292300D01*
X77491900Y-49296824D01*
X77537832Y-49292300D01*
X77675192Y-49278771D01*
X77851440Y-49225307D01*
X78013872Y-49138486D01*
X78156244Y-49021644D01*
X78185530Y-48985959D01*
X80980490Y-46191000D01*
X83293868Y-46191000D01*
X83339800Y-46195524D01*
X83385732Y-46191000D01*
X83523092Y-46177471D01*
X83699340Y-46124007D01*
X83861772Y-46037186D01*
X84004144Y-45920344D01*
X84033430Y-45884659D01*
X84539017Y-45379072D01*
X85754800Y-45379072D01*
X85879282Y-45366812D01*
X85998980Y-45330502D01*
X86109294Y-45271537D01*
X86205985Y-45192185D01*
X86285337Y-45095494D01*
X86344302Y-44985180D01*
X86380612Y-44865482D01*
X86389425Y-44776000D01*
X86849675Y-44776000D01*
X86858488Y-44865482D01*
X86894798Y-44985180D01*
X86953763Y-45095494D01*
X87033115Y-45192185D01*
X87129806Y-45271537D01*
X87240120Y-45330502D01*
X87359818Y-45366812D01*
X87484300Y-45379072D01*
X89484300Y-45379072D01*
X89608782Y-45366812D01*
X89728480Y-45330502D01*
X89838794Y-45271537D01*
X89935485Y-45192185D01*
X90014837Y-45095494D01*
X90073802Y-44985180D01*
X90110112Y-44865482D01*
X90122372Y-44741000D01*
X90122372Y-43375700D01*
X90646228Y-43375700D01*
X90646228Y-44741000D01*
%TA.AperFunction,Conductor*%
D28*
G36*
X90646228Y-44741000D02*
G01*
X90658488Y-44865482D01*
X90694798Y-44985180D01*
X90753763Y-45095494D01*
X90833115Y-45192185D01*
X90929806Y-45271537D01*
X91040120Y-45330502D01*
X91159818Y-45366812D01*
X91284300Y-45379072D01*
X93284300Y-45379072D01*
X93408782Y-45366812D01*
X93528480Y-45330502D01*
X93587600Y-45298901D01*
X93587600Y-45411498D01*
X92800699Y-46198400D01*
X84709622Y-46198400D01*
X84672299Y-46194724D01*
X84634976Y-46198400D01*
X84634967Y-46198400D01*
X84523314Y-46209397D01*
X84380053Y-46252854D01*
X84248024Y-46323426D01*
X84132299Y-46418399D01*
X84108501Y-46447397D01*
X83365149Y-47190749D01*
X83313980Y-47163398D01*
X83194282Y-47127088D01*
X83069800Y-47114828D01*
X81369800Y-47114828D01*
X81245318Y-47127088D01*
X81125620Y-47163398D01*
X81015306Y-47222363D01*
X80918615Y-47301715D01*
X80839263Y-47398406D01*
X80780298Y-47508720D01*
X80743988Y-47628418D01*
X80731728Y-47752900D01*
X80731728Y-49452900D01*
X80743988Y-49577382D01*
X80780298Y-49697080D01*
X80839263Y-49807394D01*
X80918615Y-49904085D01*
X81015306Y-49983437D01*
X81125620Y-50042402D01*
X81245318Y-50078712D01*
X81369800Y-50090972D01*
X83069800Y-50090972D01*
X83194282Y-50078712D01*
X83313980Y-50042402D01*
X83424294Y-49983437D01*
X83520985Y-49904085D01*
X83600337Y-49807394D01*
X83659302Y-49697080D01*
X83681313Y-49624520D01*
X83813168Y-49756375D01*
X84056389Y-49918890D01*
X84326642Y-50030832D01*
X84613540Y-50087900D01*
X84906060Y-50087900D01*
X85192958Y-50030832D01*
X85463211Y-49918890D01*
X85706432Y-49756375D01*
X85913275Y-49549532D01*
X86029800Y-49375140D01*
X86146325Y-49549532D01*
X86353168Y-49756375D01*
X86596389Y-49918890D01*
X86866642Y-50030832D01*
X87153540Y-50087900D01*
X87446060Y-50087900D01*
X87732958Y-50030832D01*
X88003211Y-49918890D01*
X88246432Y-49756375D01*
X88453275Y-49549532D01*
X88569800Y-49375140D01*
X88686325Y-49549532D01*
X88893168Y-49756375D01*
X89136389Y-49918890D01*
X89406642Y-50030832D01*
X89693540Y-50087900D01*
X89819998Y-50087900D01*
X87150142Y-52757756D01*
X87148517Y-52755763D01*
X87111090Y-52709214D01*
X87109385Y-52707783D01*
X87107977Y-52706057D01*
X87061927Y-52667961D01*
X87016154Y-52629553D01*
X87014202Y-52628480D01*
X87012487Y-52627061D01*
X86959939Y-52598649D01*
X86907553Y-52569849D01*
X86905429Y-52569175D01*
X86903472Y-52568117D01*
X86846450Y-52550466D01*
X86789424Y-52532376D01*
X86787208Y-52532127D01*
X86785084Y-52531470D01*
X86725657Y-52525224D01*
X86666266Y-52518562D01*
X86661996Y-52518532D01*
X86661833Y-52518515D01*
X86661670Y-52518530D01*
X86657400Y-52518500D01*
X86057400Y-52518500D01*
X85997895Y-52524334D01*
X85938413Y-52529748D01*
X85936282Y-52530375D01*
X85934061Y-52530593D01*
X85876779Y-52547888D01*
X85819525Y-52564738D01*
X85817553Y-52565769D01*
X85815420Y-52566413D01*
X85762619Y-52594488D01*
X85709697Y-52622155D01*
X85707963Y-52623549D01*
X85705996Y-52624595D01*
X85659663Y-52662383D01*
X85613114Y-52699810D01*
X85611683Y-52701515D01*
X85609957Y-52702923D01*
X85571861Y-52748973D01*
X85533453Y-52794746D01*
X85532380Y-52796698D01*
X85530961Y-52798413D01*
X85502549Y-52850961D01*
X85473749Y-52903347D01*
X85473075Y-52905471D01*
X85472017Y-52907428D01*
X85463966Y-52933437D01*
X85363220Y-52963998D01*
X85252906Y-53022963D01*
X85156215Y-53102315D01*
X85076863Y-53199006D01*
X85026354Y-53293500D01*
X84761667Y-53293500D01*
X84794905Y-53243756D01*
X84872926Y-53055398D01*
X84912700Y-52855439D01*
X84912700Y-52651561D01*
X84872926Y-52451602D01*
X84794905Y-52263244D01*
X84681637Y-52093726D01*
X84537474Y-51949563D01*
X84367956Y-51836295D01*
X84179598Y-51758274D01*
X83979639Y-51718500D01*
X83775761Y-51718500D01*
X83575802Y-51758274D01*
X83414978Y-51824890D01*
X83350792Y-51782002D01*
X83240475Y-51723036D01*
X83149919Y-51685527D01*
X83030223Y-51649218D01*
X82934090Y-51630096D01*
X82809609Y-51617836D01*
X82785050Y-51617836D01*
X82760600Y-51615428D01*
X82260600Y-51615428D01*
X82236150Y-51617836D01*
X82211591Y-51617836D01*
X82087110Y-51630096D01*
X81990977Y-51649218D01*
X81871281Y-51685527D01*
X81780725Y-51723036D01*
X81670408Y-51782002D01*
X81588909Y-51836458D01*
X81492218Y-51915810D01*
X81422910Y-51985118D01*
X81343558Y-52081809D01*
X81289102Y-52163308D01*
X81230136Y-52273625D01*
X81192627Y-52364181D01*
X81156318Y-52483877D01*
X81137196Y-52580010D01*
X81124936Y-52704491D01*
X81124936Y-52729050D01*
X81122528Y-52753500D01*
X81122528Y-53253500D01*
X81134788Y-53377982D01*
X81142529Y-53403500D01*
X81134788Y-53429018D01*
X81122528Y-53553500D01*
X81122528Y-54053500D01*
X81124936Y-54077950D01*
X81124936Y-54102509D01*
X81129869Y-54152600D01*
X80044531Y-54152600D01*
X80049464Y-54102509D01*
X80049464Y-54077950D01*
X80051872Y-54053500D01*
X80051872Y-53553500D01*
X80039612Y-53429018D01*
X80031871Y-53403500D01*
X80039612Y-53377982D01*
X80051872Y-53253500D01*
X80051872Y-52753500D01*
X80049464Y-52729050D01*
X80049464Y-52704491D01*
X80037204Y-52580010D01*
X80018082Y-52483877D01*
X79981773Y-52364181D01*
X79944264Y-52273625D01*
X79885298Y-52163308D01*
X79830842Y-52081809D01*
X79751490Y-51985118D01*
X79682182Y-51915810D01*
X79585491Y-51836458D01*
X79503992Y-51782002D01*
X79393675Y-51723036D01*
X79303119Y-51685527D01*
X79183423Y-51649218D01*
X79087290Y-51630096D01*
X78962809Y-51617836D01*
X78938250Y-51617836D01*
X78913800Y-51615428D01*
X78413800Y-51615428D01*
X78389350Y-51617836D01*
X78364791Y-51617836D01*
X78240310Y-51630096D01*
X78144177Y-51649218D01*
X78024481Y-51685527D01*
X77933925Y-51723036D01*
X77823608Y-51782002D01*
X77742109Y-51836458D01*
X77645418Y-51915810D01*
X77576110Y-51985118D01*
X77496758Y-52081809D01*
X77442302Y-52163308D01*
X77383336Y-52273625D01*
X77345827Y-52364181D01*
X77309518Y-52483877D01*
X77292409Y-52569889D01*
X77072202Y-52790097D01*
X77043199Y-52813899D01*
X76993547Y-52874401D01*
X76948226Y-52929624D01*
X76894257Y-53030593D01*
X76877654Y-53061654D01*
X76834197Y-53204915D01*
X76823200Y-53316568D01*
X76823200Y-53316578D01*
X76819524Y-53353900D01*
X76823200Y-53391223D01*
X76823201Y-54349368D01*
X76819524Y-54386700D01*
X76823201Y-54424033D01*
X76834198Y-54535686D01*
X76842939Y-54564502D01*
X76877654Y-54678946D01*
X76948226Y-54810976D01*
X77000339Y-54874475D01*
X77043200Y-54926701D01*
X77072198Y-54950499D01*
X77995098Y-55873400D01*
X76772903Y-55873400D01*
X74841272Y-53941770D01*
X74841272Y-52803500D01*
X74824208Y-52630246D01*
X74773672Y-52463650D01*
X74691605Y-52310114D01*
X74581162Y-52175538D01*
X74446586Y-52065095D01*
X74293050Y-51983028D01*
X74126454Y-51932492D01*
X73953200Y-51915428D01*
X72503200Y-51915428D01*
X72329946Y-51932492D01*
X72163350Y-51983028D01*
X72009814Y-52065095D01*
X71875238Y-52175538D01*
X71764795Y-52310114D01*
X71682728Y-52463650D01*
X71632192Y-52630246D01*
X71615128Y-52803500D01*
X71615128Y-54003500D01*
X71632192Y-54176754D01*
X71682728Y-54343350D01*
X71764795Y-54496886D01*
X71875238Y-54631462D01*
X72009814Y-54741905D01*
X72115161Y-54798214D01*
X72093771Y-54814451D01*
X71900704Y-55032307D01*
X71753848Y-55283642D01*
X71669994Y-55523005D01*
X71129700Y-54982711D01*
X71129700Y-52021732D01*
X71134224Y-51975800D01*
X71116171Y-51792508D01*
X71085379Y-51691000D01*
X71062707Y-51616260D01*
X70975886Y-51453828D01*
X70859044Y-51311456D01*
X70823360Y-51282171D01*
X67534461Y-47993272D01*
X68020400Y-47993272D01*
X68227795Y-47972845D01*
X68427220Y-47912350D01*
X68611011Y-47814112D01*
X68772105Y-47681905D01*
X68904312Y-47520811D01*
X69002550Y-47337020D01*
X69063045Y-47137595D01*
X69083472Y-46930200D01*
X69083472Y-46434561D01*
X71634870Y-48985959D01*
X71664156Y-49021644D01*
X71806528Y-49138486D01*
X71891090Y-49183685D01*
X71968959Y-49225307D01*
X72145208Y-49278772D01*
X72328500Y-49296824D01*
X72374435Y-49292300D01*
X77445968Y-49292300D01*
X77491900Y-49296824D01*
X77537832Y-49292300D01*
X77675192Y-49278771D01*
X77851440Y-49225307D01*
X78013872Y-49138486D01*
X78156244Y-49021644D01*
X78185530Y-48985959D01*
X80980490Y-46191000D01*
X83293868Y-46191000D01*
X83339800Y-46195524D01*
X83385732Y-46191000D01*
X83523092Y-46177471D01*
X83699340Y-46124007D01*
X83861772Y-46037186D01*
X84004144Y-45920344D01*
X84033430Y-45884659D01*
X84539017Y-45379072D01*
X85754800Y-45379072D01*
X85879282Y-45366812D01*
X85998980Y-45330502D01*
X86109294Y-45271537D01*
X86205985Y-45192185D01*
X86285337Y-45095494D01*
X86344302Y-44985180D01*
X86380612Y-44865482D01*
X86389425Y-44776000D01*
X86849675Y-44776000D01*
X86858488Y-44865482D01*
X86894798Y-44985180D01*
X86953763Y-45095494D01*
X87033115Y-45192185D01*
X87129806Y-45271537D01*
X87240120Y-45330502D01*
X87359818Y-45366812D01*
X87484300Y-45379072D01*
X89484300Y-45379072D01*
X89608782Y-45366812D01*
X89728480Y-45330502D01*
X89838794Y-45271537D01*
X89935485Y-45192185D01*
X90014837Y-45095494D01*
X90073802Y-44985180D01*
X90110112Y-44865482D01*
X90122372Y-44741000D01*
X90122372Y-43375700D01*
X90646228Y-43375700D01*
X90646228Y-44741000D01*
G37*
%TD.AperFunction*%
D27*
X138064800Y-43009690D02*
X137918637Y-42790941D01*
X137718759Y-42591063D01*
X137483727Y-42434020D01*
X137222574Y-42325847D01*
X136945335Y-42270700D01*
X136662665Y-42270700D01*
X136385426Y-42325847D01*
X136124273Y-42434020D01*
X135889241Y-42591063D01*
X135689363Y-42790941D01*
X135532320Y-43025973D01*
X135424147Y-43287126D01*
X135369000Y-43564365D01*
X135369000Y-43847035D01*
X135424147Y-44124274D01*
X135532320Y-44385427D01*
X135689363Y-44620459D01*
X135889241Y-44820337D01*
X136124273Y-44977380D01*
X136385426Y-45085553D01*
X136662665Y-45140700D01*
X136945335Y-45140700D01*
X137127886Y-45104388D01*
X137583301Y-45559803D01*
X137583301Y-48792890D01*
X137420111Y-48743387D01*
X137201950Y-48721900D01*
X136806050Y-48721900D01*
X136587889Y-48743387D01*
X136307966Y-48828301D01*
X136049986Y-48966194D01*
X135823866Y-49151766D01*
X135638294Y-49377886D01*
X135500401Y-49635866D01*
X135415487Y-49915789D01*
X135386815Y-50206900D01*
X135415487Y-50498011D01*
X135500401Y-50777934D01*
X135638294Y-51035914D01*
X135823866Y-51262034D01*
X136049986Y-51447606D01*
X136075722Y-51461362D01*
X135869571Y-51617851D01*
X135676504Y-51835707D01*
X135529648Y-52087042D01*
X135437524Y-52350010D01*
X135558845Y-52579900D01*
X136877000Y-52579900D01*
X136877000Y-52559900D01*
X137131000Y-52559900D01*
X137131000Y-52579900D01*
X137151000Y-52579900D01*
X137151000Y-52833900D01*
X137131000Y-52833900D01*
X137131000Y-52853900D01*
X136877000Y-52853900D01*
X136877000Y-52833900D01*
X135558845Y-52833900D01*
X135437524Y-53063790D01*
X135529648Y-53326758D01*
X135676504Y-53578093D01*
X135869571Y-53795949D01*
X135890961Y-53812186D01*
X135785614Y-53868495D01*
X135651038Y-53978938D01*
X135540595Y-54113514D01*
X135526491Y-54139900D01*
X134849500Y-54139900D01*
X134849500Y-47385223D01*
X134853176Y-47347900D01*
X134849500Y-47310577D01*
X134849500Y-47310567D01*
X134838503Y-47198914D01*
X134795046Y-47055653D01*
X134767075Y-47003324D01*
X134724474Y-46923623D01*
X134653299Y-46836897D01*
X134629501Y-46807899D01*
X134600503Y-46784101D01*
X134283810Y-46467408D01*
X134327600Y-46247260D01*
X134327600Y-45954740D01*
X134270532Y-45667842D01*
X134158590Y-45397589D01*
X133996075Y-45154368D01*
X133789232Y-44947525D01*
X133614840Y-44831000D01*
X133789232Y-44714475D01*
X133996075Y-44507632D01*
X134158590Y-44264411D01*
X134270532Y-43994158D01*
X134327600Y-43707260D01*
X134327600Y-43414740D01*
X134270532Y-43127842D01*
X134158590Y-42857589D01*
X133996075Y-42614368D01*
X133789232Y-42407525D01*
X133614840Y-42291000D01*
X133789232Y-42174475D01*
X133996075Y-41967632D01*
X134158590Y-41724411D01*
X134270532Y-41454158D01*
X134327600Y-41167260D01*
X134327600Y-40874740D01*
X134270532Y-40587842D01*
X134169438Y-40343777D01*
X134267476Y-40291374D01*
X134383201Y-40196401D01*
X134407004Y-40167397D01*
X137315004Y-37259398D01*
X137344001Y-37235601D01*
X137438974Y-37119876D01*
X137509546Y-36987847D01*
X137553003Y-36844586D01*
X137564000Y-36732933D01*
X137564000Y-36732932D01*
X137567677Y-36695600D01*
X137564000Y-36658267D01*
X137564000Y-34923743D01*
X137718759Y-34820337D01*
X137918637Y-34620459D01*
X138064800Y-34401710D01*
X138064800Y-43009690D01*
%TA.AperFunction,Conductor*%
D28*
G36*
X138064800Y-43009690D02*
G01*
X137918637Y-42790941D01*
X137718759Y-42591063D01*
X137483727Y-42434020D01*
X137222574Y-42325847D01*
X136945335Y-42270700D01*
X136662665Y-42270700D01*
X136385426Y-42325847D01*
X136124273Y-42434020D01*
X135889241Y-42591063D01*
X135689363Y-42790941D01*
X135532320Y-43025973D01*
X135424147Y-43287126D01*
X135369000Y-43564365D01*
X135369000Y-43847035D01*
X135424147Y-44124274D01*
X135532320Y-44385427D01*
X135689363Y-44620459D01*
X135889241Y-44820337D01*
X136124273Y-44977380D01*
X136385426Y-45085553D01*
X136662665Y-45140700D01*
X136945335Y-45140700D01*
X137127886Y-45104388D01*
X137583301Y-45559803D01*
X137583301Y-48792890D01*
X137420111Y-48743387D01*
X137201950Y-48721900D01*
X136806050Y-48721900D01*
X136587889Y-48743387D01*
X136307966Y-48828301D01*
X136049986Y-48966194D01*
X135823866Y-49151766D01*
X135638294Y-49377886D01*
X135500401Y-49635866D01*
X135415487Y-49915789D01*
X135386815Y-50206900D01*
X135415487Y-50498011D01*
X135500401Y-50777934D01*
X135638294Y-51035914D01*
X135823866Y-51262034D01*
X136049986Y-51447606D01*
X136075722Y-51461362D01*
X135869571Y-51617851D01*
X135676504Y-51835707D01*
X135529648Y-52087042D01*
X135437524Y-52350010D01*
X135558845Y-52579900D01*
X136877000Y-52579900D01*
X136877000Y-52559900D01*
X137131000Y-52559900D01*
X137131000Y-52579900D01*
X137151000Y-52579900D01*
X137151000Y-52833900D01*
X137131000Y-52833900D01*
X137131000Y-52853900D01*
X136877000Y-52853900D01*
X136877000Y-52833900D01*
X135558845Y-52833900D01*
X135437524Y-53063790D01*
X135529648Y-53326758D01*
X135676504Y-53578093D01*
X135869571Y-53795949D01*
X135890961Y-53812186D01*
X135785614Y-53868495D01*
X135651038Y-53978938D01*
X135540595Y-54113514D01*
X135526491Y-54139900D01*
X134849500Y-54139900D01*
X134849500Y-47385223D01*
X134853176Y-47347900D01*
X134849500Y-47310577D01*
X134849500Y-47310567D01*
X134838503Y-47198914D01*
X134795046Y-47055653D01*
X134767075Y-47003324D01*
X134724474Y-46923623D01*
X134653299Y-46836897D01*
X134629501Y-46807899D01*
X134600503Y-46784101D01*
X134283810Y-46467408D01*
X134327600Y-46247260D01*
X134327600Y-45954740D01*
X134270532Y-45667842D01*
X134158590Y-45397589D01*
X133996075Y-45154368D01*
X133789232Y-44947525D01*
X133614840Y-44831000D01*
X133789232Y-44714475D01*
X133996075Y-44507632D01*
X134158590Y-44264411D01*
X134270532Y-43994158D01*
X134327600Y-43707260D01*
X134327600Y-43414740D01*
X134270532Y-43127842D01*
X134158590Y-42857589D01*
X133996075Y-42614368D01*
X133789232Y-42407525D01*
X133614840Y-42291000D01*
X133789232Y-42174475D01*
X133996075Y-41967632D01*
X134158590Y-41724411D01*
X134270532Y-41454158D01*
X134327600Y-41167260D01*
X134327600Y-40874740D01*
X134270532Y-40587842D01*
X134169438Y-40343777D01*
X134267476Y-40291374D01*
X134383201Y-40196401D01*
X134407004Y-40167397D01*
X137315004Y-37259398D01*
X137344001Y-37235601D01*
X137438974Y-37119876D01*
X137509546Y-36987847D01*
X137553003Y-36844586D01*
X137564000Y-36732933D01*
X137564000Y-36732932D01*
X137567677Y-36695600D01*
X137564000Y-36658267D01*
X137564000Y-34923743D01*
X137718759Y-34820337D01*
X137918637Y-34620459D01*
X138064800Y-34401710D01*
X138064800Y-43009690D01*
G37*
%TD.AperFunction*%
D27*
X112766002Y-48181503D02*
X112611300Y-48263145D01*
X112611300Y-49456300D01*
X113805114Y-49456300D01*
X113886240Y-49301742D01*
X115006500Y-50422002D01*
X115030299Y-50451001D01*
X115146024Y-50545974D01*
X115278053Y-50616546D01*
X115421314Y-50660003D01*
X115532967Y-50671000D01*
X115532976Y-50671000D01*
X115570299Y-50674676D01*
X115607622Y-50671000D01*
X116206497Y-50671000D01*
X116174668Y-50747842D01*
X116117600Y-51034740D01*
X116117600Y-51327260D01*
X116174668Y-51614158D01*
X116206497Y-51691000D01*
X115428222Y-51691000D01*
X115390899Y-51687324D01*
X115353576Y-51691000D01*
X115353567Y-51691000D01*
X115241914Y-51701997D01*
X115125903Y-51737188D01*
X115098653Y-51745454D01*
X114966623Y-51816026D01*
X114894454Y-51875254D01*
X114850899Y-51910999D01*
X114827101Y-51939997D01*
X114039199Y-52727900D01*
X113853919Y-52727900D01*
X113924932Y-52556458D01*
X113982000Y-52269560D01*
X113982000Y-51977040D01*
X113924932Y-51690142D01*
X113812990Y-51419889D01*
X113650475Y-51176668D01*
X113443632Y-50969825D01*
X113260895Y-50847724D01*
X113484569Y-50680888D01*
X113679478Y-50464655D01*
X113828457Y-50214552D01*
X113925781Y-49940191D01*
X113805114Y-49710300D01*
X112611300Y-49710300D01*
X112611300Y-49730300D01*
X112357300Y-49730300D01*
X112357300Y-49710300D01*
X110071300Y-49710300D01*
X110071300Y-49730300D01*
X109817300Y-49730300D01*
X109817300Y-49710300D01*
X107531300Y-49710300D01*
X107531300Y-49730300D01*
X107277300Y-49730300D01*
X107277300Y-49710300D01*
X104991300Y-49710300D01*
X104991300Y-49730300D01*
X104737300Y-49730300D01*
X104737300Y-49710300D01*
X104717300Y-49710300D01*
X104717300Y-49456300D01*
X104737300Y-49456300D01*
X104737300Y-48263145D01*
X104991300Y-48263145D01*
X104991300Y-49456300D01*
X107277300Y-49456300D01*
X107277300Y-48263145D01*
X107531300Y-48263145D01*
X107531300Y-49456300D01*
X109817300Y-49456300D01*
X109817300Y-48263145D01*
X110071300Y-48263145D01*
X110071300Y-49456300D01*
X112357300Y-49456300D01*
X112357300Y-48263145D01*
X112127410Y-48141824D01*
X111980201Y-48186475D01*
X111717380Y-48311659D01*
X111484031Y-48485712D01*
X111289122Y-48701945D01*
X111214300Y-48827555D01*
X111139478Y-48701945D01*
X110944569Y-48485712D01*
X110711220Y-48311659D01*
X110448399Y-48186475D01*
X110301190Y-48141824D01*
X110071300Y-48263145D01*
X109817300Y-48263145D01*
X109587410Y-48141824D01*
X109440201Y-48186475D01*
X109177380Y-48311659D01*
X108944031Y-48485712D01*
X108749122Y-48701945D01*
X108674300Y-48827555D01*
X108599478Y-48701945D01*
X108404569Y-48485712D01*
X108171220Y-48311659D01*
X107908399Y-48186475D01*
X107761190Y-48141824D01*
X107531300Y-48263145D01*
X107277300Y-48263145D01*
X107047410Y-48141824D01*
X106900201Y-48186475D01*
X106637380Y-48311659D01*
X106404031Y-48485712D01*
X106209122Y-48701945D01*
X106134300Y-48827555D01*
X106059478Y-48701945D01*
X105864569Y-48485712D01*
X105631220Y-48311659D01*
X105368399Y-48186475D01*
X105221190Y-48141824D01*
X104991300Y-48263145D01*
X104737300Y-48263145D01*
X104507410Y-48141824D01*
X104360201Y-48186475D01*
X104097380Y-48311659D01*
X103864031Y-48485712D01*
X103669122Y-48701945D01*
X103520143Y-48952048D01*
X103422819Y-49226409D01*
X103543485Y-49456298D01*
X103532287Y-49456298D01*
X102305100Y-48229111D01*
X102305100Y-47514195D01*
X102365326Y-47368798D01*
X102405100Y-47168839D01*
X102405100Y-47084900D01*
X111669399Y-47084900D01*
X112766002Y-48181503D01*
%TA.AperFunction,Conductor*%
D28*
G36*
X112766002Y-48181503D02*
G01*
X112611300Y-48263145D01*
X112611300Y-49456300D01*
X113805114Y-49456300D01*
X113886240Y-49301742D01*
X115006500Y-50422002D01*
X115030299Y-50451001D01*
X115146024Y-50545974D01*
X115278053Y-50616546D01*
X115421314Y-50660003D01*
X115532967Y-50671000D01*
X115532976Y-50671000D01*
X115570299Y-50674676D01*
X115607622Y-50671000D01*
X116206497Y-50671000D01*
X116174668Y-50747842D01*
X116117600Y-51034740D01*
X116117600Y-51327260D01*
X116174668Y-51614158D01*
X116206497Y-51691000D01*
X115428222Y-51691000D01*
X115390899Y-51687324D01*
X115353576Y-51691000D01*
X115353567Y-51691000D01*
X115241914Y-51701997D01*
X115125903Y-51737188D01*
X115098653Y-51745454D01*
X114966623Y-51816026D01*
X114894454Y-51875254D01*
X114850899Y-51910999D01*
X114827101Y-51939997D01*
X114039199Y-52727900D01*
X113853919Y-52727900D01*
X113924932Y-52556458D01*
X113982000Y-52269560D01*
X113982000Y-51977040D01*
X113924932Y-51690142D01*
X113812990Y-51419889D01*
X113650475Y-51176668D01*
X113443632Y-50969825D01*
X113260895Y-50847724D01*
X113484569Y-50680888D01*
X113679478Y-50464655D01*
X113828457Y-50214552D01*
X113925781Y-49940191D01*
X113805114Y-49710300D01*
X112611300Y-49710300D01*
X112611300Y-49730300D01*
X112357300Y-49730300D01*
X112357300Y-49710300D01*
X110071300Y-49710300D01*
X110071300Y-49730300D01*
X109817300Y-49730300D01*
X109817300Y-49710300D01*
X107531300Y-49710300D01*
X107531300Y-49730300D01*
X107277300Y-49730300D01*
X107277300Y-49710300D01*
X104991300Y-49710300D01*
X104991300Y-49730300D01*
X104737300Y-49730300D01*
X104737300Y-49710300D01*
X104717300Y-49710300D01*
X104717300Y-49456300D01*
X104737300Y-49456300D01*
X104737300Y-48263145D01*
X104991300Y-48263145D01*
X104991300Y-49456300D01*
X107277300Y-49456300D01*
X107277300Y-48263145D01*
X107531300Y-48263145D01*
X107531300Y-49456300D01*
X109817300Y-49456300D01*
X109817300Y-48263145D01*
X110071300Y-48263145D01*
X110071300Y-49456300D01*
X112357300Y-49456300D01*
X112357300Y-48263145D01*
X112127410Y-48141824D01*
X111980201Y-48186475D01*
X111717380Y-48311659D01*
X111484031Y-48485712D01*
X111289122Y-48701945D01*
X111214300Y-48827555D01*
X111139478Y-48701945D01*
X110944569Y-48485712D01*
X110711220Y-48311659D01*
X110448399Y-48186475D01*
X110301190Y-48141824D01*
X110071300Y-48263145D01*
X109817300Y-48263145D01*
X109587410Y-48141824D01*
X109440201Y-48186475D01*
X109177380Y-48311659D01*
X108944031Y-48485712D01*
X108749122Y-48701945D01*
X108674300Y-48827555D01*
X108599478Y-48701945D01*
X108404569Y-48485712D01*
X108171220Y-48311659D01*
X107908399Y-48186475D01*
X107761190Y-48141824D01*
X107531300Y-48263145D01*
X107277300Y-48263145D01*
X107047410Y-48141824D01*
X106900201Y-48186475D01*
X106637380Y-48311659D01*
X106404031Y-48485712D01*
X106209122Y-48701945D01*
X106134300Y-48827555D01*
X106059478Y-48701945D01*
X105864569Y-48485712D01*
X105631220Y-48311659D01*
X105368399Y-48186475D01*
X105221190Y-48141824D01*
X104991300Y-48263145D01*
X104737300Y-48263145D01*
X104507410Y-48141824D01*
X104360201Y-48186475D01*
X104097380Y-48311659D01*
X103864031Y-48485712D01*
X103669122Y-48701945D01*
X103520143Y-48952048D01*
X103422819Y-49226409D01*
X103543485Y-49456298D01*
X103532287Y-49456298D01*
X102305100Y-48229111D01*
X102305100Y-47514195D01*
X102365326Y-47368798D01*
X102405100Y-47168839D01*
X102405100Y-47084900D01*
X111669399Y-47084900D01*
X112766002Y-48181503D01*
G37*
%TD.AperFunction*%
D27*
X66005200Y-28035250D02*
X66163950Y-28194000D01*
X67513200Y-28194000D01*
X67513200Y-28174000D01*
X67767200Y-28174000D01*
X67767200Y-28194000D01*
X69116450Y-28194000D01*
X69275200Y-28035250D01*
X69277580Y-27482000D01*
X78759480Y-27482000D01*
X78723996Y-27598973D01*
X78702128Y-27821000D01*
X78702128Y-28821000D01*
X78723996Y-29043027D01*
X78788759Y-29256521D01*
X78893928Y-29453279D01*
X79035462Y-29625738D01*
X79207921Y-29767272D01*
X79404679Y-29872441D01*
X79618173Y-29937204D01*
X79840200Y-29959072D01*
X80655982Y-29959072D01*
X80901801Y-30204891D01*
X80901800Y-36848995D01*
X80840200Y-36842928D01*
X79840200Y-36842928D01*
X79618173Y-36864796D01*
X79404679Y-36929559D01*
X79207921Y-37034728D01*
X79035462Y-37176262D01*
X78893928Y-37348721D01*
X78788759Y-37545479D01*
X78723996Y-37758973D01*
X78702128Y-37981000D01*
X78702128Y-38981000D01*
X78723996Y-39203027D01*
X78788759Y-39416521D01*
X78893928Y-39613279D01*
X79035462Y-39785738D01*
X79207921Y-39927272D01*
X79404679Y-40032441D01*
X79405201Y-40032599D01*
X79405200Y-41780168D01*
X79400676Y-41826100D01*
X79405200Y-41872031D01*
X79418729Y-42009391D01*
X79472193Y-42185639D01*
X79559014Y-42348071D01*
X79607195Y-42406780D01*
X79600306Y-42410463D01*
X79503615Y-42489815D01*
X79424263Y-42586506D01*
X79365298Y-42696820D01*
X79328988Y-42816518D01*
X79316728Y-42941000D01*
X79316728Y-44741000D01*
X79328988Y-44865482D01*
X79365298Y-44985180D01*
X79424263Y-45095494D01*
X79427487Y-45099423D01*
X77104611Y-47422300D01*
X76775272Y-47422300D01*
X76775272Y-46351700D01*
X76763012Y-46227218D01*
X76726702Y-46107520D01*
X76667737Y-45997206D01*
X76588385Y-45900515D01*
X76491694Y-45821163D01*
X76381380Y-45762198D01*
X76261682Y-45725888D01*
X76137200Y-45713628D01*
X74637200Y-45713628D01*
X74512718Y-45725888D01*
X74393020Y-45762198D01*
X74282706Y-45821163D01*
X74225555Y-45868066D01*
X72916182Y-44558693D01*
X74609812Y-44558693D01*
X74675337Y-44797560D01*
X74922316Y-44913460D01*
X75187160Y-44978950D01*
X75459692Y-44991512D01*
X75729438Y-44950665D01*
X75986032Y-44857977D01*
X76099063Y-44797560D01*
X76164588Y-44558693D01*
X75387200Y-43781305D01*
X74609812Y-44558693D01*
X72916182Y-44558693D01*
X72031681Y-43674192D01*
X73997388Y-43674192D01*
X74038235Y-43943938D01*
X74130923Y-44200532D01*
X74191340Y-44313563D01*
X74430207Y-44379088D01*
X75207595Y-43601700D01*
X75566805Y-43601700D01*
X76344193Y-44379088D01*
X76583060Y-44313563D01*
X76698960Y-44066584D01*
X76764450Y-43801740D01*
X76777012Y-43529208D01*
X76736165Y-43259462D01*
X76643477Y-43002868D01*
X76583060Y-42889837D01*
X76344193Y-42824312D01*
X75566805Y-43601700D01*
X75207595Y-43601700D01*
X74430207Y-42824312D01*
X74191340Y-42889837D01*
X74075440Y-43136816D01*
X74009950Y-43401660D01*
X73997388Y-43674192D01*
X72031681Y-43674192D01*
X71002196Y-42644707D01*
X74609812Y-42644707D01*
X75387200Y-43422095D01*
X76164588Y-42644707D01*
X76099063Y-42405840D01*
X75852084Y-42289940D01*
X75587240Y-42224450D01*
X75314708Y-42211888D01*
X75044962Y-42252735D01*
X74788368Y-42345423D01*
X74675337Y-42405840D01*
X74609812Y-42644707D01*
X71002196Y-42644707D01*
X68586730Y-40229241D01*
X68557444Y-40193556D01*
X68465771Y-40118322D01*
X68640200Y-40119072D01*
X68764682Y-40106812D01*
X68884380Y-40070502D01*
X68994694Y-40011537D01*
X69091385Y-39932185D01*
X69170737Y-39835494D01*
X69229702Y-39725180D01*
X69266012Y-39605482D01*
X69278272Y-39481000D01*
X69275200Y-38766750D01*
X69116450Y-38608000D01*
X67767200Y-38608000D01*
X67767200Y-38628000D01*
X67513200Y-38628000D01*
X67513200Y-38608000D01*
X66163950Y-38608000D01*
X66005200Y-38766750D01*
X66002128Y-39481000D01*
X66014388Y-39605482D01*
X66050698Y-39725180D01*
X66109663Y-39835494D01*
X66181395Y-39922900D01*
X66177589Y-39922900D01*
X65008672Y-38753983D01*
X65008672Y-38688200D01*
X65006264Y-38663750D01*
X65006264Y-38639191D01*
X64994004Y-38514710D01*
X64974882Y-38418577D01*
X64938573Y-38298881D01*
X64901064Y-38208325D01*
X64842098Y-38098008D01*
X64805600Y-38043385D01*
X64805600Y-37481000D01*
X66002128Y-37481000D01*
X66005200Y-38195250D01*
X66163950Y-38354000D01*
X67513200Y-38354000D01*
X67513200Y-37004750D01*
X67767200Y-37004750D01*
X67767200Y-38354000D01*
X69116450Y-38354000D01*
X69275200Y-38195250D01*
X69278272Y-37481000D01*
X69266012Y-37356518D01*
X69229702Y-37236820D01*
X69170737Y-37126506D01*
X69091385Y-37029815D01*
X68994694Y-36950463D01*
X68884380Y-36891498D01*
X68764682Y-36855188D01*
X68640200Y-36842928D01*
X67925950Y-36846000D01*
X67767200Y-37004750D01*
X67513200Y-37004750D01*
X67354450Y-36846000D01*
X66640200Y-36842928D01*
X66515718Y-36855188D01*
X66396020Y-36891498D01*
X66285706Y-36950463D01*
X66189015Y-37029815D01*
X66109663Y-37126506D01*
X66050698Y-37236820D01*
X66014388Y-37356518D01*
X66002128Y-37481000D01*
X64805600Y-37481000D01*
X64805600Y-35520895D01*
X64862964Y-35413575D01*
X64900473Y-35323019D01*
X64936782Y-35203323D01*
X64955904Y-35107190D01*
X64968164Y-34982709D01*
X64968164Y-34958150D01*
X64970572Y-34933700D01*
X64970572Y-34433700D01*
X64968164Y-34409250D01*
X64968164Y-34384691D01*
X64955904Y-34260210D01*
X64936782Y-34164077D01*
X64900473Y-34044381D01*
X64862964Y-33953825D01*
X64803998Y-33843508D01*
X64749542Y-33762009D01*
X64670190Y-33665318D01*
X64600882Y-33596010D01*
X64504191Y-33516658D01*
X64422692Y-33462202D01*
X64312375Y-33403236D01*
X64221819Y-33365727D01*
X64102123Y-33329418D01*
X64005990Y-33310296D01*
X63881509Y-33298036D01*
X63856950Y-33298036D01*
X63832500Y-33295628D01*
X63332500Y-33295628D01*
X63208018Y-33307888D01*
X63182500Y-33315629D01*
X63156982Y-33307888D01*
X63032500Y-33295628D01*
X62532500Y-33295628D01*
X62508050Y-33298036D01*
X62483491Y-33298036D01*
X62359010Y-33310296D01*
X62262877Y-33329418D01*
X62143181Y-33365727D01*
X62052625Y-33403236D01*
X61942308Y-33462202D01*
X61860809Y-33516658D01*
X61764118Y-33596010D01*
X61694810Y-33665318D01*
X61615458Y-33762009D01*
X61561002Y-33843508D01*
X61502036Y-33953825D01*
X61464527Y-34044381D01*
X61428218Y-34164077D01*
X61409096Y-34260210D01*
X61396836Y-34384691D01*
X61396836Y-34409250D01*
X61394428Y-34433700D01*
X61394428Y-34499483D01*
X60907841Y-34986070D01*
X60872156Y-35015356D01*
X60819500Y-35079518D01*
X60819500Y-29815004D01*
X60866516Y-29335495D01*
X60996043Y-28906481D01*
X61206433Y-28510796D01*
X61489673Y-28163508D01*
X61834973Y-27877851D01*
X62229178Y-27664704D01*
X62657284Y-27532184D01*
X62849509Y-27511980D01*
X62532443Y-27575049D01*
X62126865Y-27743045D01*
X61761854Y-27986937D01*
X61451437Y-28297354D01*
X61207545Y-28662365D01*
X61039549Y-29067943D01*
X60953905Y-29498503D01*
X60953905Y-29937497D01*
X61039549Y-30368057D01*
X61207545Y-30773635D01*
X61451437Y-31138646D01*
X61761854Y-31449063D01*
X62126865Y-31692955D01*
X62532443Y-31860951D01*
X62963003Y-31946595D01*
X63401997Y-31946595D01*
X63832557Y-31860951D01*
X64238135Y-31692955D01*
X64603146Y-31449063D01*
X64913563Y-31138646D01*
X65157455Y-30773635D01*
X65325451Y-30368057D01*
X65411095Y-29937497D01*
X65411095Y-29498503D01*
X65375788Y-29321000D01*
X66002128Y-29321000D01*
X66014388Y-29445482D01*
X66050698Y-29565180D01*
X66109663Y-29675494D01*
X66189015Y-29772185D01*
X66285706Y-29851537D01*
X66396020Y-29910502D01*
X66515718Y-29946812D01*
X66640200Y-29959072D01*
X67354450Y-29956000D01*
X67513200Y-29797250D01*
X67513200Y-28448000D01*
X67767200Y-28448000D01*
X67767200Y-29797250D01*
X67925950Y-29956000D01*
X68640200Y-29959072D01*
X68764682Y-29946812D01*
X68884380Y-29910502D01*
X68994694Y-29851537D01*
X69091385Y-29772185D01*
X69170737Y-29675494D01*
X69229702Y-29565180D01*
X69266012Y-29445482D01*
X69278272Y-29321000D01*
X69275200Y-28606750D01*
X69116450Y-28448000D01*
X67767200Y-28448000D01*
X67513200Y-28448000D01*
X66163950Y-28448000D01*
X66005200Y-28606750D01*
X66002128Y-29321000D01*
X65375788Y-29321000D01*
X65325451Y-29067943D01*
X65157455Y-28662365D01*
X64913563Y-28297354D01*
X64603146Y-27986937D01*
X64238135Y-27743045D01*
X63832557Y-27575049D01*
X63401997Y-27489405D01*
X63064299Y-27489405D01*
X63134753Y-27482000D01*
X66002820Y-27482000D01*
X66005200Y-28035250D01*
%TA.AperFunction,Conductor*%
D28*
G36*
X66005200Y-28035250D02*
G01*
X66163950Y-28194000D01*
X67513200Y-28194000D01*
X67513200Y-28174000D01*
X67767200Y-28174000D01*
X67767200Y-28194000D01*
X69116450Y-28194000D01*
X69275200Y-28035250D01*
X69277580Y-27482000D01*
X78759480Y-27482000D01*
X78723996Y-27598973D01*
X78702128Y-27821000D01*
X78702128Y-28821000D01*
X78723996Y-29043027D01*
X78788759Y-29256521D01*
X78893928Y-29453279D01*
X79035462Y-29625738D01*
X79207921Y-29767272D01*
X79404679Y-29872441D01*
X79618173Y-29937204D01*
X79840200Y-29959072D01*
X80655982Y-29959072D01*
X80901801Y-30204891D01*
X80901800Y-36848995D01*
X80840200Y-36842928D01*
X79840200Y-36842928D01*
X79618173Y-36864796D01*
X79404679Y-36929559D01*
X79207921Y-37034728D01*
X79035462Y-37176262D01*
X78893928Y-37348721D01*
X78788759Y-37545479D01*
X78723996Y-37758973D01*
X78702128Y-37981000D01*
X78702128Y-38981000D01*
X78723996Y-39203027D01*
X78788759Y-39416521D01*
X78893928Y-39613279D01*
X79035462Y-39785738D01*
X79207921Y-39927272D01*
X79404679Y-40032441D01*
X79405201Y-40032599D01*
X79405200Y-41780168D01*
X79400676Y-41826100D01*
X79405200Y-41872031D01*
X79418729Y-42009391D01*
X79472193Y-42185639D01*
X79559014Y-42348071D01*
X79607195Y-42406780D01*
X79600306Y-42410463D01*
X79503615Y-42489815D01*
X79424263Y-42586506D01*
X79365298Y-42696820D01*
X79328988Y-42816518D01*
X79316728Y-42941000D01*
X79316728Y-44741000D01*
X79328988Y-44865482D01*
X79365298Y-44985180D01*
X79424263Y-45095494D01*
X79427487Y-45099423D01*
X77104611Y-47422300D01*
X76775272Y-47422300D01*
X76775272Y-46351700D01*
X76763012Y-46227218D01*
X76726702Y-46107520D01*
X76667737Y-45997206D01*
X76588385Y-45900515D01*
X76491694Y-45821163D01*
X76381380Y-45762198D01*
X76261682Y-45725888D01*
X76137200Y-45713628D01*
X74637200Y-45713628D01*
X74512718Y-45725888D01*
X74393020Y-45762198D01*
X74282706Y-45821163D01*
X74225555Y-45868066D01*
X72916182Y-44558693D01*
X74609812Y-44558693D01*
X74675337Y-44797560D01*
X74922316Y-44913460D01*
X75187160Y-44978950D01*
X75459692Y-44991512D01*
X75729438Y-44950665D01*
X75986032Y-44857977D01*
X76099063Y-44797560D01*
X76164588Y-44558693D01*
X75387200Y-43781305D01*
X74609812Y-44558693D01*
X72916182Y-44558693D01*
X72031681Y-43674192D01*
X73997388Y-43674192D01*
X74038235Y-43943938D01*
X74130923Y-44200532D01*
X74191340Y-44313563D01*
X74430207Y-44379088D01*
X75207595Y-43601700D01*
X75566805Y-43601700D01*
X76344193Y-44379088D01*
X76583060Y-44313563D01*
X76698960Y-44066584D01*
X76764450Y-43801740D01*
X76777012Y-43529208D01*
X76736165Y-43259462D01*
X76643477Y-43002868D01*
X76583060Y-42889837D01*
X76344193Y-42824312D01*
X75566805Y-43601700D01*
X75207595Y-43601700D01*
X74430207Y-42824312D01*
X74191340Y-42889837D01*
X74075440Y-43136816D01*
X74009950Y-43401660D01*
X73997388Y-43674192D01*
X72031681Y-43674192D01*
X71002196Y-42644707D01*
X74609812Y-42644707D01*
X75387200Y-43422095D01*
X76164588Y-42644707D01*
X76099063Y-42405840D01*
X75852084Y-42289940D01*
X75587240Y-42224450D01*
X75314708Y-42211888D01*
X75044962Y-42252735D01*
X74788368Y-42345423D01*
X74675337Y-42405840D01*
X74609812Y-42644707D01*
X71002196Y-42644707D01*
X68586730Y-40229241D01*
X68557444Y-40193556D01*
X68465771Y-40118322D01*
X68640200Y-40119072D01*
X68764682Y-40106812D01*
X68884380Y-40070502D01*
X68994694Y-40011537D01*
X69091385Y-39932185D01*
X69170737Y-39835494D01*
X69229702Y-39725180D01*
X69266012Y-39605482D01*
X69278272Y-39481000D01*
X69275200Y-38766750D01*
X69116450Y-38608000D01*
X67767200Y-38608000D01*
X67767200Y-38628000D01*
X67513200Y-38628000D01*
X67513200Y-38608000D01*
X66163950Y-38608000D01*
X66005200Y-38766750D01*
X66002128Y-39481000D01*
X66014388Y-39605482D01*
X66050698Y-39725180D01*
X66109663Y-39835494D01*
X66181395Y-39922900D01*
X66177589Y-39922900D01*
X65008672Y-38753983D01*
X65008672Y-38688200D01*
X65006264Y-38663750D01*
X65006264Y-38639191D01*
X64994004Y-38514710D01*
X64974882Y-38418577D01*
X64938573Y-38298881D01*
X64901064Y-38208325D01*
X64842098Y-38098008D01*
X64805600Y-38043385D01*
X64805600Y-37481000D01*
X66002128Y-37481000D01*
X66005200Y-38195250D01*
X66163950Y-38354000D01*
X67513200Y-38354000D01*
X67513200Y-37004750D01*
X67767200Y-37004750D01*
X67767200Y-38354000D01*
X69116450Y-38354000D01*
X69275200Y-38195250D01*
X69278272Y-37481000D01*
X69266012Y-37356518D01*
X69229702Y-37236820D01*
X69170737Y-37126506D01*
X69091385Y-37029815D01*
X68994694Y-36950463D01*
X68884380Y-36891498D01*
X68764682Y-36855188D01*
X68640200Y-36842928D01*
X67925950Y-36846000D01*
X67767200Y-37004750D01*
X67513200Y-37004750D01*
X67354450Y-36846000D01*
X66640200Y-36842928D01*
X66515718Y-36855188D01*
X66396020Y-36891498D01*
X66285706Y-36950463D01*
X66189015Y-37029815D01*
X66109663Y-37126506D01*
X66050698Y-37236820D01*
X66014388Y-37356518D01*
X66002128Y-37481000D01*
X64805600Y-37481000D01*
X64805600Y-35520895D01*
X64862964Y-35413575D01*
X64900473Y-35323019D01*
X64936782Y-35203323D01*
X64955904Y-35107190D01*
X64968164Y-34982709D01*
X64968164Y-34958150D01*
X64970572Y-34933700D01*
X64970572Y-34433700D01*
X64968164Y-34409250D01*
X64968164Y-34384691D01*
X64955904Y-34260210D01*
X64936782Y-34164077D01*
X64900473Y-34044381D01*
X64862964Y-33953825D01*
X64803998Y-33843508D01*
X64749542Y-33762009D01*
X64670190Y-33665318D01*
X64600882Y-33596010D01*
X64504191Y-33516658D01*
X64422692Y-33462202D01*
X64312375Y-33403236D01*
X64221819Y-33365727D01*
X64102123Y-33329418D01*
X64005990Y-33310296D01*
X63881509Y-33298036D01*
X63856950Y-33298036D01*
X63832500Y-33295628D01*
X63332500Y-33295628D01*
X63208018Y-33307888D01*
X63182500Y-33315629D01*
X63156982Y-33307888D01*
X63032500Y-33295628D01*
X62532500Y-33295628D01*
X62508050Y-33298036D01*
X62483491Y-33298036D01*
X62359010Y-33310296D01*
X62262877Y-33329418D01*
X62143181Y-33365727D01*
X62052625Y-33403236D01*
X61942308Y-33462202D01*
X61860809Y-33516658D01*
X61764118Y-33596010D01*
X61694810Y-33665318D01*
X61615458Y-33762009D01*
X61561002Y-33843508D01*
X61502036Y-33953825D01*
X61464527Y-34044381D01*
X61428218Y-34164077D01*
X61409096Y-34260210D01*
X61396836Y-34384691D01*
X61396836Y-34409250D01*
X61394428Y-34433700D01*
X61394428Y-34499483D01*
X60907841Y-34986070D01*
X60872156Y-35015356D01*
X60819500Y-35079518D01*
X60819500Y-29815004D01*
X60866516Y-29335495D01*
X60996043Y-28906481D01*
X61206433Y-28510796D01*
X61489673Y-28163508D01*
X61834973Y-27877851D01*
X62229178Y-27664704D01*
X62657284Y-27532184D01*
X62849509Y-27511980D01*
X62532443Y-27575049D01*
X62126865Y-27743045D01*
X61761854Y-27986937D01*
X61451437Y-28297354D01*
X61207545Y-28662365D01*
X61039549Y-29067943D01*
X60953905Y-29498503D01*
X60953905Y-29937497D01*
X61039549Y-30368057D01*
X61207545Y-30773635D01*
X61451437Y-31138646D01*
X61761854Y-31449063D01*
X62126865Y-31692955D01*
X62532443Y-31860951D01*
X62963003Y-31946595D01*
X63401997Y-31946595D01*
X63832557Y-31860951D01*
X64238135Y-31692955D01*
X64603146Y-31449063D01*
X64913563Y-31138646D01*
X65157455Y-30773635D01*
X65325451Y-30368057D01*
X65411095Y-29937497D01*
X65411095Y-29498503D01*
X65375788Y-29321000D01*
X66002128Y-29321000D01*
X66014388Y-29445482D01*
X66050698Y-29565180D01*
X66109663Y-29675494D01*
X66189015Y-29772185D01*
X66285706Y-29851537D01*
X66396020Y-29910502D01*
X66515718Y-29946812D01*
X66640200Y-29959072D01*
X67354450Y-29956000D01*
X67513200Y-29797250D01*
X67513200Y-28448000D01*
X67767200Y-28448000D01*
X67767200Y-29797250D01*
X67925950Y-29956000D01*
X68640200Y-29959072D01*
X68764682Y-29946812D01*
X68884380Y-29910502D01*
X68994694Y-29851537D01*
X69091385Y-29772185D01*
X69170737Y-29675494D01*
X69229702Y-29565180D01*
X69266012Y-29445482D01*
X69278272Y-29321000D01*
X69275200Y-28606750D01*
X69116450Y-28448000D01*
X67767200Y-28448000D01*
X67513200Y-28448000D01*
X66163950Y-28448000D01*
X66005200Y-28606750D01*
X66002128Y-29321000D01*
X65375788Y-29321000D01*
X65325451Y-29067943D01*
X65157455Y-28662365D01*
X64913563Y-28297354D01*
X64603146Y-27986937D01*
X64238135Y-27743045D01*
X63832557Y-27575049D01*
X63401997Y-27489405D01*
X63064299Y-27489405D01*
X63134753Y-27482000D01*
X66002820Y-27482000D01*
X66005200Y-28035250D01*
G37*
%TD.AperFunction*%
D27*
X116199229Y-37973883D02*
X116127261Y-38257411D01*
X116111989Y-38549531D01*
X116154001Y-38839019D01*
X116251681Y-39114747D01*
X116325128Y-39252157D01*
X116574203Y-39329792D01*
X117422995Y-38481000D01*
X117408853Y-38466858D01*
X117588458Y-38287253D01*
X117602600Y-38301395D01*
X117616743Y-38287253D01*
X117796348Y-38466858D01*
X117782205Y-38481000D01*
X118630997Y-39329792D01*
X118880072Y-39252157D01*
X119005971Y-38988117D01*
X119077939Y-38704589D01*
X119093211Y-38412469D01*
X119051199Y-38122981D01*
X118982656Y-37929500D01*
X131354528Y-37929500D01*
X131354528Y-39331000D01*
X131366788Y-39455482D01*
X131382226Y-39506373D01*
X129357599Y-41531000D01*
X118998703Y-41531000D01*
X119030532Y-41454158D01*
X119087600Y-41167260D01*
X119087600Y-40874740D01*
X119030532Y-40587842D01*
X118918590Y-40317589D01*
X118756075Y-40074368D01*
X118549232Y-39867525D01*
X118375871Y-39751689D01*
X118451392Y-39509397D01*
X117602600Y-38660605D01*
X116753808Y-39509397D01*
X116829329Y-39751689D01*
X116655968Y-39867525D01*
X116449125Y-40074368D01*
X116286610Y-40317589D01*
X116174668Y-40587842D01*
X116117600Y-40874740D01*
X116117600Y-41167260D01*
X116174668Y-41454158D01*
X116206497Y-41531000D01*
X115391103Y-41531000D01*
X115422932Y-41454158D01*
X115480000Y-41167260D01*
X115480000Y-40874740D01*
X115422932Y-40587842D01*
X115310990Y-40317589D01*
X115148475Y-40074368D01*
X114941632Y-39867525D01*
X114767240Y-39751000D01*
X114941632Y-39634475D01*
X115148475Y-39427632D01*
X115310990Y-39184411D01*
X115422932Y-38914158D01*
X115480000Y-38627260D01*
X115480000Y-38334740D01*
X115422932Y-38047842D01*
X115373913Y-37929500D01*
X116220392Y-37929500D01*
X116199229Y-37973883D01*
%TA.AperFunction,Conductor*%
D28*
G36*
X116199229Y-37973883D02*
G01*
X116127261Y-38257411D01*
X116111989Y-38549531D01*
X116154001Y-38839019D01*
X116251681Y-39114747D01*
X116325128Y-39252157D01*
X116574203Y-39329792D01*
X117422995Y-38481000D01*
X117408853Y-38466858D01*
X117588458Y-38287253D01*
X117602600Y-38301395D01*
X117616743Y-38287253D01*
X117796348Y-38466858D01*
X117782205Y-38481000D01*
X118630997Y-39329792D01*
X118880072Y-39252157D01*
X119005971Y-38988117D01*
X119077939Y-38704589D01*
X119093211Y-38412469D01*
X119051199Y-38122981D01*
X118982656Y-37929500D01*
X131354528Y-37929500D01*
X131354528Y-39331000D01*
X131366788Y-39455482D01*
X131382226Y-39506373D01*
X129357599Y-41531000D01*
X118998703Y-41531000D01*
X119030532Y-41454158D01*
X119087600Y-41167260D01*
X119087600Y-40874740D01*
X119030532Y-40587842D01*
X118918590Y-40317589D01*
X118756075Y-40074368D01*
X118549232Y-39867525D01*
X118375871Y-39751689D01*
X118451392Y-39509397D01*
X117602600Y-38660605D01*
X116753808Y-39509397D01*
X116829329Y-39751689D01*
X116655968Y-39867525D01*
X116449125Y-40074368D01*
X116286610Y-40317589D01*
X116174668Y-40587842D01*
X116117600Y-40874740D01*
X116117600Y-41167260D01*
X116174668Y-41454158D01*
X116206497Y-41531000D01*
X115391103Y-41531000D01*
X115422932Y-41454158D01*
X115480000Y-41167260D01*
X115480000Y-40874740D01*
X115422932Y-40587842D01*
X115310990Y-40317589D01*
X115148475Y-40074368D01*
X114941632Y-39867525D01*
X114767240Y-39751000D01*
X114941632Y-39634475D01*
X115148475Y-39427632D01*
X115310990Y-39184411D01*
X115422932Y-38914158D01*
X115480000Y-38627260D01*
X115480000Y-38334740D01*
X115422932Y-38047842D01*
X115373913Y-37929500D01*
X116220392Y-37929500D01*
X116199229Y-37973883D01*
G37*
%TD.AperFunction*%
D27*
X94899010Y-27617589D02*
X94787068Y-27887842D01*
X94730000Y-28174740D01*
X94730000Y-28467260D01*
X94787068Y-28754158D01*
X94899010Y-29024411D01*
X95061525Y-29267632D01*
X95268368Y-29474475D01*
X95441729Y-29590311D01*
X95366208Y-29832603D01*
X96215000Y-30681395D01*
X97063792Y-29832603D01*
X96988271Y-29590311D01*
X97161632Y-29474475D01*
X97368475Y-29267632D01*
X97530990Y-29024411D01*
X97642932Y-28754158D01*
X97700000Y-28467260D01*
X97700000Y-28174740D01*
X97642932Y-27887842D01*
X97530990Y-27617589D01*
X97440392Y-27482000D01*
X112769608Y-27482000D01*
X112679010Y-27617589D01*
X112567068Y-27887842D01*
X112510000Y-28174740D01*
X112510000Y-28467260D01*
X112567068Y-28754158D01*
X112679010Y-29024411D01*
X112841525Y-29267632D01*
X113048368Y-29474475D01*
X113221729Y-29590311D01*
X113146208Y-29832603D01*
X113995000Y-30681395D01*
X114843792Y-29832603D01*
X114768271Y-29590311D01*
X114941632Y-29474475D01*
X115148475Y-29267632D01*
X115156247Y-29256000D01*
X132555811Y-29256000D01*
X132672739Y-29372928D01*
X131992600Y-29372928D01*
X131868118Y-29385188D01*
X131748420Y-29421498D01*
X131638106Y-29480463D01*
X131541415Y-29559815D01*
X131462063Y-29656506D01*
X131403098Y-29766820D01*
X131366788Y-29886518D01*
X131354528Y-30011000D01*
X131354528Y-31711000D01*
X131366788Y-31835482D01*
X131403098Y-31955180D01*
X131462063Y-32065494D01*
X131541415Y-32162185D01*
X131638106Y-32241537D01*
X131748420Y-32300502D01*
X131868118Y-32336812D01*
X131992600Y-32349072D01*
X132001142Y-32349072D01*
X131993808Y-32372603D01*
X132842600Y-33221395D01*
X133691392Y-32372603D01*
X133684058Y-32349072D01*
X133692600Y-32349072D01*
X133817082Y-32336812D01*
X133936780Y-32300502D01*
X134047094Y-32241537D01*
X134143785Y-32162185D01*
X134223137Y-32065494D01*
X134282102Y-31955180D01*
X134318412Y-31835482D01*
X134330672Y-31711000D01*
X134330672Y-31030862D01*
X135890219Y-32590409D01*
X135889241Y-32591063D01*
X135689363Y-32790941D01*
X135532320Y-33025973D01*
X135424147Y-33287126D01*
X135369000Y-33564365D01*
X135369000Y-33847035D01*
X135424147Y-34124274D01*
X135532320Y-34385427D01*
X135689363Y-34620459D01*
X135889241Y-34820337D01*
X136044001Y-34923744D01*
X136044000Y-36380798D01*
X134330672Y-38094127D01*
X134330672Y-37631000D01*
X134318412Y-37506518D01*
X134282102Y-37386820D01*
X134223137Y-37276506D01*
X134143785Y-37179815D01*
X134047094Y-37100463D01*
X133936780Y-37041498D01*
X133864220Y-37019487D01*
X133996075Y-36887632D01*
X134158590Y-36644411D01*
X134270532Y-36374158D01*
X134327600Y-36087260D01*
X134327600Y-35794740D01*
X134270532Y-35507842D01*
X134158590Y-35237589D01*
X133996075Y-34994368D01*
X133789232Y-34787525D01*
X133615871Y-34671689D01*
X133691392Y-34429397D01*
X132842600Y-33580605D01*
X131993808Y-34429397D01*
X132069329Y-34671689D01*
X131895968Y-34787525D01*
X131689125Y-34994368D01*
X131526610Y-35237589D01*
X131414668Y-35507842D01*
X131357600Y-35794740D01*
X131357600Y-36087260D01*
X131401391Y-36307408D01*
X131299299Y-36409500D01*
X119015773Y-36409500D01*
X119077939Y-36164589D01*
X119093211Y-35872469D01*
X119051199Y-35582981D01*
X118953519Y-35307253D01*
X118880072Y-35169843D01*
X118630997Y-35092208D01*
X117782205Y-35941000D01*
X117796348Y-35955143D01*
X117616743Y-36134748D01*
X117602600Y-36120605D01*
X117588458Y-36134748D01*
X117408853Y-35955143D01*
X117422995Y-35941000D01*
X116574203Y-35092208D01*
X116325128Y-35169843D01*
X116199229Y-35433883D01*
X116127261Y-35717411D01*
X116111989Y-36009531D01*
X116154001Y-36299019D01*
X116193140Y-36409500D01*
X115408293Y-36409500D01*
X115422932Y-36374158D01*
X115480000Y-36087260D01*
X115480000Y-35794740D01*
X115422932Y-35507842D01*
X115310990Y-35237589D01*
X115148475Y-34994368D01*
X114941632Y-34787525D01*
X114767240Y-34671000D01*
X114941632Y-34554475D01*
X115148475Y-34347632D01*
X115310990Y-34104411D01*
X115422932Y-33834158D01*
X115480000Y-33547260D01*
X115480000Y-33254740D01*
X115422932Y-32967842D01*
X115310990Y-32697589D01*
X115148475Y-32454368D01*
X114941632Y-32247525D01*
X114768271Y-32131689D01*
X114843792Y-31889397D01*
X113995000Y-31040605D01*
X113146208Y-31889397D01*
X113221729Y-32131689D01*
X113048368Y-32247525D01*
X112841525Y-32454368D01*
X112679010Y-32697589D01*
X112567068Y-32967842D01*
X112510000Y-33254740D01*
X112510000Y-33547260D01*
X112521342Y-33604281D01*
X112448433Y-33597100D01*
X112448422Y-33597100D01*
X112411100Y-33593424D01*
X112373778Y-33597100D01*
X97690086Y-33597100D01*
X97700000Y-33547260D01*
X97700000Y-33254740D01*
X97642932Y-32967842D01*
X97530990Y-32697589D01*
X97368475Y-32454368D01*
X97161632Y-32247525D01*
X96988271Y-32131689D01*
X97063792Y-31889397D01*
X96215000Y-31040605D01*
X95366208Y-31889397D01*
X95441729Y-32131689D01*
X95268368Y-32247525D01*
X95061525Y-32454368D01*
X94899010Y-32697589D01*
X94787068Y-32967842D01*
X94730000Y-33254740D01*
X94730000Y-33547260D01*
X94787068Y-33834158D01*
X94841886Y-33966500D01*
X90502900Y-33966500D01*
X90501600Y-33452750D01*
X90342850Y-33294000D01*
X88493600Y-33294000D01*
X88493600Y-35143250D01*
X88521024Y-35170674D01*
X88089799Y-35601900D01*
X83409525Y-35601900D01*
X83372200Y-35598224D01*
X83334875Y-35601900D01*
X83334867Y-35601900D01*
X83223214Y-35612897D01*
X83079953Y-35656354D01*
X82947924Y-35726926D01*
X82832199Y-35821899D01*
X82808396Y-35850903D01*
X82771800Y-35887499D01*
X82771800Y-34667000D01*
X86228528Y-34667000D01*
X86240788Y-34791482D01*
X86277098Y-34911180D01*
X86336063Y-35021494D01*
X86415415Y-35118185D01*
X86512106Y-35197537D01*
X86622420Y-35256502D01*
X86742118Y-35292812D01*
X86866600Y-35305072D01*
X88080850Y-35302000D01*
X88239600Y-35143250D01*
X88239600Y-33294000D01*
X86390350Y-33294000D01*
X86231600Y-33452750D01*
X86228528Y-34667000D01*
X82771800Y-34667000D01*
X82771800Y-31667000D01*
X86228528Y-31667000D01*
X86231600Y-32881250D01*
X86390350Y-33040000D01*
X88239600Y-33040000D01*
X88239600Y-31190750D01*
X88493600Y-31190750D01*
X88493600Y-33040000D01*
X90342850Y-33040000D01*
X90501600Y-32881250D01*
X90504672Y-31667000D01*
X90492412Y-31542518D01*
X90456102Y-31422820D01*
X90397137Y-31312506D01*
X90317785Y-31215815D01*
X90221094Y-31136463D01*
X90110780Y-31077498D01*
X89991082Y-31041188D01*
X89866600Y-31028928D01*
X88652350Y-31032000D01*
X88493600Y-31190750D01*
X88239600Y-31190750D01*
X88080850Y-31032000D01*
X86866600Y-31028928D01*
X86742118Y-31041188D01*
X86622420Y-31077498D01*
X86512106Y-31136463D01*
X86415415Y-31215815D01*
X86336063Y-31312506D01*
X86277098Y-31422820D01*
X86240788Y-31542518D01*
X86228528Y-31667000D01*
X82771800Y-31667000D01*
X82771800Y-30929531D01*
X94724389Y-30929531D01*
X94766401Y-31219019D01*
X94864081Y-31494747D01*
X94937528Y-31632157D01*
X95186603Y-31709792D01*
X96035395Y-30861000D01*
X96394605Y-30861000D01*
X97243397Y-31709792D01*
X97492472Y-31632157D01*
X97618371Y-31368117D01*
X97690339Y-31084589D01*
X97698445Y-30929531D01*
X112504389Y-30929531D01*
X112546401Y-31219019D01*
X112644081Y-31494747D01*
X112717528Y-31632157D01*
X112966603Y-31709792D01*
X113815395Y-30861000D01*
X114174605Y-30861000D01*
X115023397Y-31709792D01*
X115272472Y-31632157D01*
X115398371Y-31368117D01*
X115470339Y-31084589D01*
X115485611Y-30792469D01*
X115474331Y-30714740D01*
X116117600Y-30714740D01*
X116117600Y-31007260D01*
X116174668Y-31294158D01*
X116286610Y-31564411D01*
X116449125Y-31807632D01*
X116655968Y-32014475D01*
X116830360Y-32131000D01*
X116655968Y-32247525D01*
X116449125Y-32454368D01*
X116286610Y-32697589D01*
X116174668Y-32967842D01*
X116117600Y-33254740D01*
X116117600Y-33547260D01*
X116174668Y-33834158D01*
X116286610Y-34104411D01*
X116449125Y-34347632D01*
X116655968Y-34554475D01*
X116829329Y-34670311D01*
X116753808Y-34912603D01*
X117602600Y-35761395D01*
X118451392Y-34912603D01*
X118375871Y-34670311D01*
X118549232Y-34554475D01*
X118756075Y-34347632D01*
X118918590Y-34104411D01*
X119030532Y-33834158D01*
X119087600Y-33547260D01*
X119087600Y-33469531D01*
X131351989Y-33469531D01*
X131394001Y-33759019D01*
X131491681Y-34034747D01*
X131565128Y-34172157D01*
X131814203Y-34249792D01*
X132662995Y-33401000D01*
X133022205Y-33401000D01*
X133870997Y-34249792D01*
X134120072Y-34172157D01*
X134245971Y-33908117D01*
X134317939Y-33624589D01*
X134333211Y-33332469D01*
X134291199Y-33042981D01*
X134193519Y-32767253D01*
X134120072Y-32629843D01*
X133870997Y-32552208D01*
X133022205Y-33401000D01*
X132662995Y-33401000D01*
X131814203Y-32552208D01*
X131565128Y-32629843D01*
X131439229Y-32893883D01*
X131367261Y-33177411D01*
X131351989Y-33469531D01*
X119087600Y-33469531D01*
X119087600Y-33254740D01*
X119030532Y-32967842D01*
X118918590Y-32697589D01*
X118756075Y-32454368D01*
X118549232Y-32247525D01*
X118374840Y-32131000D01*
X118549232Y-32014475D01*
X118756075Y-31807632D01*
X118918590Y-31564411D01*
X119030532Y-31294158D01*
X119087600Y-31007260D01*
X119087600Y-30714740D01*
X119030532Y-30427842D01*
X118918590Y-30157589D01*
X118756075Y-29914368D01*
X118549232Y-29707525D01*
X118306011Y-29545010D01*
X118035758Y-29433068D01*
X117748860Y-29376000D01*
X117456340Y-29376000D01*
X117169442Y-29433068D01*
X116899189Y-29545010D01*
X116655968Y-29707525D01*
X116449125Y-29914368D01*
X116286610Y-30157589D01*
X116174668Y-30427842D01*
X116117600Y-30714740D01*
X115474331Y-30714740D01*
X115443599Y-30502981D01*
X115345919Y-30227253D01*
X115272472Y-30089843D01*
X115023397Y-30012208D01*
X114174605Y-30861000D01*
X113815395Y-30861000D01*
X112966603Y-30012208D01*
X112717528Y-30089843D01*
X112591629Y-30353883D01*
X112519661Y-30637411D01*
X112504389Y-30929531D01*
X97698445Y-30929531D01*
X97705611Y-30792469D01*
X97663599Y-30502981D01*
X97565919Y-30227253D01*
X97492472Y-30089843D01*
X97243397Y-30012208D01*
X96394605Y-30861000D01*
X96035395Y-30861000D01*
X95186603Y-30012208D01*
X94937528Y-30089843D01*
X94811629Y-30353883D01*
X94739661Y-30637411D01*
X94724389Y-30929531D01*
X82771800Y-30929531D01*
X82771800Y-29863531D01*
X82776324Y-29817599D01*
X82758271Y-29634308D01*
X82737301Y-29565180D01*
X82704807Y-29458060D01*
X82617986Y-29295628D01*
X82501144Y-29153256D01*
X82465464Y-29123974D01*
X81978272Y-28636782D01*
X81978272Y-27821000D01*
X81956404Y-27598973D01*
X81920920Y-27482000D01*
X94989608Y-27482000D01*
X94899010Y-27617589D01*
%TA.AperFunction,Conductor*%
D28*
G36*
X94899010Y-27617589D02*
G01*
X94787068Y-27887842D01*
X94730000Y-28174740D01*
X94730000Y-28467260D01*
X94787068Y-28754158D01*
X94899010Y-29024411D01*
X95061525Y-29267632D01*
X95268368Y-29474475D01*
X95441729Y-29590311D01*
X95366208Y-29832603D01*
X96215000Y-30681395D01*
X97063792Y-29832603D01*
X96988271Y-29590311D01*
X97161632Y-29474475D01*
X97368475Y-29267632D01*
X97530990Y-29024411D01*
X97642932Y-28754158D01*
X97700000Y-28467260D01*
X97700000Y-28174740D01*
X97642932Y-27887842D01*
X97530990Y-27617589D01*
X97440392Y-27482000D01*
X112769608Y-27482000D01*
X112679010Y-27617589D01*
X112567068Y-27887842D01*
X112510000Y-28174740D01*
X112510000Y-28467260D01*
X112567068Y-28754158D01*
X112679010Y-29024411D01*
X112841525Y-29267632D01*
X113048368Y-29474475D01*
X113221729Y-29590311D01*
X113146208Y-29832603D01*
X113995000Y-30681395D01*
X114843792Y-29832603D01*
X114768271Y-29590311D01*
X114941632Y-29474475D01*
X115148475Y-29267632D01*
X115156247Y-29256000D01*
X132555811Y-29256000D01*
X132672739Y-29372928D01*
X131992600Y-29372928D01*
X131868118Y-29385188D01*
X131748420Y-29421498D01*
X131638106Y-29480463D01*
X131541415Y-29559815D01*
X131462063Y-29656506D01*
X131403098Y-29766820D01*
X131366788Y-29886518D01*
X131354528Y-30011000D01*
X131354528Y-31711000D01*
X131366788Y-31835482D01*
X131403098Y-31955180D01*
X131462063Y-32065494D01*
X131541415Y-32162185D01*
X131638106Y-32241537D01*
X131748420Y-32300502D01*
X131868118Y-32336812D01*
X131992600Y-32349072D01*
X132001142Y-32349072D01*
X131993808Y-32372603D01*
X132842600Y-33221395D01*
X133691392Y-32372603D01*
X133684058Y-32349072D01*
X133692600Y-32349072D01*
X133817082Y-32336812D01*
X133936780Y-32300502D01*
X134047094Y-32241537D01*
X134143785Y-32162185D01*
X134223137Y-32065494D01*
X134282102Y-31955180D01*
X134318412Y-31835482D01*
X134330672Y-31711000D01*
X134330672Y-31030862D01*
X135890219Y-32590409D01*
X135889241Y-32591063D01*
X135689363Y-32790941D01*
X135532320Y-33025973D01*
X135424147Y-33287126D01*
X135369000Y-33564365D01*
X135369000Y-33847035D01*
X135424147Y-34124274D01*
X135532320Y-34385427D01*
X135689363Y-34620459D01*
X135889241Y-34820337D01*
X136044001Y-34923744D01*
X136044000Y-36380798D01*
X134330672Y-38094127D01*
X134330672Y-37631000D01*
X134318412Y-37506518D01*
X134282102Y-37386820D01*
X134223137Y-37276506D01*
X134143785Y-37179815D01*
X134047094Y-37100463D01*
X133936780Y-37041498D01*
X133864220Y-37019487D01*
X133996075Y-36887632D01*
X134158590Y-36644411D01*
X134270532Y-36374158D01*
X134327600Y-36087260D01*
X134327600Y-35794740D01*
X134270532Y-35507842D01*
X134158590Y-35237589D01*
X133996075Y-34994368D01*
X133789232Y-34787525D01*
X133615871Y-34671689D01*
X133691392Y-34429397D01*
X132842600Y-33580605D01*
X131993808Y-34429397D01*
X132069329Y-34671689D01*
X131895968Y-34787525D01*
X131689125Y-34994368D01*
X131526610Y-35237589D01*
X131414668Y-35507842D01*
X131357600Y-35794740D01*
X131357600Y-36087260D01*
X131401391Y-36307408D01*
X131299299Y-36409500D01*
X119015773Y-36409500D01*
X119077939Y-36164589D01*
X119093211Y-35872469D01*
X119051199Y-35582981D01*
X118953519Y-35307253D01*
X118880072Y-35169843D01*
X118630997Y-35092208D01*
X117782205Y-35941000D01*
X117796348Y-35955143D01*
X117616743Y-36134748D01*
X117602600Y-36120605D01*
X117588458Y-36134748D01*
X117408853Y-35955143D01*
X117422995Y-35941000D01*
X116574203Y-35092208D01*
X116325128Y-35169843D01*
X116199229Y-35433883D01*
X116127261Y-35717411D01*
X116111989Y-36009531D01*
X116154001Y-36299019D01*
X116193140Y-36409500D01*
X115408293Y-36409500D01*
X115422932Y-36374158D01*
X115480000Y-36087260D01*
X115480000Y-35794740D01*
X115422932Y-35507842D01*
X115310990Y-35237589D01*
X115148475Y-34994368D01*
X114941632Y-34787525D01*
X114767240Y-34671000D01*
X114941632Y-34554475D01*
X115148475Y-34347632D01*
X115310990Y-34104411D01*
X115422932Y-33834158D01*
X115480000Y-33547260D01*
X115480000Y-33254740D01*
X115422932Y-32967842D01*
X115310990Y-32697589D01*
X115148475Y-32454368D01*
X114941632Y-32247525D01*
X114768271Y-32131689D01*
X114843792Y-31889397D01*
X113995000Y-31040605D01*
X113146208Y-31889397D01*
X113221729Y-32131689D01*
X113048368Y-32247525D01*
X112841525Y-32454368D01*
X112679010Y-32697589D01*
X112567068Y-32967842D01*
X112510000Y-33254740D01*
X112510000Y-33547260D01*
X112521342Y-33604281D01*
X112448433Y-33597100D01*
X112448422Y-33597100D01*
X112411100Y-33593424D01*
X112373778Y-33597100D01*
X97690086Y-33597100D01*
X97700000Y-33547260D01*
X97700000Y-33254740D01*
X97642932Y-32967842D01*
X97530990Y-32697589D01*
X97368475Y-32454368D01*
X97161632Y-32247525D01*
X96988271Y-32131689D01*
X97063792Y-31889397D01*
X96215000Y-31040605D01*
X95366208Y-31889397D01*
X95441729Y-32131689D01*
X95268368Y-32247525D01*
X95061525Y-32454368D01*
X94899010Y-32697589D01*
X94787068Y-32967842D01*
X94730000Y-33254740D01*
X94730000Y-33547260D01*
X94787068Y-33834158D01*
X94841886Y-33966500D01*
X90502900Y-33966500D01*
X90501600Y-33452750D01*
X90342850Y-33294000D01*
X88493600Y-33294000D01*
X88493600Y-35143250D01*
X88521024Y-35170674D01*
X88089799Y-35601900D01*
X83409525Y-35601900D01*
X83372200Y-35598224D01*
X83334875Y-35601900D01*
X83334867Y-35601900D01*
X83223214Y-35612897D01*
X83079953Y-35656354D01*
X82947924Y-35726926D01*
X82832199Y-35821899D01*
X82808396Y-35850903D01*
X82771800Y-35887499D01*
X82771800Y-34667000D01*
X86228528Y-34667000D01*
X86240788Y-34791482D01*
X86277098Y-34911180D01*
X86336063Y-35021494D01*
X86415415Y-35118185D01*
X86512106Y-35197537D01*
X86622420Y-35256502D01*
X86742118Y-35292812D01*
X86866600Y-35305072D01*
X88080850Y-35302000D01*
X88239600Y-35143250D01*
X88239600Y-33294000D01*
X86390350Y-33294000D01*
X86231600Y-33452750D01*
X86228528Y-34667000D01*
X82771800Y-34667000D01*
X82771800Y-31667000D01*
X86228528Y-31667000D01*
X86231600Y-32881250D01*
X86390350Y-33040000D01*
X88239600Y-33040000D01*
X88239600Y-31190750D01*
X88493600Y-31190750D01*
X88493600Y-33040000D01*
X90342850Y-33040000D01*
X90501600Y-32881250D01*
X90504672Y-31667000D01*
X90492412Y-31542518D01*
X90456102Y-31422820D01*
X90397137Y-31312506D01*
X90317785Y-31215815D01*
X90221094Y-31136463D01*
X90110780Y-31077498D01*
X89991082Y-31041188D01*
X89866600Y-31028928D01*
X88652350Y-31032000D01*
X88493600Y-31190750D01*
X88239600Y-31190750D01*
X88080850Y-31032000D01*
X86866600Y-31028928D01*
X86742118Y-31041188D01*
X86622420Y-31077498D01*
X86512106Y-31136463D01*
X86415415Y-31215815D01*
X86336063Y-31312506D01*
X86277098Y-31422820D01*
X86240788Y-31542518D01*
X86228528Y-31667000D01*
X82771800Y-31667000D01*
X82771800Y-30929531D01*
X94724389Y-30929531D01*
X94766401Y-31219019D01*
X94864081Y-31494747D01*
X94937528Y-31632157D01*
X95186603Y-31709792D01*
X96035395Y-30861000D01*
X96394605Y-30861000D01*
X97243397Y-31709792D01*
X97492472Y-31632157D01*
X97618371Y-31368117D01*
X97690339Y-31084589D01*
X97698445Y-30929531D01*
X112504389Y-30929531D01*
X112546401Y-31219019D01*
X112644081Y-31494747D01*
X112717528Y-31632157D01*
X112966603Y-31709792D01*
X113815395Y-30861000D01*
X114174605Y-30861000D01*
X115023397Y-31709792D01*
X115272472Y-31632157D01*
X115398371Y-31368117D01*
X115470339Y-31084589D01*
X115485611Y-30792469D01*
X115474331Y-30714740D01*
X116117600Y-30714740D01*
X116117600Y-31007260D01*
X116174668Y-31294158D01*
X116286610Y-31564411D01*
X116449125Y-31807632D01*
X116655968Y-32014475D01*
X116830360Y-32131000D01*
X116655968Y-32247525D01*
X116449125Y-32454368D01*
X116286610Y-32697589D01*
X116174668Y-32967842D01*
X116117600Y-33254740D01*
X116117600Y-33547260D01*
X116174668Y-33834158D01*
X116286610Y-34104411D01*
X116449125Y-34347632D01*
X116655968Y-34554475D01*
X116829329Y-34670311D01*
X116753808Y-34912603D01*
X117602600Y-35761395D01*
X118451392Y-34912603D01*
X118375871Y-34670311D01*
X118549232Y-34554475D01*
X118756075Y-34347632D01*
X118918590Y-34104411D01*
X119030532Y-33834158D01*
X119087600Y-33547260D01*
X119087600Y-33469531D01*
X131351989Y-33469531D01*
X131394001Y-33759019D01*
X131491681Y-34034747D01*
X131565128Y-34172157D01*
X131814203Y-34249792D01*
X132662995Y-33401000D01*
X133022205Y-33401000D01*
X133870997Y-34249792D01*
X134120072Y-34172157D01*
X134245971Y-33908117D01*
X134317939Y-33624589D01*
X134333211Y-33332469D01*
X134291199Y-33042981D01*
X134193519Y-32767253D01*
X134120072Y-32629843D01*
X133870997Y-32552208D01*
X133022205Y-33401000D01*
X132662995Y-33401000D01*
X131814203Y-32552208D01*
X131565128Y-32629843D01*
X131439229Y-32893883D01*
X131367261Y-33177411D01*
X131351989Y-33469531D01*
X119087600Y-33469531D01*
X119087600Y-33254740D01*
X119030532Y-32967842D01*
X118918590Y-32697589D01*
X118756075Y-32454368D01*
X118549232Y-32247525D01*
X118374840Y-32131000D01*
X118549232Y-32014475D01*
X118756075Y-31807632D01*
X118918590Y-31564411D01*
X119030532Y-31294158D01*
X119087600Y-31007260D01*
X119087600Y-30714740D01*
X119030532Y-30427842D01*
X118918590Y-30157589D01*
X118756075Y-29914368D01*
X118549232Y-29707525D01*
X118306011Y-29545010D01*
X118035758Y-29433068D01*
X117748860Y-29376000D01*
X117456340Y-29376000D01*
X117169442Y-29433068D01*
X116899189Y-29545010D01*
X116655968Y-29707525D01*
X116449125Y-29914368D01*
X116286610Y-30157589D01*
X116174668Y-30427842D01*
X116117600Y-30714740D01*
X115474331Y-30714740D01*
X115443599Y-30502981D01*
X115345919Y-30227253D01*
X115272472Y-30089843D01*
X115023397Y-30012208D01*
X114174605Y-30861000D01*
X113815395Y-30861000D01*
X112966603Y-30012208D01*
X112717528Y-30089843D01*
X112591629Y-30353883D01*
X112519661Y-30637411D01*
X112504389Y-30929531D01*
X97698445Y-30929531D01*
X97705611Y-30792469D01*
X97663599Y-30502981D01*
X97565919Y-30227253D01*
X97492472Y-30089843D01*
X97243397Y-30012208D01*
X96394605Y-30861000D01*
X96035395Y-30861000D01*
X95186603Y-30012208D01*
X94937528Y-30089843D01*
X94811629Y-30353883D01*
X94739661Y-30637411D01*
X94724389Y-30929531D01*
X82771800Y-30929531D01*
X82771800Y-29863531D01*
X82776324Y-29817599D01*
X82758271Y-29634308D01*
X82737301Y-29565180D01*
X82704807Y-29458060D01*
X82617986Y-29295628D01*
X82501144Y-29153256D01*
X82465464Y-29123974D01*
X81978272Y-28636782D01*
X81978272Y-27821000D01*
X81956404Y-27598973D01*
X81920920Y-27482000D01*
X94989608Y-27482000D01*
X94899010Y-27617589D01*
G37*
%TD.AperFunction*%
D27*
X111683800Y-35864800D02*
X111703800Y-35864800D01*
X111703800Y-36118800D01*
X111683800Y-36118800D01*
X111683800Y-36138800D01*
X111429800Y-36138800D01*
X111429800Y-36118800D01*
X111409800Y-36118800D01*
X111409800Y-35864800D01*
X111429800Y-35864800D01*
X111429800Y-35844800D01*
X111683800Y-35844800D01*
X111683800Y-35864800D01*
%TA.AperFunction,Conductor*%
D28*
G36*
X111683800Y-35864800D02*
G01*
X111703800Y-35864800D01*
X111703800Y-36118800D01*
X111683800Y-36118800D01*
X111683800Y-36138800D01*
X111429800Y-36138800D01*
X111429800Y-36118800D01*
X111409800Y-36118800D01*
X111409800Y-35864800D01*
X111429800Y-35864800D01*
X111429800Y-35844800D01*
X111683800Y-35844800D01*
X111683800Y-35864800D01*
G37*
%TD.AperFunction*%
%TD*%
M02*
