M48
; DRILL file {KiCad 5.1.10} date Wed Jun  2 17:17:04 2021
; FORMAT={-:-/ absolute / inch / decimal}
; #@! TF.CreationDate,2021-06-02T17:17:04+08:00
; #@! TF.GenerationSoftware,Kicad,Pcbnew,5.1.10
; #@! TF.FileFunction,Plated,1,2,PTH
FMAT,2
INCH
T1C0.0157
T2C0.0354
T3C0.0374
T4C0.0394
T5C0.0512
%
G90
G05
T1
X2.463Y-1.429
X2.7511Y-1.8269
X2.827Y-1.9585
X2.8431Y-2.4212
X2.8433Y-2.7038
X2.8561Y-2.5761
X3.0389Y-2.3805
X3.1892Y-2.2073
X3.193Y-2.0796
X3.2523Y-2.7053
X3.3009Y-2.6997
X3.3277Y-2.9125
X3.3352Y-2.1886
X3.3735Y-1.1613
X3.4327Y-2.4569
X3.4679Y-2.1455
X3.4952Y-2.8183
X3.55Y-2.1706
X3.6273Y-1.8218
X3.7282Y-2.2079
X3.8362Y-2.4802
X3.8775Y-1.815
X3.9065Y-2.2073
X3.9213Y-1.9861
X3.9474Y-2.7217
X3.9925Y-1.5615
X3.9965Y-1.7613
X4.038Y-2.047
X4.038Y-2.2465
X4.1163Y-2.6847
X4.1965Y-1.5379
X4.255Y-2.6836
X4.269Y-1.8525
X4.353Y-2.6829
X4.3653Y-2.8345
X4.433Y-2.707
X4.4431Y-2.8449
X4.4895Y-2.4957
X4.4901Y-2.6672
X4.4965Y-2.3795
X4.5058Y-2.1021
X4.5205Y-2.4408
X4.5398Y-1.7613
X4.592Y-2.4762
X4.6049Y-2.3808
X4.6385Y-2.4965
X4.6837Y-1.1606
X4.7Y-2.581
X4.7013Y-2.173
X4.7167Y-2.1327
X4.7343Y-2.25
X4.7465Y-1.8682
X4.7486Y-2.707
X4.7629Y-2.2104
X4.7984Y-2.174
X4.808Y-1.8127
X4.8122Y-2.1057
X4.8256Y-2.0091
X4.8344Y-1.1291
X4.8757Y-2.5019
X4.8801Y-1.9411
X4.9805Y-2.1575
X4.9835Y-1.5988
X5.027Y-1.864
X5.0429Y-1.6443
X5.1004Y-2.6636
X5.3534Y-2.7165
X5.3897Y-1.515
T2
X2.663Y-1.115
X2.663Y-1.515
X2.6892Y-2.7577
X2.6892Y-2.8577
X2.7892Y-2.7577
X2.7892Y-2.8577
X2.8892Y-2.7577
X2.8892Y-2.8577
X2.968Y-1.7166
X2.968Y-1.8544
X2.9892Y-2.7577
X2.9892Y-2.8577
X3.073Y-2.327
X3.0735Y-2.427
X3.0735Y-2.527
X3.0892Y-2.7577
X3.0892Y-2.8577
X3.163Y-1.115
X3.163Y-1.515
X3.173Y-2.327
X3.1735Y-2.427
X3.1735Y-2.527
X3.1892Y-2.7577
X3.1892Y-2.8577
X3.273Y-2.327
X3.2735Y-2.427
X3.2735Y-2.527
X3.2892Y-2.7577
X3.2892Y-2.8577
X3.373Y-2.327
X3.3735Y-2.427
X3.3735Y-2.527
X3.3892Y-2.7577
X3.3892Y-2.8577
X3.6008Y-2.3265
X3.6011Y-2.7577
X3.6011Y-2.8577
X3.6013Y-2.4265
X3.6013Y-2.5265
X3.7008Y-2.3265
X3.7011Y-2.7577
X3.7011Y-2.8577
X3.7013Y-2.4265
X3.7013Y-2.5265
X3.788Y-1.115
X3.788Y-1.215
X3.788Y-1.315
X3.788Y-1.415
X3.788Y-1.515
X3.788Y-1.615
X3.788Y-1.715
X3.788Y-1.815
X3.8008Y-2.3265
X3.8011Y-2.7577
X3.8011Y-2.8577
X3.8013Y-2.4265
X3.8013Y-2.5265
X3.892Y-1.417
X3.9008Y-2.3265
X3.9011Y-2.7577
X3.9011Y-2.8577
X3.9013Y-2.4265
X3.9013Y-2.5265
X3.992Y-1.417
X4.0011Y-2.7577
X4.0011Y-2.8577
X4.092Y-1.417
X4.1011Y-2.7577
X4.1011Y-2.8577
X4.1285Y-1.9521
X4.1285Y-2.3265
X4.129Y-2.0521
X4.129Y-2.1521
X4.129Y-2.4265
X4.129Y-2.5265
X4.192Y-1.417
X4.2011Y-2.7577
X4.2011Y-2.8577
X4.2285Y-1.9521
X4.2285Y-2.3265
X4.229Y-2.0521
X4.229Y-2.1521
X4.229Y-2.4265
X4.229Y-2.5265
X4.292Y-1.417
X4.3011Y-2.7577
X4.3011Y-2.8577
X4.3285Y-1.9521
X4.3285Y-2.3265
X4.329Y-2.0521
X4.329Y-2.1521
X4.329Y-2.4265
X4.329Y-2.5265
X4.392Y-1.417
X4.4285Y-1.9521
X4.4285Y-2.3265
X4.429Y-2.0521
X4.429Y-2.1521
X4.429Y-2.4265
X4.429Y-2.5265
X4.488Y-1.115
X4.488Y-1.215
X4.488Y-1.315
X4.488Y-1.415
X4.488Y-1.515
X4.488Y-1.615
X4.488Y-1.715
X4.488Y-1.815
X4.513Y-2.7577
X4.513Y-2.8577
X4.613Y-2.7577
X4.613Y-2.8577
X4.63Y-1.215
X4.63Y-1.315
X4.63Y-1.415
X4.63Y-1.515
X4.63Y-1.615
X4.63Y-1.715
X4.63Y-1.815
X4.63Y-1.915
X4.63Y-2.015
X4.63Y-2.115
X4.63Y-2.215
X4.63Y-2.315
X4.713Y-2.7577
X4.713Y-2.8577
X4.813Y-2.7577
X4.813Y-2.8577
X4.8245Y-2.4556
X4.8245Y-2.5556
X4.913Y-2.7577
X4.913Y-2.8577
X4.9245Y-2.4556
X4.9245Y-2.5556
X5.013Y-2.7577
X5.013Y-2.8577
X5.0245Y-2.4556
X5.0245Y-2.5556
X5.113Y-2.7577
X5.113Y-2.8577
X5.1245Y-2.4556
X5.1245Y-2.5556
X5.213Y-2.7577
X5.213Y-2.8577
X5.23Y-1.315
X5.23Y-1.415
X5.23Y-1.615
X5.23Y-1.715
X5.23Y-1.815
X5.23Y-1.915
X5.23Y-2.015
X5.23Y-2.115
X5.23Y-2.215
X5.23Y-2.315
T3
X2.883Y-2.1025
X2.883Y-2.2009
X2.883Y-2.2994
X5.3939Y-1.9766
X5.3939Y-2.0751
X5.3939Y-2.1735
X5.3939Y-2.4386
X5.3939Y-2.5371
X5.3939Y-2.6355
T4
X2.6553Y-1.7325
X2.6553Y-1.8309
X2.6553Y-2.0775
X2.6553Y-2.1759
X2.6553Y-2.4199
X2.6553Y-2.5183
X3.237Y-1.9135
X3.337Y-1.9135
X3.437Y-1.9135
X3.537Y-1.9135
X3.6015Y-2.095
X3.637Y-1.9135
X3.7015Y-2.095
X3.8015Y-2.095
X3.9015Y-2.095
X5.23Y-1.215
X5.23Y-1.515
X5.386Y-1.327
X5.386Y-1.7207
T5
X3.2788Y-1.507
X3.3755Y-1.5066
X3.479Y-1.3058
X3.5825Y-1.5066
X3.6792Y-1.5066
T0
M30
