M48
; DRILL file {KiCad 5.1.10} date Tue Jun 22 08:50:24 2021
; FORMAT={-:-/ absolute / inch / decimal}
; #@! TF.CreationDate,2021-06-22T08:50:24+08:00
; #@! TF.GenerationSoftware,Kicad,Pcbnew,5.1.10
; #@! TF.FileFunction,Plated,1,2,PTH
FMAT,2
INCH
T1C0.0157
T2C0.0354
T3C0.0374
T4C0.0394
T5C0.0512
%
G90
G05
T1
X3.035Y-1.6973
X3.1826Y-2.2502
X3.1945Y-2.0886
X3.4658Y-1.7995
X3.4681Y-2.1281
X3.8164Y-1.9305
X3.8553Y-1.9974
X3.863Y-2.8114
X3.9174Y-1.9846
X4.2363Y-1.7445
X4.399Y-2.8801
X4.5199Y-2.1175
X4.5636Y-2.2125
X4.5873Y-2.5999
X4.597Y-2.6611
X4.6354Y-2.5055
X4.7107Y-2.0145
X4.7475Y-1.9069
T2
X2.663Y-1.115
X2.663Y-1.515
X2.6892Y-2.7577
X2.6892Y-2.8577
X2.7892Y-2.7577
X2.7892Y-2.8577
X2.8892Y-2.7577
X2.8892Y-2.8577
X2.968Y-1.7166
X2.968Y-1.8544
X2.9892Y-2.7577
X2.9892Y-2.8577
X3.073Y-2.327
X3.0735Y-2.427
X3.0735Y-2.527
X3.0892Y-2.7577
X3.0892Y-2.8577
X3.163Y-1.115
X3.163Y-1.515
X3.173Y-2.327
X3.1735Y-2.427
X3.1735Y-2.527
X3.1892Y-2.7577
X3.1892Y-2.8577
X3.273Y-2.327
X3.2735Y-2.427
X3.2735Y-2.527
X3.2892Y-2.7577
X3.2892Y-2.8577
X3.373Y-2.327
X3.3735Y-2.427
X3.3735Y-2.527
X3.3892Y-2.7577
X3.3892Y-2.8577
X3.6008Y-2.3265
X3.6011Y-2.7577
X3.6011Y-2.8577
X3.6013Y-2.4265
X3.6013Y-2.5265
X3.7008Y-2.3265
X3.7011Y-2.7577
X3.7011Y-2.8577
X3.7013Y-2.4265
X3.7013Y-2.5265
X3.788Y-1.115
X3.788Y-1.215
X3.788Y-1.315
X3.788Y-1.415
X3.788Y-1.515
X3.788Y-1.615
X3.788Y-1.715
X3.788Y-1.815
X3.8008Y-2.3265
X3.8011Y-2.7577
X3.8011Y-2.8577
X3.8013Y-2.4265
X3.8013Y-2.5265
X3.892Y-1.417
X3.9008Y-2.3265
X3.9011Y-2.7577
X3.9011Y-2.8577
X3.9013Y-2.4265
X3.9013Y-2.5265
X3.992Y-1.417
X4.0011Y-2.7577
X4.0011Y-2.8577
X4.092Y-1.417
X4.1011Y-2.7577
X4.1011Y-2.8577
X4.1285Y-1.9521
X4.1285Y-2.3265
X4.129Y-2.0521
X4.129Y-2.1521
X4.129Y-2.4265
X4.129Y-2.5265
X4.192Y-1.417
X4.2011Y-2.7577
X4.2011Y-2.8577
X4.2285Y-1.9521
X4.2285Y-2.3265
X4.229Y-2.0521
X4.229Y-2.1521
X4.229Y-2.4265
X4.229Y-2.5265
X4.292Y-1.417
X4.3011Y-2.7577
X4.3011Y-2.8577
X4.3285Y-1.9521
X4.3285Y-2.3265
X4.329Y-2.0521
X4.329Y-2.1521
X4.329Y-2.4265
X4.329Y-2.5265
X4.392Y-1.417
X4.4285Y-1.9521
X4.4285Y-2.3265
X4.429Y-2.0521
X4.429Y-2.1521
X4.429Y-2.4265
X4.429Y-2.5265
X4.488Y-1.115
X4.488Y-1.215
X4.488Y-1.315
X4.488Y-1.415
X4.488Y-1.515
X4.488Y-1.615
X4.488Y-1.715
X4.488Y-1.815
X4.513Y-2.7577
X4.513Y-2.8577
X4.613Y-2.7577
X4.613Y-2.8577
X4.63Y-1.215
X4.63Y-1.315
X4.63Y-1.415
X4.63Y-1.515
X4.63Y-1.615
X4.63Y-1.715
X4.63Y-1.815
X4.63Y-1.915
X4.63Y-2.015
X4.63Y-2.115
X4.63Y-2.215
X4.63Y-2.315
X4.713Y-2.7577
X4.713Y-2.8577
X4.813Y-2.7577
X4.813Y-2.8577
X4.8245Y-2.4556
X4.8245Y-2.5556
X4.913Y-2.7577
X4.913Y-2.8577
X4.9245Y-2.4556
X4.9245Y-2.5556
X5.013Y-2.7577
X5.013Y-2.8577
X5.0245Y-2.4556
X5.0245Y-2.5556
X5.113Y-2.7577
X5.113Y-2.8577
X5.1245Y-2.4556
X5.1245Y-2.5556
X5.213Y-2.7577
X5.213Y-2.8577
X5.23Y-1.315
X5.23Y-1.415
X5.23Y-1.615
X5.23Y-1.715
X5.23Y-1.815
X5.23Y-1.915
X5.23Y-2.015
X5.23Y-2.115
X5.23Y-2.215
X5.23Y-2.315
T3
X2.883Y-2.1025
X2.883Y-2.2009
X2.883Y-2.2994
X5.3939Y-1.9766
X5.3939Y-2.0751
X5.3939Y-2.1735
X5.3939Y-2.4386
X5.3939Y-2.5371
X5.3939Y-2.6355
T4
X2.6553Y-1.7325
X2.6553Y-1.8309
X2.6553Y-2.0775
X2.6553Y-2.1759
X2.6553Y-2.4199
X2.6553Y-2.5183
X3.237Y-1.9135
X3.337Y-1.9135
X3.437Y-1.9135
X3.537Y-1.9135
X3.6015Y-2.095
X3.637Y-1.9135
X3.7015Y-2.095
X3.8015Y-2.095
X3.9015Y-2.095
X5.23Y-1.215
X5.23Y-1.515
X5.386Y-1.327
X5.386Y-1.7207
T5
X3.2788Y-1.507
X3.3755Y-1.5066
X3.479Y-1.3058
X3.5825Y-1.5066
X3.6792Y-1.5066
T0
M30
