%TF.GenerationSoftware,KiCad,Pcbnew,5.1.10*%
%TF.CreationDate,2021-06-22T08:50:26+08:00*%
%TF.ProjectId,HappyAAC-Type-A,48617070-7941-4414-932d-547970652d41,2d*%
%TF.SameCoordinates,Original*%
%TF.FileFunction,Copper,L1,Top*%
%TF.FilePolarity,Positive*%
%FSLAX46Y46*%
G04 Gerber Fmt 4.6, Leading zero omitted, Abs format (unit mm)*
G04 Created by KiCad (PCBNEW 5.1.10) date 2021-06-22 08:50:26*
%MOMM*%
%LPD*%
G01*
G04 APERTURE LIST*
%TA.AperFunction,EtchedComponent*%
%ADD10C,0.100000*%
%TD*%
%TA.AperFunction,ComponentPad*%
%ADD11C,1.700000*%
%TD*%
%TA.AperFunction,ComponentPad*%
%ADD12R,1.700000X1.700000*%
%TD*%
%TA.AperFunction,ComponentPad*%
%ADD13O,1.700000X1.700000*%
%TD*%
%TA.AperFunction,ComponentPad*%
%ADD14R,1.800000X1.800000*%
%TD*%
%TA.AperFunction,ComponentPad*%
%ADD15O,1.700000X3.000000*%
%TD*%
%TA.AperFunction,ComponentPad*%
%ADD16O,1.800000X3.000000*%
%TD*%
%TA.AperFunction,ComponentPad*%
%ADD17C,1.500000*%
%TD*%
%TA.AperFunction,ComponentPad*%
%ADD18R,1.500000X1.500000*%
%TD*%
%TA.AperFunction,ComponentPad*%
%ADD19O,1.950000X1.700000*%
%TD*%
%TA.AperFunction,ComponentPad*%
%ADD20C,1.600000*%
%TD*%
%TA.AperFunction,SMDPad,CuDef*%
%ADD21R,2.000000X1.800000*%
%TD*%
%TA.AperFunction,SMDPad,CuDef*%
%ADD22C,0.100000*%
%TD*%
%TA.AperFunction,ComponentPad*%
%ADD23O,2.000000X1.700000*%
%TD*%
%TA.AperFunction,ViaPad*%
%ADD24C,0.800000*%
%TD*%
%TA.AperFunction,Conductor*%
%ADD25C,0.600000*%
%TD*%
%TA.AperFunction,Conductor*%
%ADD26C,0.250000*%
%TD*%
%TA.AperFunction,Conductor*%
%ADD27C,0.254000*%
%TD*%
%TA.AperFunction,Conductor*%
%ADD28C,0.100000*%
%TD*%
G04 APERTURE END LIST*
D10*
%TO.C,JP1*%
G36*
X63432500Y-34383700D02*
G01*
X62932500Y-34383700D01*
X62932500Y-34983700D01*
X63432500Y-34983700D01*
X63432500Y-34383700D01*
G37*
%TO.C,JP4*%
G36*
X86057400Y-53153500D02*
G01*
X86057400Y-53653500D01*
X86657400Y-53653500D01*
X86657400Y-53153500D01*
X86057400Y-53153500D01*
G37*
%TD*%
D11*
%TO.P,U3,11*%
%TO.N,/D8*%
X117602600Y-56261000D03*
%TO.P,U3,12*%
%TO.N,/D9*%
X117602600Y-58801000D03*
%TO.P,U3,9*%
%TO.N,/COL2*%
X117602600Y-51181000D03*
%TO.P,U3,10*%
%TO.N,/D7*%
X117602600Y-53721000D03*
%TO.P,U3,16*%
%TO.N,/COL8*%
X132842600Y-51181000D03*
%TO.P,U3,14*%
%TO.N,/COL7*%
X132842600Y-56261000D03*
%TO.P,U3,13*%
%TO.N,/COL3*%
X132842600Y-58801000D03*
%TO.P,U3,15*%
%TO.N,/COL5*%
X132842600Y-53721000D03*
%TO.P,U3,1*%
%TO.N,/D1*%
X117602600Y-30861000D03*
%TO.P,U3,2*%
%TO.N,/D0*%
X117602600Y-33401000D03*
%TO.P,U3,3*%
%TO.N,GND*%
X117602600Y-35941000D03*
%TO.P,U3,4*%
X117602600Y-38481000D03*
%TO.P,U3,5*%
%TO.N,/D2*%
X117602600Y-41021000D03*
%TO.P,U3,6*%
%TO.N,/D3*%
X117602600Y-43561000D03*
%TO.P,U3,7*%
%TO.N,/COL1*%
X117602600Y-46101000D03*
%TO.P,U3,8*%
%TO.N,/D5*%
X117602600Y-48641000D03*
%TO.P,U3,17*%
%TO.N,/A0*%
X132842600Y-48641000D03*
%TO.P,U3,18*%
%TO.N,/A1*%
X132842600Y-46101000D03*
%TO.P,U3,19*%
%TO.N,/A2*%
X132842600Y-43561000D03*
%TO.P,U3,20*%
%TO.N,/A3*%
X132842600Y-41021000D03*
D12*
%TO.P,U3,21*%
%TO.N,VDD*%
X132842600Y-38481000D03*
D11*
%TO.P,U3,22*%
%TO.N,/LCD_RST*%
X132842600Y-35941000D03*
%TO.P,U3,23*%
%TO.N,GND*%
X132842600Y-33401000D03*
D12*
%TO.P,U3,24*%
%TO.N,N/C*%
X132842600Y-30861000D03*
%TD*%
D13*
%TO.P,J11,6*%
%TO.N,GND*%
X111556800Y-35991800D03*
%TO.P,J11,5*%
%TO.N,/LCD_RST*%
X109016800Y-35991800D03*
%TO.P,J11,4*%
%TO.N,/COL7*%
X106476800Y-35991800D03*
%TO.P,J11,3*%
%TO.N,/COL8*%
X103936800Y-35991800D03*
%TO.P,J11,2*%
%TO.N,VDD*%
X101396800Y-35991800D03*
D12*
%TO.P,J11,1*%
%TO.N,/COL5*%
X98856800Y-35991800D03*
%TD*%
%TO.P,U2,4*%
%TO.N,+5V*%
%TA.AperFunction,ComponentPad*%
G36*
G01*
X79440200Y-28771000D02*
X79440200Y-27871000D01*
G75*
G02*
X79890200Y-27421000I450000J0D01*
G01*
X80790200Y-27421000D01*
G75*
G02*
X81240200Y-27871000I0J-450000D01*
G01*
X81240200Y-28771000D01*
G75*
G02*
X80790200Y-29221000I-450000J0D01*
G01*
X79890200Y-29221000D01*
G75*
G02*
X79440200Y-28771000I0J450000D01*
G01*
G37*
%TD.AperFunction*%
%TO.P,U2,3*%
%TO.N,+BATT*%
%TA.AperFunction,ComponentPad*%
G36*
G01*
X79440200Y-38931000D02*
X79440200Y-38031000D01*
G75*
G02*
X79890200Y-37581000I450000J0D01*
G01*
X80790200Y-37581000D01*
G75*
G02*
X81240200Y-38031000I0J-450000D01*
G01*
X81240200Y-38931000D01*
G75*
G02*
X80790200Y-39381000I-450000J0D01*
G01*
X79890200Y-39381000D01*
G75*
G02*
X79440200Y-38931000I0J450000D01*
G01*
G37*
%TD.AperFunction*%
%TO.P,U2,2*%
%TO.N,GND*%
%TA.AperFunction,ComponentPad*%
G36*
G01*
X66740200Y-38931000D02*
X66740200Y-38031000D01*
G75*
G02*
X67190200Y-37581000I450000J0D01*
G01*
X68090200Y-37581000D01*
G75*
G02*
X68540200Y-38031000I0J-450000D01*
G01*
X68540200Y-38931000D01*
G75*
G02*
X68090200Y-39381000I-450000J0D01*
G01*
X67190200Y-39381000D01*
G75*
G02*
X66740200Y-38931000I0J450000D01*
G01*
G37*
%TD.AperFunction*%
D14*
%TO.P,U2,1*%
X67640200Y-28321000D03*
%TD*%
%TO.P,J18,G*%
%TO.N,GND*%
%TA.AperFunction,ComponentPad*%
G36*
G01*
X89866600Y-32417000D02*
X89866600Y-33917000D01*
G75*
G02*
X89116600Y-34667000I-750000J0D01*
G01*
X87616600Y-34667000D01*
G75*
G02*
X86866600Y-33917000I0J750000D01*
G01*
X86866600Y-32417000D01*
G75*
G02*
X87616600Y-31667000I750000J0D01*
G01*
X89116600Y-31667000D01*
G75*
G02*
X89866600Y-32417000I0J-750000D01*
G01*
G37*
%TD.AperFunction*%
D15*
%TO.P,J18,S*%
%TO.N,Net-(J18-PadS)*%
X93451600Y-38267000D03*
%TO.P,J18,T*%
%TO.N,Net-(J18-PadT)*%
X83281600Y-38277800D03*
D16*
%TO.P,J18,R2*%
%TO.N,N/C*%
X90996600Y-38267000D03*
%TO.P,J18,R1*%
X85736600Y-38267000D03*
%TD*%
D17*
%TO.P,C1,2*%
%TO.N,GND*%
X75387200Y-43601700D03*
D18*
%TO.P,C1,1*%
%TO.N,/CAP_IN*%
X75387200Y-47101700D03*
%TD*%
D19*
%TO.P,J1,3*%
%TO.N,VDD*%
X137004000Y-61941100D03*
%TO.P,J1,2*%
%TO.N,GND*%
X137004000Y-64441100D03*
%TO.P,J1,1*%
%TO.N,/D7*%
%TA.AperFunction,ComponentPad*%
G36*
G01*
X137729000Y-67791100D02*
X136279000Y-67791100D01*
G75*
G02*
X136029000Y-67541100I0J250000D01*
G01*
X136029000Y-66341100D01*
G75*
G02*
X136279000Y-66091100I250000J0D01*
G01*
X137729000Y-66091100D01*
G75*
G02*
X137979000Y-66341100I0J-250000D01*
G01*
X137979000Y-67541100D01*
G75*
G02*
X137729000Y-67791100I-250000J0D01*
G01*
G37*
%TD.AperFunction*%
%TD*%
%TO.P,J2,3*%
%TO.N,VDD*%
X73228200Y-58403500D03*
%TO.P,J2,2*%
%TO.N,GND*%
X73228200Y-55903500D03*
%TO.P,J2,1*%
%TO.N,/D5*%
%TA.AperFunction,ComponentPad*%
G36*
G01*
X72503200Y-52553500D02*
X73953200Y-52553500D01*
G75*
G02*
X74203200Y-52803500I0J-250000D01*
G01*
X74203200Y-54003500D01*
G75*
G02*
X73953200Y-54253500I-250000J0D01*
G01*
X72503200Y-54253500D01*
G75*
G02*
X72253200Y-54003500I0J250000D01*
G01*
X72253200Y-52803500D01*
G75*
G02*
X72503200Y-52553500I250000J0D01*
G01*
G37*
%TD.AperFunction*%
%TD*%
%TO.P,J3,3*%
%TO.N,VDD*%
X137004000Y-50206900D03*
%TO.P,J3,2*%
%TO.N,GND*%
X137004000Y-52706900D03*
%TO.P,J3,1*%
%TO.N,/A1*%
%TA.AperFunction,ComponentPad*%
G36*
G01*
X137729000Y-56056900D02*
X136279000Y-56056900D01*
G75*
G02*
X136029000Y-55806900I0J250000D01*
G01*
X136029000Y-54606900D01*
G75*
G02*
X136279000Y-54356900I250000J0D01*
G01*
X137729000Y-54356900D01*
G75*
G02*
X137979000Y-54606900I0J-250000D01*
G01*
X137979000Y-55806900D01*
G75*
G02*
X137729000Y-56056900I-250000J0D01*
G01*
G37*
%TD.AperFunction*%
%TD*%
D20*
%TO.P,R1,1*%
%TO.N,/D9*%
X136804000Y-43705700D03*
%TO.P,R1,2*%
%TO.N,Net-(R1-Pad2)*%
X136804000Y-33705700D03*
%TD*%
D13*
%TO.P,J4,8*%
%TO.N,GND*%
X130162000Y-62372200D03*
%TO.P,J4,7*%
X130162000Y-64912200D03*
%TO.P,J4,6*%
%TO.N,VDD*%
X127622000Y-62372200D03*
%TO.P,J4,5*%
X127622000Y-64912200D03*
%TO.P,J4,4*%
%TO.N,/D3*%
X125082000Y-62372200D03*
%TO.P,J4,3*%
X125082000Y-64912200D03*
%TO.P,J4,2*%
%TO.N,/D2*%
X122542000Y-62372200D03*
D12*
%TO.P,J4,1*%
X122542000Y-64912200D03*
%TD*%
%TO.P,J5,1*%
%TO.N,/COL1*%
X68306400Y-72585900D03*
D13*
%TO.P,J5,2*%
%TO.N,/D0*%
X68306400Y-70045900D03*
%TO.P,J5,3*%
%TO.N,/COL2*%
X70846400Y-72585900D03*
%TO.P,J5,4*%
%TO.N,/D0*%
X70846400Y-70045900D03*
%TO.P,J5,5*%
%TO.N,/COL3*%
X73386400Y-72585900D03*
%TO.P,J5,6*%
%TO.N,/D0*%
X73386400Y-70045900D03*
%TO.P,J5,7*%
%TO.N,/A0*%
X75926400Y-72585900D03*
%TO.P,J5,8*%
%TO.N,/D0*%
X75926400Y-70045900D03*
%TO.P,J5,9*%
%TO.N,/COL5*%
X78466400Y-72585900D03*
%TO.P,J5,10*%
%TO.N,/D0*%
X78466400Y-70045900D03*
%TO.P,J5,11*%
%TO.N,/A2*%
X81006400Y-72585900D03*
%TO.P,J5,12*%
%TO.N,/D0*%
X81006400Y-70045900D03*
%TO.P,J5,13*%
%TO.N,/COL7*%
X83546400Y-72585900D03*
%TO.P,J5,14*%
%TO.N,/D0*%
X83546400Y-70045900D03*
%TO.P,J5,15*%
%TO.N,/COL8*%
X86086400Y-72585900D03*
%TO.P,J5,16*%
%TO.N,/D0*%
X86086400Y-70045900D03*
%TD*%
%TO.P,J14_GPIO1,GND*%
%TO.N,GND*%
X109944300Y-49583300D03*
X107404300Y-49583300D03*
X104864300Y-49583300D03*
X112484300Y-49583300D03*
%TO.P,J14_GPIO1,VCC*%
%TO.N,VDD*%
X112497000Y-52123300D03*
%TO.P,J14_GPIO1,4*%
%TO.N,/D5*%
X112497000Y-54663300D03*
%TO.P,J14_GPIO1,VCC*%
%TO.N,VDD*%
X109957000Y-52123300D03*
%TO.P,J14_GPIO1,3*%
%TO.N,/COL1*%
X109957000Y-54663300D03*
%TO.P,J14_GPIO1,VCC*%
%TO.N,VDD*%
X107417000Y-52123300D03*
%TO.P,J14_GPIO1,2*%
%TO.N,/D1*%
X107417000Y-54663300D03*
%TO.P,J14_GPIO1,VCC*%
%TO.N,VDD*%
X104877000Y-52123300D03*
D12*
%TO.P,J14_GPIO1,1*%
%TO.N,/D0*%
X104877000Y-54663300D03*
%TD*%
%TO.P,J15_GPIO2,1*%
%TO.N,/COL2*%
X78066900Y-64185800D03*
D13*
%TO.P,J15_GPIO2,VCC*%
%TO.N,VDD*%
X78066900Y-61645800D03*
%TO.P,J15_GPIO2,2*%
%TO.N,/D7*%
X80606900Y-64185800D03*
%TO.P,J15_GPIO2,VCC*%
%TO.N,VDD*%
X80606900Y-61645800D03*
%TO.P,J15_GPIO2,3*%
%TO.N,/D8*%
X83146900Y-64185800D03*
%TO.P,J15_GPIO2,VCC*%
%TO.N,VDD*%
X83146900Y-61645800D03*
%TO.P,J15_GPIO2,4*%
%TO.N,/D9*%
X85686900Y-64185800D03*
%TO.P,J15_GPIO2,VCC*%
%TO.N,VDD*%
X85686900Y-61645800D03*
%TO.P,J15_GPIO2,GND*%
%TO.N,GND*%
X85674200Y-59105800D03*
X78054200Y-59105800D03*
X80594200Y-59105800D03*
X83134200Y-59105800D03*
%TD*%
D12*
%TO.P,J16_GPIO3,1*%
%TO.N,/COL3*%
X91471900Y-64173100D03*
D13*
%TO.P,J16_GPIO3,VCC*%
%TO.N,VDD*%
X91471900Y-61633100D03*
%TO.P,J16_GPIO3,2*%
%TO.N,/COL5*%
X94011900Y-64173100D03*
%TO.P,J16_GPIO3,VCC*%
%TO.N,VDD*%
X94011900Y-61633100D03*
%TO.P,J16_GPIO3,3*%
%TO.N,/COL8*%
X96551900Y-64173100D03*
%TO.P,J16_GPIO3,VCC*%
%TO.N,VDD*%
X96551900Y-61633100D03*
%TO.P,J16_GPIO3,4*%
%TO.N,/COL7*%
X99091900Y-64173100D03*
%TO.P,J16_GPIO3,VCC*%
%TO.N,VDD*%
X99091900Y-61633100D03*
%TO.P,J16_GPIO3,GND*%
%TO.N,GND*%
X99079200Y-59093100D03*
X91459200Y-59093100D03*
X93999200Y-59093100D03*
X96539200Y-59093100D03*
%TD*%
%TO.P,J17_GPIO4,GND*%
%TO.N,GND*%
X109944300Y-59093100D03*
X107404300Y-59093100D03*
X104864300Y-59093100D03*
X112484300Y-59093100D03*
%TO.P,J17_GPIO4,VCC*%
%TO.N,VDD*%
X112497000Y-61633100D03*
%TO.P,J17_GPIO4,4*%
%TO.N,/A3*%
X112497000Y-64173100D03*
%TO.P,J17_GPIO4,VCC*%
%TO.N,VDD*%
X109957000Y-61633100D03*
%TO.P,J17_GPIO4,3*%
%TO.N,/A2*%
X109957000Y-64173100D03*
%TO.P,J17_GPIO4,VCC*%
%TO.N,VDD*%
X107417000Y-61633100D03*
%TO.P,J17_GPIO4,2*%
%TO.N,/A1*%
X107417000Y-64173100D03*
%TO.P,J17_GPIO4,VCC*%
%TO.N,VDD*%
X104877000Y-61633100D03*
D12*
%TO.P,J17_GPIO4,1*%
%TO.N,/A0*%
X104877000Y-64173100D03*
%TD*%
D21*
%TO.P,D1,1*%
%TO.N,/SRC_FOR_VDD*%
X88484300Y-43841000D03*
%TO.P,D1,2*%
%TO.N,+5V*%
X92284300Y-43841000D03*
%TD*%
%TO.P,D2,1*%
%TO.N,/SRC_FOR_VDD*%
X84754800Y-43841000D03*
%TO.P,D2,2*%
%TO.N,+BATT*%
X80954800Y-43841000D03*
%TD*%
D11*
%TO.P,U1,16*%
%TO.N,/DFP_BUSY*%
X96215000Y-46101000D03*
%TO.P,U1,15*%
%TO.N,N/C*%
X96215000Y-43561000D03*
%TO.P,U1,14*%
X96215000Y-41021000D03*
%TO.P,U1,13*%
X96215000Y-38481000D03*
%TO.P,U1,12*%
X96215000Y-35941000D03*
%TO.P,U1,11*%
X96215000Y-33401000D03*
%TO.P,U1,10*%
%TO.N,GND*%
X96215000Y-30861000D03*
%TO.P,U1,9*%
%TO.N,N/C*%
X96215000Y-28321000D03*
%TO.P,U1,8*%
%TO.N,/SPK2*%
X113995000Y-28321000D03*
%TO.P,U1,7*%
%TO.N,GND*%
X113995000Y-30861000D03*
%TO.P,U1,6*%
%TO.N,/SPK1*%
X113995000Y-33401000D03*
%TO.P,U1,5*%
%TO.N,Net-(J18-PadT)*%
X113995000Y-35941000D03*
%TO.P,U1,4*%
%TO.N,Net-(J18-PadS)*%
X113995000Y-38481000D03*
%TO.P,U1,3*%
%TO.N,/D8*%
X113995000Y-41021000D03*
%TO.P,U1,2*%
%TO.N,Net-(R1-Pad2)*%
X113995000Y-43561000D03*
D12*
%TO.P,U1,1*%
%TO.N,/CAP_IN*%
X113995000Y-46101000D03*
%TD*%
%TO.P,J12,1*%
%TO.N,/COL8*%
X82219800Y-48602900D03*
D13*
%TO.P,J12,2*%
%TO.N,/COL7*%
X84759800Y-48602900D03*
%TO.P,J12,3*%
%TO.N,/LCD_RST*%
X87299800Y-48602900D03*
%TO.P,J12,4*%
%TO.N,/A3*%
X89839800Y-48602900D03*
%TO.P,J12,5*%
%TO.N,/LCD_CS*%
X92379800Y-48602900D03*
%TD*%
%TA.AperFunction,SMDPad,CuDef*%
D22*
%TO.P,JP1,1*%
%TO.N,VDD*%
G36*
X63032500Y-35433700D02*
G01*
X62532500Y-35433700D01*
X62532500Y-35433098D01*
X62507966Y-35433098D01*
X62459135Y-35428288D01*
X62411010Y-35418716D01*
X62364055Y-35404472D01*
X62318722Y-35385695D01*
X62275449Y-35362564D01*
X62234650Y-35335304D01*
X62196721Y-35304176D01*
X62162024Y-35269479D01*
X62130896Y-35231550D01*
X62103636Y-35190751D01*
X62080505Y-35147478D01*
X62061728Y-35102145D01*
X62047484Y-35055190D01*
X62037912Y-35007065D01*
X62033102Y-34958234D01*
X62033102Y-34933700D01*
X62032500Y-34933700D01*
X62032500Y-34433700D01*
X62033102Y-34433700D01*
X62033102Y-34409166D01*
X62037912Y-34360335D01*
X62047484Y-34312210D01*
X62061728Y-34265255D01*
X62080505Y-34219922D01*
X62103636Y-34176649D01*
X62130896Y-34135850D01*
X62162024Y-34097921D01*
X62196721Y-34063224D01*
X62234650Y-34032096D01*
X62275449Y-34004836D01*
X62318722Y-33981705D01*
X62364055Y-33962928D01*
X62411010Y-33948684D01*
X62459135Y-33939112D01*
X62507966Y-33934302D01*
X62532500Y-33934302D01*
X62532500Y-33933700D01*
X63032500Y-33933700D01*
X63032500Y-35433700D01*
G37*
%TD.AperFunction*%
%TA.AperFunction,SMDPad,CuDef*%
%TO.P,JP1,2*%
%TO.N,/CAP_IN*%
G36*
X63832500Y-33934302D02*
G01*
X63857034Y-33934302D01*
X63905865Y-33939112D01*
X63953990Y-33948684D01*
X64000945Y-33962928D01*
X64046278Y-33981705D01*
X64089551Y-34004836D01*
X64130350Y-34032096D01*
X64168279Y-34063224D01*
X64202976Y-34097921D01*
X64234104Y-34135850D01*
X64261364Y-34176649D01*
X64284495Y-34219922D01*
X64303272Y-34265255D01*
X64317516Y-34312210D01*
X64327088Y-34360335D01*
X64331898Y-34409166D01*
X64331898Y-34433700D01*
X64332500Y-34433700D01*
X64332500Y-34933700D01*
X64331898Y-34933700D01*
X64331898Y-34958234D01*
X64327088Y-35007065D01*
X64317516Y-35055190D01*
X64303272Y-35102145D01*
X64284495Y-35147478D01*
X64261364Y-35190751D01*
X64234104Y-35231550D01*
X64202976Y-35269479D01*
X64168279Y-35304176D01*
X64130350Y-35335304D01*
X64089551Y-35362564D01*
X64046278Y-35385695D01*
X64000945Y-35404472D01*
X63953990Y-35418716D01*
X63905865Y-35428288D01*
X63857034Y-35433098D01*
X63832500Y-35433098D01*
X63832500Y-35433700D01*
X63332500Y-35433700D01*
X63332500Y-33933700D01*
X63832500Y-33933700D01*
X63832500Y-33934302D01*
G37*
%TD.AperFunction*%
%TD*%
%TA.AperFunction,SMDPad,CuDef*%
%TO.P,JP2,2*%
%TO.N,/CAP_IN*%
G36*
X63870600Y-38188802D02*
G01*
X63895134Y-38188802D01*
X63943965Y-38193612D01*
X63992090Y-38203184D01*
X64039045Y-38217428D01*
X64084378Y-38236205D01*
X64127651Y-38259336D01*
X64168450Y-38286596D01*
X64206379Y-38317724D01*
X64241076Y-38352421D01*
X64272204Y-38390350D01*
X64299464Y-38431149D01*
X64322595Y-38474422D01*
X64341372Y-38519755D01*
X64355616Y-38566710D01*
X64365188Y-38614835D01*
X64369998Y-38663666D01*
X64369998Y-38688200D01*
X64370600Y-38688200D01*
X64370600Y-39188200D01*
X64369998Y-39188200D01*
X64369998Y-39212734D01*
X64365188Y-39261565D01*
X64355616Y-39309690D01*
X64341372Y-39356645D01*
X64322595Y-39401978D01*
X64299464Y-39445251D01*
X64272204Y-39486050D01*
X64241076Y-39523979D01*
X64206379Y-39558676D01*
X64168450Y-39589804D01*
X64127651Y-39617064D01*
X64084378Y-39640195D01*
X64039045Y-39658972D01*
X63992090Y-39673216D01*
X63943965Y-39682788D01*
X63895134Y-39687598D01*
X63870600Y-39687598D01*
X63870600Y-39688200D01*
X63370600Y-39688200D01*
X63370600Y-38188200D01*
X63870600Y-38188200D01*
X63870600Y-38188802D01*
G37*
%TD.AperFunction*%
%TA.AperFunction,SMDPad,CuDef*%
%TO.P,JP2,1*%
%TO.N,/SRC_FOR_VDD*%
G36*
X63070600Y-39688200D02*
G01*
X62570600Y-39688200D01*
X62570600Y-39687598D01*
X62546066Y-39687598D01*
X62497235Y-39682788D01*
X62449110Y-39673216D01*
X62402155Y-39658972D01*
X62356822Y-39640195D01*
X62313549Y-39617064D01*
X62272750Y-39589804D01*
X62234821Y-39558676D01*
X62200124Y-39523979D01*
X62168996Y-39486050D01*
X62141736Y-39445251D01*
X62118605Y-39401978D01*
X62099828Y-39356645D01*
X62085584Y-39309690D01*
X62076012Y-39261565D01*
X62071202Y-39212734D01*
X62071202Y-39188200D01*
X62070600Y-39188200D01*
X62070600Y-38688200D01*
X62071202Y-38688200D01*
X62071202Y-38663666D01*
X62076012Y-38614835D01*
X62085584Y-38566710D01*
X62099828Y-38519755D01*
X62118605Y-38474422D01*
X62141736Y-38431149D01*
X62168996Y-38390350D01*
X62200124Y-38352421D01*
X62234821Y-38317724D01*
X62272750Y-38286596D01*
X62313549Y-38259336D01*
X62356822Y-38236205D01*
X62402155Y-38217428D01*
X62449110Y-38203184D01*
X62497235Y-38193612D01*
X62546066Y-38188802D01*
X62570600Y-38188802D01*
X62570600Y-38188200D01*
X63070600Y-38188200D01*
X63070600Y-39688200D01*
G37*
%TD.AperFunction*%
%TD*%
%TA.AperFunction,SMDPad,CuDef*%
%TO.P,JP3,1*%
%TO.N,/LCD_CS*%
G36*
X83260600Y-53553500D02*
G01*
X83260600Y-54053500D01*
X83259998Y-54053500D01*
X83259998Y-54078034D01*
X83255188Y-54126865D01*
X83245616Y-54174990D01*
X83231372Y-54221945D01*
X83212595Y-54267278D01*
X83189464Y-54310551D01*
X83162204Y-54351350D01*
X83131076Y-54389279D01*
X83096379Y-54423976D01*
X83058450Y-54455104D01*
X83017651Y-54482364D01*
X82974378Y-54505495D01*
X82929045Y-54524272D01*
X82882090Y-54538516D01*
X82833965Y-54548088D01*
X82785134Y-54552898D01*
X82760600Y-54552898D01*
X82760600Y-54553500D01*
X82260600Y-54553500D01*
X82260600Y-54552898D01*
X82236066Y-54552898D01*
X82187235Y-54548088D01*
X82139110Y-54538516D01*
X82092155Y-54524272D01*
X82046822Y-54505495D01*
X82003549Y-54482364D01*
X81962750Y-54455104D01*
X81924821Y-54423976D01*
X81890124Y-54389279D01*
X81858996Y-54351350D01*
X81831736Y-54310551D01*
X81808605Y-54267278D01*
X81789828Y-54221945D01*
X81775584Y-54174990D01*
X81766012Y-54126865D01*
X81761202Y-54078034D01*
X81761202Y-54053500D01*
X81760600Y-54053500D01*
X81760600Y-53553500D01*
X83260600Y-53553500D01*
G37*
%TD.AperFunction*%
%TA.AperFunction,SMDPad,CuDef*%
%TO.P,JP3,2*%
%TO.N,/A2*%
G36*
X81761202Y-52753500D02*
G01*
X81761202Y-52728966D01*
X81766012Y-52680135D01*
X81775584Y-52632010D01*
X81789828Y-52585055D01*
X81808605Y-52539722D01*
X81831736Y-52496449D01*
X81858996Y-52455650D01*
X81890124Y-52417721D01*
X81924821Y-52383024D01*
X81962750Y-52351896D01*
X82003549Y-52324636D01*
X82046822Y-52301505D01*
X82092155Y-52282728D01*
X82139110Y-52268484D01*
X82187235Y-52258912D01*
X82236066Y-52254102D01*
X82260600Y-52254102D01*
X82260600Y-52253500D01*
X82760600Y-52253500D01*
X82760600Y-52254102D01*
X82785134Y-52254102D01*
X82833965Y-52258912D01*
X82882090Y-52268484D01*
X82929045Y-52282728D01*
X82974378Y-52301505D01*
X83017651Y-52324636D01*
X83058450Y-52351896D01*
X83096379Y-52383024D01*
X83131076Y-52417721D01*
X83162204Y-52455650D01*
X83189464Y-52496449D01*
X83212595Y-52539722D01*
X83231372Y-52585055D01*
X83245616Y-52632010D01*
X83255188Y-52680135D01*
X83259998Y-52728966D01*
X83259998Y-52753500D01*
X83260600Y-52753500D01*
X83260600Y-53253500D01*
X81760600Y-53253500D01*
X81760600Y-52753500D01*
X81761202Y-52753500D01*
G37*
%TD.AperFunction*%
%TD*%
%TA.AperFunction,SMDPad,CuDef*%
%TO.P,JP4,2*%
%TO.N,GND*%
G36*
X85608002Y-52753500D02*
G01*
X85608002Y-52728966D01*
X85612812Y-52680135D01*
X85622384Y-52632010D01*
X85636628Y-52585055D01*
X85655405Y-52539722D01*
X85678536Y-52496449D01*
X85705796Y-52455650D01*
X85736924Y-52417721D01*
X85771621Y-52383024D01*
X85809550Y-52351896D01*
X85850349Y-52324636D01*
X85893622Y-52301505D01*
X85938955Y-52282728D01*
X85985910Y-52268484D01*
X86034035Y-52258912D01*
X86082866Y-52254102D01*
X86107400Y-52254102D01*
X86107400Y-52253500D01*
X86607400Y-52253500D01*
X86607400Y-52254102D01*
X86631934Y-52254102D01*
X86680765Y-52258912D01*
X86728890Y-52268484D01*
X86775845Y-52282728D01*
X86821178Y-52301505D01*
X86864451Y-52324636D01*
X86905250Y-52351896D01*
X86943179Y-52383024D01*
X86977876Y-52417721D01*
X87009004Y-52455650D01*
X87036264Y-52496449D01*
X87059395Y-52539722D01*
X87078172Y-52585055D01*
X87092416Y-52632010D01*
X87101988Y-52680135D01*
X87106798Y-52728966D01*
X87106798Y-52753500D01*
X87107400Y-52753500D01*
X87107400Y-53253500D01*
X85607400Y-53253500D01*
X85607400Y-52753500D01*
X85608002Y-52753500D01*
G37*
%TD.AperFunction*%
%TA.AperFunction,SMDPad,CuDef*%
%TO.P,JP4,1*%
%TO.N,/LCD_CS*%
G36*
X87107400Y-53553500D02*
G01*
X87107400Y-54053500D01*
X87106798Y-54053500D01*
X87106798Y-54078034D01*
X87101988Y-54126865D01*
X87092416Y-54174990D01*
X87078172Y-54221945D01*
X87059395Y-54267278D01*
X87036264Y-54310551D01*
X87009004Y-54351350D01*
X86977876Y-54389279D01*
X86943179Y-54423976D01*
X86905250Y-54455104D01*
X86864451Y-54482364D01*
X86821178Y-54505495D01*
X86775845Y-54524272D01*
X86728890Y-54538516D01*
X86680765Y-54548088D01*
X86631934Y-54552898D01*
X86607400Y-54552898D01*
X86607400Y-54553500D01*
X86107400Y-54553500D01*
X86107400Y-54552898D01*
X86082866Y-54552898D01*
X86034035Y-54548088D01*
X85985910Y-54538516D01*
X85938955Y-54524272D01*
X85893622Y-54505495D01*
X85850349Y-54482364D01*
X85809550Y-54455104D01*
X85771621Y-54423976D01*
X85736924Y-54389279D01*
X85705796Y-54351350D01*
X85678536Y-54310551D01*
X85655405Y-54267278D01*
X85636628Y-54221945D01*
X85622384Y-54174990D01*
X85612812Y-54126865D01*
X85608002Y-54078034D01*
X85608002Y-54053500D01*
X85607400Y-54053500D01*
X85607400Y-53553500D01*
X87107400Y-53553500D01*
G37*
%TD.AperFunction*%
%TD*%
%TA.AperFunction,SMDPad,CuDef*%
%TO.P,JP5,1*%
%TO.N,/DFP_BUSY*%
G36*
X99176700Y-49784700D02*
G01*
X98676700Y-49784700D01*
X98676700Y-49784098D01*
X98652166Y-49784098D01*
X98603335Y-49779288D01*
X98555210Y-49769716D01*
X98508255Y-49755472D01*
X98462922Y-49736695D01*
X98419649Y-49713564D01*
X98378850Y-49686304D01*
X98340921Y-49655176D01*
X98306224Y-49620479D01*
X98275096Y-49582550D01*
X98247836Y-49541751D01*
X98224705Y-49498478D01*
X98205928Y-49453145D01*
X98191684Y-49406190D01*
X98182112Y-49358065D01*
X98177302Y-49309234D01*
X98177302Y-49284700D01*
X98176700Y-49284700D01*
X98176700Y-48784700D01*
X98177302Y-48784700D01*
X98177302Y-48760166D01*
X98182112Y-48711335D01*
X98191684Y-48663210D01*
X98205928Y-48616255D01*
X98224705Y-48570922D01*
X98247836Y-48527649D01*
X98275096Y-48486850D01*
X98306224Y-48448921D01*
X98340921Y-48414224D01*
X98378850Y-48383096D01*
X98419649Y-48355836D01*
X98462922Y-48332705D01*
X98508255Y-48313928D01*
X98555210Y-48299684D01*
X98603335Y-48290112D01*
X98652166Y-48285302D01*
X98676700Y-48285302D01*
X98676700Y-48284700D01*
X99176700Y-48284700D01*
X99176700Y-49784700D01*
G37*
%TD.AperFunction*%
%TA.AperFunction,SMDPad,CuDef*%
%TO.P,JP5,2*%
%TO.N,/COL5*%
G36*
X99976700Y-48285302D02*
G01*
X100001234Y-48285302D01*
X100050065Y-48290112D01*
X100098190Y-48299684D01*
X100145145Y-48313928D01*
X100190478Y-48332705D01*
X100233751Y-48355836D01*
X100274550Y-48383096D01*
X100312479Y-48414224D01*
X100347176Y-48448921D01*
X100378304Y-48486850D01*
X100405564Y-48527649D01*
X100428695Y-48570922D01*
X100447472Y-48616255D01*
X100461716Y-48663210D01*
X100471288Y-48711335D01*
X100476098Y-48760166D01*
X100476098Y-48784700D01*
X100476700Y-48784700D01*
X100476700Y-49284700D01*
X100476098Y-49284700D01*
X100476098Y-49309234D01*
X100471288Y-49358065D01*
X100461716Y-49406190D01*
X100447472Y-49453145D01*
X100428695Y-49498478D01*
X100405564Y-49541751D01*
X100378304Y-49582550D01*
X100347176Y-49620479D01*
X100312479Y-49655176D01*
X100274550Y-49686304D01*
X100233751Y-49713564D01*
X100190478Y-49736695D01*
X100145145Y-49755472D01*
X100098190Y-49769716D01*
X100050065Y-49779288D01*
X100001234Y-49784098D01*
X99976700Y-49784098D01*
X99976700Y-49784700D01*
X99476700Y-49784700D01*
X99476700Y-48284700D01*
X99976700Y-48284700D01*
X99976700Y-48285302D01*
G37*
%TD.AperFunction*%
%TD*%
D12*
%TO.P,J13,1*%
%TO.N,Net-(J13-Pad1)*%
X91478100Y-53213000D03*
D13*
%TO.P,J13,2*%
%TO.N,/COL8*%
X94018100Y-53213000D03*
%TO.P,J13,3*%
%TO.N,/COL7*%
X96558100Y-53213000D03*
%TO.P,J13,4*%
%TO.N,/COL5*%
X99098100Y-53213000D03*
%TD*%
%TA.AperFunction,SMDPad,CuDef*%
D22*
%TO.P,JP6,1*%
%TO.N,Net-(J13-Pad1)*%
G36*
X79413800Y-53553500D02*
G01*
X79413800Y-54053500D01*
X79413198Y-54053500D01*
X79413198Y-54078034D01*
X79408388Y-54126865D01*
X79398816Y-54174990D01*
X79384572Y-54221945D01*
X79365795Y-54267278D01*
X79342664Y-54310551D01*
X79315404Y-54351350D01*
X79284276Y-54389279D01*
X79249579Y-54423976D01*
X79211650Y-54455104D01*
X79170851Y-54482364D01*
X79127578Y-54505495D01*
X79082245Y-54524272D01*
X79035290Y-54538516D01*
X78987165Y-54548088D01*
X78938334Y-54552898D01*
X78913800Y-54552898D01*
X78913800Y-54553500D01*
X78413800Y-54553500D01*
X78413800Y-54552898D01*
X78389266Y-54552898D01*
X78340435Y-54548088D01*
X78292310Y-54538516D01*
X78245355Y-54524272D01*
X78200022Y-54505495D01*
X78156749Y-54482364D01*
X78115950Y-54455104D01*
X78078021Y-54423976D01*
X78043324Y-54389279D01*
X78012196Y-54351350D01*
X77984936Y-54310551D01*
X77961805Y-54267278D01*
X77943028Y-54221945D01*
X77928784Y-54174990D01*
X77919212Y-54126865D01*
X77914402Y-54078034D01*
X77914402Y-54053500D01*
X77913800Y-54053500D01*
X77913800Y-53553500D01*
X79413800Y-53553500D01*
G37*
%TD.AperFunction*%
%TA.AperFunction,SMDPad,CuDef*%
%TO.P,JP6,2*%
%TO.N,/A1*%
G36*
X77914402Y-52753500D02*
G01*
X77914402Y-52728966D01*
X77919212Y-52680135D01*
X77928784Y-52632010D01*
X77943028Y-52585055D01*
X77961805Y-52539722D01*
X77984936Y-52496449D01*
X78012196Y-52455650D01*
X78043324Y-52417721D01*
X78078021Y-52383024D01*
X78115950Y-52351896D01*
X78156749Y-52324636D01*
X78200022Y-52301505D01*
X78245355Y-52282728D01*
X78292310Y-52268484D01*
X78340435Y-52258912D01*
X78389266Y-52254102D01*
X78413800Y-52254102D01*
X78413800Y-52253500D01*
X78913800Y-52253500D01*
X78913800Y-52254102D01*
X78938334Y-52254102D01*
X78987165Y-52258912D01*
X79035290Y-52268484D01*
X79082245Y-52282728D01*
X79127578Y-52301505D01*
X79170851Y-52324636D01*
X79211650Y-52351896D01*
X79249579Y-52383024D01*
X79284276Y-52417721D01*
X79315404Y-52455650D01*
X79342664Y-52496449D01*
X79365795Y-52539722D01*
X79384572Y-52585055D01*
X79398816Y-52632010D01*
X79408388Y-52680135D01*
X79413198Y-52728966D01*
X79413198Y-52753500D01*
X79413800Y-52753500D01*
X79413800Y-53253500D01*
X77913800Y-53253500D01*
X77913800Y-52753500D01*
X77914402Y-52753500D01*
G37*
%TD.AperFunction*%
%TD*%
D13*
%TO.P,J6,16*%
%TO.N,/D1*%
X109248700Y-70045900D03*
%TO.P,J6,15*%
%TO.N,/COL8*%
X109248700Y-72585900D03*
%TO.P,J6,14*%
%TO.N,/D1*%
X106708700Y-70045900D03*
%TO.P,J6,13*%
%TO.N,/COL7*%
X106708700Y-72585900D03*
%TO.P,J6,12*%
%TO.N,/D1*%
X104168700Y-70045900D03*
%TO.P,J6,11*%
%TO.N,/A2*%
X104168700Y-72585900D03*
%TO.P,J6,10*%
%TO.N,/D1*%
X101628700Y-70045900D03*
%TO.P,J6,9*%
%TO.N,/COL5*%
X101628700Y-72585900D03*
%TO.P,J6,8*%
%TO.N,/D1*%
X99088700Y-70045900D03*
%TO.P,J6,7*%
%TO.N,/A0*%
X99088700Y-72585900D03*
%TO.P,J6,6*%
%TO.N,/D1*%
X96548700Y-70045900D03*
%TO.P,J6,5*%
%TO.N,/COL3*%
X96548700Y-72585900D03*
%TO.P,J6,4*%
%TO.N,/D1*%
X94008700Y-70045900D03*
%TO.P,J6,3*%
%TO.N,/COL2*%
X94008700Y-72585900D03*
%TO.P,J6,2*%
%TO.N,/D1*%
X91468700Y-70045900D03*
D12*
%TO.P,J6,1*%
%TO.N,/COL1*%
X91468700Y-72585900D03*
%TD*%
%TO.P,J7,1*%
%TO.N,/COL1*%
X114631000Y-72585900D03*
D13*
%TO.P,J7,2*%
%TO.N,/D5*%
X114631000Y-70045900D03*
%TO.P,J7,3*%
%TO.N,/COL2*%
X117171000Y-72585900D03*
%TO.P,J7,4*%
%TO.N,/D5*%
X117171000Y-70045900D03*
%TO.P,J7,5*%
%TO.N,/COL3*%
X119711000Y-72585900D03*
%TO.P,J7,6*%
%TO.N,/D5*%
X119711000Y-70045900D03*
%TO.P,J7,7*%
%TO.N,/A0*%
X122251000Y-72585900D03*
%TO.P,J7,8*%
%TO.N,/D5*%
X122251000Y-70045900D03*
%TO.P,J7,9*%
%TO.N,/COL5*%
X124791000Y-72585900D03*
%TO.P,J7,10*%
%TO.N,/D5*%
X124791000Y-70045900D03*
%TO.P,J7,11*%
%TO.N,/A2*%
X127331000Y-72585900D03*
%TO.P,J7,12*%
%TO.N,/D5*%
X127331000Y-70045900D03*
%TO.P,J7,13*%
%TO.N,/COL7*%
X129871000Y-72585900D03*
%TO.P,J7,14*%
%TO.N,/D5*%
X129871000Y-70045900D03*
%TO.P,J7,15*%
%TO.N,/COL8*%
X132411000Y-72585900D03*
%TO.P,J7,16*%
%TO.N,/D5*%
X132411000Y-70045900D03*
%TD*%
%TO.P,J8,1*%
%TO.N,/SRC_FOR_VDD*%
%TA.AperFunction,ComponentPad*%
G36*
G01*
X66695400Y-43155200D02*
X68195400Y-43155200D01*
G75*
G02*
X68445400Y-43405200I0J-250000D01*
G01*
X68445400Y-44605200D01*
G75*
G02*
X68195400Y-44855200I-250000J0D01*
G01*
X66695400Y-44855200D01*
G75*
G02*
X66445400Y-44605200I0J250000D01*
G01*
X66445400Y-43405200D01*
G75*
G02*
X66695400Y-43155200I250000J0D01*
G01*
G37*
%TD.AperFunction*%
D23*
%TO.P,J8,2*%
%TO.N,VDD*%
X67445400Y-46505200D03*
%TD*%
%TO.P,J9,1*%
%TO.N,+BATT*%
%TA.AperFunction,ComponentPad*%
G36*
G01*
X66695400Y-51917300D02*
X68195400Y-51917300D01*
G75*
G02*
X68445400Y-52167300I0J-250000D01*
G01*
X68445400Y-53367300D01*
G75*
G02*
X68195400Y-53617300I-250000J0D01*
G01*
X66695400Y-53617300D01*
G75*
G02*
X66445400Y-53367300I0J250000D01*
G01*
X66445400Y-52167300D01*
G75*
G02*
X66695400Y-51917300I250000J0D01*
G01*
G37*
%TD.AperFunction*%
%TO.P,J9,2*%
%TO.N,GND*%
X67445400Y-55267300D03*
%TD*%
%TO.P,J10,2*%
%TO.N,/SPK1*%
X67445400Y-63965900D03*
%TO.P,J10,1*%
%TO.N,/SPK2*%
%TA.AperFunction,ComponentPad*%
G36*
G01*
X66695400Y-60615900D02*
X68195400Y-60615900D01*
G75*
G02*
X68445400Y-60865900I0J-250000D01*
G01*
X68445400Y-62065900D01*
G75*
G02*
X68195400Y-62315900I-250000J0D01*
G01*
X66695400Y-62315900D01*
G75*
G02*
X66445400Y-62065900I0J250000D01*
G01*
X66445400Y-60865900D01*
G75*
G02*
X66695400Y-60615900I250000J0D01*
G01*
G37*
%TD.AperFunction*%
%TD*%
D24*
%TO.N,/CAP_IN*%
X77088200Y-43111100D03*
%TO.N,/D0*%
X107602800Y-44310100D03*
%TO.N,/A3*%
X114804300Y-53784100D03*
%TO.N,/COL1*%
X80837900Y-57155700D03*
%TO.N,/COL5*%
X97923700Y-50733500D03*
%TO.N,/A2*%
X81140100Y-53050400D03*
%TO.N,/SPK2*%
X119652000Y-51167200D03*
X116517800Y-66038300D03*
%TO.N,/SPK1*%
X120587700Y-48434900D03*
X116765000Y-67591100D03*
%TO.N,/D7*%
X117739700Y-63639500D03*
%TO.N,/COL7*%
X111733800Y-73154800D03*
X98120000Y-71410600D03*
X99500800Y-50409400D03*
%TO.N,/D8*%
X88032300Y-45707300D03*
%TO.N,/LCD_CS*%
X88091000Y-54053500D03*
%TO.N,/DFP_BUSY*%
X96935400Y-49034700D03*
%TO.N,/COL8*%
X115916200Y-56197800D03*
%TD*%
D25*
%TO.N,/CAP_IN*%
X63870600Y-37053400D02*
X71030500Y-37053400D01*
X71030500Y-37053400D02*
X77088200Y-43111100D01*
X63870600Y-37053400D02*
X63870600Y-34721800D01*
X63870600Y-34721800D02*
X63832500Y-34683700D01*
X63870600Y-38938200D02*
X63870600Y-37053400D01*
X76637500Y-47101700D02*
X93937200Y-47101700D01*
X93937200Y-47101700D02*
X94291900Y-47456400D01*
X94291900Y-47456400D02*
X111289300Y-47456400D01*
X111289300Y-47456400D02*
X112644700Y-46101000D01*
X75387200Y-47101700D02*
X76637500Y-47101700D01*
X113995000Y-46101000D02*
X112644700Y-46101000D01*
%TO.N,GND*%
X88366600Y-33167000D02*
X90672600Y-30861000D01*
X90672600Y-30861000D02*
X96215000Y-30861000D01*
X86357400Y-52753500D02*
X85351100Y-51747200D01*
X85351100Y-51747200D02*
X77945200Y-51747200D01*
X77945200Y-51747200D02*
X74703500Y-54988900D01*
X74703500Y-54988900D02*
X74703500Y-55903500D01*
X80594200Y-59105800D02*
X83134200Y-59105800D01*
X79404500Y-59105800D02*
X80594200Y-59105800D01*
X78054200Y-59105800D02*
X79404500Y-59105800D01*
X135520800Y-60151300D02*
X135520800Y-54190100D01*
X135520800Y-54190100D02*
X137004000Y-52706900D01*
X135520800Y-60151300D02*
X137248900Y-60151300D01*
X137248900Y-60151300D02*
X138534800Y-61437200D01*
X138534800Y-61437200D02*
X138534800Y-62910300D01*
X138534800Y-62910300D02*
X137004000Y-64441100D01*
X113834600Y-59093100D02*
X114892800Y-60151300D01*
X114892800Y-60151300D02*
X135520800Y-60151300D01*
X112484300Y-59093100D02*
X113834600Y-59093100D01*
X109944300Y-59093100D02*
X112484300Y-59093100D01*
X130162000Y-64912200D02*
X131512300Y-64912200D01*
X135528700Y-64441100D02*
X131983400Y-64441100D01*
X131983400Y-64441100D02*
X131512300Y-64912200D01*
X130162000Y-64912200D02*
X130162000Y-63722500D01*
X130162000Y-62372200D02*
X130162000Y-63722500D01*
X75387200Y-43601700D02*
X70266500Y-38481000D01*
X70266500Y-38481000D02*
X67640200Y-38481000D01*
X91459200Y-59093100D02*
X90108900Y-59093100D01*
X85674200Y-59105800D02*
X90096200Y-59105800D01*
X90096200Y-59105800D02*
X90108900Y-59093100D01*
X83134200Y-59105800D02*
X85674200Y-59105800D01*
X73228200Y-55903500D02*
X74703500Y-55903500D01*
X111556800Y-30861000D02*
X113995000Y-30861000D01*
X96215000Y-30861000D02*
X111556800Y-30861000D01*
X111556800Y-30861000D02*
X111556800Y-35991800D01*
X117602600Y-35941000D02*
X117602600Y-38481000D01*
X137004000Y-64441100D02*
X135528700Y-64441100D01*
X109944300Y-49583300D02*
X112484300Y-49583300D01*
X107404300Y-49583300D02*
X109944300Y-49583300D01*
X107404300Y-49583300D02*
X104864300Y-49583300D01*
X107404300Y-59093100D02*
X104864300Y-59093100D01*
X93999200Y-59093100D02*
X96539200Y-59093100D01*
X99079200Y-59093100D02*
X96539200Y-59093100D01*
%TO.N,+5V*%
X92284300Y-43841000D02*
X92284300Y-42440700D01*
X92284300Y-42440700D02*
X89596200Y-39752600D01*
X89596200Y-39752600D02*
X89596200Y-38776100D01*
X89596200Y-38776100D02*
X80340200Y-29520100D01*
X80340200Y-29520100D02*
X80340200Y-28321000D01*
%TO.N,/SRC_FOR_VDD*%
X84754800Y-43841000D02*
X88484300Y-43841000D01*
X84004700Y-43841000D02*
X84754800Y-43841000D01*
X67445400Y-44005200D02*
X66951500Y-44005200D01*
X66951500Y-44005200D02*
X62570600Y-39624300D01*
X62570600Y-39624300D02*
X62570600Y-38938200D01*
X83254500Y-43841000D02*
X83254500Y-44190100D01*
X83254500Y-44190100D02*
X82190800Y-45253800D01*
X82190800Y-45253800D02*
X68694000Y-45253800D01*
X68694000Y-45253800D02*
X67445400Y-44005200D01*
X84004700Y-43841000D02*
X83254500Y-43841000D01*
%TO.N,+BATT*%
X80340200Y-38481000D02*
X80954800Y-39095600D01*
X80954800Y-39095600D02*
X80954800Y-43841000D01*
D26*
%TO.N,/D0*%
X107602800Y-44310100D02*
X111342800Y-44310100D01*
X111342800Y-44310100D02*
X113361900Y-42291000D01*
X113361900Y-42291000D02*
X114492200Y-42291000D01*
X114492200Y-42291000D02*
X116238000Y-40545200D01*
X116238000Y-40545200D02*
X116238000Y-34765600D01*
X116238000Y-34765600D02*
X117602600Y-33401000D01*
X81006400Y-70045900D02*
X83546400Y-70045900D01*
X83546400Y-70045900D02*
X86086400Y-70045900D01*
X78466400Y-70045900D02*
X81006400Y-70045900D01*
X75926400Y-70045900D02*
X78466400Y-70045900D01*
X73386400Y-70045900D02*
X75926400Y-70045900D01*
X70846400Y-70045900D02*
X73386400Y-70045900D01*
X68306400Y-70045900D02*
X70846400Y-70045900D01*
D25*
%TO.N,VDD*%
X127622000Y-61021900D02*
X134609500Y-61021900D01*
X134609500Y-61021900D02*
X135528700Y-61941100D01*
X113847300Y-61633100D02*
X114458500Y-61021900D01*
X114458500Y-61021900D02*
X127622000Y-61021900D01*
X127622000Y-62372200D02*
X127622000Y-61021900D01*
X137004000Y-61941100D02*
X135528700Y-61941100D01*
X112497000Y-61633100D02*
X113847300Y-61633100D01*
X109957000Y-61633100D02*
X112497000Y-61633100D01*
X104877000Y-52123300D02*
X102155700Y-54844600D01*
X102155700Y-54844600D02*
X102155700Y-58569300D01*
X102155700Y-58569300D02*
X99091900Y-61633100D01*
X85686900Y-61645800D02*
X90108900Y-61645800D01*
X90108900Y-61645800D02*
X90121600Y-61633100D01*
X96551900Y-61633100D02*
X99091900Y-61633100D01*
X91471900Y-61633100D02*
X90121600Y-61633100D01*
X67445400Y-46505200D02*
X67445400Y-47855500D01*
X73228200Y-58403500D02*
X70671300Y-55846600D01*
X70671300Y-55846600D02*
X70671300Y-51081400D01*
X70671300Y-51081400D02*
X67445400Y-47855500D01*
X67445400Y-46505200D02*
X61518400Y-40578200D01*
X61518400Y-40578200D02*
X61518400Y-35697800D01*
X61518400Y-35697800D02*
X62532500Y-34683700D01*
X104877000Y-52123300D02*
X106066700Y-52123300D01*
X107417000Y-52123300D02*
X106066700Y-52123300D01*
X109957000Y-52123300D02*
X107417000Y-52123300D01*
X112497000Y-52123300D02*
X109957000Y-52123300D01*
X80606900Y-61645800D02*
X78066900Y-61645800D01*
X107417000Y-61633100D02*
X104877000Y-61633100D01*
X80606900Y-61645800D02*
X83146900Y-61645800D01*
X94011900Y-61633100D02*
X91471900Y-61633100D01*
X94011900Y-61633100D02*
X96551900Y-61633100D01*
D26*
%TO.N,/A3*%
X114804300Y-53784100D02*
X116115800Y-52472600D01*
X116115800Y-52472600D02*
X119466000Y-52472600D01*
X119466000Y-52472600D02*
X130917600Y-41021000D01*
X130917600Y-41021000D02*
X132842600Y-41021000D01*
%TO.N,/COL1*%
X113672400Y-50908700D02*
X113672400Y-52616500D01*
X113672400Y-52616500D02*
X112800900Y-53488000D01*
X112800900Y-53488000D02*
X111940200Y-53488000D01*
X111940200Y-53488000D02*
X111132300Y-54295900D01*
X111132300Y-54295900D02*
X111132300Y-54663300D01*
X91468700Y-72585900D02*
X90293400Y-72585900D01*
X68306400Y-72585900D02*
X69481700Y-72585900D01*
X69481700Y-72585900D02*
X69481700Y-72218600D01*
X69481700Y-72218600D02*
X70289800Y-71410500D01*
X70289800Y-71410500D02*
X76452000Y-71410500D01*
X76452000Y-71410500D02*
X77196400Y-72154900D01*
X77196400Y-72154900D02*
X77196400Y-73045200D01*
X77196400Y-73045200D02*
X78369600Y-74218400D01*
X78369600Y-74218400D02*
X88660900Y-74218400D01*
X88660900Y-74218400D02*
X90293400Y-72585900D01*
X113672400Y-50908700D02*
X104379500Y-50908700D01*
X104379500Y-50908700D02*
X98132500Y-57155700D01*
X98132500Y-57155700D02*
X80837900Y-57155700D01*
X113672400Y-50908700D02*
X113672400Y-50031200D01*
X113672400Y-50031200D02*
X117602600Y-46101000D01*
X109957000Y-54663300D02*
X111132300Y-54663300D01*
%TO.N,/COL2*%
X115995700Y-72585900D02*
X115995700Y-73393900D01*
X115995700Y-73393900D02*
X115150300Y-74239300D01*
X115150300Y-74239300D02*
X99055900Y-74239300D01*
X99055900Y-74239300D02*
X97818700Y-73002100D01*
X97818700Y-73002100D02*
X97818700Y-72164400D01*
X97818700Y-72164400D02*
X97064900Y-71410600D01*
X97064900Y-71410600D02*
X95991900Y-71410600D01*
X95991900Y-71410600D02*
X95184000Y-72218500D01*
X95184000Y-72218500D02*
X95184000Y-72585900D01*
X94008700Y-72585900D02*
X95184000Y-72585900D01*
X117171000Y-72585900D02*
X115995700Y-72585900D01*
%TO.N,/COL3*%
X74561700Y-72585900D02*
X74561700Y-72953200D01*
X74561700Y-72953200D02*
X76277300Y-74668800D01*
X76277300Y-74668800D02*
X95641100Y-74668800D01*
X95641100Y-74668800D02*
X96548700Y-73761200D01*
X118535700Y-72585900D02*
X118535700Y-72953200D01*
X118535700Y-72953200D02*
X116787000Y-74701900D01*
X116787000Y-74701900D02*
X97489400Y-74701900D01*
X97489400Y-74701900D02*
X96548700Y-73761200D01*
X96548700Y-72585900D02*
X96548700Y-73761200D01*
X73386400Y-72585900D02*
X74561700Y-72585900D01*
X119711000Y-72585900D02*
X118535700Y-72585900D01*
%TO.N,/COL5*%
X124791000Y-72585900D02*
X123615700Y-72585900D01*
X123615700Y-72585900D02*
X123615700Y-72218600D01*
X123615700Y-72218600D02*
X122618400Y-71221300D01*
X122618400Y-71221300D02*
X110460400Y-71221300D01*
X110460400Y-71221300D02*
X110460400Y-69584400D01*
X110460400Y-69584400D02*
X109685500Y-68809500D01*
X109685500Y-68809500D02*
X91042800Y-68809500D01*
X91042800Y-68809500D02*
X88499300Y-71353000D01*
X88499300Y-71353000D02*
X88499300Y-71879900D01*
X88499300Y-71879900D02*
X86611700Y-73767500D01*
X86611700Y-73767500D02*
X80458000Y-73767500D01*
X80458000Y-73767500D02*
X79641700Y-72951200D01*
X79641700Y-72951200D02*
X79641700Y-72585900D01*
X102804000Y-72585900D02*
X102804000Y-72218500D01*
X102804000Y-72218500D02*
X103801200Y-71221300D01*
X103801200Y-71221300D02*
X110460400Y-71221300D01*
X99098100Y-51586300D02*
X98776500Y-51586300D01*
X98776500Y-51586300D02*
X97923700Y-50733500D01*
X99976700Y-49034700D02*
X100226100Y-49284100D01*
X100226100Y-49284100D02*
X100226100Y-50712200D01*
X100226100Y-50712200D02*
X99352000Y-51586300D01*
X99352000Y-51586300D02*
X99098100Y-51586300D01*
X99098100Y-51586300D02*
X99098100Y-52037700D01*
X78466400Y-72585900D02*
X79641700Y-72585900D01*
X99098100Y-53213000D02*
X99098100Y-52037700D01*
X101628700Y-72585900D02*
X102804000Y-72585900D01*
%TO.N,/A1*%
X137004000Y-55206900D02*
X139160200Y-57363100D01*
X139160200Y-57363100D02*
X139160200Y-64109800D01*
X139160200Y-64109800D02*
X137635900Y-65634100D01*
X137635900Y-65634100D02*
X133737100Y-65634100D01*
X133737100Y-65634100D02*
X133283600Y-66087600D01*
X133283600Y-66087600D02*
X121213600Y-66087600D01*
X121213600Y-66087600D02*
X118040200Y-62914200D01*
X118040200Y-62914200D02*
X109483800Y-62914200D01*
X109483800Y-62914200D02*
X108592300Y-63805700D01*
X108592300Y-63805700D02*
X108592300Y-64173100D01*
X78663800Y-52753500D02*
X78203600Y-52753500D01*
X78203600Y-52753500D02*
X76862100Y-54095000D01*
X76862100Y-54095000D02*
X76862100Y-62109300D01*
X76862100Y-62109300D02*
X77750700Y-62997900D01*
X77750700Y-62997900D02*
X79100400Y-62997900D01*
X79100400Y-62997900D02*
X79242300Y-63139800D01*
X79242300Y-63139800D02*
X79242300Y-64528200D01*
X79242300Y-64528200D02*
X80977100Y-66263000D01*
X80977100Y-66263000D02*
X104959800Y-66263000D01*
X104959800Y-66263000D02*
X106241700Y-64981100D01*
X106241700Y-64981100D02*
X106241700Y-64173100D01*
X107417000Y-64173100D02*
X106241700Y-64173100D01*
X107417000Y-64173100D02*
X108592300Y-64173100D01*
%TO.N,/A2*%
X82510600Y-52753500D02*
X82213700Y-53050400D01*
X82213700Y-53050400D02*
X81140100Y-53050400D01*
X118439200Y-66965000D02*
X119856200Y-68382000D01*
X119856200Y-68382000D02*
X127348100Y-68382000D01*
X127348100Y-68382000D02*
X128535300Y-69569200D01*
X111132300Y-64173100D02*
X111132300Y-64540500D01*
X111132300Y-64540500D02*
X111940200Y-65348400D01*
X111940200Y-65348400D02*
X116182000Y-65348400D01*
X116182000Y-65348400D02*
X116217400Y-65313000D01*
X116217400Y-65313000D02*
X116822500Y-65313000D01*
X116822500Y-65313000D02*
X118439200Y-66929700D01*
X118439200Y-66929700D02*
X118439200Y-66965000D01*
X82181700Y-72585900D02*
X82181700Y-72218500D01*
X82181700Y-72218500D02*
X82989600Y-71410600D01*
X82989600Y-71410600D02*
X87514500Y-71410600D01*
X87514500Y-71410600D02*
X90591800Y-68333300D01*
X90591800Y-68333300D02*
X117070900Y-68333300D01*
X117070900Y-68333300D02*
X118439200Y-66965000D01*
X127331000Y-71410600D02*
X127698300Y-71410600D01*
X127698300Y-71410600D02*
X128535300Y-70573600D01*
X128535300Y-70573600D02*
X128535300Y-69569200D01*
X132842600Y-43561000D02*
X133863600Y-42540000D01*
X133863600Y-42540000D02*
X137286700Y-42540000D01*
X137286700Y-42540000D02*
X139610600Y-44863900D01*
X139610600Y-44863900D02*
X139610600Y-66480700D01*
X139610600Y-66480700D02*
X137220800Y-68870500D01*
X137220800Y-68870500D02*
X129234000Y-68870500D01*
X129234000Y-68870500D02*
X128535300Y-69569200D01*
X127331000Y-72585900D02*
X127331000Y-71410600D01*
X81006400Y-72585900D02*
X82181700Y-72585900D01*
X109957000Y-64173100D02*
X111132300Y-64173100D01*
D25*
%TO.N,/SPK2*%
X67445400Y-61465900D02*
X72867800Y-66888300D01*
X72867800Y-66888300D02*
X115667800Y-66888300D01*
X115667800Y-66888300D02*
X116517800Y-66038300D01*
X119652000Y-51167200D02*
X121493900Y-49325300D01*
X121493900Y-49325300D02*
X121493900Y-31606500D01*
X121493900Y-31606500D02*
X118208400Y-28321000D01*
X118208400Y-28321000D02*
X113995000Y-28321000D01*
%TO.N,/SPK1*%
X67445400Y-65316200D02*
X69817800Y-67688600D01*
X69817800Y-67688600D02*
X116667500Y-67688600D01*
X116667500Y-67688600D02*
X116765000Y-67591100D01*
X113995000Y-33401000D02*
X116135000Y-31261000D01*
X116135000Y-31261000D02*
X116135000Y-30408000D01*
X116135000Y-30408000D02*
X117056700Y-29486300D01*
X117056700Y-29486300D02*
X118156900Y-29486300D01*
X118156900Y-29486300D02*
X120587700Y-31917100D01*
X120587700Y-31917100D02*
X120587700Y-48434900D01*
X67445400Y-63965900D02*
X67445400Y-65316200D01*
D26*
%TO.N,/D1*%
X117602600Y-30861000D02*
X119267100Y-32525500D01*
X119267100Y-32525500D02*
X119267100Y-48714700D01*
X119267100Y-48714700D02*
X118070800Y-49911000D01*
X118070800Y-49911000D02*
X117206200Y-49911000D01*
X117206200Y-49911000D02*
X115104900Y-52012300D01*
X115104900Y-52012300D02*
X115104900Y-52457800D01*
X115104900Y-52457800D02*
X114079000Y-53483700D01*
X114079000Y-53483700D02*
X114079000Y-54807700D01*
X114079000Y-54807700D02*
X113020700Y-55866000D01*
X113020700Y-55866000D02*
X109427700Y-55866000D01*
X109427700Y-55866000D02*
X108592300Y-55030600D01*
X108592300Y-55030600D02*
X108592300Y-54663300D01*
X107417000Y-54663300D02*
X108592300Y-54663300D01*
X94008700Y-70045900D02*
X91468700Y-70045900D01*
X96548700Y-70045900D02*
X94008700Y-70045900D01*
X99088700Y-70045900D02*
X96548700Y-70045900D01*
X101628700Y-70045900D02*
X99088700Y-70045900D01*
X104168700Y-70045900D02*
X101628700Y-70045900D01*
X106708700Y-70045900D02*
X104168700Y-70045900D01*
X109248700Y-70045900D02*
X106708700Y-70045900D01*
%TO.N,/D7*%
X117739700Y-63639500D02*
X121041300Y-66941100D01*
X121041300Y-66941100D02*
X137004000Y-66941100D01*
X117602600Y-53721000D02*
X117346300Y-53721000D01*
X117346300Y-53721000D02*
X114140900Y-56926400D01*
X114140900Y-56926400D02*
X104693500Y-56926400D01*
X104693500Y-56926400D02*
X102700000Y-58919900D01*
X102700000Y-58919900D02*
X102700000Y-59700500D01*
X102700000Y-59700500D02*
X99497400Y-62903100D01*
X99497400Y-62903100D02*
X82697600Y-62903100D01*
X82697600Y-62903100D02*
X81782200Y-63818500D01*
X81782200Y-63818500D02*
X81782200Y-64185800D01*
X80606900Y-64185800D02*
X81782200Y-64185800D01*
%TO.N,/COL7*%
X111733800Y-73154800D02*
X111127400Y-73761200D01*
X111127400Y-73761200D02*
X108691900Y-73761200D01*
X108691900Y-73761200D02*
X107884000Y-72953300D01*
X107884000Y-72953300D02*
X107884000Y-72585900D01*
X106708700Y-72585900D02*
X107884000Y-72585900D01*
X99500800Y-50409400D02*
X98625400Y-50409400D01*
X98625400Y-50409400D02*
X98183600Y-49967600D01*
X98183600Y-49967600D02*
X97289200Y-49967600D01*
X97289200Y-49967600D02*
X95382800Y-51874000D01*
X105533400Y-72585900D02*
X105533400Y-72953300D01*
X105533400Y-72953300D02*
X104725500Y-73761200D01*
X104725500Y-73761200D02*
X101139700Y-73761200D01*
X101139700Y-73761200D02*
X100358700Y-72980200D01*
X100358700Y-72980200D02*
X100358700Y-72140000D01*
X100358700Y-72140000D02*
X99629300Y-71410600D01*
X99629300Y-71410600D02*
X98120000Y-71410600D01*
X95382800Y-51874000D02*
X95382800Y-53213000D01*
X85935100Y-48602900D02*
X85935100Y-48970300D01*
X85935100Y-48970300D02*
X86743000Y-49778200D01*
X86743000Y-49778200D02*
X93287000Y-49778200D01*
X93287000Y-49778200D02*
X95382800Y-51874000D01*
X106708700Y-72585900D02*
X105533400Y-72585900D01*
X96558100Y-53213000D02*
X95382800Y-53213000D01*
X84759800Y-48602900D02*
X85935100Y-48602900D01*
%TO.N,/D8*%
X113995000Y-41021000D02*
X112725000Y-42291000D01*
X112725000Y-42291000D02*
X95817700Y-42291000D01*
X95817700Y-42291000D02*
X93853700Y-44255000D01*
X93853700Y-44255000D02*
X93853700Y-44681600D01*
X93853700Y-44681600D02*
X92828000Y-45707300D01*
X92828000Y-45707300D02*
X88032300Y-45707300D01*
%TO.N,/D9*%
X85686900Y-64185800D02*
X86862200Y-64185800D01*
X86862200Y-64185800D02*
X88489000Y-65812600D01*
X88489000Y-65812600D02*
X99855400Y-65812600D01*
X99855400Y-65812600D02*
X103681800Y-61986200D01*
X103681800Y-61986200D02*
X103681800Y-61100900D01*
X103681800Y-61100900D02*
X104425900Y-60356800D01*
X104425900Y-60356800D02*
X107838300Y-60356800D01*
X107838300Y-60356800D02*
X108674300Y-59520800D01*
X108674300Y-59520800D02*
X108674300Y-58619000D01*
X108674300Y-58619000D02*
X109386100Y-57907200D01*
X109386100Y-57907200D02*
X116708800Y-57907200D01*
X116708800Y-57907200D02*
X117602600Y-58801000D01*
X117602600Y-58801000D02*
X123952600Y-52451000D01*
X123952600Y-52451000D02*
X133235600Y-52451000D01*
X133235600Y-52451000D02*
X135111200Y-50575400D01*
X135111200Y-50575400D02*
X135111200Y-45398500D01*
X135111200Y-45398500D02*
X136804000Y-43705700D01*
%TO.N,/LCD_CS*%
X86357400Y-54053500D02*
X88091000Y-54053500D01*
X82510600Y-54053500D02*
X86357400Y-54053500D01*
%TO.N,/DFP_BUSY*%
X98676700Y-49034700D02*
X96935400Y-49034700D01*
%TO.N,/D5*%
X117171000Y-70045900D02*
X119711000Y-70045900D01*
X114631000Y-70045900D02*
X117171000Y-70045900D01*
X117602600Y-48641000D02*
X114358600Y-51885000D01*
X114358600Y-51885000D02*
X114358600Y-52567200D01*
X114358600Y-52567200D02*
X112497000Y-54428800D01*
X112497000Y-54428800D02*
X112497000Y-54663300D01*
X73228200Y-53403500D02*
X73228200Y-47248700D01*
X73228200Y-47248700D02*
X74455900Y-46021000D01*
X74455900Y-46021000D02*
X87320300Y-46021000D01*
X87320300Y-46021000D02*
X87731900Y-46432600D01*
X87731900Y-46432600D02*
X93376400Y-46432600D01*
X93376400Y-46432600D02*
X94886600Y-44922400D01*
X94886600Y-44922400D02*
X107189400Y-44922400D01*
X107189400Y-44922400D02*
X107302400Y-45035400D01*
X107302400Y-45035400D02*
X107903300Y-45035400D01*
X107903300Y-45035400D02*
X108016300Y-44922400D01*
X108016300Y-44922400D02*
X118087800Y-44922400D01*
X118087800Y-44922400D02*
X118802000Y-45636600D01*
X118802000Y-45636600D02*
X118802000Y-47441600D01*
X118802000Y-47441600D02*
X117602600Y-48641000D01*
X129871000Y-70045900D02*
X132411000Y-70045900D01*
X124791000Y-70045900D02*
X127331000Y-70045900D01*
X122251000Y-70045900D02*
X124791000Y-70045900D01*
X119711000Y-70045900D02*
X122251000Y-70045900D01*
%TO.N,Net-(J13-Pad1)*%
X91478100Y-53213000D02*
X90302800Y-53213000D01*
X90302800Y-53213000D02*
X88632000Y-54883800D01*
X88632000Y-54883800D02*
X79494100Y-54883800D01*
X79494100Y-54883800D02*
X78663800Y-54053500D01*
%TO.N,/COL8*%
X82219800Y-48602900D02*
X83395100Y-48602900D01*
X94018100Y-53213000D02*
X92842800Y-53213000D01*
X92842800Y-53213000D02*
X92842800Y-52405000D01*
X92842800Y-52405000D02*
X91559600Y-51121800D01*
X91559600Y-51121800D02*
X85546700Y-51121800D01*
X85546700Y-51121800D02*
X83395100Y-48970200D01*
X83395100Y-48970200D02*
X83395100Y-48602900D01*
X115916200Y-56197800D02*
X117123000Y-54991000D01*
X117123000Y-54991000D02*
X119394000Y-54991000D01*
X119394000Y-54991000D02*
X123204000Y-51181000D01*
X123204000Y-51181000D02*
X132842600Y-51181000D01*
X97727200Y-64173100D02*
X97727200Y-64475800D01*
X97727200Y-64475800D02*
X98602300Y-65350900D01*
X98602300Y-65350900D02*
X99635400Y-65350900D01*
X99635400Y-65350900D02*
X103231400Y-61754900D01*
X103231400Y-61754900D02*
X103231400Y-59025400D01*
X103231400Y-59025400D02*
X104880000Y-57376800D01*
X104880000Y-57376800D02*
X114737200Y-57376800D01*
X114737200Y-57376800D02*
X115916200Y-56197800D01*
X96551900Y-64173100D02*
X97727200Y-64173100D01*
%TO.N,Net-(J18-PadS)*%
X113995000Y-38481000D02*
X112791000Y-37277000D01*
X112791000Y-37277000D02*
X94441600Y-37277000D01*
X94441600Y-37277000D02*
X93451600Y-38267000D01*
%TD*%
D27*
%TO.N,GND*%
X60854056Y-41242544D02*
X60889741Y-41271830D01*
X65831913Y-46214002D01*
X65831887Y-46214089D01*
X65803215Y-46505200D01*
X65831887Y-46796311D01*
X65916801Y-47076234D01*
X66054694Y-47334214D01*
X66240266Y-47560334D01*
X66466386Y-47745906D01*
X66510401Y-47769432D01*
X66510401Y-47809559D01*
X66505876Y-47855500D01*
X66523929Y-48038791D01*
X66577394Y-48215040D01*
X66664215Y-48377472D01*
X66781057Y-48519844D01*
X66816736Y-48549125D01*
X69736301Y-51468691D01*
X69736300Y-55800668D01*
X69731776Y-55846600D01*
X69736300Y-55892531D01*
X69749829Y-56029891D01*
X69803293Y-56206139D01*
X69890114Y-56368571D01*
X70006956Y-56510944D01*
X70042641Y-56540230D01*
X71637456Y-58135045D01*
X71611015Y-58403500D01*
X71639687Y-58694611D01*
X71724601Y-58974534D01*
X71862494Y-59232514D01*
X72048066Y-59458634D01*
X72274186Y-59644206D01*
X72532166Y-59782099D01*
X72812089Y-59867013D01*
X73030250Y-59888500D01*
X73426150Y-59888500D01*
X73644311Y-59867013D01*
X73924234Y-59782099D01*
X74182214Y-59644206D01*
X74408334Y-59458634D01*
X74593906Y-59232514D01*
X74731799Y-58974534D01*
X74816713Y-58694611D01*
X74845385Y-58403500D01*
X74816713Y-58112389D01*
X74731799Y-57832466D01*
X74593906Y-57574486D01*
X74408334Y-57348366D01*
X74182214Y-57162794D01*
X74156478Y-57149038D01*
X74362629Y-56992549D01*
X74555696Y-56774693D01*
X74702552Y-56523358D01*
X74794676Y-56260390D01*
X74673355Y-56030500D01*
X73355200Y-56030500D01*
X73355200Y-56050500D01*
X73101200Y-56050500D01*
X73101200Y-56030500D01*
X73081200Y-56030500D01*
X73081200Y-55776500D01*
X73101200Y-55776500D01*
X73101200Y-55756500D01*
X73355200Y-55756500D01*
X73355200Y-55776500D01*
X74673355Y-55776500D01*
X74794676Y-55546610D01*
X74702552Y-55283642D01*
X74555696Y-55032307D01*
X74362629Y-54814451D01*
X74341239Y-54798214D01*
X74446586Y-54741905D01*
X74581162Y-54631462D01*
X74691605Y-54496886D01*
X74773672Y-54343350D01*
X74824208Y-54176754D01*
X74841272Y-54003500D01*
X74841272Y-52803500D01*
X74824208Y-52630246D01*
X74773672Y-52463650D01*
X74691605Y-52310114D01*
X74581162Y-52175538D01*
X74446586Y-52065095D01*
X74293050Y-51983028D01*
X74126454Y-51932492D01*
X73988200Y-51918875D01*
X73988200Y-47563501D01*
X73999128Y-47552573D01*
X73999128Y-47851700D01*
X74011388Y-47976182D01*
X74047698Y-48095880D01*
X74106663Y-48206194D01*
X74186015Y-48302885D01*
X74282706Y-48382237D01*
X74393020Y-48441202D01*
X74512718Y-48477512D01*
X74637200Y-48489772D01*
X76137200Y-48489772D01*
X76261682Y-48477512D01*
X76381380Y-48441202D01*
X76491694Y-48382237D01*
X76588385Y-48302885D01*
X76667737Y-48206194D01*
X76726702Y-48095880D01*
X76744654Y-48036700D01*
X80731728Y-48036700D01*
X80731728Y-49452900D01*
X80743988Y-49577382D01*
X80780298Y-49697080D01*
X80839263Y-49807394D01*
X80918615Y-49904085D01*
X81015306Y-49983437D01*
X81125620Y-50042402D01*
X81245318Y-50078712D01*
X81369800Y-50090972D01*
X83069800Y-50090972D01*
X83194282Y-50078712D01*
X83313980Y-50042402D01*
X83365150Y-50015051D01*
X84982900Y-51632802D01*
X85006699Y-51661801D01*
X85035697Y-51685599D01*
X85122423Y-51756774D01*
X85245997Y-51822826D01*
X85254453Y-51827346D01*
X85397714Y-51870803D01*
X85509367Y-51881800D01*
X85509377Y-51881800D01*
X85546700Y-51885476D01*
X85584023Y-51881800D01*
X90213488Y-51881800D01*
X90176915Y-51911815D01*
X90097563Y-52008506D01*
X90038598Y-52118820D01*
X90002288Y-52238518D01*
X89990028Y-52363000D01*
X89990028Y-52518425D01*
X89878523Y-52578026D01*
X89810317Y-52634002D01*
X89762799Y-52672999D01*
X89739001Y-52701997D01*
X88955954Y-53485045D01*
X88894937Y-53393726D01*
X88750774Y-53249563D01*
X88581256Y-53136295D01*
X88392898Y-53058274D01*
X88192939Y-53018500D01*
X87989061Y-53018500D01*
X87789102Y-53058274D01*
X87600744Y-53136295D01*
X87591526Y-53142454D01*
X87558585Y-53102315D01*
X87461894Y-53022963D01*
X87351580Y-52963998D01*
X87251460Y-52933627D01*
X87246162Y-52915625D01*
X87245131Y-52913653D01*
X87244487Y-52911520D01*
X87216412Y-52858719D01*
X87188745Y-52805797D01*
X87187351Y-52804063D01*
X87186305Y-52802096D01*
X87148517Y-52755763D01*
X87111090Y-52709214D01*
X87109385Y-52707783D01*
X87107977Y-52706057D01*
X87061927Y-52667961D01*
X87016154Y-52629553D01*
X87014202Y-52628480D01*
X87012487Y-52627061D01*
X86959939Y-52598649D01*
X86907553Y-52569849D01*
X86905429Y-52569175D01*
X86903472Y-52568117D01*
X86846450Y-52550466D01*
X86789424Y-52532376D01*
X86787208Y-52532127D01*
X86785084Y-52531470D01*
X86725657Y-52525224D01*
X86666266Y-52518562D01*
X86661996Y-52518532D01*
X86661833Y-52518515D01*
X86661670Y-52518530D01*
X86657400Y-52518500D01*
X86057400Y-52518500D01*
X85997895Y-52524334D01*
X85938413Y-52529748D01*
X85936282Y-52530375D01*
X85934061Y-52530593D01*
X85876779Y-52547888D01*
X85819525Y-52564738D01*
X85817553Y-52565769D01*
X85815420Y-52566413D01*
X85762619Y-52594488D01*
X85709697Y-52622155D01*
X85707963Y-52623549D01*
X85705996Y-52624595D01*
X85659663Y-52662383D01*
X85613114Y-52699810D01*
X85611683Y-52701515D01*
X85609957Y-52702923D01*
X85571861Y-52748973D01*
X85533453Y-52794746D01*
X85532380Y-52796698D01*
X85530961Y-52798413D01*
X85502549Y-52850961D01*
X85473749Y-52903347D01*
X85473075Y-52905471D01*
X85472017Y-52907428D01*
X85463966Y-52933437D01*
X85363220Y-52963998D01*
X85252906Y-53022963D01*
X85156215Y-53102315D01*
X85076863Y-53199006D01*
X85026354Y-53293500D01*
X83894732Y-53293500D01*
X83898672Y-53253500D01*
X83898672Y-52753500D01*
X83896264Y-52729050D01*
X83896264Y-52704491D01*
X83884004Y-52580010D01*
X83864882Y-52483877D01*
X83828573Y-52364181D01*
X83791064Y-52273625D01*
X83732098Y-52163308D01*
X83677642Y-52081809D01*
X83598290Y-51985118D01*
X83528982Y-51915810D01*
X83432291Y-51836458D01*
X83350792Y-51782002D01*
X83240475Y-51723036D01*
X83149919Y-51685527D01*
X83030223Y-51649218D01*
X82934090Y-51630096D01*
X82809609Y-51617836D01*
X82785050Y-51617836D01*
X82760600Y-51615428D01*
X82260600Y-51615428D01*
X82236150Y-51617836D01*
X82211591Y-51617836D01*
X82087110Y-51630096D01*
X81990977Y-51649218D01*
X81871281Y-51685527D01*
X81780725Y-51723036D01*
X81670408Y-51782002D01*
X81588909Y-51836458D01*
X81492218Y-51915810D01*
X81422910Y-51985118D01*
X81376164Y-52042079D01*
X81242039Y-52015400D01*
X81038161Y-52015400D01*
X80838202Y-52055174D01*
X80649844Y-52133195D01*
X80480326Y-52246463D01*
X80336163Y-52390626D01*
X80222895Y-52560144D01*
X80144874Y-52748502D01*
X80105100Y-52948461D01*
X80105100Y-53152339D01*
X80144874Y-53352298D01*
X80222895Y-53540656D01*
X80336163Y-53710174D01*
X80480326Y-53854337D01*
X80649844Y-53967605D01*
X80838202Y-54045626D01*
X81038161Y-54085400D01*
X81124936Y-54085400D01*
X81124936Y-54102509D01*
X81127033Y-54123800D01*
X80047367Y-54123800D01*
X80049464Y-54102509D01*
X80049464Y-54077950D01*
X80051872Y-54053500D01*
X80051872Y-53553500D01*
X80039612Y-53429018D01*
X80031871Y-53403500D01*
X80039612Y-53377982D01*
X80051872Y-53253500D01*
X80051872Y-52753500D01*
X80049464Y-52729050D01*
X80049464Y-52704491D01*
X80037204Y-52580010D01*
X80018082Y-52483877D01*
X79981773Y-52364181D01*
X79944264Y-52273625D01*
X79885298Y-52163308D01*
X79830842Y-52081809D01*
X79751490Y-51985118D01*
X79682182Y-51915810D01*
X79585491Y-51836458D01*
X79503992Y-51782002D01*
X79393675Y-51723036D01*
X79303119Y-51685527D01*
X79183423Y-51649218D01*
X79087290Y-51630096D01*
X78962809Y-51617836D01*
X78938250Y-51617836D01*
X78913800Y-51615428D01*
X78413800Y-51615428D01*
X78389350Y-51617836D01*
X78364791Y-51617836D01*
X78240310Y-51630096D01*
X78144177Y-51649218D01*
X78024481Y-51685527D01*
X77933925Y-51723036D01*
X77823608Y-51782002D01*
X77742109Y-51836458D01*
X77645418Y-51915810D01*
X77576110Y-51985118D01*
X77496758Y-52081809D01*
X77442302Y-52163308D01*
X77383336Y-52273625D01*
X77345827Y-52364181D01*
X77309518Y-52483877D01*
X77290396Y-52580010D01*
X77289097Y-52593201D01*
X76351102Y-53531197D01*
X76322099Y-53554999D01*
X76273515Y-53614199D01*
X76227126Y-53670724D01*
X76164206Y-53788438D01*
X76156554Y-53802754D01*
X76113097Y-53946015D01*
X76102100Y-54057668D01*
X76102100Y-54057678D01*
X76098424Y-54095000D01*
X76102100Y-54132322D01*
X76102101Y-62071968D01*
X76098424Y-62109300D01*
X76102101Y-62146633D01*
X76113098Y-62258286D01*
X76119214Y-62278447D01*
X76156554Y-62401546D01*
X76227126Y-62533576D01*
X76290547Y-62610854D01*
X76322100Y-62649301D01*
X76351098Y-62673099D01*
X76676938Y-62998939D01*
X76627398Y-63091620D01*
X76591088Y-63211318D01*
X76578828Y-63335800D01*
X76578828Y-65035800D01*
X76591088Y-65160282D01*
X76627398Y-65279980D01*
X76686363Y-65390294D01*
X76765715Y-65486985D01*
X76862406Y-65566337D01*
X76972720Y-65625302D01*
X77092418Y-65661612D01*
X77216900Y-65673872D01*
X78916900Y-65673872D01*
X79041382Y-65661612D01*
X79161080Y-65625302D01*
X79228541Y-65589243D01*
X79592598Y-65953300D01*
X73255089Y-65953300D01*
X69083472Y-61781683D01*
X69083472Y-60865900D01*
X69066408Y-60692646D01*
X69015872Y-60526050D01*
X68933805Y-60372514D01*
X68823362Y-60237938D01*
X68688786Y-60127495D01*
X68535250Y-60045428D01*
X68368654Y-59994892D01*
X68195400Y-59977828D01*
X66695400Y-59977828D01*
X66522146Y-59994892D01*
X66355550Y-60045428D01*
X66202014Y-60127495D01*
X66067438Y-60237938D01*
X65956995Y-60372514D01*
X65874928Y-60526050D01*
X65824392Y-60692646D01*
X65807328Y-60865900D01*
X65807328Y-62065900D01*
X65824392Y-62239154D01*
X65874928Y-62405750D01*
X65956995Y-62559286D01*
X66067438Y-62693862D01*
X66202014Y-62804305D01*
X66303737Y-62858677D01*
X66240266Y-62910766D01*
X66054694Y-63136886D01*
X65916801Y-63394866D01*
X65831887Y-63674789D01*
X65803215Y-63965900D01*
X65831887Y-64257011D01*
X65916801Y-64536934D01*
X66054694Y-64794914D01*
X66240266Y-65021034D01*
X66466386Y-65206606D01*
X66510401Y-65230132D01*
X66510401Y-65270259D01*
X66505876Y-65316200D01*
X66523929Y-65499491D01*
X66562094Y-65625302D01*
X66577394Y-65675740D01*
X66664215Y-65838172D01*
X66781057Y-65980544D01*
X66816736Y-66009825D01*
X69124174Y-68317264D01*
X69153456Y-68352944D01*
X69295828Y-68469786D01*
X69458260Y-68556607D01*
X69556231Y-68586326D01*
X69634507Y-68610071D01*
X69817799Y-68628124D01*
X69863731Y-68623600D01*
X70399645Y-68623600D01*
X70142989Y-68729910D01*
X69899768Y-68892425D01*
X69692925Y-69099268D01*
X69576400Y-69273660D01*
X69459875Y-69099268D01*
X69253032Y-68892425D01*
X69009811Y-68729910D01*
X68739558Y-68617968D01*
X68452660Y-68560900D01*
X68160140Y-68560900D01*
X67873242Y-68617968D01*
X67602989Y-68729910D01*
X67359768Y-68892425D01*
X67152925Y-69099268D01*
X66990410Y-69342489D01*
X66878468Y-69612742D01*
X66821400Y-69899640D01*
X66821400Y-70192160D01*
X66878468Y-70479058D01*
X66990410Y-70749311D01*
X67152925Y-70992532D01*
X67284780Y-71124387D01*
X67212220Y-71146398D01*
X67101906Y-71205363D01*
X67005215Y-71284715D01*
X66925863Y-71381406D01*
X66866898Y-71491720D01*
X66830588Y-71611418D01*
X66818328Y-71735900D01*
X66818328Y-73435900D01*
X66830588Y-73560382D01*
X66866898Y-73680080D01*
X66925863Y-73790394D01*
X67005215Y-73887085D01*
X67101906Y-73966437D01*
X67212220Y-74025402D01*
X67331918Y-74061712D01*
X67456400Y-74073972D01*
X69156400Y-74073972D01*
X69280882Y-74061712D01*
X69400580Y-74025402D01*
X69510894Y-73966437D01*
X69607585Y-73887085D01*
X69686937Y-73790394D01*
X69745902Y-73680080D01*
X69767913Y-73607520D01*
X69899768Y-73739375D01*
X70142989Y-73901890D01*
X70413242Y-74013832D01*
X70700140Y-74070900D01*
X70992660Y-74070900D01*
X71279558Y-74013832D01*
X71549811Y-73901890D01*
X71793032Y-73739375D01*
X71999875Y-73532532D01*
X72116400Y-73358140D01*
X72232925Y-73532532D01*
X72439768Y-73739375D01*
X72682989Y-73901890D01*
X72953242Y-74013832D01*
X73240140Y-74070900D01*
X73532660Y-74070900D01*
X73819558Y-74013832D01*
X74089811Y-73901890D01*
X74297090Y-73763391D01*
X75197798Y-74664100D01*
X63216005Y-74664100D01*
X62724161Y-74615874D01*
X62283281Y-74482764D01*
X61876655Y-74266557D01*
X61519764Y-73975485D01*
X61226206Y-73620634D01*
X61007167Y-73215531D01*
X60870981Y-72775583D01*
X60819500Y-72285779D01*
X60819500Y-72068903D01*
X61093605Y-72068903D01*
X61093605Y-72507897D01*
X61179249Y-72938457D01*
X61347245Y-73344035D01*
X61591137Y-73709046D01*
X61901554Y-74019463D01*
X62266565Y-74263355D01*
X62672143Y-74431351D01*
X63102703Y-74516995D01*
X63541697Y-74516995D01*
X63972257Y-74431351D01*
X64377835Y-74263355D01*
X64742846Y-74019463D01*
X65053263Y-73709046D01*
X65297155Y-73344035D01*
X65465151Y-72938457D01*
X65550795Y-72507897D01*
X65550795Y-72068903D01*
X65465151Y-71638343D01*
X65297155Y-71232765D01*
X65053263Y-70867754D01*
X64742846Y-70557337D01*
X64377835Y-70313445D01*
X63972257Y-70145449D01*
X63541697Y-70059805D01*
X63102703Y-70059805D01*
X62672143Y-70145449D01*
X62266565Y-70313445D01*
X61901554Y-70557337D01*
X61591137Y-70867754D01*
X61347245Y-71232765D01*
X61179249Y-71638343D01*
X61093605Y-72068903D01*
X60819500Y-72068903D01*
X60819500Y-55624190D01*
X65853924Y-55624190D01*
X65855846Y-55636561D01*
X65955546Y-55910309D01*
X66106736Y-56159346D01*
X66303605Y-56374102D01*
X66538588Y-56546325D01*
X66802655Y-56669396D01*
X67085658Y-56738585D01*
X67318400Y-56594532D01*
X67318400Y-55394300D01*
X67572400Y-55394300D01*
X67572400Y-56594532D01*
X67805142Y-56738585D01*
X68088145Y-56669396D01*
X68352212Y-56546325D01*
X68587195Y-56374102D01*
X68784064Y-56159346D01*
X68935254Y-55910309D01*
X69034954Y-55636561D01*
X69036876Y-55624190D01*
X68915555Y-55394300D01*
X67572400Y-55394300D01*
X67318400Y-55394300D01*
X65975245Y-55394300D01*
X65853924Y-55624190D01*
X60819500Y-55624190D01*
X60819500Y-52167300D01*
X65807328Y-52167300D01*
X65807328Y-53367300D01*
X65824392Y-53540554D01*
X65874928Y-53707150D01*
X65956995Y-53860686D01*
X66067438Y-53995262D01*
X66202014Y-54105705D01*
X66303993Y-54160214D01*
X66303605Y-54160498D01*
X66106736Y-54375254D01*
X65955546Y-54624291D01*
X65855846Y-54898039D01*
X65853924Y-54910410D01*
X65975245Y-55140300D01*
X67318400Y-55140300D01*
X67318400Y-55120300D01*
X67572400Y-55120300D01*
X67572400Y-55140300D01*
X68915555Y-55140300D01*
X69036876Y-54910410D01*
X69034954Y-54898039D01*
X68935254Y-54624291D01*
X68784064Y-54375254D01*
X68587195Y-54160498D01*
X68586807Y-54160214D01*
X68688786Y-54105705D01*
X68823362Y-53995262D01*
X68933805Y-53860686D01*
X69015872Y-53707150D01*
X69066408Y-53540554D01*
X69083472Y-53367300D01*
X69083472Y-52167300D01*
X69066408Y-51994046D01*
X69015872Y-51827450D01*
X68933805Y-51673914D01*
X68823362Y-51539338D01*
X68688786Y-51428895D01*
X68535250Y-51346828D01*
X68368654Y-51296292D01*
X68195400Y-51279228D01*
X66695400Y-51279228D01*
X66522146Y-51296292D01*
X66355550Y-51346828D01*
X66202014Y-51428895D01*
X66067438Y-51539338D01*
X65956995Y-51673914D01*
X65874928Y-51827450D01*
X65824392Y-51994046D01*
X65807328Y-52167300D01*
X60819500Y-52167300D01*
X60819500Y-41200437D01*
X60854056Y-41242544D01*
%TA.AperFunction,Conductor*%
D28*
G36*
X60854056Y-41242544D02*
G01*
X60889741Y-41271830D01*
X65831913Y-46214002D01*
X65831887Y-46214089D01*
X65803215Y-46505200D01*
X65831887Y-46796311D01*
X65916801Y-47076234D01*
X66054694Y-47334214D01*
X66240266Y-47560334D01*
X66466386Y-47745906D01*
X66510401Y-47769432D01*
X66510401Y-47809559D01*
X66505876Y-47855500D01*
X66523929Y-48038791D01*
X66577394Y-48215040D01*
X66664215Y-48377472D01*
X66781057Y-48519844D01*
X66816736Y-48549125D01*
X69736301Y-51468691D01*
X69736300Y-55800668D01*
X69731776Y-55846600D01*
X69736300Y-55892531D01*
X69749829Y-56029891D01*
X69803293Y-56206139D01*
X69890114Y-56368571D01*
X70006956Y-56510944D01*
X70042641Y-56540230D01*
X71637456Y-58135045D01*
X71611015Y-58403500D01*
X71639687Y-58694611D01*
X71724601Y-58974534D01*
X71862494Y-59232514D01*
X72048066Y-59458634D01*
X72274186Y-59644206D01*
X72532166Y-59782099D01*
X72812089Y-59867013D01*
X73030250Y-59888500D01*
X73426150Y-59888500D01*
X73644311Y-59867013D01*
X73924234Y-59782099D01*
X74182214Y-59644206D01*
X74408334Y-59458634D01*
X74593906Y-59232514D01*
X74731799Y-58974534D01*
X74816713Y-58694611D01*
X74845385Y-58403500D01*
X74816713Y-58112389D01*
X74731799Y-57832466D01*
X74593906Y-57574486D01*
X74408334Y-57348366D01*
X74182214Y-57162794D01*
X74156478Y-57149038D01*
X74362629Y-56992549D01*
X74555696Y-56774693D01*
X74702552Y-56523358D01*
X74794676Y-56260390D01*
X74673355Y-56030500D01*
X73355200Y-56030500D01*
X73355200Y-56050500D01*
X73101200Y-56050500D01*
X73101200Y-56030500D01*
X73081200Y-56030500D01*
X73081200Y-55776500D01*
X73101200Y-55776500D01*
X73101200Y-55756500D01*
X73355200Y-55756500D01*
X73355200Y-55776500D01*
X74673355Y-55776500D01*
X74794676Y-55546610D01*
X74702552Y-55283642D01*
X74555696Y-55032307D01*
X74362629Y-54814451D01*
X74341239Y-54798214D01*
X74446586Y-54741905D01*
X74581162Y-54631462D01*
X74691605Y-54496886D01*
X74773672Y-54343350D01*
X74824208Y-54176754D01*
X74841272Y-54003500D01*
X74841272Y-52803500D01*
X74824208Y-52630246D01*
X74773672Y-52463650D01*
X74691605Y-52310114D01*
X74581162Y-52175538D01*
X74446586Y-52065095D01*
X74293050Y-51983028D01*
X74126454Y-51932492D01*
X73988200Y-51918875D01*
X73988200Y-47563501D01*
X73999128Y-47552573D01*
X73999128Y-47851700D01*
X74011388Y-47976182D01*
X74047698Y-48095880D01*
X74106663Y-48206194D01*
X74186015Y-48302885D01*
X74282706Y-48382237D01*
X74393020Y-48441202D01*
X74512718Y-48477512D01*
X74637200Y-48489772D01*
X76137200Y-48489772D01*
X76261682Y-48477512D01*
X76381380Y-48441202D01*
X76491694Y-48382237D01*
X76588385Y-48302885D01*
X76667737Y-48206194D01*
X76726702Y-48095880D01*
X76744654Y-48036700D01*
X80731728Y-48036700D01*
X80731728Y-49452900D01*
X80743988Y-49577382D01*
X80780298Y-49697080D01*
X80839263Y-49807394D01*
X80918615Y-49904085D01*
X81015306Y-49983437D01*
X81125620Y-50042402D01*
X81245318Y-50078712D01*
X81369800Y-50090972D01*
X83069800Y-50090972D01*
X83194282Y-50078712D01*
X83313980Y-50042402D01*
X83365150Y-50015051D01*
X84982900Y-51632802D01*
X85006699Y-51661801D01*
X85035697Y-51685599D01*
X85122423Y-51756774D01*
X85245997Y-51822826D01*
X85254453Y-51827346D01*
X85397714Y-51870803D01*
X85509367Y-51881800D01*
X85509377Y-51881800D01*
X85546700Y-51885476D01*
X85584023Y-51881800D01*
X90213488Y-51881800D01*
X90176915Y-51911815D01*
X90097563Y-52008506D01*
X90038598Y-52118820D01*
X90002288Y-52238518D01*
X89990028Y-52363000D01*
X89990028Y-52518425D01*
X89878523Y-52578026D01*
X89810317Y-52634002D01*
X89762799Y-52672999D01*
X89739001Y-52701997D01*
X88955954Y-53485045D01*
X88894937Y-53393726D01*
X88750774Y-53249563D01*
X88581256Y-53136295D01*
X88392898Y-53058274D01*
X88192939Y-53018500D01*
X87989061Y-53018500D01*
X87789102Y-53058274D01*
X87600744Y-53136295D01*
X87591526Y-53142454D01*
X87558585Y-53102315D01*
X87461894Y-53022963D01*
X87351580Y-52963998D01*
X87251460Y-52933627D01*
X87246162Y-52915625D01*
X87245131Y-52913653D01*
X87244487Y-52911520D01*
X87216412Y-52858719D01*
X87188745Y-52805797D01*
X87187351Y-52804063D01*
X87186305Y-52802096D01*
X87148517Y-52755763D01*
X87111090Y-52709214D01*
X87109385Y-52707783D01*
X87107977Y-52706057D01*
X87061927Y-52667961D01*
X87016154Y-52629553D01*
X87014202Y-52628480D01*
X87012487Y-52627061D01*
X86959939Y-52598649D01*
X86907553Y-52569849D01*
X86905429Y-52569175D01*
X86903472Y-52568117D01*
X86846450Y-52550466D01*
X86789424Y-52532376D01*
X86787208Y-52532127D01*
X86785084Y-52531470D01*
X86725657Y-52525224D01*
X86666266Y-52518562D01*
X86661996Y-52518532D01*
X86661833Y-52518515D01*
X86661670Y-52518530D01*
X86657400Y-52518500D01*
X86057400Y-52518500D01*
X85997895Y-52524334D01*
X85938413Y-52529748D01*
X85936282Y-52530375D01*
X85934061Y-52530593D01*
X85876779Y-52547888D01*
X85819525Y-52564738D01*
X85817553Y-52565769D01*
X85815420Y-52566413D01*
X85762619Y-52594488D01*
X85709697Y-52622155D01*
X85707963Y-52623549D01*
X85705996Y-52624595D01*
X85659663Y-52662383D01*
X85613114Y-52699810D01*
X85611683Y-52701515D01*
X85609957Y-52702923D01*
X85571861Y-52748973D01*
X85533453Y-52794746D01*
X85532380Y-52796698D01*
X85530961Y-52798413D01*
X85502549Y-52850961D01*
X85473749Y-52903347D01*
X85473075Y-52905471D01*
X85472017Y-52907428D01*
X85463966Y-52933437D01*
X85363220Y-52963998D01*
X85252906Y-53022963D01*
X85156215Y-53102315D01*
X85076863Y-53199006D01*
X85026354Y-53293500D01*
X83894732Y-53293500D01*
X83898672Y-53253500D01*
X83898672Y-52753500D01*
X83896264Y-52729050D01*
X83896264Y-52704491D01*
X83884004Y-52580010D01*
X83864882Y-52483877D01*
X83828573Y-52364181D01*
X83791064Y-52273625D01*
X83732098Y-52163308D01*
X83677642Y-52081809D01*
X83598290Y-51985118D01*
X83528982Y-51915810D01*
X83432291Y-51836458D01*
X83350792Y-51782002D01*
X83240475Y-51723036D01*
X83149919Y-51685527D01*
X83030223Y-51649218D01*
X82934090Y-51630096D01*
X82809609Y-51617836D01*
X82785050Y-51617836D01*
X82760600Y-51615428D01*
X82260600Y-51615428D01*
X82236150Y-51617836D01*
X82211591Y-51617836D01*
X82087110Y-51630096D01*
X81990977Y-51649218D01*
X81871281Y-51685527D01*
X81780725Y-51723036D01*
X81670408Y-51782002D01*
X81588909Y-51836458D01*
X81492218Y-51915810D01*
X81422910Y-51985118D01*
X81376164Y-52042079D01*
X81242039Y-52015400D01*
X81038161Y-52015400D01*
X80838202Y-52055174D01*
X80649844Y-52133195D01*
X80480326Y-52246463D01*
X80336163Y-52390626D01*
X80222895Y-52560144D01*
X80144874Y-52748502D01*
X80105100Y-52948461D01*
X80105100Y-53152339D01*
X80144874Y-53352298D01*
X80222895Y-53540656D01*
X80336163Y-53710174D01*
X80480326Y-53854337D01*
X80649844Y-53967605D01*
X80838202Y-54045626D01*
X81038161Y-54085400D01*
X81124936Y-54085400D01*
X81124936Y-54102509D01*
X81127033Y-54123800D01*
X80047367Y-54123800D01*
X80049464Y-54102509D01*
X80049464Y-54077950D01*
X80051872Y-54053500D01*
X80051872Y-53553500D01*
X80039612Y-53429018D01*
X80031871Y-53403500D01*
X80039612Y-53377982D01*
X80051872Y-53253500D01*
X80051872Y-52753500D01*
X80049464Y-52729050D01*
X80049464Y-52704491D01*
X80037204Y-52580010D01*
X80018082Y-52483877D01*
X79981773Y-52364181D01*
X79944264Y-52273625D01*
X79885298Y-52163308D01*
X79830842Y-52081809D01*
X79751490Y-51985118D01*
X79682182Y-51915810D01*
X79585491Y-51836458D01*
X79503992Y-51782002D01*
X79393675Y-51723036D01*
X79303119Y-51685527D01*
X79183423Y-51649218D01*
X79087290Y-51630096D01*
X78962809Y-51617836D01*
X78938250Y-51617836D01*
X78913800Y-51615428D01*
X78413800Y-51615428D01*
X78389350Y-51617836D01*
X78364791Y-51617836D01*
X78240310Y-51630096D01*
X78144177Y-51649218D01*
X78024481Y-51685527D01*
X77933925Y-51723036D01*
X77823608Y-51782002D01*
X77742109Y-51836458D01*
X77645418Y-51915810D01*
X77576110Y-51985118D01*
X77496758Y-52081809D01*
X77442302Y-52163308D01*
X77383336Y-52273625D01*
X77345827Y-52364181D01*
X77309518Y-52483877D01*
X77290396Y-52580010D01*
X77289097Y-52593201D01*
X76351102Y-53531197D01*
X76322099Y-53554999D01*
X76273515Y-53614199D01*
X76227126Y-53670724D01*
X76164206Y-53788438D01*
X76156554Y-53802754D01*
X76113097Y-53946015D01*
X76102100Y-54057668D01*
X76102100Y-54057678D01*
X76098424Y-54095000D01*
X76102100Y-54132322D01*
X76102101Y-62071968D01*
X76098424Y-62109300D01*
X76102101Y-62146633D01*
X76113098Y-62258286D01*
X76119214Y-62278447D01*
X76156554Y-62401546D01*
X76227126Y-62533576D01*
X76290547Y-62610854D01*
X76322100Y-62649301D01*
X76351098Y-62673099D01*
X76676938Y-62998939D01*
X76627398Y-63091620D01*
X76591088Y-63211318D01*
X76578828Y-63335800D01*
X76578828Y-65035800D01*
X76591088Y-65160282D01*
X76627398Y-65279980D01*
X76686363Y-65390294D01*
X76765715Y-65486985D01*
X76862406Y-65566337D01*
X76972720Y-65625302D01*
X77092418Y-65661612D01*
X77216900Y-65673872D01*
X78916900Y-65673872D01*
X79041382Y-65661612D01*
X79161080Y-65625302D01*
X79228541Y-65589243D01*
X79592598Y-65953300D01*
X73255089Y-65953300D01*
X69083472Y-61781683D01*
X69083472Y-60865900D01*
X69066408Y-60692646D01*
X69015872Y-60526050D01*
X68933805Y-60372514D01*
X68823362Y-60237938D01*
X68688786Y-60127495D01*
X68535250Y-60045428D01*
X68368654Y-59994892D01*
X68195400Y-59977828D01*
X66695400Y-59977828D01*
X66522146Y-59994892D01*
X66355550Y-60045428D01*
X66202014Y-60127495D01*
X66067438Y-60237938D01*
X65956995Y-60372514D01*
X65874928Y-60526050D01*
X65824392Y-60692646D01*
X65807328Y-60865900D01*
X65807328Y-62065900D01*
X65824392Y-62239154D01*
X65874928Y-62405750D01*
X65956995Y-62559286D01*
X66067438Y-62693862D01*
X66202014Y-62804305D01*
X66303737Y-62858677D01*
X66240266Y-62910766D01*
X66054694Y-63136886D01*
X65916801Y-63394866D01*
X65831887Y-63674789D01*
X65803215Y-63965900D01*
X65831887Y-64257011D01*
X65916801Y-64536934D01*
X66054694Y-64794914D01*
X66240266Y-65021034D01*
X66466386Y-65206606D01*
X66510401Y-65230132D01*
X66510401Y-65270259D01*
X66505876Y-65316200D01*
X66523929Y-65499491D01*
X66562094Y-65625302D01*
X66577394Y-65675740D01*
X66664215Y-65838172D01*
X66781057Y-65980544D01*
X66816736Y-66009825D01*
X69124174Y-68317264D01*
X69153456Y-68352944D01*
X69295828Y-68469786D01*
X69458260Y-68556607D01*
X69556231Y-68586326D01*
X69634507Y-68610071D01*
X69817799Y-68628124D01*
X69863731Y-68623600D01*
X70399645Y-68623600D01*
X70142989Y-68729910D01*
X69899768Y-68892425D01*
X69692925Y-69099268D01*
X69576400Y-69273660D01*
X69459875Y-69099268D01*
X69253032Y-68892425D01*
X69009811Y-68729910D01*
X68739558Y-68617968D01*
X68452660Y-68560900D01*
X68160140Y-68560900D01*
X67873242Y-68617968D01*
X67602989Y-68729910D01*
X67359768Y-68892425D01*
X67152925Y-69099268D01*
X66990410Y-69342489D01*
X66878468Y-69612742D01*
X66821400Y-69899640D01*
X66821400Y-70192160D01*
X66878468Y-70479058D01*
X66990410Y-70749311D01*
X67152925Y-70992532D01*
X67284780Y-71124387D01*
X67212220Y-71146398D01*
X67101906Y-71205363D01*
X67005215Y-71284715D01*
X66925863Y-71381406D01*
X66866898Y-71491720D01*
X66830588Y-71611418D01*
X66818328Y-71735900D01*
X66818328Y-73435900D01*
X66830588Y-73560382D01*
X66866898Y-73680080D01*
X66925863Y-73790394D01*
X67005215Y-73887085D01*
X67101906Y-73966437D01*
X67212220Y-74025402D01*
X67331918Y-74061712D01*
X67456400Y-74073972D01*
X69156400Y-74073972D01*
X69280882Y-74061712D01*
X69400580Y-74025402D01*
X69510894Y-73966437D01*
X69607585Y-73887085D01*
X69686937Y-73790394D01*
X69745902Y-73680080D01*
X69767913Y-73607520D01*
X69899768Y-73739375D01*
X70142989Y-73901890D01*
X70413242Y-74013832D01*
X70700140Y-74070900D01*
X70992660Y-74070900D01*
X71279558Y-74013832D01*
X71549811Y-73901890D01*
X71793032Y-73739375D01*
X71999875Y-73532532D01*
X72116400Y-73358140D01*
X72232925Y-73532532D01*
X72439768Y-73739375D01*
X72682989Y-73901890D01*
X72953242Y-74013832D01*
X73240140Y-74070900D01*
X73532660Y-74070900D01*
X73819558Y-74013832D01*
X74089811Y-73901890D01*
X74297090Y-73763391D01*
X75197798Y-74664100D01*
X63216005Y-74664100D01*
X62724161Y-74615874D01*
X62283281Y-74482764D01*
X61876655Y-74266557D01*
X61519764Y-73975485D01*
X61226206Y-73620634D01*
X61007167Y-73215531D01*
X60870981Y-72775583D01*
X60819500Y-72285779D01*
X60819500Y-72068903D01*
X61093605Y-72068903D01*
X61093605Y-72507897D01*
X61179249Y-72938457D01*
X61347245Y-73344035D01*
X61591137Y-73709046D01*
X61901554Y-74019463D01*
X62266565Y-74263355D01*
X62672143Y-74431351D01*
X63102703Y-74516995D01*
X63541697Y-74516995D01*
X63972257Y-74431351D01*
X64377835Y-74263355D01*
X64742846Y-74019463D01*
X65053263Y-73709046D01*
X65297155Y-73344035D01*
X65465151Y-72938457D01*
X65550795Y-72507897D01*
X65550795Y-72068903D01*
X65465151Y-71638343D01*
X65297155Y-71232765D01*
X65053263Y-70867754D01*
X64742846Y-70557337D01*
X64377835Y-70313445D01*
X63972257Y-70145449D01*
X63541697Y-70059805D01*
X63102703Y-70059805D01*
X62672143Y-70145449D01*
X62266565Y-70313445D01*
X61901554Y-70557337D01*
X61591137Y-70867754D01*
X61347245Y-71232765D01*
X61179249Y-71638343D01*
X61093605Y-72068903D01*
X60819500Y-72068903D01*
X60819500Y-55624190D01*
X65853924Y-55624190D01*
X65855846Y-55636561D01*
X65955546Y-55910309D01*
X66106736Y-56159346D01*
X66303605Y-56374102D01*
X66538588Y-56546325D01*
X66802655Y-56669396D01*
X67085658Y-56738585D01*
X67318400Y-56594532D01*
X67318400Y-55394300D01*
X67572400Y-55394300D01*
X67572400Y-56594532D01*
X67805142Y-56738585D01*
X68088145Y-56669396D01*
X68352212Y-56546325D01*
X68587195Y-56374102D01*
X68784064Y-56159346D01*
X68935254Y-55910309D01*
X69034954Y-55636561D01*
X69036876Y-55624190D01*
X68915555Y-55394300D01*
X67572400Y-55394300D01*
X67318400Y-55394300D01*
X65975245Y-55394300D01*
X65853924Y-55624190D01*
X60819500Y-55624190D01*
X60819500Y-52167300D01*
X65807328Y-52167300D01*
X65807328Y-53367300D01*
X65824392Y-53540554D01*
X65874928Y-53707150D01*
X65956995Y-53860686D01*
X66067438Y-53995262D01*
X66202014Y-54105705D01*
X66303993Y-54160214D01*
X66303605Y-54160498D01*
X66106736Y-54375254D01*
X65955546Y-54624291D01*
X65855846Y-54898039D01*
X65853924Y-54910410D01*
X65975245Y-55140300D01*
X67318400Y-55140300D01*
X67318400Y-55120300D01*
X67572400Y-55120300D01*
X67572400Y-55140300D01*
X68915555Y-55140300D01*
X69036876Y-54910410D01*
X69034954Y-54898039D01*
X68935254Y-54624291D01*
X68784064Y-54375254D01*
X68587195Y-54160498D01*
X68586807Y-54160214D01*
X68688786Y-54105705D01*
X68823362Y-53995262D01*
X68933805Y-53860686D01*
X69015872Y-53707150D01*
X69066408Y-53540554D01*
X69083472Y-53367300D01*
X69083472Y-52167300D01*
X69066408Y-51994046D01*
X69015872Y-51827450D01*
X68933805Y-51673914D01*
X68823362Y-51539338D01*
X68688786Y-51428895D01*
X68535250Y-51346828D01*
X68368654Y-51296292D01*
X68195400Y-51279228D01*
X66695400Y-51279228D01*
X66522146Y-51296292D01*
X66355550Y-51346828D01*
X66202014Y-51428895D01*
X66067438Y-51539338D01*
X65956995Y-51673914D01*
X65874928Y-51827450D01*
X65824392Y-51994046D01*
X65807328Y-52167300D01*
X60819500Y-52167300D01*
X60819500Y-41200437D01*
X60854056Y-41242544D01*
G37*
%TD.AperFunction*%
D27*
X134835074Y-62569764D02*
X134864356Y-62605444D01*
X135006728Y-62722286D01*
X135169160Y-62809107D01*
X135291943Y-62846353D01*
X135345407Y-62862571D01*
X135528699Y-62880624D01*
X135574631Y-62876100D01*
X135725275Y-62876100D01*
X135823866Y-62996234D01*
X136049986Y-63181806D01*
X136075722Y-63195562D01*
X135869571Y-63352051D01*
X135676504Y-63569907D01*
X135529648Y-63821242D01*
X135437524Y-64084210D01*
X135558845Y-64314100D01*
X136877000Y-64314100D01*
X136877000Y-64294100D01*
X137131000Y-64294100D01*
X137131000Y-64314100D01*
X137151000Y-64314100D01*
X137151000Y-64568100D01*
X137131000Y-64568100D01*
X137131000Y-64588100D01*
X136877000Y-64588100D01*
X136877000Y-64568100D01*
X135558845Y-64568100D01*
X135437524Y-64797990D01*
X135464187Y-64874100D01*
X133774423Y-64874100D01*
X133737100Y-64870424D01*
X133699777Y-64874100D01*
X133699767Y-64874100D01*
X133588114Y-64885097D01*
X133444853Y-64928554D01*
X133312824Y-64999126D01*
X133197099Y-65094099D01*
X133173296Y-65123103D01*
X132968799Y-65327600D01*
X131582726Y-65327600D01*
X131603481Y-65269091D01*
X131482814Y-65039200D01*
X130289000Y-65039200D01*
X130289000Y-65059200D01*
X130035000Y-65059200D01*
X130035000Y-65039200D01*
X130015000Y-65039200D01*
X130015000Y-64785200D01*
X130035000Y-64785200D01*
X130035000Y-62499200D01*
X130289000Y-62499200D01*
X130289000Y-64785200D01*
X131482814Y-64785200D01*
X131603481Y-64555309D01*
X131506157Y-64280948D01*
X131357178Y-64030845D01*
X131162269Y-63814612D01*
X130931120Y-63642200D01*
X131162269Y-63469788D01*
X131357178Y-63253555D01*
X131506157Y-63003452D01*
X131603481Y-62729091D01*
X131482814Y-62499200D01*
X130289000Y-62499200D01*
X130035000Y-62499200D01*
X130015000Y-62499200D01*
X130015000Y-62245200D01*
X130035000Y-62245200D01*
X130035000Y-62225200D01*
X130289000Y-62225200D01*
X130289000Y-62245200D01*
X131482814Y-62245200D01*
X131603481Y-62015309D01*
X131582762Y-61956900D01*
X134222211Y-61956900D01*
X134835074Y-62569764D01*
%TA.AperFunction,Conductor*%
D28*
G36*
X134835074Y-62569764D02*
G01*
X134864356Y-62605444D01*
X135006728Y-62722286D01*
X135169160Y-62809107D01*
X135291943Y-62846353D01*
X135345407Y-62862571D01*
X135528699Y-62880624D01*
X135574631Y-62876100D01*
X135725275Y-62876100D01*
X135823866Y-62996234D01*
X136049986Y-63181806D01*
X136075722Y-63195562D01*
X135869571Y-63352051D01*
X135676504Y-63569907D01*
X135529648Y-63821242D01*
X135437524Y-64084210D01*
X135558845Y-64314100D01*
X136877000Y-64314100D01*
X136877000Y-64294100D01*
X137131000Y-64294100D01*
X137131000Y-64314100D01*
X137151000Y-64314100D01*
X137151000Y-64568100D01*
X137131000Y-64568100D01*
X137131000Y-64588100D01*
X136877000Y-64588100D01*
X136877000Y-64568100D01*
X135558845Y-64568100D01*
X135437524Y-64797990D01*
X135464187Y-64874100D01*
X133774423Y-64874100D01*
X133737100Y-64870424D01*
X133699777Y-64874100D01*
X133699767Y-64874100D01*
X133588114Y-64885097D01*
X133444853Y-64928554D01*
X133312824Y-64999126D01*
X133197099Y-65094099D01*
X133173296Y-65123103D01*
X132968799Y-65327600D01*
X131582726Y-65327600D01*
X131603481Y-65269091D01*
X131482814Y-65039200D01*
X130289000Y-65039200D01*
X130289000Y-65059200D01*
X130035000Y-65059200D01*
X130035000Y-65039200D01*
X130015000Y-65039200D01*
X130015000Y-64785200D01*
X130035000Y-64785200D01*
X130035000Y-62499200D01*
X130289000Y-62499200D01*
X130289000Y-64785200D01*
X131482814Y-64785200D01*
X131603481Y-64555309D01*
X131506157Y-64280948D01*
X131357178Y-64030845D01*
X131162269Y-63814612D01*
X130931120Y-63642200D01*
X131162269Y-63469788D01*
X131357178Y-63253555D01*
X131506157Y-63003452D01*
X131603481Y-62729091D01*
X131482814Y-62499200D01*
X130289000Y-62499200D01*
X130035000Y-62499200D01*
X130015000Y-62499200D01*
X130015000Y-62245200D01*
X130035000Y-62245200D01*
X130035000Y-62225200D01*
X130289000Y-62225200D01*
X130289000Y-62245200D01*
X131482814Y-62245200D01*
X131603481Y-62015309D01*
X131582762Y-61956900D01*
X134222211Y-61956900D01*
X134835074Y-62569764D01*
G37*
%TD.AperFunction*%
D27*
X138850600Y-45178702D02*
X138850601Y-55978699D01*
X138617072Y-55745171D01*
X138617072Y-54606900D01*
X138600008Y-54433646D01*
X138549472Y-54267050D01*
X138467405Y-54113514D01*
X138356962Y-53978938D01*
X138222386Y-53868495D01*
X138117039Y-53812186D01*
X138138429Y-53795949D01*
X138331496Y-53578093D01*
X138478352Y-53326758D01*
X138570476Y-53063790D01*
X138449155Y-52833900D01*
X137131000Y-52833900D01*
X137131000Y-52853900D01*
X136877000Y-52853900D01*
X136877000Y-52833900D01*
X135558845Y-52833900D01*
X135437524Y-53063790D01*
X135529648Y-53326758D01*
X135676504Y-53578093D01*
X135869571Y-53795949D01*
X135890961Y-53812186D01*
X135785614Y-53868495D01*
X135651038Y-53978938D01*
X135540595Y-54113514D01*
X135458528Y-54267050D01*
X135407992Y-54433646D01*
X135390928Y-54606900D01*
X135390928Y-55806900D01*
X135407992Y-55980154D01*
X135458528Y-56146750D01*
X135540595Y-56300286D01*
X135651038Y-56434862D01*
X135785614Y-56545305D01*
X135939150Y-56627372D01*
X136105746Y-56677908D01*
X136279000Y-56694972D01*
X137417271Y-56694972D01*
X138400200Y-57677902D01*
X138400201Y-61169137D01*
X138369706Y-61112086D01*
X138184134Y-60885966D01*
X137958014Y-60700394D01*
X137700034Y-60562501D01*
X137420111Y-60477587D01*
X137201950Y-60456100D01*
X136806050Y-60456100D01*
X136587889Y-60477587D01*
X136307966Y-60562501D01*
X136049986Y-60700394D01*
X135823866Y-60885966D01*
X135811240Y-60901351D01*
X135303130Y-60393241D01*
X135273844Y-60357556D01*
X135131472Y-60240714D01*
X134969040Y-60153893D01*
X134792792Y-60100429D01*
X134655432Y-60086900D01*
X134609500Y-60082376D01*
X134563568Y-60086900D01*
X133591044Y-60086900D01*
X133789232Y-59954475D01*
X133996075Y-59747632D01*
X134158590Y-59504411D01*
X134270532Y-59234158D01*
X134327600Y-58947260D01*
X134327600Y-58654740D01*
X134270532Y-58367842D01*
X134158590Y-58097589D01*
X133996075Y-57854368D01*
X133789232Y-57647525D01*
X133614840Y-57531000D01*
X133789232Y-57414475D01*
X133996075Y-57207632D01*
X134158590Y-56964411D01*
X134270532Y-56694158D01*
X134327600Y-56407260D01*
X134327600Y-56114740D01*
X134270532Y-55827842D01*
X134158590Y-55557589D01*
X133996075Y-55314368D01*
X133789232Y-55107525D01*
X133614840Y-54991000D01*
X133789232Y-54874475D01*
X133996075Y-54667632D01*
X134158590Y-54424411D01*
X134270532Y-54154158D01*
X134327600Y-53867260D01*
X134327600Y-53574740D01*
X134270532Y-53287842D01*
X134158590Y-53017589D01*
X133996075Y-52774368D01*
X133991554Y-52769847D01*
X135622204Y-51139198D01*
X135651201Y-51115401D01*
X135677364Y-51083521D01*
X135823866Y-51262034D01*
X136049986Y-51447606D01*
X136075722Y-51461362D01*
X135869571Y-51617851D01*
X135676504Y-51835707D01*
X135529648Y-52087042D01*
X135437524Y-52350010D01*
X135558845Y-52579900D01*
X136877000Y-52579900D01*
X136877000Y-52559900D01*
X137131000Y-52559900D01*
X137131000Y-52579900D01*
X138449155Y-52579900D01*
X138570476Y-52350010D01*
X138478352Y-52087042D01*
X138331496Y-51835707D01*
X138138429Y-51617851D01*
X137932278Y-51461362D01*
X137958014Y-51447606D01*
X138184134Y-51262034D01*
X138369706Y-51035914D01*
X138507599Y-50777934D01*
X138592513Y-50498011D01*
X138621185Y-50206900D01*
X138592513Y-49915789D01*
X138507599Y-49635866D01*
X138369706Y-49377886D01*
X138184134Y-49151766D01*
X137958014Y-48966194D01*
X137700034Y-48828301D01*
X137420111Y-48743387D01*
X137201950Y-48721900D01*
X136806050Y-48721900D01*
X136587889Y-48743387D01*
X136307966Y-48828301D01*
X136049986Y-48966194D01*
X135871200Y-49112920D01*
X135871200Y-45713301D01*
X136480114Y-45104388D01*
X136662665Y-45140700D01*
X136945335Y-45140700D01*
X137222574Y-45085553D01*
X137483727Y-44977380D01*
X137718759Y-44820337D01*
X137918637Y-44620459D01*
X138068328Y-44396430D01*
X138850600Y-45178702D01*
%TA.AperFunction,Conductor*%
D28*
G36*
X138850600Y-45178702D02*
G01*
X138850601Y-55978699D01*
X138617072Y-55745171D01*
X138617072Y-54606900D01*
X138600008Y-54433646D01*
X138549472Y-54267050D01*
X138467405Y-54113514D01*
X138356962Y-53978938D01*
X138222386Y-53868495D01*
X138117039Y-53812186D01*
X138138429Y-53795949D01*
X138331496Y-53578093D01*
X138478352Y-53326758D01*
X138570476Y-53063790D01*
X138449155Y-52833900D01*
X137131000Y-52833900D01*
X137131000Y-52853900D01*
X136877000Y-52853900D01*
X136877000Y-52833900D01*
X135558845Y-52833900D01*
X135437524Y-53063790D01*
X135529648Y-53326758D01*
X135676504Y-53578093D01*
X135869571Y-53795949D01*
X135890961Y-53812186D01*
X135785614Y-53868495D01*
X135651038Y-53978938D01*
X135540595Y-54113514D01*
X135458528Y-54267050D01*
X135407992Y-54433646D01*
X135390928Y-54606900D01*
X135390928Y-55806900D01*
X135407992Y-55980154D01*
X135458528Y-56146750D01*
X135540595Y-56300286D01*
X135651038Y-56434862D01*
X135785614Y-56545305D01*
X135939150Y-56627372D01*
X136105746Y-56677908D01*
X136279000Y-56694972D01*
X137417271Y-56694972D01*
X138400200Y-57677902D01*
X138400201Y-61169137D01*
X138369706Y-61112086D01*
X138184134Y-60885966D01*
X137958014Y-60700394D01*
X137700034Y-60562501D01*
X137420111Y-60477587D01*
X137201950Y-60456100D01*
X136806050Y-60456100D01*
X136587889Y-60477587D01*
X136307966Y-60562501D01*
X136049986Y-60700394D01*
X135823866Y-60885966D01*
X135811240Y-60901351D01*
X135303130Y-60393241D01*
X135273844Y-60357556D01*
X135131472Y-60240714D01*
X134969040Y-60153893D01*
X134792792Y-60100429D01*
X134655432Y-60086900D01*
X134609500Y-60082376D01*
X134563568Y-60086900D01*
X133591044Y-60086900D01*
X133789232Y-59954475D01*
X133996075Y-59747632D01*
X134158590Y-59504411D01*
X134270532Y-59234158D01*
X134327600Y-58947260D01*
X134327600Y-58654740D01*
X134270532Y-58367842D01*
X134158590Y-58097589D01*
X133996075Y-57854368D01*
X133789232Y-57647525D01*
X133614840Y-57531000D01*
X133789232Y-57414475D01*
X133996075Y-57207632D01*
X134158590Y-56964411D01*
X134270532Y-56694158D01*
X134327600Y-56407260D01*
X134327600Y-56114740D01*
X134270532Y-55827842D01*
X134158590Y-55557589D01*
X133996075Y-55314368D01*
X133789232Y-55107525D01*
X133614840Y-54991000D01*
X133789232Y-54874475D01*
X133996075Y-54667632D01*
X134158590Y-54424411D01*
X134270532Y-54154158D01*
X134327600Y-53867260D01*
X134327600Y-53574740D01*
X134270532Y-53287842D01*
X134158590Y-53017589D01*
X133996075Y-52774368D01*
X133991554Y-52769847D01*
X135622204Y-51139198D01*
X135651201Y-51115401D01*
X135677364Y-51083521D01*
X135823866Y-51262034D01*
X136049986Y-51447606D01*
X136075722Y-51461362D01*
X135869571Y-51617851D01*
X135676504Y-51835707D01*
X135529648Y-52087042D01*
X135437524Y-52350010D01*
X135558845Y-52579900D01*
X136877000Y-52579900D01*
X136877000Y-52559900D01*
X137131000Y-52559900D01*
X137131000Y-52579900D01*
X138449155Y-52579900D01*
X138570476Y-52350010D01*
X138478352Y-52087042D01*
X138331496Y-51835707D01*
X138138429Y-51617851D01*
X137932278Y-51461362D01*
X137958014Y-51447606D01*
X138184134Y-51262034D01*
X138369706Y-51035914D01*
X138507599Y-50777934D01*
X138592513Y-50498011D01*
X138621185Y-50206900D01*
X138592513Y-49915789D01*
X138507599Y-49635866D01*
X138369706Y-49377886D01*
X138184134Y-49151766D01*
X137958014Y-48966194D01*
X137700034Y-48828301D01*
X137420111Y-48743387D01*
X137201950Y-48721900D01*
X136806050Y-48721900D01*
X136587889Y-48743387D01*
X136307966Y-48828301D01*
X136049986Y-48966194D01*
X135871200Y-49112920D01*
X135871200Y-45713301D01*
X136480114Y-45104388D01*
X136662665Y-45140700D01*
X136945335Y-45140700D01*
X137222574Y-45085553D01*
X137483727Y-44977380D01*
X137718759Y-44820337D01*
X137918637Y-44620459D01*
X138068328Y-44396430D01*
X138850600Y-45178702D01*
G37*
%TD.AperFunction*%
D27*
X97944625Y-54159632D02*
X98151468Y-54366475D01*
X98394689Y-54528990D01*
X98664942Y-54640932D01*
X98951840Y-54698000D01*
X99244360Y-54698000D01*
X99531258Y-54640932D01*
X99601605Y-54611793D01*
X97817699Y-56395700D01*
X81541611Y-56395700D01*
X81497674Y-56351763D01*
X81328156Y-56238495D01*
X81139798Y-56160474D01*
X80939839Y-56120700D01*
X80735961Y-56120700D01*
X80536002Y-56160474D01*
X80347644Y-56238495D01*
X80178126Y-56351763D01*
X80033963Y-56495926D01*
X79920695Y-56665444D01*
X79842674Y-56853802D01*
X79802900Y-57053761D01*
X79802900Y-57257639D01*
X79842674Y-57457598D01*
X79920695Y-57645956D01*
X79993536Y-57754970D01*
X79827280Y-57834159D01*
X79593931Y-58008212D01*
X79399022Y-58224445D01*
X79324200Y-58350055D01*
X79249378Y-58224445D01*
X79054469Y-58008212D01*
X78821120Y-57834159D01*
X78558299Y-57708975D01*
X78411090Y-57664324D01*
X78181200Y-57785645D01*
X78181200Y-58978800D01*
X80467200Y-58978800D01*
X80467200Y-58958800D01*
X80721200Y-58958800D01*
X80721200Y-58978800D01*
X83007200Y-58978800D01*
X83007200Y-58958800D01*
X83261200Y-58958800D01*
X83261200Y-58978800D01*
X85547200Y-58978800D01*
X85547200Y-58958800D01*
X85801200Y-58958800D01*
X85801200Y-58978800D01*
X86995014Y-58978800D01*
X87115681Y-58748909D01*
X87018357Y-58474548D01*
X86869378Y-58224445D01*
X86674469Y-58008212D01*
X86550440Y-57915700D01*
X90565933Y-57915700D01*
X90458931Y-57995512D01*
X90264022Y-58211745D01*
X90115043Y-58461848D01*
X90017719Y-58736209D01*
X90138386Y-58966100D01*
X91332200Y-58966100D01*
X91332200Y-58946100D01*
X91586200Y-58946100D01*
X91586200Y-58966100D01*
X93872200Y-58966100D01*
X93872200Y-58946100D01*
X94126200Y-58946100D01*
X94126200Y-58966100D01*
X96412200Y-58966100D01*
X96412200Y-58946100D01*
X96666200Y-58946100D01*
X96666200Y-58966100D01*
X98952200Y-58966100D01*
X98952200Y-57772945D01*
X98722310Y-57651624D01*
X98706617Y-57656384D01*
X101220700Y-55142301D01*
X101220701Y-58182009D01*
X100436612Y-58966098D01*
X100400015Y-58966098D01*
X100520681Y-58736209D01*
X100423357Y-58461848D01*
X100274378Y-58211745D01*
X100079469Y-57995512D01*
X99846120Y-57821459D01*
X99583299Y-57696275D01*
X99436090Y-57651624D01*
X99206200Y-57772945D01*
X99206200Y-58966100D01*
X99226200Y-58966100D01*
X99226200Y-59220100D01*
X99206200Y-59220100D01*
X99206200Y-59240100D01*
X98952200Y-59240100D01*
X98952200Y-59220100D01*
X96666200Y-59220100D01*
X96666200Y-59240100D01*
X96412200Y-59240100D01*
X96412200Y-59220100D01*
X94126200Y-59220100D01*
X94126200Y-59240100D01*
X93872200Y-59240100D01*
X93872200Y-59220100D01*
X91586200Y-59220100D01*
X91586200Y-59240100D01*
X91332200Y-59240100D01*
X91332200Y-59220100D01*
X90138386Y-59220100D01*
X90017719Y-59449991D01*
X90115043Y-59724352D01*
X90264022Y-59974455D01*
X90458931Y-60190688D01*
X90692280Y-60364741D01*
X90695155Y-60366110D01*
X90525268Y-60479625D01*
X90318425Y-60686468D01*
X90310653Y-60698100D01*
X90167535Y-60698100D01*
X90121600Y-60693576D01*
X89946716Y-60710800D01*
X86848147Y-60710800D01*
X86840375Y-60699168D01*
X86633532Y-60492325D01*
X86450795Y-60370224D01*
X86674469Y-60203388D01*
X86869378Y-59987155D01*
X87018357Y-59737052D01*
X87115681Y-59462691D01*
X86995014Y-59232800D01*
X85801200Y-59232800D01*
X85801200Y-59252800D01*
X85547200Y-59252800D01*
X85547200Y-59232800D01*
X83261200Y-59232800D01*
X83261200Y-59252800D01*
X83007200Y-59252800D01*
X83007200Y-59232800D01*
X80721200Y-59232800D01*
X80721200Y-59252800D01*
X80467200Y-59252800D01*
X80467200Y-59232800D01*
X78181200Y-59232800D01*
X78181200Y-59252800D01*
X77927200Y-59252800D01*
X77927200Y-59232800D01*
X77907200Y-59232800D01*
X77907200Y-58978800D01*
X77927200Y-58978800D01*
X77927200Y-57785645D01*
X77697310Y-57664324D01*
X77622100Y-57687136D01*
X77622100Y-54867872D01*
X77645418Y-54891190D01*
X77742109Y-54970542D01*
X77823608Y-55024998D01*
X77933925Y-55083964D01*
X78024481Y-55121473D01*
X78144177Y-55157782D01*
X78240310Y-55176904D01*
X78364791Y-55189164D01*
X78389350Y-55189164D01*
X78413800Y-55191572D01*
X78727070Y-55191572D01*
X78930301Y-55394802D01*
X78954099Y-55423801D01*
X78983097Y-55447599D01*
X79069824Y-55518774D01*
X79201853Y-55589346D01*
X79345114Y-55632803D01*
X79494100Y-55647477D01*
X79531433Y-55643800D01*
X88594678Y-55643800D01*
X88632000Y-55647476D01*
X88669322Y-55643800D01*
X88669333Y-55643800D01*
X88780986Y-55632803D01*
X88924247Y-55589346D01*
X89056276Y-55518774D01*
X89172001Y-55423801D01*
X89195804Y-55394797D01*
X90131615Y-54458987D01*
X90176915Y-54514185D01*
X90273606Y-54593537D01*
X90383920Y-54652502D01*
X90503618Y-54688812D01*
X90628100Y-54701072D01*
X92328100Y-54701072D01*
X92452582Y-54688812D01*
X92572280Y-54652502D01*
X92682594Y-54593537D01*
X92779285Y-54514185D01*
X92858637Y-54417494D01*
X92917602Y-54307180D01*
X92939613Y-54234620D01*
X93071468Y-54366475D01*
X93314689Y-54528990D01*
X93584942Y-54640932D01*
X93871840Y-54698000D01*
X94164360Y-54698000D01*
X94451258Y-54640932D01*
X94721511Y-54528990D01*
X94964732Y-54366475D01*
X95171575Y-54159632D01*
X95288100Y-53985240D01*
X95404625Y-54159632D01*
X95611468Y-54366475D01*
X95854689Y-54528990D01*
X96124942Y-54640932D01*
X96411840Y-54698000D01*
X96704360Y-54698000D01*
X96991258Y-54640932D01*
X97261511Y-54528990D01*
X97504732Y-54366475D01*
X97711575Y-54159632D01*
X97828100Y-53985240D01*
X97944625Y-54159632D01*
%TA.AperFunction,Conductor*%
D28*
G36*
X97944625Y-54159632D02*
G01*
X98151468Y-54366475D01*
X98394689Y-54528990D01*
X98664942Y-54640932D01*
X98951840Y-54698000D01*
X99244360Y-54698000D01*
X99531258Y-54640932D01*
X99601605Y-54611793D01*
X97817699Y-56395700D01*
X81541611Y-56395700D01*
X81497674Y-56351763D01*
X81328156Y-56238495D01*
X81139798Y-56160474D01*
X80939839Y-56120700D01*
X80735961Y-56120700D01*
X80536002Y-56160474D01*
X80347644Y-56238495D01*
X80178126Y-56351763D01*
X80033963Y-56495926D01*
X79920695Y-56665444D01*
X79842674Y-56853802D01*
X79802900Y-57053761D01*
X79802900Y-57257639D01*
X79842674Y-57457598D01*
X79920695Y-57645956D01*
X79993536Y-57754970D01*
X79827280Y-57834159D01*
X79593931Y-58008212D01*
X79399022Y-58224445D01*
X79324200Y-58350055D01*
X79249378Y-58224445D01*
X79054469Y-58008212D01*
X78821120Y-57834159D01*
X78558299Y-57708975D01*
X78411090Y-57664324D01*
X78181200Y-57785645D01*
X78181200Y-58978800D01*
X80467200Y-58978800D01*
X80467200Y-58958800D01*
X80721200Y-58958800D01*
X80721200Y-58978800D01*
X83007200Y-58978800D01*
X83007200Y-58958800D01*
X83261200Y-58958800D01*
X83261200Y-58978800D01*
X85547200Y-58978800D01*
X85547200Y-58958800D01*
X85801200Y-58958800D01*
X85801200Y-58978800D01*
X86995014Y-58978800D01*
X87115681Y-58748909D01*
X87018357Y-58474548D01*
X86869378Y-58224445D01*
X86674469Y-58008212D01*
X86550440Y-57915700D01*
X90565933Y-57915700D01*
X90458931Y-57995512D01*
X90264022Y-58211745D01*
X90115043Y-58461848D01*
X90017719Y-58736209D01*
X90138386Y-58966100D01*
X91332200Y-58966100D01*
X91332200Y-58946100D01*
X91586200Y-58946100D01*
X91586200Y-58966100D01*
X93872200Y-58966100D01*
X93872200Y-58946100D01*
X94126200Y-58946100D01*
X94126200Y-58966100D01*
X96412200Y-58966100D01*
X96412200Y-58946100D01*
X96666200Y-58946100D01*
X96666200Y-58966100D01*
X98952200Y-58966100D01*
X98952200Y-57772945D01*
X98722310Y-57651624D01*
X98706617Y-57656384D01*
X101220700Y-55142301D01*
X101220701Y-58182009D01*
X100436612Y-58966098D01*
X100400015Y-58966098D01*
X100520681Y-58736209D01*
X100423357Y-58461848D01*
X100274378Y-58211745D01*
X100079469Y-57995512D01*
X99846120Y-57821459D01*
X99583299Y-57696275D01*
X99436090Y-57651624D01*
X99206200Y-57772945D01*
X99206200Y-58966100D01*
X99226200Y-58966100D01*
X99226200Y-59220100D01*
X99206200Y-59220100D01*
X99206200Y-59240100D01*
X98952200Y-59240100D01*
X98952200Y-59220100D01*
X96666200Y-59220100D01*
X96666200Y-59240100D01*
X96412200Y-59240100D01*
X96412200Y-59220100D01*
X94126200Y-59220100D01*
X94126200Y-59240100D01*
X93872200Y-59240100D01*
X93872200Y-59220100D01*
X91586200Y-59220100D01*
X91586200Y-59240100D01*
X91332200Y-59240100D01*
X91332200Y-59220100D01*
X90138386Y-59220100D01*
X90017719Y-59449991D01*
X90115043Y-59724352D01*
X90264022Y-59974455D01*
X90458931Y-60190688D01*
X90692280Y-60364741D01*
X90695155Y-60366110D01*
X90525268Y-60479625D01*
X90318425Y-60686468D01*
X90310653Y-60698100D01*
X90167535Y-60698100D01*
X90121600Y-60693576D01*
X89946716Y-60710800D01*
X86848147Y-60710800D01*
X86840375Y-60699168D01*
X86633532Y-60492325D01*
X86450795Y-60370224D01*
X86674469Y-60203388D01*
X86869378Y-59987155D01*
X87018357Y-59737052D01*
X87115681Y-59462691D01*
X86995014Y-59232800D01*
X85801200Y-59232800D01*
X85801200Y-59252800D01*
X85547200Y-59252800D01*
X85547200Y-59232800D01*
X83261200Y-59232800D01*
X83261200Y-59252800D01*
X83007200Y-59252800D01*
X83007200Y-59232800D01*
X80721200Y-59232800D01*
X80721200Y-59252800D01*
X80467200Y-59252800D01*
X80467200Y-59232800D01*
X78181200Y-59232800D01*
X78181200Y-59252800D01*
X77927200Y-59252800D01*
X77927200Y-59232800D01*
X77907200Y-59232800D01*
X77907200Y-58978800D01*
X77927200Y-58978800D01*
X77927200Y-57785645D01*
X77697310Y-57664324D01*
X77622100Y-57687136D01*
X77622100Y-54867872D01*
X77645418Y-54891190D01*
X77742109Y-54970542D01*
X77823608Y-55024998D01*
X77933925Y-55083964D01*
X78024481Y-55121473D01*
X78144177Y-55157782D01*
X78240310Y-55176904D01*
X78364791Y-55189164D01*
X78389350Y-55189164D01*
X78413800Y-55191572D01*
X78727070Y-55191572D01*
X78930301Y-55394802D01*
X78954099Y-55423801D01*
X78983097Y-55447599D01*
X79069824Y-55518774D01*
X79201853Y-55589346D01*
X79345114Y-55632803D01*
X79494100Y-55647477D01*
X79531433Y-55643800D01*
X88594678Y-55643800D01*
X88632000Y-55647476D01*
X88669322Y-55643800D01*
X88669333Y-55643800D01*
X88780986Y-55632803D01*
X88924247Y-55589346D01*
X89056276Y-55518774D01*
X89172001Y-55423801D01*
X89195804Y-55394797D01*
X90131615Y-54458987D01*
X90176915Y-54514185D01*
X90273606Y-54593537D01*
X90383920Y-54652502D01*
X90503618Y-54688812D01*
X90628100Y-54701072D01*
X92328100Y-54701072D01*
X92452582Y-54688812D01*
X92572280Y-54652502D01*
X92682594Y-54593537D01*
X92779285Y-54514185D01*
X92858637Y-54417494D01*
X92917602Y-54307180D01*
X92939613Y-54234620D01*
X93071468Y-54366475D01*
X93314689Y-54528990D01*
X93584942Y-54640932D01*
X93871840Y-54698000D01*
X94164360Y-54698000D01*
X94451258Y-54640932D01*
X94721511Y-54528990D01*
X94964732Y-54366475D01*
X95171575Y-54159632D01*
X95288100Y-53985240D01*
X95404625Y-54159632D01*
X95611468Y-54366475D01*
X95854689Y-54528990D01*
X96124942Y-54640932D01*
X96411840Y-54698000D01*
X96704360Y-54698000D01*
X96991258Y-54640932D01*
X97261511Y-54528990D01*
X97504732Y-54366475D01*
X97711575Y-54159632D01*
X97828100Y-53985240D01*
X97944625Y-54159632D01*
G37*
%TD.AperFunction*%
D27*
X116117600Y-58947260D02*
X116174668Y-59234158D01*
X116286610Y-59504411D01*
X116449125Y-59747632D01*
X116655968Y-59954475D01*
X116854156Y-60086900D01*
X114504431Y-60086900D01*
X114458499Y-60082376D01*
X114275207Y-60100429D01*
X114221743Y-60116647D01*
X114098960Y-60153893D01*
X113936528Y-60240714D01*
X113794156Y-60357556D01*
X113764870Y-60393241D01*
X113561059Y-60597052D01*
X113443632Y-60479625D01*
X113260895Y-60357524D01*
X113484569Y-60190688D01*
X113679478Y-59974455D01*
X113828457Y-59724352D01*
X113925781Y-59449991D01*
X113805114Y-59220100D01*
X112611300Y-59220100D01*
X112611300Y-59240100D01*
X112357300Y-59240100D01*
X112357300Y-59220100D01*
X110071300Y-59220100D01*
X110071300Y-59240100D01*
X109817300Y-59240100D01*
X109817300Y-59220100D01*
X109797300Y-59220100D01*
X109797300Y-58966100D01*
X109817300Y-58966100D01*
X109817300Y-58946100D01*
X110071300Y-58946100D01*
X110071300Y-58966100D01*
X112357300Y-58966100D01*
X112357300Y-58946100D01*
X112611300Y-58946100D01*
X112611300Y-58966100D01*
X113805114Y-58966100D01*
X113925781Y-58736209D01*
X113901301Y-58667200D01*
X116117600Y-58667200D01*
X116117600Y-58947260D01*
%TA.AperFunction,Conductor*%
D28*
G36*
X116117600Y-58947260D02*
G01*
X116174668Y-59234158D01*
X116286610Y-59504411D01*
X116449125Y-59747632D01*
X116655968Y-59954475D01*
X116854156Y-60086900D01*
X114504431Y-60086900D01*
X114458499Y-60082376D01*
X114275207Y-60100429D01*
X114221743Y-60116647D01*
X114098960Y-60153893D01*
X113936528Y-60240714D01*
X113794156Y-60357556D01*
X113764870Y-60393241D01*
X113561059Y-60597052D01*
X113443632Y-60479625D01*
X113260895Y-60357524D01*
X113484569Y-60190688D01*
X113679478Y-59974455D01*
X113828457Y-59724352D01*
X113925781Y-59449991D01*
X113805114Y-59220100D01*
X112611300Y-59220100D01*
X112611300Y-59240100D01*
X112357300Y-59240100D01*
X112357300Y-59220100D01*
X110071300Y-59220100D01*
X110071300Y-59240100D01*
X109817300Y-59240100D01*
X109817300Y-59220100D01*
X109797300Y-59220100D01*
X109797300Y-58966100D01*
X109817300Y-58966100D01*
X109817300Y-58946100D01*
X110071300Y-58946100D01*
X110071300Y-58966100D01*
X112357300Y-58966100D01*
X112357300Y-58946100D01*
X112611300Y-58946100D01*
X112611300Y-58966100D01*
X113805114Y-58966100D01*
X113925781Y-58736209D01*
X113901301Y-58667200D01*
X116117600Y-58667200D01*
X116117600Y-58947260D01*
G37*
%TD.AperFunction*%
D27*
X104991300Y-58966100D02*
X107277300Y-58966100D01*
X107277300Y-58946100D01*
X107531300Y-58946100D01*
X107531300Y-58966100D01*
X107551300Y-58966100D01*
X107551300Y-59220100D01*
X107531300Y-59220100D01*
X107531300Y-59240100D01*
X107277300Y-59240100D01*
X107277300Y-59220100D01*
X104991300Y-59220100D01*
X104991300Y-59240100D01*
X104737300Y-59240100D01*
X104737300Y-59220100D01*
X104717300Y-59220100D01*
X104717300Y-58966100D01*
X104737300Y-58966100D01*
X104737300Y-58946100D01*
X104991300Y-58946100D01*
X104991300Y-58966100D01*
%TA.AperFunction,Conductor*%
D28*
G36*
X104991300Y-58966100D02*
G01*
X107277300Y-58966100D01*
X107277300Y-58946100D01*
X107531300Y-58946100D01*
X107531300Y-58966100D01*
X107551300Y-58966100D01*
X107551300Y-59220100D01*
X107531300Y-59220100D01*
X107531300Y-59240100D01*
X107277300Y-59240100D01*
X107277300Y-59220100D01*
X104991300Y-59220100D01*
X104991300Y-59240100D01*
X104737300Y-59240100D01*
X104737300Y-59220100D01*
X104717300Y-59220100D01*
X104717300Y-58966100D01*
X104737300Y-58966100D01*
X104737300Y-58946100D01*
X104991300Y-58946100D01*
X104991300Y-58966100D01*
G37*
%TD.AperFunction*%
D27*
X112693815Y-47402185D02*
X112790506Y-47481537D01*
X112900820Y-47540502D01*
X113020518Y-47576812D01*
X113145000Y-47589072D01*
X114845000Y-47589072D01*
X114969482Y-47576812D01*
X115087912Y-47540887D01*
X113771824Y-48856974D01*
X113679478Y-48701945D01*
X113484569Y-48485712D01*
X113251220Y-48311659D01*
X112988399Y-48186475D01*
X112841190Y-48141824D01*
X112611300Y-48263145D01*
X112611300Y-49456300D01*
X112631300Y-49456300D01*
X112631300Y-49710300D01*
X112611300Y-49710300D01*
X112611300Y-49730300D01*
X112357300Y-49730300D01*
X112357300Y-49710300D01*
X110071300Y-49710300D01*
X110071300Y-49730300D01*
X109817300Y-49730300D01*
X109817300Y-49710300D01*
X107531300Y-49710300D01*
X107531300Y-49730300D01*
X107277300Y-49730300D01*
X107277300Y-49710300D01*
X104991300Y-49710300D01*
X104991300Y-49730300D01*
X104737300Y-49730300D01*
X104737300Y-49710300D01*
X103543486Y-49710300D01*
X103422819Y-49940191D01*
X103520143Y-50214552D01*
X103669122Y-50464655D01*
X103706868Y-50506530D01*
X100496893Y-53716505D01*
X100526032Y-53646158D01*
X100583100Y-53359260D01*
X100583100Y-53066740D01*
X100526032Y-52779842D01*
X100414090Y-52509589D01*
X100251575Y-52266368D01*
X100044732Y-52059525D01*
X99990088Y-52023013D01*
X100737103Y-51275999D01*
X100766101Y-51252201D01*
X100822256Y-51183776D01*
X100861074Y-51136477D01*
X100931646Y-51004447D01*
X100941241Y-50972815D01*
X100975103Y-50861186D01*
X100986100Y-50749533D01*
X100986100Y-50749524D01*
X100989776Y-50712201D01*
X100986100Y-50674878D01*
X100986100Y-49803983D01*
X101007164Y-49764575D01*
X101044673Y-49674019D01*
X101080982Y-49554323D01*
X101100104Y-49458190D01*
X101112364Y-49333709D01*
X101112364Y-49309150D01*
X101114772Y-49284700D01*
X101114772Y-48784700D01*
X101112364Y-48760250D01*
X101112364Y-48735691D01*
X101100104Y-48611210D01*
X101080982Y-48515077D01*
X101044673Y-48395381D01*
X101043024Y-48391400D01*
X103990473Y-48391400D01*
X103864031Y-48485712D01*
X103669122Y-48701945D01*
X103520143Y-48952048D01*
X103422819Y-49226409D01*
X103543486Y-49456300D01*
X104737300Y-49456300D01*
X104737300Y-49436300D01*
X104991300Y-49436300D01*
X104991300Y-49456300D01*
X107277300Y-49456300D01*
X107277300Y-49436300D01*
X107531300Y-49436300D01*
X107531300Y-49456300D01*
X109817300Y-49456300D01*
X109817300Y-49436300D01*
X110071300Y-49436300D01*
X110071300Y-49456300D01*
X112357300Y-49456300D01*
X112357300Y-48263145D01*
X112127410Y-48141824D01*
X111980201Y-48186475D01*
X111717380Y-48311659D01*
X111484031Y-48485712D01*
X111289122Y-48701945D01*
X111214300Y-48827555D01*
X111139478Y-48701945D01*
X110944569Y-48485712D01*
X110818127Y-48391400D01*
X111243368Y-48391400D01*
X111289300Y-48395924D01*
X111335232Y-48391400D01*
X111472592Y-48377871D01*
X111648840Y-48324407D01*
X111811272Y-48237586D01*
X111953644Y-48120744D01*
X111982930Y-48085059D01*
X112681189Y-47386800D01*
X112693815Y-47402185D01*
%TA.AperFunction,Conductor*%
D28*
G36*
X112693815Y-47402185D02*
G01*
X112790506Y-47481537D01*
X112900820Y-47540502D01*
X113020518Y-47576812D01*
X113145000Y-47589072D01*
X114845000Y-47589072D01*
X114969482Y-47576812D01*
X115087912Y-47540887D01*
X113771824Y-48856974D01*
X113679478Y-48701945D01*
X113484569Y-48485712D01*
X113251220Y-48311659D01*
X112988399Y-48186475D01*
X112841190Y-48141824D01*
X112611300Y-48263145D01*
X112611300Y-49456300D01*
X112631300Y-49456300D01*
X112631300Y-49710300D01*
X112611300Y-49710300D01*
X112611300Y-49730300D01*
X112357300Y-49730300D01*
X112357300Y-49710300D01*
X110071300Y-49710300D01*
X110071300Y-49730300D01*
X109817300Y-49730300D01*
X109817300Y-49710300D01*
X107531300Y-49710300D01*
X107531300Y-49730300D01*
X107277300Y-49730300D01*
X107277300Y-49710300D01*
X104991300Y-49710300D01*
X104991300Y-49730300D01*
X104737300Y-49730300D01*
X104737300Y-49710300D01*
X103543486Y-49710300D01*
X103422819Y-49940191D01*
X103520143Y-50214552D01*
X103669122Y-50464655D01*
X103706868Y-50506530D01*
X100496893Y-53716505D01*
X100526032Y-53646158D01*
X100583100Y-53359260D01*
X100583100Y-53066740D01*
X100526032Y-52779842D01*
X100414090Y-52509589D01*
X100251575Y-52266368D01*
X100044732Y-52059525D01*
X99990088Y-52023013D01*
X100737103Y-51275999D01*
X100766101Y-51252201D01*
X100822256Y-51183776D01*
X100861074Y-51136477D01*
X100931646Y-51004447D01*
X100941241Y-50972815D01*
X100975103Y-50861186D01*
X100986100Y-50749533D01*
X100986100Y-50749524D01*
X100989776Y-50712201D01*
X100986100Y-50674878D01*
X100986100Y-49803983D01*
X101007164Y-49764575D01*
X101044673Y-49674019D01*
X101080982Y-49554323D01*
X101100104Y-49458190D01*
X101112364Y-49333709D01*
X101112364Y-49309150D01*
X101114772Y-49284700D01*
X101114772Y-48784700D01*
X101112364Y-48760250D01*
X101112364Y-48735691D01*
X101100104Y-48611210D01*
X101080982Y-48515077D01*
X101044673Y-48395381D01*
X101043024Y-48391400D01*
X103990473Y-48391400D01*
X103864031Y-48485712D01*
X103669122Y-48701945D01*
X103520143Y-48952048D01*
X103422819Y-49226409D01*
X103543486Y-49456300D01*
X104737300Y-49456300D01*
X104737300Y-49436300D01*
X104991300Y-49436300D01*
X104991300Y-49456300D01*
X107277300Y-49456300D01*
X107277300Y-49436300D01*
X107531300Y-49436300D01*
X107531300Y-49456300D01*
X109817300Y-49456300D01*
X109817300Y-49436300D01*
X110071300Y-49436300D01*
X110071300Y-49456300D01*
X112357300Y-49456300D01*
X112357300Y-48263145D01*
X112127410Y-48141824D01*
X111980201Y-48186475D01*
X111717380Y-48311659D01*
X111484031Y-48485712D01*
X111289122Y-48701945D01*
X111214300Y-48827555D01*
X111139478Y-48701945D01*
X110944569Y-48485712D01*
X110818127Y-48391400D01*
X111243368Y-48391400D01*
X111289300Y-48395924D01*
X111335232Y-48391400D01*
X111472592Y-48377871D01*
X111648840Y-48324407D01*
X111811272Y-48237586D01*
X111953644Y-48120744D01*
X111982930Y-48085059D01*
X112681189Y-47386800D01*
X112693815Y-47402185D01*
G37*
%TD.AperFunction*%
D27*
X136638865Y-27498849D02*
X136233287Y-27666845D01*
X135868276Y-27910737D01*
X135557859Y-28221154D01*
X135313967Y-28586165D01*
X135145971Y-28991743D01*
X135060327Y-29422303D01*
X135060327Y-29861297D01*
X135145971Y-30291857D01*
X135313967Y-30697435D01*
X135557859Y-31062446D01*
X135868276Y-31372863D01*
X136233287Y-31616755D01*
X136638865Y-31784751D01*
X137069425Y-31870395D01*
X137508419Y-31870395D01*
X137938979Y-31784751D01*
X138344557Y-31616755D01*
X138709568Y-31372863D01*
X139019985Y-31062446D01*
X139263877Y-30697435D01*
X139319800Y-30562425D01*
X139319800Y-43498299D01*
X137850504Y-42029003D01*
X137826701Y-41999999D01*
X137710976Y-41905026D01*
X137578947Y-41834454D01*
X137435686Y-41790997D01*
X137324033Y-41780000D01*
X137324022Y-41780000D01*
X137286700Y-41776324D01*
X137249378Y-41780000D01*
X134121447Y-41780000D01*
X134158590Y-41724411D01*
X134270532Y-41454158D01*
X134327600Y-41167260D01*
X134327600Y-40874740D01*
X134270532Y-40587842D01*
X134158590Y-40317589D01*
X133996075Y-40074368D01*
X133864220Y-39942513D01*
X133936780Y-39920502D01*
X134047094Y-39861537D01*
X134143785Y-39782185D01*
X134223137Y-39685494D01*
X134282102Y-39575180D01*
X134318412Y-39455482D01*
X134330672Y-39331000D01*
X134330672Y-37631000D01*
X134318412Y-37506518D01*
X134282102Y-37386820D01*
X134223137Y-37276506D01*
X134143785Y-37179815D01*
X134047094Y-37100463D01*
X133936780Y-37041498D01*
X133864220Y-37019487D01*
X133996075Y-36887632D01*
X134158590Y-36644411D01*
X134270532Y-36374158D01*
X134327600Y-36087260D01*
X134327600Y-35794740D01*
X134270532Y-35507842D01*
X134158590Y-35237589D01*
X133996075Y-34994368D01*
X133789232Y-34787525D01*
X133615871Y-34671689D01*
X133691392Y-34429397D01*
X132842600Y-33580605D01*
X131993808Y-34429397D01*
X132069329Y-34671689D01*
X131895968Y-34787525D01*
X131689125Y-34994368D01*
X131526610Y-35237589D01*
X131414668Y-35507842D01*
X131357600Y-35794740D01*
X131357600Y-36087260D01*
X131414668Y-36374158D01*
X131526610Y-36644411D01*
X131689125Y-36887632D01*
X131820980Y-37019487D01*
X131748420Y-37041498D01*
X131638106Y-37100463D01*
X131541415Y-37179815D01*
X131462063Y-37276506D01*
X131403098Y-37386820D01*
X131366788Y-37506518D01*
X131354528Y-37631000D01*
X131354528Y-39331000D01*
X131366788Y-39455482D01*
X131403098Y-39575180D01*
X131462063Y-39685494D01*
X131541415Y-39782185D01*
X131638106Y-39861537D01*
X131748420Y-39920502D01*
X131820980Y-39942513D01*
X131689125Y-40074368D01*
X131564422Y-40261000D01*
X130954922Y-40261000D01*
X130917599Y-40257324D01*
X130880276Y-40261000D01*
X130880267Y-40261000D01*
X130768614Y-40271997D01*
X130655204Y-40306399D01*
X130625353Y-40315454D01*
X130493323Y-40386026D01*
X130409683Y-40454668D01*
X130377599Y-40480999D01*
X130353801Y-40509997D01*
X122428900Y-48434899D01*
X122428900Y-33469531D01*
X131351989Y-33469531D01*
X131394001Y-33759019D01*
X131491681Y-34034747D01*
X131565128Y-34172157D01*
X131814203Y-34249792D01*
X132662995Y-33401000D01*
X133022205Y-33401000D01*
X133870997Y-34249792D01*
X134120072Y-34172157D01*
X134245971Y-33908117D01*
X134317939Y-33624589D01*
X134321087Y-33564365D01*
X135369000Y-33564365D01*
X135369000Y-33847035D01*
X135424147Y-34124274D01*
X135532320Y-34385427D01*
X135689363Y-34620459D01*
X135889241Y-34820337D01*
X136124273Y-34977380D01*
X136385426Y-35085553D01*
X136662665Y-35140700D01*
X136945335Y-35140700D01*
X137222574Y-35085553D01*
X137483727Y-34977380D01*
X137718759Y-34820337D01*
X137918637Y-34620459D01*
X138075680Y-34385427D01*
X138183853Y-34124274D01*
X138239000Y-33847035D01*
X138239000Y-33564365D01*
X138183853Y-33287126D01*
X138075680Y-33025973D01*
X137918637Y-32790941D01*
X137718759Y-32591063D01*
X137483727Y-32434020D01*
X137222574Y-32325847D01*
X136945335Y-32270700D01*
X136662665Y-32270700D01*
X136385426Y-32325847D01*
X136124273Y-32434020D01*
X135889241Y-32591063D01*
X135689363Y-32790941D01*
X135532320Y-33025973D01*
X135424147Y-33287126D01*
X135369000Y-33564365D01*
X134321087Y-33564365D01*
X134333211Y-33332469D01*
X134291199Y-33042981D01*
X134193519Y-32767253D01*
X134120072Y-32629843D01*
X133870997Y-32552208D01*
X133022205Y-33401000D01*
X132662995Y-33401000D01*
X131814203Y-32552208D01*
X131565128Y-32629843D01*
X131439229Y-32893883D01*
X131367261Y-33177411D01*
X131351989Y-33469531D01*
X122428900Y-33469531D01*
X122428900Y-31652435D01*
X122433424Y-31606500D01*
X122415372Y-31423208D01*
X122361907Y-31246959D01*
X122304012Y-31138646D01*
X122275086Y-31084528D01*
X122158244Y-30942156D01*
X122122559Y-30912870D01*
X121220689Y-30011000D01*
X131354528Y-30011000D01*
X131354528Y-31711000D01*
X131366788Y-31835482D01*
X131403098Y-31955180D01*
X131462063Y-32065494D01*
X131541415Y-32162185D01*
X131638106Y-32241537D01*
X131748420Y-32300502D01*
X131868118Y-32336812D01*
X131992600Y-32349072D01*
X132001142Y-32349072D01*
X131993808Y-32372603D01*
X132842600Y-33221395D01*
X133691392Y-32372603D01*
X133684058Y-32349072D01*
X133692600Y-32349072D01*
X133817082Y-32336812D01*
X133936780Y-32300502D01*
X134047094Y-32241537D01*
X134143785Y-32162185D01*
X134223137Y-32065494D01*
X134282102Y-31955180D01*
X134318412Y-31835482D01*
X134330672Y-31711000D01*
X134330672Y-30011000D01*
X134318412Y-29886518D01*
X134282102Y-29766820D01*
X134223137Y-29656506D01*
X134143785Y-29559815D01*
X134047094Y-29480463D01*
X133936780Y-29421498D01*
X133817082Y-29385188D01*
X133692600Y-29372928D01*
X131992600Y-29372928D01*
X131868118Y-29385188D01*
X131748420Y-29421498D01*
X131638106Y-29480463D01*
X131541415Y-29559815D01*
X131462063Y-29656506D01*
X131403098Y-29766820D01*
X131366788Y-29886518D01*
X131354528Y-30011000D01*
X121220689Y-30011000D01*
X118902030Y-27692341D01*
X118872744Y-27656656D01*
X118730372Y-27539814D01*
X118622209Y-27482000D01*
X136723570Y-27482000D01*
X136638865Y-27498849D01*
%TA.AperFunction,Conductor*%
D28*
G36*
X136638865Y-27498849D02*
G01*
X136233287Y-27666845D01*
X135868276Y-27910737D01*
X135557859Y-28221154D01*
X135313967Y-28586165D01*
X135145971Y-28991743D01*
X135060327Y-29422303D01*
X135060327Y-29861297D01*
X135145971Y-30291857D01*
X135313967Y-30697435D01*
X135557859Y-31062446D01*
X135868276Y-31372863D01*
X136233287Y-31616755D01*
X136638865Y-31784751D01*
X137069425Y-31870395D01*
X137508419Y-31870395D01*
X137938979Y-31784751D01*
X138344557Y-31616755D01*
X138709568Y-31372863D01*
X139019985Y-31062446D01*
X139263877Y-30697435D01*
X139319800Y-30562425D01*
X139319800Y-43498299D01*
X137850504Y-42029003D01*
X137826701Y-41999999D01*
X137710976Y-41905026D01*
X137578947Y-41834454D01*
X137435686Y-41790997D01*
X137324033Y-41780000D01*
X137324022Y-41780000D01*
X137286700Y-41776324D01*
X137249378Y-41780000D01*
X134121447Y-41780000D01*
X134158590Y-41724411D01*
X134270532Y-41454158D01*
X134327600Y-41167260D01*
X134327600Y-40874740D01*
X134270532Y-40587842D01*
X134158590Y-40317589D01*
X133996075Y-40074368D01*
X133864220Y-39942513D01*
X133936780Y-39920502D01*
X134047094Y-39861537D01*
X134143785Y-39782185D01*
X134223137Y-39685494D01*
X134282102Y-39575180D01*
X134318412Y-39455482D01*
X134330672Y-39331000D01*
X134330672Y-37631000D01*
X134318412Y-37506518D01*
X134282102Y-37386820D01*
X134223137Y-37276506D01*
X134143785Y-37179815D01*
X134047094Y-37100463D01*
X133936780Y-37041498D01*
X133864220Y-37019487D01*
X133996075Y-36887632D01*
X134158590Y-36644411D01*
X134270532Y-36374158D01*
X134327600Y-36087260D01*
X134327600Y-35794740D01*
X134270532Y-35507842D01*
X134158590Y-35237589D01*
X133996075Y-34994368D01*
X133789232Y-34787525D01*
X133615871Y-34671689D01*
X133691392Y-34429397D01*
X132842600Y-33580605D01*
X131993808Y-34429397D01*
X132069329Y-34671689D01*
X131895968Y-34787525D01*
X131689125Y-34994368D01*
X131526610Y-35237589D01*
X131414668Y-35507842D01*
X131357600Y-35794740D01*
X131357600Y-36087260D01*
X131414668Y-36374158D01*
X131526610Y-36644411D01*
X131689125Y-36887632D01*
X131820980Y-37019487D01*
X131748420Y-37041498D01*
X131638106Y-37100463D01*
X131541415Y-37179815D01*
X131462063Y-37276506D01*
X131403098Y-37386820D01*
X131366788Y-37506518D01*
X131354528Y-37631000D01*
X131354528Y-39331000D01*
X131366788Y-39455482D01*
X131403098Y-39575180D01*
X131462063Y-39685494D01*
X131541415Y-39782185D01*
X131638106Y-39861537D01*
X131748420Y-39920502D01*
X131820980Y-39942513D01*
X131689125Y-40074368D01*
X131564422Y-40261000D01*
X130954922Y-40261000D01*
X130917599Y-40257324D01*
X130880276Y-40261000D01*
X130880267Y-40261000D01*
X130768614Y-40271997D01*
X130655204Y-40306399D01*
X130625353Y-40315454D01*
X130493323Y-40386026D01*
X130409683Y-40454668D01*
X130377599Y-40480999D01*
X130353801Y-40509997D01*
X122428900Y-48434899D01*
X122428900Y-33469531D01*
X131351989Y-33469531D01*
X131394001Y-33759019D01*
X131491681Y-34034747D01*
X131565128Y-34172157D01*
X131814203Y-34249792D01*
X132662995Y-33401000D01*
X133022205Y-33401000D01*
X133870997Y-34249792D01*
X134120072Y-34172157D01*
X134245971Y-33908117D01*
X134317939Y-33624589D01*
X134321087Y-33564365D01*
X135369000Y-33564365D01*
X135369000Y-33847035D01*
X135424147Y-34124274D01*
X135532320Y-34385427D01*
X135689363Y-34620459D01*
X135889241Y-34820337D01*
X136124273Y-34977380D01*
X136385426Y-35085553D01*
X136662665Y-35140700D01*
X136945335Y-35140700D01*
X137222574Y-35085553D01*
X137483727Y-34977380D01*
X137718759Y-34820337D01*
X137918637Y-34620459D01*
X138075680Y-34385427D01*
X138183853Y-34124274D01*
X138239000Y-33847035D01*
X138239000Y-33564365D01*
X138183853Y-33287126D01*
X138075680Y-33025973D01*
X137918637Y-32790941D01*
X137718759Y-32591063D01*
X137483727Y-32434020D01*
X137222574Y-32325847D01*
X136945335Y-32270700D01*
X136662665Y-32270700D01*
X136385426Y-32325847D01*
X136124273Y-32434020D01*
X135889241Y-32591063D01*
X135689363Y-32790941D01*
X135532320Y-33025973D01*
X135424147Y-33287126D01*
X135369000Y-33564365D01*
X134321087Y-33564365D01*
X134333211Y-33332469D01*
X134291199Y-33042981D01*
X134193519Y-32767253D01*
X134120072Y-32629843D01*
X133870997Y-32552208D01*
X133022205Y-33401000D01*
X132662995Y-33401000D01*
X131814203Y-32552208D01*
X131565128Y-32629843D01*
X131439229Y-32893883D01*
X131367261Y-33177411D01*
X131351989Y-33469531D01*
X122428900Y-33469531D01*
X122428900Y-31652435D01*
X122433424Y-31606500D01*
X122415372Y-31423208D01*
X122361907Y-31246959D01*
X122304012Y-31138646D01*
X122275086Y-31084528D01*
X122158244Y-30942156D01*
X122122559Y-30912870D01*
X121220689Y-30011000D01*
X131354528Y-30011000D01*
X131354528Y-31711000D01*
X131366788Y-31835482D01*
X131403098Y-31955180D01*
X131462063Y-32065494D01*
X131541415Y-32162185D01*
X131638106Y-32241537D01*
X131748420Y-32300502D01*
X131868118Y-32336812D01*
X131992600Y-32349072D01*
X132001142Y-32349072D01*
X131993808Y-32372603D01*
X132842600Y-33221395D01*
X133691392Y-32372603D01*
X133684058Y-32349072D01*
X133692600Y-32349072D01*
X133817082Y-32336812D01*
X133936780Y-32300502D01*
X134047094Y-32241537D01*
X134143785Y-32162185D01*
X134223137Y-32065494D01*
X134282102Y-31955180D01*
X134318412Y-31835482D01*
X134330672Y-31711000D01*
X134330672Y-30011000D01*
X134318412Y-29886518D01*
X134282102Y-29766820D01*
X134223137Y-29656506D01*
X134143785Y-29559815D01*
X134047094Y-29480463D01*
X133936780Y-29421498D01*
X133817082Y-29385188D01*
X133692600Y-29372928D01*
X131992600Y-29372928D01*
X131868118Y-29385188D01*
X131748420Y-29421498D01*
X131638106Y-29480463D01*
X131541415Y-29559815D01*
X131462063Y-29656506D01*
X131403098Y-29766820D01*
X131366788Y-29886518D01*
X131354528Y-30011000D01*
X121220689Y-30011000D01*
X118902030Y-27692341D01*
X118872744Y-27656656D01*
X118730372Y-27539814D01*
X118622209Y-27482000D01*
X136723570Y-27482000D01*
X136638865Y-27498849D01*
G37*
%TD.AperFunction*%
D27*
X66105200Y-28035250D02*
X66263950Y-28194000D01*
X67513200Y-28194000D01*
X67513200Y-28174000D01*
X67767200Y-28174000D01*
X67767200Y-28194000D01*
X69016450Y-28194000D01*
X69175200Y-28035250D01*
X69177967Y-27482000D01*
X78876645Y-27482000D01*
X78823035Y-27658728D01*
X78802128Y-27871000D01*
X78802128Y-28771000D01*
X78823035Y-28983272D01*
X78884953Y-29187387D01*
X78985501Y-29375500D01*
X79120817Y-29540383D01*
X79285700Y-29675699D01*
X79434447Y-29755205D01*
X79472193Y-29879639D01*
X79559014Y-30042071D01*
X79675856Y-30184444D01*
X79711541Y-30213730D01*
X85632625Y-36134814D01*
X85435688Y-36154210D01*
X85146340Y-36241983D01*
X84879674Y-36384519D01*
X84645940Y-36576339D01*
X84492844Y-36762887D01*
X84336734Y-36572666D01*
X84110614Y-36387094D01*
X83852634Y-36249201D01*
X83572711Y-36164287D01*
X83281600Y-36135615D01*
X82990490Y-36164287D01*
X82710567Y-36249201D01*
X82452587Y-36387094D01*
X82226467Y-36572666D01*
X82040895Y-36798786D01*
X81903001Y-37056766D01*
X81818087Y-37336689D01*
X81796600Y-37554850D01*
X81796600Y-37618414D01*
X81795447Y-37614613D01*
X81694899Y-37426500D01*
X81559583Y-37261617D01*
X81394700Y-37126301D01*
X81206587Y-37025753D01*
X81002472Y-36963835D01*
X80790200Y-36942928D01*
X79890200Y-36942928D01*
X79677928Y-36963835D01*
X79473813Y-37025753D01*
X79285700Y-37126301D01*
X79120817Y-37261617D01*
X78985501Y-37426500D01*
X78884953Y-37614613D01*
X78823035Y-37818728D01*
X78802128Y-38031000D01*
X78802128Y-38931000D01*
X78823035Y-39143272D01*
X78884953Y-39347387D01*
X78985501Y-39535500D01*
X79120817Y-39700383D01*
X79285700Y-39835699D01*
X79473813Y-39936247D01*
X79677928Y-39998165D01*
X79890200Y-40019072D01*
X80019800Y-40019072D01*
X80019801Y-42302928D01*
X79954800Y-42302928D01*
X79830318Y-42315188D01*
X79710620Y-42351498D01*
X79600306Y-42410463D01*
X79503615Y-42489815D01*
X79424263Y-42586506D01*
X79365298Y-42696820D01*
X79328988Y-42816518D01*
X79316728Y-42941000D01*
X79316728Y-44318800D01*
X76563969Y-44318800D01*
X76583060Y-44313563D01*
X76697560Y-44069568D01*
X76786302Y-44106326D01*
X76986261Y-44146100D01*
X77190139Y-44146100D01*
X77390098Y-44106326D01*
X77578456Y-44028305D01*
X77747974Y-43915037D01*
X77892137Y-43770874D01*
X78005405Y-43601356D01*
X78083426Y-43412998D01*
X78123200Y-43213039D01*
X78123200Y-43009161D01*
X78083426Y-42809202D01*
X78005405Y-42620844D01*
X77892137Y-42451326D01*
X77747974Y-42307163D01*
X77578456Y-42193895D01*
X77433059Y-42133669D01*
X71724130Y-36424741D01*
X71694844Y-36389056D01*
X71552472Y-36272214D01*
X71390040Y-36185393D01*
X71213792Y-36131929D01*
X71076432Y-36118400D01*
X71030500Y-36113876D01*
X70984568Y-36118400D01*
X64805600Y-36118400D01*
X64805600Y-35520895D01*
X64862964Y-35413575D01*
X64900473Y-35323019D01*
X64936782Y-35203323D01*
X64955904Y-35107190D01*
X64968164Y-34982709D01*
X64968164Y-34958150D01*
X64970572Y-34933700D01*
X64970572Y-34433700D01*
X64968164Y-34409250D01*
X64968164Y-34384691D01*
X64955904Y-34260210D01*
X64936782Y-34164077D01*
X64900473Y-34044381D01*
X64862964Y-33953825D01*
X64803998Y-33843508D01*
X64749542Y-33762009D01*
X64670190Y-33665318D01*
X64600882Y-33596010D01*
X64504191Y-33516658D01*
X64422692Y-33462202D01*
X64312375Y-33403236D01*
X64221819Y-33365727D01*
X64102123Y-33329418D01*
X64005990Y-33310296D01*
X63881509Y-33298036D01*
X63856950Y-33298036D01*
X63832500Y-33295628D01*
X63332500Y-33295628D01*
X63208018Y-33307888D01*
X63182500Y-33315629D01*
X63156982Y-33307888D01*
X63032500Y-33295628D01*
X62532500Y-33295628D01*
X62508050Y-33298036D01*
X62483491Y-33298036D01*
X62359010Y-33310296D01*
X62262877Y-33329418D01*
X62143181Y-33365727D01*
X62052625Y-33403236D01*
X61942308Y-33462202D01*
X61860809Y-33516658D01*
X61764118Y-33596010D01*
X61694810Y-33665318D01*
X61615458Y-33762009D01*
X61561002Y-33843508D01*
X61502036Y-33953825D01*
X61464527Y-34044381D01*
X61428218Y-34164077D01*
X61409096Y-34260210D01*
X61396836Y-34384691D01*
X61396836Y-34409250D01*
X61394428Y-34433700D01*
X61394428Y-34499483D01*
X60889736Y-35004175D01*
X60854057Y-35033456D01*
X60819500Y-35075564D01*
X60819500Y-29815004D01*
X60866516Y-29335495D01*
X60996043Y-28906481D01*
X61206433Y-28510796D01*
X61489673Y-28163508D01*
X61834973Y-27877851D01*
X62229178Y-27664704D01*
X62657284Y-27532184D01*
X62849509Y-27511980D01*
X62532443Y-27575049D01*
X62126865Y-27743045D01*
X61761854Y-27986937D01*
X61451437Y-28297354D01*
X61207545Y-28662365D01*
X61039549Y-29067943D01*
X60953905Y-29498503D01*
X60953905Y-29937497D01*
X61039549Y-30368057D01*
X61207545Y-30773635D01*
X61451437Y-31138646D01*
X61761854Y-31449063D01*
X62126865Y-31692955D01*
X62532443Y-31860951D01*
X62963003Y-31946595D01*
X63401997Y-31946595D01*
X63832557Y-31860951D01*
X64238135Y-31692955D01*
X64603146Y-31449063D01*
X64913563Y-31138646D01*
X65157455Y-30773635D01*
X65325451Y-30368057D01*
X65411095Y-29937497D01*
X65411095Y-29498503D01*
X65355897Y-29221000D01*
X66102128Y-29221000D01*
X66114388Y-29345482D01*
X66150698Y-29465180D01*
X66209663Y-29575494D01*
X66289015Y-29672185D01*
X66385706Y-29751537D01*
X66496020Y-29810502D01*
X66615718Y-29846812D01*
X66740200Y-29859072D01*
X67354450Y-29856000D01*
X67513200Y-29697250D01*
X67513200Y-28448000D01*
X67767200Y-28448000D01*
X67767200Y-29697250D01*
X67925950Y-29856000D01*
X68540200Y-29859072D01*
X68664682Y-29846812D01*
X68784380Y-29810502D01*
X68894694Y-29751537D01*
X68991385Y-29672185D01*
X69070737Y-29575494D01*
X69129702Y-29465180D01*
X69166012Y-29345482D01*
X69178272Y-29221000D01*
X69175200Y-28606750D01*
X69016450Y-28448000D01*
X67767200Y-28448000D01*
X67513200Y-28448000D01*
X66263950Y-28448000D01*
X66105200Y-28606750D01*
X66102128Y-29221000D01*
X65355897Y-29221000D01*
X65325451Y-29067943D01*
X65157455Y-28662365D01*
X64913563Y-28297354D01*
X64603146Y-27986937D01*
X64238135Y-27743045D01*
X63832557Y-27575049D01*
X63401997Y-27489405D01*
X63064299Y-27489405D01*
X63134753Y-27482000D01*
X66102433Y-27482000D01*
X66105200Y-28035250D01*
%TA.AperFunction,Conductor*%
D28*
G36*
X66105200Y-28035250D02*
G01*
X66263950Y-28194000D01*
X67513200Y-28194000D01*
X67513200Y-28174000D01*
X67767200Y-28174000D01*
X67767200Y-28194000D01*
X69016450Y-28194000D01*
X69175200Y-28035250D01*
X69177967Y-27482000D01*
X78876645Y-27482000D01*
X78823035Y-27658728D01*
X78802128Y-27871000D01*
X78802128Y-28771000D01*
X78823035Y-28983272D01*
X78884953Y-29187387D01*
X78985501Y-29375500D01*
X79120817Y-29540383D01*
X79285700Y-29675699D01*
X79434447Y-29755205D01*
X79472193Y-29879639D01*
X79559014Y-30042071D01*
X79675856Y-30184444D01*
X79711541Y-30213730D01*
X85632625Y-36134814D01*
X85435688Y-36154210D01*
X85146340Y-36241983D01*
X84879674Y-36384519D01*
X84645940Y-36576339D01*
X84492844Y-36762887D01*
X84336734Y-36572666D01*
X84110614Y-36387094D01*
X83852634Y-36249201D01*
X83572711Y-36164287D01*
X83281600Y-36135615D01*
X82990490Y-36164287D01*
X82710567Y-36249201D01*
X82452587Y-36387094D01*
X82226467Y-36572666D01*
X82040895Y-36798786D01*
X81903001Y-37056766D01*
X81818087Y-37336689D01*
X81796600Y-37554850D01*
X81796600Y-37618414D01*
X81795447Y-37614613D01*
X81694899Y-37426500D01*
X81559583Y-37261617D01*
X81394700Y-37126301D01*
X81206587Y-37025753D01*
X81002472Y-36963835D01*
X80790200Y-36942928D01*
X79890200Y-36942928D01*
X79677928Y-36963835D01*
X79473813Y-37025753D01*
X79285700Y-37126301D01*
X79120817Y-37261617D01*
X78985501Y-37426500D01*
X78884953Y-37614613D01*
X78823035Y-37818728D01*
X78802128Y-38031000D01*
X78802128Y-38931000D01*
X78823035Y-39143272D01*
X78884953Y-39347387D01*
X78985501Y-39535500D01*
X79120817Y-39700383D01*
X79285700Y-39835699D01*
X79473813Y-39936247D01*
X79677928Y-39998165D01*
X79890200Y-40019072D01*
X80019800Y-40019072D01*
X80019801Y-42302928D01*
X79954800Y-42302928D01*
X79830318Y-42315188D01*
X79710620Y-42351498D01*
X79600306Y-42410463D01*
X79503615Y-42489815D01*
X79424263Y-42586506D01*
X79365298Y-42696820D01*
X79328988Y-42816518D01*
X79316728Y-42941000D01*
X79316728Y-44318800D01*
X76563969Y-44318800D01*
X76583060Y-44313563D01*
X76697560Y-44069568D01*
X76786302Y-44106326D01*
X76986261Y-44146100D01*
X77190139Y-44146100D01*
X77390098Y-44106326D01*
X77578456Y-44028305D01*
X77747974Y-43915037D01*
X77892137Y-43770874D01*
X78005405Y-43601356D01*
X78083426Y-43412998D01*
X78123200Y-43213039D01*
X78123200Y-43009161D01*
X78083426Y-42809202D01*
X78005405Y-42620844D01*
X77892137Y-42451326D01*
X77747974Y-42307163D01*
X77578456Y-42193895D01*
X77433059Y-42133669D01*
X71724130Y-36424741D01*
X71694844Y-36389056D01*
X71552472Y-36272214D01*
X71390040Y-36185393D01*
X71213792Y-36131929D01*
X71076432Y-36118400D01*
X71030500Y-36113876D01*
X70984568Y-36118400D01*
X64805600Y-36118400D01*
X64805600Y-35520895D01*
X64862964Y-35413575D01*
X64900473Y-35323019D01*
X64936782Y-35203323D01*
X64955904Y-35107190D01*
X64968164Y-34982709D01*
X64968164Y-34958150D01*
X64970572Y-34933700D01*
X64970572Y-34433700D01*
X64968164Y-34409250D01*
X64968164Y-34384691D01*
X64955904Y-34260210D01*
X64936782Y-34164077D01*
X64900473Y-34044381D01*
X64862964Y-33953825D01*
X64803998Y-33843508D01*
X64749542Y-33762009D01*
X64670190Y-33665318D01*
X64600882Y-33596010D01*
X64504191Y-33516658D01*
X64422692Y-33462202D01*
X64312375Y-33403236D01*
X64221819Y-33365727D01*
X64102123Y-33329418D01*
X64005990Y-33310296D01*
X63881509Y-33298036D01*
X63856950Y-33298036D01*
X63832500Y-33295628D01*
X63332500Y-33295628D01*
X63208018Y-33307888D01*
X63182500Y-33315629D01*
X63156982Y-33307888D01*
X63032500Y-33295628D01*
X62532500Y-33295628D01*
X62508050Y-33298036D01*
X62483491Y-33298036D01*
X62359010Y-33310296D01*
X62262877Y-33329418D01*
X62143181Y-33365727D01*
X62052625Y-33403236D01*
X61942308Y-33462202D01*
X61860809Y-33516658D01*
X61764118Y-33596010D01*
X61694810Y-33665318D01*
X61615458Y-33762009D01*
X61561002Y-33843508D01*
X61502036Y-33953825D01*
X61464527Y-34044381D01*
X61428218Y-34164077D01*
X61409096Y-34260210D01*
X61396836Y-34384691D01*
X61396836Y-34409250D01*
X61394428Y-34433700D01*
X61394428Y-34499483D01*
X60889736Y-35004175D01*
X60854057Y-35033456D01*
X60819500Y-35075564D01*
X60819500Y-29815004D01*
X60866516Y-29335495D01*
X60996043Y-28906481D01*
X61206433Y-28510796D01*
X61489673Y-28163508D01*
X61834973Y-27877851D01*
X62229178Y-27664704D01*
X62657284Y-27532184D01*
X62849509Y-27511980D01*
X62532443Y-27575049D01*
X62126865Y-27743045D01*
X61761854Y-27986937D01*
X61451437Y-28297354D01*
X61207545Y-28662365D01*
X61039549Y-29067943D01*
X60953905Y-29498503D01*
X60953905Y-29937497D01*
X61039549Y-30368057D01*
X61207545Y-30773635D01*
X61451437Y-31138646D01*
X61761854Y-31449063D01*
X62126865Y-31692955D01*
X62532443Y-31860951D01*
X62963003Y-31946595D01*
X63401997Y-31946595D01*
X63832557Y-31860951D01*
X64238135Y-31692955D01*
X64603146Y-31449063D01*
X64913563Y-31138646D01*
X65157455Y-30773635D01*
X65325451Y-30368057D01*
X65411095Y-29937497D01*
X65411095Y-29498503D01*
X65355897Y-29221000D01*
X66102128Y-29221000D01*
X66114388Y-29345482D01*
X66150698Y-29465180D01*
X66209663Y-29575494D01*
X66289015Y-29672185D01*
X66385706Y-29751537D01*
X66496020Y-29810502D01*
X66615718Y-29846812D01*
X66740200Y-29859072D01*
X67354450Y-29856000D01*
X67513200Y-29697250D01*
X67513200Y-28448000D01*
X67767200Y-28448000D01*
X67767200Y-29697250D01*
X67925950Y-29856000D01*
X68540200Y-29859072D01*
X68664682Y-29846812D01*
X68784380Y-29810502D01*
X68894694Y-29751537D01*
X68991385Y-29672185D01*
X69070737Y-29575494D01*
X69129702Y-29465180D01*
X69166012Y-29345482D01*
X69178272Y-29221000D01*
X69175200Y-28606750D01*
X69016450Y-28448000D01*
X67767200Y-28448000D01*
X67513200Y-28448000D01*
X66263950Y-28448000D01*
X66105200Y-28606750D01*
X66102128Y-29221000D01*
X65355897Y-29221000D01*
X65325451Y-29067943D01*
X65157455Y-28662365D01*
X64913563Y-28297354D01*
X64603146Y-27986937D01*
X64238135Y-27743045D01*
X63832557Y-27575049D01*
X63401997Y-27489405D01*
X63064299Y-27489405D01*
X63134753Y-27482000D01*
X66102433Y-27482000D01*
X66105200Y-28035250D01*
G37*
%TD.AperFunction*%
D27*
X66105200Y-38195250D02*
X66263950Y-38354000D01*
X67513200Y-38354000D01*
X67513200Y-38334000D01*
X67767200Y-38334000D01*
X67767200Y-38354000D01*
X69016450Y-38354000D01*
X69175200Y-38195250D01*
X69176235Y-37988400D01*
X70643211Y-37988400D01*
X74944011Y-42289201D01*
X74788368Y-42345423D01*
X74675337Y-42405840D01*
X74609812Y-42644707D01*
X75387200Y-43422095D01*
X75401343Y-43407953D01*
X75580948Y-43587558D01*
X75566805Y-43601700D01*
X75580948Y-43615843D01*
X75401343Y-43795448D01*
X75387200Y-43781305D01*
X75373058Y-43795448D01*
X75193453Y-43615843D01*
X75207595Y-43601700D01*
X74430207Y-42824312D01*
X74191340Y-42889837D01*
X74075440Y-43136816D01*
X74009950Y-43401660D01*
X73997388Y-43674192D01*
X74038235Y-43943938D01*
X74130923Y-44200532D01*
X74191340Y-44313563D01*
X74210431Y-44318800D01*
X69083472Y-44318800D01*
X69083472Y-43405200D01*
X69066408Y-43231946D01*
X69015872Y-43065350D01*
X68933805Y-42911814D01*
X68823362Y-42777238D01*
X68688786Y-42666795D01*
X68535250Y-42584728D01*
X68368654Y-42534192D01*
X68195400Y-42517128D01*
X66785718Y-42517128D01*
X64439610Y-40171020D01*
X64460792Y-40159698D01*
X64542291Y-40105242D01*
X64638982Y-40025890D01*
X64708290Y-39956582D01*
X64787642Y-39859891D01*
X64842098Y-39778392D01*
X64901064Y-39668075D01*
X64938573Y-39577519D01*
X64974882Y-39457823D01*
X64990163Y-39381000D01*
X66102128Y-39381000D01*
X66114388Y-39505482D01*
X66150698Y-39625180D01*
X66209663Y-39735494D01*
X66289015Y-39832185D01*
X66385706Y-39911537D01*
X66496020Y-39970502D01*
X66615718Y-40006812D01*
X66740200Y-40019072D01*
X67354450Y-40016000D01*
X67513200Y-39857250D01*
X67513200Y-38608000D01*
X67767200Y-38608000D01*
X67767200Y-39857250D01*
X67925950Y-40016000D01*
X68540200Y-40019072D01*
X68664682Y-40006812D01*
X68784380Y-39970502D01*
X68894694Y-39911537D01*
X68991385Y-39832185D01*
X69070737Y-39735494D01*
X69129702Y-39625180D01*
X69166012Y-39505482D01*
X69178272Y-39381000D01*
X69175200Y-38766750D01*
X69016450Y-38608000D01*
X67767200Y-38608000D01*
X67513200Y-38608000D01*
X66263950Y-38608000D01*
X66105200Y-38766750D01*
X66102128Y-39381000D01*
X64990163Y-39381000D01*
X64994004Y-39361690D01*
X65006264Y-39237209D01*
X65006264Y-39212650D01*
X65008672Y-39188200D01*
X65008672Y-38688200D01*
X65006264Y-38663750D01*
X65006264Y-38639191D01*
X64994004Y-38514710D01*
X64974882Y-38418577D01*
X64938573Y-38298881D01*
X64901064Y-38208325D01*
X64842098Y-38098008D01*
X64805600Y-38043385D01*
X64805600Y-37988400D01*
X66104165Y-37988400D01*
X66105200Y-38195250D01*
%TA.AperFunction,Conductor*%
D28*
G36*
X66105200Y-38195250D02*
G01*
X66263950Y-38354000D01*
X67513200Y-38354000D01*
X67513200Y-38334000D01*
X67767200Y-38334000D01*
X67767200Y-38354000D01*
X69016450Y-38354000D01*
X69175200Y-38195250D01*
X69176235Y-37988400D01*
X70643211Y-37988400D01*
X74944011Y-42289201D01*
X74788368Y-42345423D01*
X74675337Y-42405840D01*
X74609812Y-42644707D01*
X75387200Y-43422095D01*
X75401343Y-43407953D01*
X75580948Y-43587558D01*
X75566805Y-43601700D01*
X75580948Y-43615843D01*
X75401343Y-43795448D01*
X75387200Y-43781305D01*
X75373058Y-43795448D01*
X75193453Y-43615843D01*
X75207595Y-43601700D01*
X74430207Y-42824312D01*
X74191340Y-42889837D01*
X74075440Y-43136816D01*
X74009950Y-43401660D01*
X73997388Y-43674192D01*
X74038235Y-43943938D01*
X74130923Y-44200532D01*
X74191340Y-44313563D01*
X74210431Y-44318800D01*
X69083472Y-44318800D01*
X69083472Y-43405200D01*
X69066408Y-43231946D01*
X69015872Y-43065350D01*
X68933805Y-42911814D01*
X68823362Y-42777238D01*
X68688786Y-42666795D01*
X68535250Y-42584728D01*
X68368654Y-42534192D01*
X68195400Y-42517128D01*
X66785718Y-42517128D01*
X64439610Y-40171020D01*
X64460792Y-40159698D01*
X64542291Y-40105242D01*
X64638982Y-40025890D01*
X64708290Y-39956582D01*
X64787642Y-39859891D01*
X64842098Y-39778392D01*
X64901064Y-39668075D01*
X64938573Y-39577519D01*
X64974882Y-39457823D01*
X64990163Y-39381000D01*
X66102128Y-39381000D01*
X66114388Y-39505482D01*
X66150698Y-39625180D01*
X66209663Y-39735494D01*
X66289015Y-39832185D01*
X66385706Y-39911537D01*
X66496020Y-39970502D01*
X66615718Y-40006812D01*
X66740200Y-40019072D01*
X67354450Y-40016000D01*
X67513200Y-39857250D01*
X67513200Y-38608000D01*
X67767200Y-38608000D01*
X67767200Y-39857250D01*
X67925950Y-40016000D01*
X68540200Y-40019072D01*
X68664682Y-40006812D01*
X68784380Y-39970502D01*
X68894694Y-39911537D01*
X68991385Y-39832185D01*
X69070737Y-39735494D01*
X69129702Y-39625180D01*
X69166012Y-39505482D01*
X69178272Y-39381000D01*
X69175200Y-38766750D01*
X69016450Y-38608000D01*
X67767200Y-38608000D01*
X67513200Y-38608000D01*
X66263950Y-38608000D01*
X66105200Y-38766750D01*
X66102128Y-39381000D01*
X64990163Y-39381000D01*
X64994004Y-39361690D01*
X65006264Y-39237209D01*
X65006264Y-39212650D01*
X65008672Y-39188200D01*
X65008672Y-38688200D01*
X65006264Y-38663750D01*
X65006264Y-38639191D01*
X64994004Y-38514710D01*
X64974882Y-38418577D01*
X64938573Y-38298881D01*
X64901064Y-38208325D01*
X64842098Y-38098008D01*
X64805600Y-38043385D01*
X64805600Y-37988400D01*
X66104165Y-37988400D01*
X66105200Y-38195250D01*
G37*
%TD.AperFunction*%
D27*
X117796348Y-38466858D02*
X117782205Y-38481000D01*
X117796348Y-38495143D01*
X117616743Y-38674748D01*
X117602600Y-38660605D01*
X117588458Y-38674748D01*
X117408853Y-38495143D01*
X117422995Y-38481000D01*
X117408853Y-38466858D01*
X117588458Y-38287253D01*
X117602600Y-38301395D01*
X117616743Y-38287253D01*
X117796348Y-38466858D01*
%TA.AperFunction,Conductor*%
D28*
G36*
X117796348Y-38466858D02*
G01*
X117782205Y-38481000D01*
X117796348Y-38495143D01*
X117616743Y-38674748D01*
X117602600Y-38660605D01*
X117588458Y-38674748D01*
X117408853Y-38495143D01*
X117422995Y-38481000D01*
X117408853Y-38466858D01*
X117588458Y-38287253D01*
X117602600Y-38301395D01*
X117616743Y-38287253D01*
X117796348Y-38466858D01*
G37*
%TD.AperFunction*%
D27*
X94899010Y-27617589D02*
X94787068Y-27887842D01*
X94730000Y-28174740D01*
X94730000Y-28467260D01*
X94787068Y-28754158D01*
X94899010Y-29024411D01*
X95061525Y-29267632D01*
X95268368Y-29474475D01*
X95441729Y-29590311D01*
X95366208Y-29832603D01*
X96215000Y-30681395D01*
X97063792Y-29832603D01*
X96988271Y-29590311D01*
X97161632Y-29474475D01*
X97368475Y-29267632D01*
X97530990Y-29024411D01*
X97642932Y-28754158D01*
X97700000Y-28467260D01*
X97700000Y-28174740D01*
X97642932Y-27887842D01*
X97530990Y-27617589D01*
X97440392Y-27482000D01*
X112769608Y-27482000D01*
X112679010Y-27617589D01*
X112567068Y-27887842D01*
X112510000Y-28174740D01*
X112510000Y-28467260D01*
X112567068Y-28754158D01*
X112679010Y-29024411D01*
X112841525Y-29267632D01*
X113048368Y-29474475D01*
X113221729Y-29590311D01*
X113146208Y-29832603D01*
X113995000Y-30681395D01*
X114843792Y-29832603D01*
X114768271Y-29590311D01*
X114941632Y-29474475D01*
X115148475Y-29267632D01*
X115156247Y-29256000D01*
X115964711Y-29256000D01*
X115506336Y-29714375D01*
X115470657Y-29743656D01*
X115353815Y-29886028D01*
X115303861Y-29979487D01*
X115266994Y-30048460D01*
X115255998Y-30084708D01*
X115023397Y-30012208D01*
X114174605Y-30861000D01*
X114188748Y-30875143D01*
X114009143Y-31054748D01*
X113995000Y-31040605D01*
X113146208Y-31889397D01*
X113221729Y-32131689D01*
X113048368Y-32247525D01*
X112841525Y-32454368D01*
X112679010Y-32697589D01*
X112567068Y-32967842D01*
X112510000Y-33254740D01*
X112510000Y-33547260D01*
X112567068Y-33834158D01*
X112679010Y-34104411D01*
X112841525Y-34347632D01*
X113048368Y-34554475D01*
X113222760Y-34671000D01*
X113048368Y-34787525D01*
X112841525Y-34994368D01*
X112757628Y-35119929D01*
X112751978Y-35110445D01*
X112557069Y-34894212D01*
X112323720Y-34720159D01*
X112060899Y-34594975D01*
X111913690Y-34550324D01*
X111683800Y-34671645D01*
X111683800Y-35864800D01*
X111703800Y-35864800D01*
X111703800Y-36118800D01*
X111683800Y-36118800D01*
X111683800Y-36138800D01*
X111429800Y-36138800D01*
X111429800Y-36118800D01*
X111409800Y-36118800D01*
X111409800Y-35864800D01*
X111429800Y-35864800D01*
X111429800Y-34671645D01*
X111199910Y-34550324D01*
X111052701Y-34594975D01*
X110789880Y-34720159D01*
X110556531Y-34894212D01*
X110361622Y-35110445D01*
X110291995Y-35227334D01*
X110170275Y-35045168D01*
X109963432Y-34838325D01*
X109720211Y-34675810D01*
X109449958Y-34563868D01*
X109163060Y-34506800D01*
X108870540Y-34506800D01*
X108583642Y-34563868D01*
X108313389Y-34675810D01*
X108070168Y-34838325D01*
X107863325Y-35045168D01*
X107746800Y-35219560D01*
X107630275Y-35045168D01*
X107423432Y-34838325D01*
X107180211Y-34675810D01*
X106909958Y-34563868D01*
X106623060Y-34506800D01*
X106330540Y-34506800D01*
X106043642Y-34563868D01*
X105773389Y-34675810D01*
X105530168Y-34838325D01*
X105323325Y-35045168D01*
X105206800Y-35219560D01*
X105090275Y-35045168D01*
X104883432Y-34838325D01*
X104640211Y-34675810D01*
X104369958Y-34563868D01*
X104083060Y-34506800D01*
X103790540Y-34506800D01*
X103503642Y-34563868D01*
X103233389Y-34675810D01*
X102990168Y-34838325D01*
X102783325Y-35045168D01*
X102666800Y-35219560D01*
X102550275Y-35045168D01*
X102343432Y-34838325D01*
X102100211Y-34675810D01*
X101829958Y-34563868D01*
X101543060Y-34506800D01*
X101250540Y-34506800D01*
X100963642Y-34563868D01*
X100693389Y-34675810D01*
X100450168Y-34838325D01*
X100318313Y-34970180D01*
X100296302Y-34897620D01*
X100237337Y-34787306D01*
X100157985Y-34690615D01*
X100061294Y-34611263D01*
X99950980Y-34552298D01*
X99831282Y-34515988D01*
X99706800Y-34503728D01*
X98006800Y-34503728D01*
X97882318Y-34515988D01*
X97762620Y-34552298D01*
X97652306Y-34611263D01*
X97555615Y-34690615D01*
X97476263Y-34787306D01*
X97417298Y-34897620D01*
X97381869Y-35014414D01*
X97368475Y-34994368D01*
X97161632Y-34787525D01*
X96987240Y-34671000D01*
X97161632Y-34554475D01*
X97368475Y-34347632D01*
X97530990Y-34104411D01*
X97642932Y-33834158D01*
X97700000Y-33547260D01*
X97700000Y-33254740D01*
X97642932Y-32967842D01*
X97530990Y-32697589D01*
X97368475Y-32454368D01*
X97161632Y-32247525D01*
X96988271Y-32131689D01*
X97063792Y-31889397D01*
X96215000Y-31040605D01*
X95366208Y-31889397D01*
X95441729Y-32131689D01*
X95268368Y-32247525D01*
X95061525Y-32454368D01*
X94899010Y-32697589D01*
X94787068Y-32967842D01*
X94730000Y-33254740D01*
X94730000Y-33547260D01*
X94787068Y-33834158D01*
X94899010Y-34104411D01*
X95061525Y-34347632D01*
X95268368Y-34554475D01*
X95442760Y-34671000D01*
X95268368Y-34787525D01*
X95061525Y-34994368D01*
X94899010Y-35237589D01*
X94787068Y-35507842D01*
X94730000Y-35794740D01*
X94730000Y-36087260D01*
X94787068Y-36374158D01*
X94846235Y-36517000D01*
X94478922Y-36517000D01*
X94448402Y-36513994D01*
X94280614Y-36376294D01*
X94022634Y-36238401D01*
X93742711Y-36153487D01*
X93451600Y-36124815D01*
X93160490Y-36153487D01*
X92880567Y-36238401D01*
X92622587Y-36376294D01*
X92396467Y-36561866D01*
X92235925Y-36757487D01*
X92087261Y-36576339D01*
X91853527Y-36384519D01*
X91586861Y-36241983D01*
X91297513Y-36154210D01*
X90996600Y-36124573D01*
X90695688Y-36154210D01*
X90406340Y-36241983D01*
X90139674Y-36384519D01*
X89905940Y-36576339D01*
X89714120Y-36810073D01*
X89571583Y-37076739D01*
X89489551Y-37347162D01*
X87445995Y-35303606D01*
X88080850Y-35302000D01*
X88239600Y-35143250D01*
X88239600Y-33294000D01*
X88493600Y-33294000D01*
X88493600Y-35143250D01*
X88652350Y-35302000D01*
X89866600Y-35305072D01*
X89991082Y-35292812D01*
X90110780Y-35256502D01*
X90221094Y-35197537D01*
X90317785Y-35118185D01*
X90397137Y-35021494D01*
X90456102Y-34911180D01*
X90492412Y-34791482D01*
X90504672Y-34667000D01*
X90501600Y-33452750D01*
X90342850Y-33294000D01*
X88493600Y-33294000D01*
X88239600Y-33294000D01*
X86390350Y-33294000D01*
X86231600Y-33452750D01*
X86229994Y-34087605D01*
X83809389Y-31667000D01*
X86228528Y-31667000D01*
X86231600Y-32881250D01*
X86390350Y-33040000D01*
X88239600Y-33040000D01*
X88239600Y-31190750D01*
X88493600Y-31190750D01*
X88493600Y-33040000D01*
X90342850Y-33040000D01*
X90501600Y-32881250D01*
X90504672Y-31667000D01*
X90492412Y-31542518D01*
X90456102Y-31422820D01*
X90397137Y-31312506D01*
X90317785Y-31215815D01*
X90221094Y-31136463D01*
X90110780Y-31077498D01*
X89991082Y-31041188D01*
X89866600Y-31028928D01*
X88652350Y-31032000D01*
X88493600Y-31190750D01*
X88239600Y-31190750D01*
X88080850Y-31032000D01*
X86866600Y-31028928D01*
X86742118Y-31041188D01*
X86622420Y-31077498D01*
X86512106Y-31136463D01*
X86415415Y-31215815D01*
X86336063Y-31312506D01*
X86277098Y-31422820D01*
X86240788Y-31542518D01*
X86228528Y-31667000D01*
X83809389Y-31667000D01*
X83071920Y-30929531D01*
X94724389Y-30929531D01*
X94766401Y-31219019D01*
X94864081Y-31494747D01*
X94937528Y-31632157D01*
X95186603Y-31709792D01*
X96035395Y-30861000D01*
X96394605Y-30861000D01*
X97243397Y-31709792D01*
X97492472Y-31632157D01*
X97618371Y-31368117D01*
X97690339Y-31084589D01*
X97698445Y-30929531D01*
X112504389Y-30929531D01*
X112546401Y-31219019D01*
X112644081Y-31494747D01*
X112717528Y-31632157D01*
X112966603Y-31709792D01*
X113815395Y-30861000D01*
X112966603Y-30012208D01*
X112717528Y-30089843D01*
X112591629Y-30353883D01*
X112519661Y-30637411D01*
X112504389Y-30929531D01*
X97698445Y-30929531D01*
X97705611Y-30792469D01*
X97663599Y-30502981D01*
X97565919Y-30227253D01*
X97492472Y-30089843D01*
X97243397Y-30012208D01*
X96394605Y-30861000D01*
X96035395Y-30861000D01*
X95186603Y-30012208D01*
X94937528Y-30089843D01*
X94811629Y-30353883D01*
X94739661Y-30637411D01*
X94724389Y-30929531D01*
X83071920Y-30929531D01*
X81615111Y-29472722D01*
X81694899Y-29375500D01*
X81795447Y-29187387D01*
X81857365Y-28983272D01*
X81878272Y-28771000D01*
X81878272Y-27871000D01*
X81857365Y-27658728D01*
X81803755Y-27482000D01*
X94989608Y-27482000D01*
X94899010Y-27617589D01*
%TA.AperFunction,Conductor*%
D28*
G36*
X94899010Y-27617589D02*
G01*
X94787068Y-27887842D01*
X94730000Y-28174740D01*
X94730000Y-28467260D01*
X94787068Y-28754158D01*
X94899010Y-29024411D01*
X95061525Y-29267632D01*
X95268368Y-29474475D01*
X95441729Y-29590311D01*
X95366208Y-29832603D01*
X96215000Y-30681395D01*
X97063792Y-29832603D01*
X96988271Y-29590311D01*
X97161632Y-29474475D01*
X97368475Y-29267632D01*
X97530990Y-29024411D01*
X97642932Y-28754158D01*
X97700000Y-28467260D01*
X97700000Y-28174740D01*
X97642932Y-27887842D01*
X97530990Y-27617589D01*
X97440392Y-27482000D01*
X112769608Y-27482000D01*
X112679010Y-27617589D01*
X112567068Y-27887842D01*
X112510000Y-28174740D01*
X112510000Y-28467260D01*
X112567068Y-28754158D01*
X112679010Y-29024411D01*
X112841525Y-29267632D01*
X113048368Y-29474475D01*
X113221729Y-29590311D01*
X113146208Y-29832603D01*
X113995000Y-30681395D01*
X114843792Y-29832603D01*
X114768271Y-29590311D01*
X114941632Y-29474475D01*
X115148475Y-29267632D01*
X115156247Y-29256000D01*
X115964711Y-29256000D01*
X115506336Y-29714375D01*
X115470657Y-29743656D01*
X115353815Y-29886028D01*
X115303861Y-29979487D01*
X115266994Y-30048460D01*
X115255998Y-30084708D01*
X115023397Y-30012208D01*
X114174605Y-30861000D01*
X114188748Y-30875143D01*
X114009143Y-31054748D01*
X113995000Y-31040605D01*
X113146208Y-31889397D01*
X113221729Y-32131689D01*
X113048368Y-32247525D01*
X112841525Y-32454368D01*
X112679010Y-32697589D01*
X112567068Y-32967842D01*
X112510000Y-33254740D01*
X112510000Y-33547260D01*
X112567068Y-33834158D01*
X112679010Y-34104411D01*
X112841525Y-34347632D01*
X113048368Y-34554475D01*
X113222760Y-34671000D01*
X113048368Y-34787525D01*
X112841525Y-34994368D01*
X112757628Y-35119929D01*
X112751978Y-35110445D01*
X112557069Y-34894212D01*
X112323720Y-34720159D01*
X112060899Y-34594975D01*
X111913690Y-34550324D01*
X111683800Y-34671645D01*
X111683800Y-35864800D01*
X111703800Y-35864800D01*
X111703800Y-36118800D01*
X111683800Y-36118800D01*
X111683800Y-36138800D01*
X111429800Y-36138800D01*
X111429800Y-36118800D01*
X111409800Y-36118800D01*
X111409800Y-35864800D01*
X111429800Y-35864800D01*
X111429800Y-34671645D01*
X111199910Y-34550324D01*
X111052701Y-34594975D01*
X110789880Y-34720159D01*
X110556531Y-34894212D01*
X110361622Y-35110445D01*
X110291995Y-35227334D01*
X110170275Y-35045168D01*
X109963432Y-34838325D01*
X109720211Y-34675810D01*
X109449958Y-34563868D01*
X109163060Y-34506800D01*
X108870540Y-34506800D01*
X108583642Y-34563868D01*
X108313389Y-34675810D01*
X108070168Y-34838325D01*
X107863325Y-35045168D01*
X107746800Y-35219560D01*
X107630275Y-35045168D01*
X107423432Y-34838325D01*
X107180211Y-34675810D01*
X106909958Y-34563868D01*
X106623060Y-34506800D01*
X106330540Y-34506800D01*
X106043642Y-34563868D01*
X105773389Y-34675810D01*
X105530168Y-34838325D01*
X105323325Y-35045168D01*
X105206800Y-35219560D01*
X105090275Y-35045168D01*
X104883432Y-34838325D01*
X104640211Y-34675810D01*
X104369958Y-34563868D01*
X104083060Y-34506800D01*
X103790540Y-34506800D01*
X103503642Y-34563868D01*
X103233389Y-34675810D01*
X102990168Y-34838325D01*
X102783325Y-35045168D01*
X102666800Y-35219560D01*
X102550275Y-35045168D01*
X102343432Y-34838325D01*
X102100211Y-34675810D01*
X101829958Y-34563868D01*
X101543060Y-34506800D01*
X101250540Y-34506800D01*
X100963642Y-34563868D01*
X100693389Y-34675810D01*
X100450168Y-34838325D01*
X100318313Y-34970180D01*
X100296302Y-34897620D01*
X100237337Y-34787306D01*
X100157985Y-34690615D01*
X100061294Y-34611263D01*
X99950980Y-34552298D01*
X99831282Y-34515988D01*
X99706800Y-34503728D01*
X98006800Y-34503728D01*
X97882318Y-34515988D01*
X97762620Y-34552298D01*
X97652306Y-34611263D01*
X97555615Y-34690615D01*
X97476263Y-34787306D01*
X97417298Y-34897620D01*
X97381869Y-35014414D01*
X97368475Y-34994368D01*
X97161632Y-34787525D01*
X96987240Y-34671000D01*
X97161632Y-34554475D01*
X97368475Y-34347632D01*
X97530990Y-34104411D01*
X97642932Y-33834158D01*
X97700000Y-33547260D01*
X97700000Y-33254740D01*
X97642932Y-32967842D01*
X97530990Y-32697589D01*
X97368475Y-32454368D01*
X97161632Y-32247525D01*
X96988271Y-32131689D01*
X97063792Y-31889397D01*
X96215000Y-31040605D01*
X95366208Y-31889397D01*
X95441729Y-32131689D01*
X95268368Y-32247525D01*
X95061525Y-32454368D01*
X94899010Y-32697589D01*
X94787068Y-32967842D01*
X94730000Y-33254740D01*
X94730000Y-33547260D01*
X94787068Y-33834158D01*
X94899010Y-34104411D01*
X95061525Y-34347632D01*
X95268368Y-34554475D01*
X95442760Y-34671000D01*
X95268368Y-34787525D01*
X95061525Y-34994368D01*
X94899010Y-35237589D01*
X94787068Y-35507842D01*
X94730000Y-35794740D01*
X94730000Y-36087260D01*
X94787068Y-36374158D01*
X94846235Y-36517000D01*
X94478922Y-36517000D01*
X94448402Y-36513994D01*
X94280614Y-36376294D01*
X94022634Y-36238401D01*
X93742711Y-36153487D01*
X93451600Y-36124815D01*
X93160490Y-36153487D01*
X92880567Y-36238401D01*
X92622587Y-36376294D01*
X92396467Y-36561866D01*
X92235925Y-36757487D01*
X92087261Y-36576339D01*
X91853527Y-36384519D01*
X91586861Y-36241983D01*
X91297513Y-36154210D01*
X90996600Y-36124573D01*
X90695688Y-36154210D01*
X90406340Y-36241983D01*
X90139674Y-36384519D01*
X89905940Y-36576339D01*
X89714120Y-36810073D01*
X89571583Y-37076739D01*
X89489551Y-37347162D01*
X87445995Y-35303606D01*
X88080850Y-35302000D01*
X88239600Y-35143250D01*
X88239600Y-33294000D01*
X88493600Y-33294000D01*
X88493600Y-35143250D01*
X88652350Y-35302000D01*
X89866600Y-35305072D01*
X89991082Y-35292812D01*
X90110780Y-35256502D01*
X90221094Y-35197537D01*
X90317785Y-35118185D01*
X90397137Y-35021494D01*
X90456102Y-34911180D01*
X90492412Y-34791482D01*
X90504672Y-34667000D01*
X90501600Y-33452750D01*
X90342850Y-33294000D01*
X88493600Y-33294000D01*
X88239600Y-33294000D01*
X86390350Y-33294000D01*
X86231600Y-33452750D01*
X86229994Y-34087605D01*
X83809389Y-31667000D01*
X86228528Y-31667000D01*
X86231600Y-32881250D01*
X86390350Y-33040000D01*
X88239600Y-33040000D01*
X88239600Y-31190750D01*
X88493600Y-31190750D01*
X88493600Y-33040000D01*
X90342850Y-33040000D01*
X90501600Y-32881250D01*
X90504672Y-31667000D01*
X90492412Y-31542518D01*
X90456102Y-31422820D01*
X90397137Y-31312506D01*
X90317785Y-31215815D01*
X90221094Y-31136463D01*
X90110780Y-31077498D01*
X89991082Y-31041188D01*
X89866600Y-31028928D01*
X88652350Y-31032000D01*
X88493600Y-31190750D01*
X88239600Y-31190750D01*
X88080850Y-31032000D01*
X86866600Y-31028928D01*
X86742118Y-31041188D01*
X86622420Y-31077498D01*
X86512106Y-31136463D01*
X86415415Y-31215815D01*
X86336063Y-31312506D01*
X86277098Y-31422820D01*
X86240788Y-31542518D01*
X86228528Y-31667000D01*
X83809389Y-31667000D01*
X83071920Y-30929531D01*
X94724389Y-30929531D01*
X94766401Y-31219019D01*
X94864081Y-31494747D01*
X94937528Y-31632157D01*
X95186603Y-31709792D01*
X96035395Y-30861000D01*
X96394605Y-30861000D01*
X97243397Y-31709792D01*
X97492472Y-31632157D01*
X97618371Y-31368117D01*
X97690339Y-31084589D01*
X97698445Y-30929531D01*
X112504389Y-30929531D01*
X112546401Y-31219019D01*
X112644081Y-31494747D01*
X112717528Y-31632157D01*
X112966603Y-31709792D01*
X113815395Y-30861000D01*
X112966603Y-30012208D01*
X112717528Y-30089843D01*
X112591629Y-30353883D01*
X112519661Y-30637411D01*
X112504389Y-30929531D01*
X97698445Y-30929531D01*
X97705611Y-30792469D01*
X97663599Y-30502981D01*
X97565919Y-30227253D01*
X97492472Y-30089843D01*
X97243397Y-30012208D01*
X96394605Y-30861000D01*
X96035395Y-30861000D01*
X95186603Y-30012208D01*
X94937528Y-30089843D01*
X94811629Y-30353883D01*
X94739661Y-30637411D01*
X94724389Y-30929531D01*
X83071920Y-30929531D01*
X81615111Y-29472722D01*
X81694899Y-29375500D01*
X81795447Y-29187387D01*
X81857365Y-28983272D01*
X81878272Y-28771000D01*
X81878272Y-27871000D01*
X81857365Y-27658728D01*
X81803755Y-27482000D01*
X94989608Y-27482000D01*
X94899010Y-27617589D01*
G37*
%TD.AperFunction*%
D27*
X117796348Y-35926858D02*
X117782205Y-35941000D01*
X117796348Y-35955143D01*
X117616743Y-36134748D01*
X117602600Y-36120605D01*
X117588458Y-36134748D01*
X117408853Y-35955143D01*
X117422995Y-35941000D01*
X117408853Y-35926858D01*
X117588458Y-35747253D01*
X117602600Y-35761395D01*
X117616743Y-35747253D01*
X117796348Y-35926858D01*
%TA.AperFunction,Conductor*%
D28*
G36*
X117796348Y-35926858D02*
G01*
X117782205Y-35941000D01*
X117796348Y-35955143D01*
X117616743Y-36134748D01*
X117602600Y-36120605D01*
X117588458Y-36134748D01*
X117408853Y-35955143D01*
X117422995Y-35941000D01*
X117408853Y-35926858D01*
X117588458Y-35747253D01*
X117602600Y-35761395D01*
X117616743Y-35747253D01*
X117796348Y-35926858D01*
G37*
%TD.AperFunction*%
%TD*%
M02*
