%TF.GenerationSoftware,KiCad,Pcbnew,5.1.10*%
%TF.CreationDate,2021-06-02T17:16:58+08:00*%
%TF.ProjectId,HappyAAC-Type-A,48617070-7941-4414-932d-547970652d41,2c*%
%TF.SameCoordinates,Original*%
%TF.FileFunction,Copper,L1,Top*%
%TF.FilePolarity,Positive*%
%FSLAX46Y46*%
G04 Gerber Fmt 4.6, Leading zero omitted, Abs format (unit mm)*
G04 Created by KiCad (PCBNEW 5.1.10) date 2021-06-02 17:16:58*
%MOMM*%
%LPD*%
G01*
G04 APERTURE LIST*
%TA.AperFunction,EtchedComponent*%
%ADD10C,0.100000*%
%TD*%
%TA.AperFunction,ComponentPad*%
%ADD11C,1.700000*%
%TD*%
%TA.AperFunction,ComponentPad*%
%ADD12R,1.700000X1.700000*%
%TD*%
%TA.AperFunction,ComponentPad*%
%ADD13O,1.700000X1.700000*%
%TD*%
%TA.AperFunction,ComponentPad*%
%ADD14R,1.800000X1.800000*%
%TD*%
%TA.AperFunction,ComponentPad*%
%ADD15O,1.700000X3.000000*%
%TD*%
%TA.AperFunction,ComponentPad*%
%ADD16O,1.800000X3.000000*%
%TD*%
%TA.AperFunction,ComponentPad*%
%ADD17C,1.500000*%
%TD*%
%TA.AperFunction,ComponentPad*%
%ADD18R,1.500000X1.500000*%
%TD*%
%TA.AperFunction,ComponentPad*%
%ADD19O,1.950000X1.700000*%
%TD*%
%TA.AperFunction,ComponentPad*%
%ADD20O,2.000000X1.700000*%
%TD*%
%TA.AperFunction,ComponentPad*%
%ADD21C,1.600000*%
%TD*%
%TA.AperFunction,SMDPad,CuDef*%
%ADD22R,2.000000X1.800000*%
%TD*%
%TA.AperFunction,SMDPad,CuDef*%
%ADD23C,0.100000*%
%TD*%
%TA.AperFunction,ViaPad*%
%ADD24C,0.800000*%
%TD*%
%TA.AperFunction,Conductor*%
%ADD25C,0.600000*%
%TD*%
%TA.AperFunction,Conductor*%
%ADD26C,0.250000*%
%TD*%
%TA.AperFunction,Conductor*%
%ADD27C,0.254000*%
%TD*%
%TA.AperFunction,Conductor*%
%ADD28C,0.100000*%
%TD*%
G04 APERTURE END LIST*
D10*
%TO.C,JP1*%
G36*
X63432500Y-34383700D02*
G01*
X62932500Y-34383700D01*
X62932500Y-34983700D01*
X63432500Y-34983700D01*
X63432500Y-34383700D01*
G37*
%TO.C,JP4*%
G36*
X86057400Y-53153500D02*
G01*
X86057400Y-53653500D01*
X86657400Y-53653500D01*
X86657400Y-53153500D01*
X86057400Y-53153500D01*
G37*
%TD*%
D11*
%TO.P,U3,11*%
%TO.N,/D8*%
X117602600Y-56261000D03*
%TO.P,U3,12*%
%TO.N,/D9*%
X117602600Y-58801000D03*
%TO.P,U3,9*%
%TO.N,/COL2*%
X117602600Y-51181000D03*
%TO.P,U3,10*%
%TO.N,/D7*%
X117602600Y-53721000D03*
%TO.P,U3,16*%
%TO.N,/COL8*%
X132842600Y-51181000D03*
%TO.P,U3,14*%
%TO.N,/COL7*%
X132842600Y-56261000D03*
%TO.P,U3,13*%
%TO.N,/COL3*%
X132842600Y-58801000D03*
%TO.P,U3,15*%
%TO.N,/COL5*%
X132842600Y-53721000D03*
%TO.P,U3,1*%
%TO.N,/D1*%
X117602600Y-30861000D03*
%TO.P,U3,2*%
%TO.N,/D0*%
X117602600Y-33401000D03*
%TO.P,U3,3*%
%TO.N,GND*%
X117602600Y-35941000D03*
%TO.P,U3,4*%
X117602600Y-38481000D03*
%TO.P,U3,5*%
%TO.N,/D2*%
X117602600Y-41021000D03*
%TO.P,U3,6*%
%TO.N,/D3*%
X117602600Y-43561000D03*
%TO.P,U3,7*%
%TO.N,/COL1*%
X117602600Y-46101000D03*
%TO.P,U3,8*%
%TO.N,/D5*%
X117602600Y-48641000D03*
%TO.P,U3,17*%
%TO.N,/A0*%
X132842600Y-48641000D03*
%TO.P,U3,18*%
%TO.N,/A1*%
X132842600Y-46101000D03*
%TO.P,U3,19*%
%TO.N,/A2*%
X132842600Y-43561000D03*
%TO.P,U3,20*%
%TO.N,/A3*%
X132842600Y-41021000D03*
D12*
%TO.P,U3,21*%
%TO.N,VDD*%
X132842600Y-38481000D03*
D11*
%TO.P,U3,22*%
%TO.N,/LCD_RST*%
X132842600Y-35941000D03*
%TO.P,U3,23*%
%TO.N,GND*%
X132842600Y-33401000D03*
D12*
%TO.P,U3,24*%
%TO.N,N/C*%
X132842600Y-30861000D03*
%TD*%
D13*
%TO.P,J11,6*%
%TO.N,GND*%
X111556800Y-35991800D03*
%TO.P,J11,5*%
%TO.N,/LCD_RST*%
X109016800Y-35991800D03*
%TO.P,J11,4*%
%TO.N,/COL7*%
X106476800Y-35991800D03*
%TO.P,J11,3*%
%TO.N,/COL8*%
X103936800Y-35991800D03*
%TO.P,J11,2*%
%TO.N,VDD*%
X101396800Y-35991800D03*
D12*
%TO.P,J11,1*%
%TO.N,/COL5*%
X98856800Y-35991800D03*
%TD*%
%TO.P,U2,4*%
%TO.N,+5V*%
%TA.AperFunction,ComponentPad*%
G36*
G01*
X79440200Y-28771000D02*
X79440200Y-27871000D01*
G75*
G02*
X79890200Y-27421000I450000J0D01*
G01*
X80790200Y-27421000D01*
G75*
G02*
X81240200Y-27871000I0J-450000D01*
G01*
X81240200Y-28771000D01*
G75*
G02*
X80790200Y-29221000I-450000J0D01*
G01*
X79890200Y-29221000D01*
G75*
G02*
X79440200Y-28771000I0J450000D01*
G01*
G37*
%TD.AperFunction*%
%TO.P,U2,3*%
%TO.N,+BATT*%
%TA.AperFunction,ComponentPad*%
G36*
G01*
X79440200Y-38931000D02*
X79440200Y-38031000D01*
G75*
G02*
X79890200Y-37581000I450000J0D01*
G01*
X80790200Y-37581000D01*
G75*
G02*
X81240200Y-38031000I0J-450000D01*
G01*
X81240200Y-38931000D01*
G75*
G02*
X80790200Y-39381000I-450000J0D01*
G01*
X79890200Y-39381000D01*
G75*
G02*
X79440200Y-38931000I0J450000D01*
G01*
G37*
%TD.AperFunction*%
%TO.P,U2,2*%
%TO.N,GND*%
%TA.AperFunction,ComponentPad*%
G36*
G01*
X66740200Y-38931000D02*
X66740200Y-38031000D01*
G75*
G02*
X67190200Y-37581000I450000J0D01*
G01*
X68090200Y-37581000D01*
G75*
G02*
X68540200Y-38031000I0J-450000D01*
G01*
X68540200Y-38931000D01*
G75*
G02*
X68090200Y-39381000I-450000J0D01*
G01*
X67190200Y-39381000D01*
G75*
G02*
X66740200Y-38931000I0J450000D01*
G01*
G37*
%TD.AperFunction*%
D14*
%TO.P,U2,1*%
X67640200Y-28321000D03*
%TD*%
%TO.P,J18,G*%
%TO.N,GND*%
%TA.AperFunction,ComponentPad*%
G36*
G01*
X89866600Y-32417000D02*
X89866600Y-33917000D01*
G75*
G02*
X89116600Y-34667000I-750000J0D01*
G01*
X87616600Y-34667000D01*
G75*
G02*
X86866600Y-33917000I0J750000D01*
G01*
X86866600Y-32417000D01*
G75*
G02*
X87616600Y-31667000I750000J0D01*
G01*
X89116600Y-31667000D01*
G75*
G02*
X89866600Y-32417000I0J-750000D01*
G01*
G37*
%TD.AperFunction*%
D15*
%TO.P,J18,S*%
%TO.N,Net-(J18-PadS)*%
X93451600Y-38267000D03*
%TO.P,J18,T*%
%TO.N,Net-(J18-PadT)*%
X83281600Y-38277800D03*
D16*
%TO.P,J18,R2*%
%TO.N,N/C*%
X90996600Y-38267000D03*
%TO.P,J18,R1*%
X85736600Y-38267000D03*
%TD*%
D17*
%TO.P,C1,2*%
%TO.N,GND*%
X75387200Y-43601700D03*
D18*
%TO.P,C1,1*%
%TO.N,/CAP_IN*%
X75387200Y-47101700D03*
%TD*%
D19*
%TO.P,J1,3*%
%TO.N,VDD*%
X137004000Y-61941100D03*
%TO.P,J1,2*%
%TO.N,GND*%
X137004000Y-64441100D03*
%TO.P,J1,1*%
%TO.N,/D7*%
%TA.AperFunction,ComponentPad*%
G36*
G01*
X137729000Y-67791100D02*
X136279000Y-67791100D01*
G75*
G02*
X136029000Y-67541100I0J250000D01*
G01*
X136029000Y-66341100D01*
G75*
G02*
X136279000Y-66091100I250000J0D01*
G01*
X137729000Y-66091100D01*
G75*
G02*
X137979000Y-66341100I0J-250000D01*
G01*
X137979000Y-67541100D01*
G75*
G02*
X137729000Y-67791100I-250000J0D01*
G01*
G37*
%TD.AperFunction*%
%TD*%
%TO.P,J2,3*%
%TO.N,VDD*%
X73228200Y-58403500D03*
%TO.P,J2,2*%
%TO.N,GND*%
X73228200Y-55903500D03*
%TO.P,J2,1*%
%TO.N,/D5*%
%TA.AperFunction,ComponentPad*%
G36*
G01*
X72503200Y-52553500D02*
X73953200Y-52553500D01*
G75*
G02*
X74203200Y-52803500I0J-250000D01*
G01*
X74203200Y-54003500D01*
G75*
G02*
X73953200Y-54253500I-250000J0D01*
G01*
X72503200Y-54253500D01*
G75*
G02*
X72253200Y-54003500I0J250000D01*
G01*
X72253200Y-52803500D01*
G75*
G02*
X72503200Y-52553500I250000J0D01*
G01*
G37*
%TD.AperFunction*%
%TD*%
%TO.P,J3,3*%
%TO.N,VDD*%
X137004000Y-50206900D03*
%TO.P,J3,2*%
%TO.N,GND*%
X137004000Y-52706900D03*
%TO.P,J3,1*%
%TO.N,/A1*%
%TA.AperFunction,ComponentPad*%
G36*
G01*
X137729000Y-56056900D02*
X136279000Y-56056900D01*
G75*
G02*
X136029000Y-55806900I0J250000D01*
G01*
X136029000Y-54606900D01*
G75*
G02*
X136279000Y-54356900I250000J0D01*
G01*
X137729000Y-54356900D01*
G75*
G02*
X137979000Y-54606900I0J-250000D01*
G01*
X137979000Y-55806900D01*
G75*
G02*
X137729000Y-56056900I-250000J0D01*
G01*
G37*
%TD.AperFunction*%
%TD*%
%TO.P,J10,1*%
%TO.N,/SPK2*%
%TA.AperFunction,ComponentPad*%
G36*
G01*
X68195400Y-64815900D02*
X66695400Y-64815900D01*
G75*
G02*
X66445400Y-64565900I0J250000D01*
G01*
X66445400Y-63365900D01*
G75*
G02*
X66695400Y-63115900I250000J0D01*
G01*
X68195400Y-63115900D01*
G75*
G02*
X68445400Y-63365900I0J-250000D01*
G01*
X68445400Y-64565900D01*
G75*
G02*
X68195400Y-64815900I-250000J0D01*
G01*
G37*
%TD.AperFunction*%
D20*
%TO.P,J10,2*%
%TO.N,/SPK1*%
X67445400Y-61465900D03*
%TD*%
%TO.P,J8,1*%
%TO.N,/SRC_FOR_VDD*%
%TA.AperFunction,ComponentPad*%
G36*
G01*
X68195400Y-47355200D02*
X66695400Y-47355200D01*
G75*
G02*
X66445400Y-47105200I0J250000D01*
G01*
X66445400Y-45905200D01*
G75*
G02*
X66695400Y-45655200I250000J0D01*
G01*
X68195400Y-45655200D01*
G75*
G02*
X68445400Y-45905200I0J-250000D01*
G01*
X68445400Y-47105200D01*
G75*
G02*
X68195400Y-47355200I-250000J0D01*
G01*
G37*
%TD.AperFunction*%
%TO.P,J8,2*%
%TO.N,VDD*%
X67445400Y-44005200D03*
%TD*%
%TO.P,J9,1*%
%TO.N,+BATT*%
%TA.AperFunction,ComponentPad*%
G36*
G01*
X68195400Y-56117300D02*
X66695400Y-56117300D01*
G75*
G02*
X66445400Y-55867300I0J250000D01*
G01*
X66445400Y-54667300D01*
G75*
G02*
X66695400Y-54417300I250000J0D01*
G01*
X68195400Y-54417300D01*
G75*
G02*
X68445400Y-54667300I0J-250000D01*
G01*
X68445400Y-55867300D01*
G75*
G02*
X68195400Y-56117300I-250000J0D01*
G01*
G37*
%TD.AperFunction*%
%TO.P,J9,2*%
%TO.N,GND*%
X67445400Y-52767300D03*
%TD*%
D21*
%TO.P,R1,1*%
%TO.N,/D9*%
X136804000Y-43705700D03*
%TO.P,R1,2*%
%TO.N,Net-(R1-Pad2)*%
X136804000Y-33705700D03*
%TD*%
D13*
%TO.P,J4,8*%
%TO.N,GND*%
X130162000Y-62372200D03*
%TO.P,J4,7*%
X130162000Y-64912200D03*
%TO.P,J4,6*%
%TO.N,VDD*%
X127622000Y-62372200D03*
%TO.P,J4,5*%
X127622000Y-64912200D03*
%TO.P,J4,4*%
%TO.N,/D3*%
X125082000Y-62372200D03*
%TO.P,J4,3*%
X125082000Y-64912200D03*
%TO.P,J4,2*%
%TO.N,/D2*%
X122542000Y-62372200D03*
D12*
%TO.P,J4,1*%
X122542000Y-64912200D03*
%TD*%
%TO.P,J5,1*%
%TO.N,/COL1*%
X68306400Y-72585900D03*
D13*
%TO.P,J5,2*%
%TO.N,/D0*%
X68306400Y-70045900D03*
%TO.P,J5,3*%
%TO.N,/COL2*%
X70846400Y-72585900D03*
%TO.P,J5,4*%
%TO.N,/D0*%
X70846400Y-70045900D03*
%TO.P,J5,5*%
%TO.N,/COL3*%
X73386400Y-72585900D03*
%TO.P,J5,6*%
%TO.N,/D0*%
X73386400Y-70045900D03*
%TO.P,J5,7*%
%TO.N,/A0*%
X75926400Y-72585900D03*
%TO.P,J5,8*%
%TO.N,/D0*%
X75926400Y-70045900D03*
%TO.P,J5,9*%
%TO.N,/COL5*%
X78466400Y-72585900D03*
%TO.P,J5,10*%
%TO.N,/D0*%
X78466400Y-70045900D03*
%TO.P,J5,11*%
%TO.N,/A2*%
X81006400Y-72585900D03*
%TO.P,J5,12*%
%TO.N,/D0*%
X81006400Y-70045900D03*
%TO.P,J5,13*%
%TO.N,/COL7*%
X83546400Y-72585900D03*
%TO.P,J5,14*%
%TO.N,/D0*%
X83546400Y-70045900D03*
%TO.P,J5,15*%
%TO.N,/COL8*%
X86086400Y-72585900D03*
%TO.P,J5,16*%
%TO.N,/D0*%
X86086400Y-70045900D03*
%TD*%
D12*
%TO.P,J6,1*%
%TO.N,/COL1*%
X91468700Y-72585900D03*
D13*
%TO.P,J6,2*%
%TO.N,/D1*%
X91468700Y-70045900D03*
%TO.P,J6,3*%
%TO.N,/COL2*%
X94008700Y-72585900D03*
%TO.P,J6,4*%
%TO.N,/D1*%
X94008700Y-70045900D03*
%TO.P,J6,5*%
%TO.N,/COL3*%
X96548700Y-72585900D03*
%TO.P,J6,6*%
%TO.N,/D1*%
X96548700Y-70045900D03*
%TO.P,J6,7*%
%TO.N,/A0*%
X99088700Y-72585900D03*
%TO.P,J6,8*%
%TO.N,/D1*%
X99088700Y-70045900D03*
%TO.P,J6,9*%
%TO.N,/COL5*%
X101628700Y-72585900D03*
%TO.P,J6,10*%
%TO.N,/D1*%
X101628700Y-70045900D03*
%TO.P,J6,11*%
%TO.N,/A2*%
X104168700Y-72585900D03*
%TO.P,J6,12*%
%TO.N,/D1*%
X104168700Y-70045900D03*
%TO.P,J6,13*%
%TO.N,/COL7*%
X106708700Y-72585900D03*
%TO.P,J6,14*%
%TO.N,/D1*%
X106708700Y-70045900D03*
%TO.P,J6,15*%
%TO.N,/COL8*%
X109248700Y-72585900D03*
%TO.P,J6,16*%
%TO.N,/D1*%
X109248700Y-70045900D03*
%TD*%
D12*
%TO.P,J7,1*%
%TO.N,/COL1*%
X114631000Y-72585900D03*
D13*
%TO.P,J7,2*%
%TO.N,/D5*%
X114631000Y-70045900D03*
%TO.P,J7,3*%
%TO.N,/COL2*%
X117171000Y-72585900D03*
%TO.P,J7,4*%
%TO.N,/D5*%
X117171000Y-70045900D03*
%TO.P,J7,5*%
%TO.N,/COL3*%
X119711000Y-72585900D03*
%TO.P,J7,6*%
%TO.N,/D5*%
X119711000Y-70045900D03*
%TO.P,J7,7*%
%TO.N,/A0*%
X122251000Y-72585900D03*
%TO.P,J7,8*%
%TO.N,/D5*%
X122251000Y-70045900D03*
%TO.P,J7,9*%
%TO.N,/COL5*%
X124791000Y-72585900D03*
%TO.P,J7,10*%
%TO.N,/D5*%
X124791000Y-70045900D03*
%TO.P,J7,11*%
%TO.N,/A2*%
X127331000Y-72585900D03*
%TO.P,J7,12*%
%TO.N,/D5*%
X127331000Y-70045900D03*
%TO.P,J7,13*%
%TO.N,/COL7*%
X129871000Y-72585900D03*
%TO.P,J7,14*%
%TO.N,/D5*%
X129871000Y-70045900D03*
%TO.P,J7,15*%
%TO.N,/COL8*%
X132411000Y-72585900D03*
%TO.P,J7,16*%
%TO.N,/D5*%
X132411000Y-70045900D03*
%TD*%
%TO.P,J14_GPIO1,GND*%
%TO.N,GND*%
X109944300Y-49583300D03*
X107404300Y-49583300D03*
X104864300Y-49583300D03*
X112484300Y-49583300D03*
%TO.P,J14_GPIO1,VCC*%
%TO.N,VDD*%
X112497000Y-52123300D03*
%TO.P,J14_GPIO1,4*%
%TO.N,/D5*%
X112497000Y-54663300D03*
%TO.P,J14_GPIO1,VCC*%
%TO.N,VDD*%
X109957000Y-52123300D03*
%TO.P,J14_GPIO1,3*%
%TO.N,/COL1*%
X109957000Y-54663300D03*
%TO.P,J14_GPIO1,VCC*%
%TO.N,VDD*%
X107417000Y-52123300D03*
%TO.P,J14_GPIO1,2*%
%TO.N,/D1*%
X107417000Y-54663300D03*
%TO.P,J14_GPIO1,VCC*%
%TO.N,VDD*%
X104877000Y-52123300D03*
D12*
%TO.P,J14_GPIO1,1*%
%TO.N,/D0*%
X104877000Y-54663300D03*
%TD*%
%TO.P,J15_GPIO2,1*%
%TO.N,/COL2*%
X78066900Y-64185800D03*
D13*
%TO.P,J15_GPIO2,VCC*%
%TO.N,VDD*%
X78066900Y-61645800D03*
%TO.P,J15_GPIO2,2*%
%TO.N,/D7*%
X80606900Y-64185800D03*
%TO.P,J15_GPIO2,VCC*%
%TO.N,VDD*%
X80606900Y-61645800D03*
%TO.P,J15_GPIO2,3*%
%TO.N,/D8*%
X83146900Y-64185800D03*
%TO.P,J15_GPIO2,VCC*%
%TO.N,VDD*%
X83146900Y-61645800D03*
%TO.P,J15_GPIO2,4*%
%TO.N,/D9*%
X85686900Y-64185800D03*
%TO.P,J15_GPIO2,VCC*%
%TO.N,VDD*%
X85686900Y-61645800D03*
%TO.P,J15_GPIO2,GND*%
%TO.N,GND*%
X85674200Y-59105800D03*
X78054200Y-59105800D03*
X80594200Y-59105800D03*
X83134200Y-59105800D03*
%TD*%
D12*
%TO.P,J16_GPIO3,1*%
%TO.N,/COL3*%
X91471900Y-64173100D03*
D13*
%TO.P,J16_GPIO3,VCC*%
%TO.N,VDD*%
X91471900Y-61633100D03*
%TO.P,J16_GPIO3,2*%
%TO.N,/COL5*%
X94011900Y-64173100D03*
%TO.P,J16_GPIO3,VCC*%
%TO.N,VDD*%
X94011900Y-61633100D03*
%TO.P,J16_GPIO3,3*%
%TO.N,/COL8*%
X96551900Y-64173100D03*
%TO.P,J16_GPIO3,VCC*%
%TO.N,VDD*%
X96551900Y-61633100D03*
%TO.P,J16_GPIO3,4*%
%TO.N,/COL7*%
X99091900Y-64173100D03*
%TO.P,J16_GPIO3,VCC*%
%TO.N,VDD*%
X99091900Y-61633100D03*
%TO.P,J16_GPIO3,GND*%
%TO.N,GND*%
X99079200Y-59093100D03*
X91459200Y-59093100D03*
X93999200Y-59093100D03*
X96539200Y-59093100D03*
%TD*%
%TO.P,J17_GPIO4,GND*%
%TO.N,GND*%
X109944300Y-59093100D03*
X107404300Y-59093100D03*
X104864300Y-59093100D03*
X112484300Y-59093100D03*
%TO.P,J17_GPIO4,VCC*%
%TO.N,VDD*%
X112497000Y-61633100D03*
%TO.P,J17_GPIO4,4*%
%TO.N,/A3*%
X112497000Y-64173100D03*
%TO.P,J17_GPIO4,VCC*%
%TO.N,VDD*%
X109957000Y-61633100D03*
%TO.P,J17_GPIO4,3*%
%TO.N,/A2*%
X109957000Y-64173100D03*
%TO.P,J17_GPIO4,VCC*%
%TO.N,VDD*%
X107417000Y-61633100D03*
%TO.P,J17_GPIO4,2*%
%TO.N,/A1*%
X107417000Y-64173100D03*
%TO.P,J17_GPIO4,VCC*%
%TO.N,VDD*%
X104877000Y-61633100D03*
D12*
%TO.P,J17_GPIO4,1*%
%TO.N,/A0*%
X104877000Y-64173100D03*
%TD*%
D22*
%TO.P,D1,1*%
%TO.N,/SRC_FOR_VDD*%
X88484300Y-43841000D03*
%TO.P,D1,2*%
%TO.N,+5V*%
X92284300Y-43841000D03*
%TD*%
%TO.P,D2,1*%
%TO.N,/SRC_FOR_VDD*%
X84754800Y-43841000D03*
%TO.P,D2,2*%
%TO.N,+BATT*%
X80954800Y-43841000D03*
%TD*%
D11*
%TO.P,U1,16*%
%TO.N,/DFP_BUSY*%
X96215000Y-46101000D03*
%TO.P,U1,15*%
%TO.N,N/C*%
X96215000Y-43561000D03*
%TO.P,U1,14*%
X96215000Y-41021000D03*
%TO.P,U1,13*%
X96215000Y-38481000D03*
%TO.P,U1,12*%
X96215000Y-35941000D03*
%TO.P,U1,11*%
X96215000Y-33401000D03*
%TO.P,U1,10*%
%TO.N,GND*%
X96215000Y-30861000D03*
%TO.P,U1,9*%
%TO.N,N/C*%
X96215000Y-28321000D03*
%TO.P,U1,8*%
%TO.N,/SPK2*%
X113995000Y-28321000D03*
%TO.P,U1,7*%
%TO.N,GND*%
X113995000Y-30861000D03*
%TO.P,U1,6*%
%TO.N,/SPK1*%
X113995000Y-33401000D03*
%TO.P,U1,5*%
%TO.N,Net-(J18-PadT)*%
X113995000Y-35941000D03*
%TO.P,U1,4*%
%TO.N,Net-(J18-PadS)*%
X113995000Y-38481000D03*
%TO.P,U1,3*%
%TO.N,/D8*%
X113995000Y-41021000D03*
%TO.P,U1,2*%
%TO.N,Net-(R1-Pad2)*%
X113995000Y-43561000D03*
D12*
%TO.P,U1,1*%
%TO.N,/CAP_IN*%
X113995000Y-46101000D03*
%TD*%
%TO.P,J12,1*%
%TO.N,/COL8*%
X82219800Y-48602900D03*
D13*
%TO.P,J12,2*%
%TO.N,/COL7*%
X84759800Y-48602900D03*
%TO.P,J12,3*%
%TO.N,/LCD_RST*%
X87299800Y-48602900D03*
%TO.P,J12,4*%
%TO.N,/A3*%
X89839800Y-48602900D03*
%TO.P,J12,5*%
%TO.N,/LCD_CS*%
X92379800Y-48602900D03*
%TD*%
%TA.AperFunction,SMDPad,CuDef*%
D23*
%TO.P,JP1,1*%
%TO.N,VDD*%
G36*
X63032500Y-35433700D02*
G01*
X62532500Y-35433700D01*
X62532500Y-35433098D01*
X62507966Y-35433098D01*
X62459135Y-35428288D01*
X62411010Y-35418716D01*
X62364055Y-35404472D01*
X62318722Y-35385695D01*
X62275449Y-35362564D01*
X62234650Y-35335304D01*
X62196721Y-35304176D01*
X62162024Y-35269479D01*
X62130896Y-35231550D01*
X62103636Y-35190751D01*
X62080505Y-35147478D01*
X62061728Y-35102145D01*
X62047484Y-35055190D01*
X62037912Y-35007065D01*
X62033102Y-34958234D01*
X62033102Y-34933700D01*
X62032500Y-34933700D01*
X62032500Y-34433700D01*
X62033102Y-34433700D01*
X62033102Y-34409166D01*
X62037912Y-34360335D01*
X62047484Y-34312210D01*
X62061728Y-34265255D01*
X62080505Y-34219922D01*
X62103636Y-34176649D01*
X62130896Y-34135850D01*
X62162024Y-34097921D01*
X62196721Y-34063224D01*
X62234650Y-34032096D01*
X62275449Y-34004836D01*
X62318722Y-33981705D01*
X62364055Y-33962928D01*
X62411010Y-33948684D01*
X62459135Y-33939112D01*
X62507966Y-33934302D01*
X62532500Y-33934302D01*
X62532500Y-33933700D01*
X63032500Y-33933700D01*
X63032500Y-35433700D01*
G37*
%TD.AperFunction*%
%TA.AperFunction,SMDPad,CuDef*%
%TO.P,JP1,2*%
%TO.N,/CAP_IN*%
G36*
X63832500Y-33934302D02*
G01*
X63857034Y-33934302D01*
X63905865Y-33939112D01*
X63953990Y-33948684D01*
X64000945Y-33962928D01*
X64046278Y-33981705D01*
X64089551Y-34004836D01*
X64130350Y-34032096D01*
X64168279Y-34063224D01*
X64202976Y-34097921D01*
X64234104Y-34135850D01*
X64261364Y-34176649D01*
X64284495Y-34219922D01*
X64303272Y-34265255D01*
X64317516Y-34312210D01*
X64327088Y-34360335D01*
X64331898Y-34409166D01*
X64331898Y-34433700D01*
X64332500Y-34433700D01*
X64332500Y-34933700D01*
X64331898Y-34933700D01*
X64331898Y-34958234D01*
X64327088Y-35007065D01*
X64317516Y-35055190D01*
X64303272Y-35102145D01*
X64284495Y-35147478D01*
X64261364Y-35190751D01*
X64234104Y-35231550D01*
X64202976Y-35269479D01*
X64168279Y-35304176D01*
X64130350Y-35335304D01*
X64089551Y-35362564D01*
X64046278Y-35385695D01*
X64000945Y-35404472D01*
X63953990Y-35418716D01*
X63905865Y-35428288D01*
X63857034Y-35433098D01*
X63832500Y-35433098D01*
X63832500Y-35433700D01*
X63332500Y-35433700D01*
X63332500Y-33933700D01*
X63832500Y-33933700D01*
X63832500Y-33934302D01*
G37*
%TD.AperFunction*%
%TD*%
%TA.AperFunction,SMDPad,CuDef*%
%TO.P,JP2,2*%
%TO.N,/CAP_IN*%
G36*
X63870600Y-38188802D02*
G01*
X63895134Y-38188802D01*
X63943965Y-38193612D01*
X63992090Y-38203184D01*
X64039045Y-38217428D01*
X64084378Y-38236205D01*
X64127651Y-38259336D01*
X64168450Y-38286596D01*
X64206379Y-38317724D01*
X64241076Y-38352421D01*
X64272204Y-38390350D01*
X64299464Y-38431149D01*
X64322595Y-38474422D01*
X64341372Y-38519755D01*
X64355616Y-38566710D01*
X64365188Y-38614835D01*
X64369998Y-38663666D01*
X64369998Y-38688200D01*
X64370600Y-38688200D01*
X64370600Y-39188200D01*
X64369998Y-39188200D01*
X64369998Y-39212734D01*
X64365188Y-39261565D01*
X64355616Y-39309690D01*
X64341372Y-39356645D01*
X64322595Y-39401978D01*
X64299464Y-39445251D01*
X64272204Y-39486050D01*
X64241076Y-39523979D01*
X64206379Y-39558676D01*
X64168450Y-39589804D01*
X64127651Y-39617064D01*
X64084378Y-39640195D01*
X64039045Y-39658972D01*
X63992090Y-39673216D01*
X63943965Y-39682788D01*
X63895134Y-39687598D01*
X63870600Y-39687598D01*
X63870600Y-39688200D01*
X63370600Y-39688200D01*
X63370600Y-38188200D01*
X63870600Y-38188200D01*
X63870600Y-38188802D01*
G37*
%TD.AperFunction*%
%TA.AperFunction,SMDPad,CuDef*%
%TO.P,JP2,1*%
%TO.N,/SRC_FOR_VDD*%
G36*
X63070600Y-39688200D02*
G01*
X62570600Y-39688200D01*
X62570600Y-39687598D01*
X62546066Y-39687598D01*
X62497235Y-39682788D01*
X62449110Y-39673216D01*
X62402155Y-39658972D01*
X62356822Y-39640195D01*
X62313549Y-39617064D01*
X62272750Y-39589804D01*
X62234821Y-39558676D01*
X62200124Y-39523979D01*
X62168996Y-39486050D01*
X62141736Y-39445251D01*
X62118605Y-39401978D01*
X62099828Y-39356645D01*
X62085584Y-39309690D01*
X62076012Y-39261565D01*
X62071202Y-39212734D01*
X62071202Y-39188200D01*
X62070600Y-39188200D01*
X62070600Y-38688200D01*
X62071202Y-38688200D01*
X62071202Y-38663666D01*
X62076012Y-38614835D01*
X62085584Y-38566710D01*
X62099828Y-38519755D01*
X62118605Y-38474422D01*
X62141736Y-38431149D01*
X62168996Y-38390350D01*
X62200124Y-38352421D01*
X62234821Y-38317724D01*
X62272750Y-38286596D01*
X62313549Y-38259336D01*
X62356822Y-38236205D01*
X62402155Y-38217428D01*
X62449110Y-38203184D01*
X62497235Y-38193612D01*
X62546066Y-38188802D01*
X62570600Y-38188802D01*
X62570600Y-38188200D01*
X63070600Y-38188200D01*
X63070600Y-39688200D01*
G37*
%TD.AperFunction*%
%TD*%
%TA.AperFunction,SMDPad,CuDef*%
%TO.P,JP3,1*%
%TO.N,/LCD_CS*%
G36*
X83260600Y-53553500D02*
G01*
X83260600Y-54053500D01*
X83259998Y-54053500D01*
X83259998Y-54078034D01*
X83255188Y-54126865D01*
X83245616Y-54174990D01*
X83231372Y-54221945D01*
X83212595Y-54267278D01*
X83189464Y-54310551D01*
X83162204Y-54351350D01*
X83131076Y-54389279D01*
X83096379Y-54423976D01*
X83058450Y-54455104D01*
X83017651Y-54482364D01*
X82974378Y-54505495D01*
X82929045Y-54524272D01*
X82882090Y-54538516D01*
X82833965Y-54548088D01*
X82785134Y-54552898D01*
X82760600Y-54552898D01*
X82760600Y-54553500D01*
X82260600Y-54553500D01*
X82260600Y-54552898D01*
X82236066Y-54552898D01*
X82187235Y-54548088D01*
X82139110Y-54538516D01*
X82092155Y-54524272D01*
X82046822Y-54505495D01*
X82003549Y-54482364D01*
X81962750Y-54455104D01*
X81924821Y-54423976D01*
X81890124Y-54389279D01*
X81858996Y-54351350D01*
X81831736Y-54310551D01*
X81808605Y-54267278D01*
X81789828Y-54221945D01*
X81775584Y-54174990D01*
X81766012Y-54126865D01*
X81761202Y-54078034D01*
X81761202Y-54053500D01*
X81760600Y-54053500D01*
X81760600Y-53553500D01*
X83260600Y-53553500D01*
G37*
%TD.AperFunction*%
%TA.AperFunction,SMDPad,CuDef*%
%TO.P,JP3,2*%
%TO.N,/A2*%
G36*
X81761202Y-52753500D02*
G01*
X81761202Y-52728966D01*
X81766012Y-52680135D01*
X81775584Y-52632010D01*
X81789828Y-52585055D01*
X81808605Y-52539722D01*
X81831736Y-52496449D01*
X81858996Y-52455650D01*
X81890124Y-52417721D01*
X81924821Y-52383024D01*
X81962750Y-52351896D01*
X82003549Y-52324636D01*
X82046822Y-52301505D01*
X82092155Y-52282728D01*
X82139110Y-52268484D01*
X82187235Y-52258912D01*
X82236066Y-52254102D01*
X82260600Y-52254102D01*
X82260600Y-52253500D01*
X82760600Y-52253500D01*
X82760600Y-52254102D01*
X82785134Y-52254102D01*
X82833965Y-52258912D01*
X82882090Y-52268484D01*
X82929045Y-52282728D01*
X82974378Y-52301505D01*
X83017651Y-52324636D01*
X83058450Y-52351896D01*
X83096379Y-52383024D01*
X83131076Y-52417721D01*
X83162204Y-52455650D01*
X83189464Y-52496449D01*
X83212595Y-52539722D01*
X83231372Y-52585055D01*
X83245616Y-52632010D01*
X83255188Y-52680135D01*
X83259998Y-52728966D01*
X83259998Y-52753500D01*
X83260600Y-52753500D01*
X83260600Y-53253500D01*
X81760600Y-53253500D01*
X81760600Y-52753500D01*
X81761202Y-52753500D01*
G37*
%TD.AperFunction*%
%TD*%
%TA.AperFunction,SMDPad,CuDef*%
%TO.P,JP4,2*%
%TO.N,GND*%
G36*
X85608002Y-52753500D02*
G01*
X85608002Y-52728966D01*
X85612812Y-52680135D01*
X85622384Y-52632010D01*
X85636628Y-52585055D01*
X85655405Y-52539722D01*
X85678536Y-52496449D01*
X85705796Y-52455650D01*
X85736924Y-52417721D01*
X85771621Y-52383024D01*
X85809550Y-52351896D01*
X85850349Y-52324636D01*
X85893622Y-52301505D01*
X85938955Y-52282728D01*
X85985910Y-52268484D01*
X86034035Y-52258912D01*
X86082866Y-52254102D01*
X86107400Y-52254102D01*
X86107400Y-52253500D01*
X86607400Y-52253500D01*
X86607400Y-52254102D01*
X86631934Y-52254102D01*
X86680765Y-52258912D01*
X86728890Y-52268484D01*
X86775845Y-52282728D01*
X86821178Y-52301505D01*
X86864451Y-52324636D01*
X86905250Y-52351896D01*
X86943179Y-52383024D01*
X86977876Y-52417721D01*
X87009004Y-52455650D01*
X87036264Y-52496449D01*
X87059395Y-52539722D01*
X87078172Y-52585055D01*
X87092416Y-52632010D01*
X87101988Y-52680135D01*
X87106798Y-52728966D01*
X87106798Y-52753500D01*
X87107400Y-52753500D01*
X87107400Y-53253500D01*
X85607400Y-53253500D01*
X85607400Y-52753500D01*
X85608002Y-52753500D01*
G37*
%TD.AperFunction*%
%TA.AperFunction,SMDPad,CuDef*%
%TO.P,JP4,1*%
%TO.N,/LCD_CS*%
G36*
X87107400Y-53553500D02*
G01*
X87107400Y-54053500D01*
X87106798Y-54053500D01*
X87106798Y-54078034D01*
X87101988Y-54126865D01*
X87092416Y-54174990D01*
X87078172Y-54221945D01*
X87059395Y-54267278D01*
X87036264Y-54310551D01*
X87009004Y-54351350D01*
X86977876Y-54389279D01*
X86943179Y-54423976D01*
X86905250Y-54455104D01*
X86864451Y-54482364D01*
X86821178Y-54505495D01*
X86775845Y-54524272D01*
X86728890Y-54538516D01*
X86680765Y-54548088D01*
X86631934Y-54552898D01*
X86607400Y-54552898D01*
X86607400Y-54553500D01*
X86107400Y-54553500D01*
X86107400Y-54552898D01*
X86082866Y-54552898D01*
X86034035Y-54548088D01*
X85985910Y-54538516D01*
X85938955Y-54524272D01*
X85893622Y-54505495D01*
X85850349Y-54482364D01*
X85809550Y-54455104D01*
X85771621Y-54423976D01*
X85736924Y-54389279D01*
X85705796Y-54351350D01*
X85678536Y-54310551D01*
X85655405Y-54267278D01*
X85636628Y-54221945D01*
X85622384Y-54174990D01*
X85612812Y-54126865D01*
X85608002Y-54078034D01*
X85608002Y-54053500D01*
X85607400Y-54053500D01*
X85607400Y-53553500D01*
X87107400Y-53553500D01*
G37*
%TD.AperFunction*%
%TD*%
%TA.AperFunction,SMDPad,CuDef*%
%TO.P,JP5,1*%
%TO.N,/DFP_BUSY*%
G36*
X99176700Y-49784700D02*
G01*
X98676700Y-49784700D01*
X98676700Y-49784098D01*
X98652166Y-49784098D01*
X98603335Y-49779288D01*
X98555210Y-49769716D01*
X98508255Y-49755472D01*
X98462922Y-49736695D01*
X98419649Y-49713564D01*
X98378850Y-49686304D01*
X98340921Y-49655176D01*
X98306224Y-49620479D01*
X98275096Y-49582550D01*
X98247836Y-49541751D01*
X98224705Y-49498478D01*
X98205928Y-49453145D01*
X98191684Y-49406190D01*
X98182112Y-49358065D01*
X98177302Y-49309234D01*
X98177302Y-49284700D01*
X98176700Y-49284700D01*
X98176700Y-48784700D01*
X98177302Y-48784700D01*
X98177302Y-48760166D01*
X98182112Y-48711335D01*
X98191684Y-48663210D01*
X98205928Y-48616255D01*
X98224705Y-48570922D01*
X98247836Y-48527649D01*
X98275096Y-48486850D01*
X98306224Y-48448921D01*
X98340921Y-48414224D01*
X98378850Y-48383096D01*
X98419649Y-48355836D01*
X98462922Y-48332705D01*
X98508255Y-48313928D01*
X98555210Y-48299684D01*
X98603335Y-48290112D01*
X98652166Y-48285302D01*
X98676700Y-48285302D01*
X98676700Y-48284700D01*
X99176700Y-48284700D01*
X99176700Y-49784700D01*
G37*
%TD.AperFunction*%
%TA.AperFunction,SMDPad,CuDef*%
%TO.P,JP5,2*%
%TO.N,/COL5*%
G36*
X99976700Y-48285302D02*
G01*
X100001234Y-48285302D01*
X100050065Y-48290112D01*
X100098190Y-48299684D01*
X100145145Y-48313928D01*
X100190478Y-48332705D01*
X100233751Y-48355836D01*
X100274550Y-48383096D01*
X100312479Y-48414224D01*
X100347176Y-48448921D01*
X100378304Y-48486850D01*
X100405564Y-48527649D01*
X100428695Y-48570922D01*
X100447472Y-48616255D01*
X100461716Y-48663210D01*
X100471288Y-48711335D01*
X100476098Y-48760166D01*
X100476098Y-48784700D01*
X100476700Y-48784700D01*
X100476700Y-49284700D01*
X100476098Y-49284700D01*
X100476098Y-49309234D01*
X100471288Y-49358065D01*
X100461716Y-49406190D01*
X100447472Y-49453145D01*
X100428695Y-49498478D01*
X100405564Y-49541751D01*
X100378304Y-49582550D01*
X100347176Y-49620479D01*
X100312479Y-49655176D01*
X100274550Y-49686304D01*
X100233751Y-49713564D01*
X100190478Y-49736695D01*
X100145145Y-49755472D01*
X100098190Y-49769716D01*
X100050065Y-49779288D01*
X100001234Y-49784098D01*
X99976700Y-49784098D01*
X99976700Y-49784700D01*
X99476700Y-49784700D01*
X99476700Y-48284700D01*
X99976700Y-48284700D01*
X99976700Y-48285302D01*
G37*
%TD.AperFunction*%
%TD*%
D12*
%TO.P,J13,1*%
%TO.N,Net-(J13-Pad1)*%
X91478100Y-53213000D03*
D13*
%TO.P,J13,2*%
%TO.N,/COL8*%
X94018100Y-53213000D03*
%TO.P,J13,3*%
%TO.N,/COL7*%
X96558100Y-53213000D03*
%TO.P,J13,4*%
%TO.N,/COL5*%
X99098100Y-53213000D03*
%TD*%
%TA.AperFunction,SMDPad,CuDef*%
D23*
%TO.P,JP6,1*%
%TO.N,Net-(J13-Pad1)*%
G36*
X79413800Y-53553500D02*
G01*
X79413800Y-54053500D01*
X79413198Y-54053500D01*
X79413198Y-54078034D01*
X79408388Y-54126865D01*
X79398816Y-54174990D01*
X79384572Y-54221945D01*
X79365795Y-54267278D01*
X79342664Y-54310551D01*
X79315404Y-54351350D01*
X79284276Y-54389279D01*
X79249579Y-54423976D01*
X79211650Y-54455104D01*
X79170851Y-54482364D01*
X79127578Y-54505495D01*
X79082245Y-54524272D01*
X79035290Y-54538516D01*
X78987165Y-54548088D01*
X78938334Y-54552898D01*
X78913800Y-54552898D01*
X78913800Y-54553500D01*
X78413800Y-54553500D01*
X78413800Y-54552898D01*
X78389266Y-54552898D01*
X78340435Y-54548088D01*
X78292310Y-54538516D01*
X78245355Y-54524272D01*
X78200022Y-54505495D01*
X78156749Y-54482364D01*
X78115950Y-54455104D01*
X78078021Y-54423976D01*
X78043324Y-54389279D01*
X78012196Y-54351350D01*
X77984936Y-54310551D01*
X77961805Y-54267278D01*
X77943028Y-54221945D01*
X77928784Y-54174990D01*
X77919212Y-54126865D01*
X77914402Y-54078034D01*
X77914402Y-54053500D01*
X77913800Y-54053500D01*
X77913800Y-53553500D01*
X79413800Y-53553500D01*
G37*
%TD.AperFunction*%
%TA.AperFunction,SMDPad,CuDef*%
%TO.P,JP6,2*%
%TO.N,/A1*%
G36*
X77914402Y-52753500D02*
G01*
X77914402Y-52728966D01*
X77919212Y-52680135D01*
X77928784Y-52632010D01*
X77943028Y-52585055D01*
X77961805Y-52539722D01*
X77984936Y-52496449D01*
X78012196Y-52455650D01*
X78043324Y-52417721D01*
X78078021Y-52383024D01*
X78115950Y-52351896D01*
X78156749Y-52324636D01*
X78200022Y-52301505D01*
X78245355Y-52282728D01*
X78292310Y-52268484D01*
X78340435Y-52258912D01*
X78389266Y-52254102D01*
X78413800Y-52254102D01*
X78413800Y-52253500D01*
X78913800Y-52253500D01*
X78913800Y-52254102D01*
X78938334Y-52254102D01*
X78987165Y-52258912D01*
X79035290Y-52268484D01*
X79082245Y-52282728D01*
X79127578Y-52301505D01*
X79170851Y-52324636D01*
X79211650Y-52351896D01*
X79249579Y-52383024D01*
X79284276Y-52417721D01*
X79315404Y-52455650D01*
X79342664Y-52496449D01*
X79365795Y-52539722D01*
X79384572Y-52585055D01*
X79398816Y-52632010D01*
X79408388Y-52680135D01*
X79413198Y-52728966D01*
X79413198Y-52753500D01*
X79413800Y-52753500D01*
X79413800Y-53253500D01*
X77913800Y-53253500D01*
X77913800Y-52753500D01*
X77914402Y-52753500D01*
G37*
%TD.AperFunction*%
%TD*%
D24*
%TO.N,/CAP_IN*%
X98488500Y-46101000D03*
%TO.N,GND*%
X126582000Y-40608500D03*
X128090000Y-41765800D03*
X123955000Y-49304800D03*
X108432600Y-47053500D03*
%TO.N,/D0*%
X94696800Y-56080700D03*
%TO.N,VDD*%
X101410000Y-39662100D03*
X135977000Y-68999200D03*
X136899000Y-38481000D03*
X114049000Y-67747000D03*
X114033000Y-63391900D03*
X62560200Y-36296600D03*
X102565200Y-51993800D03*
X102565202Y-57061100D03*
X127685800Y-47345600D03*
%TO.N,/A3*%
X122570000Y-51032000D03*
X120250000Y-57149500D03*
%TO.N,/COL1*%
X88084600Y-54495000D03*
X116964000Y-60471100D03*
X83843000Y-68572300D03*
X99600600Y-50446000D03*
X101511000Y-44736400D03*
X115311000Y-44736400D03*
X72219400Y-68675300D03*
%TO.N,/A0*%
X122122000Y-46042100D03*
X72544700Y-65431900D03*
%TO.N,/COL2*%
X121879000Y-55219700D03*
X81004900Y-56065500D03*
X114448000Y-53393300D03*
X88777600Y-71585900D03*
%TO.N,/COL3*%
X97438800Y-62997800D03*
X104554000Y-68191800D03*
X112597000Y-68759000D03*
X120614000Y-68759000D03*
X82609400Y-68713500D03*
X87190000Y-62406200D03*
%TO.N,/COL5*%
X90170300Y-55132200D03*
X84523200Y-73977800D03*
X126504700Y-54800500D03*
%TO.N,/A2*%
X81101100Y-52821000D03*
X110566000Y-68145600D03*
X112855000Y-72259400D03*
X110878000Y-71997100D03*
%TO.N,/SPK2*%
X119380000Y-65557400D03*
X122229000Y-53485400D03*
X120561000Y-47451800D03*
%TO.N,/SPK1*%
X116638000Y-62894500D03*
X120978000Y-56145200D03*
X119804000Y-54171200D03*
X118965000Y-29478300D03*
%TO.N,/D1*%
X99224800Y-56064200D03*
X108076000Y-68164300D03*
%TO.N,/D7*%
X77189000Y-60464100D03*
X72215200Y-61498700D03*
X122793000Y-28680200D03*
X85687900Y-29496300D03*
X69877000Y-46403100D03*
X71804600Y-49744800D03*
%TO.N,/COL7*%
X92133800Y-46274400D03*
X100264000Y-69132100D03*
%TO.N,/D2*%
X119412000Y-55193800D03*
%TO.N,/D9*%
X117818000Y-63411100D03*
X123844000Y-63547600D03*
%TO.N,/D5*%
X114821000Y-61996900D03*
X129551000Y-67656400D03*
X84713700Y-55591400D03*
X114211100Y-60439302D03*
%TO.N,Net-(J18-PadS)*%
X106591000Y-39062600D03*
%TD*%
D25*
%TO.N,/CAP_IN*%
X63832500Y-34683700D02*
X63870600Y-34721800D01*
X63870600Y-34721800D02*
X63870600Y-38938200D01*
X75387200Y-47101700D02*
X74136900Y-47101700D01*
X74136900Y-47101700D02*
X68226200Y-41191000D01*
X68226200Y-41191000D02*
X66123400Y-41191000D01*
X66123400Y-41191000D02*
X63870600Y-38938200D01*
X113995000Y-46101000D02*
X98488500Y-46101000D01*
%TO.N,GND*%
X112484300Y-49583300D02*
X112484000Y-49583300D01*
X112484300Y-59093100D02*
X112484000Y-59093100D01*
X104864000Y-59093100D02*
X104864300Y-59093100D01*
X104864000Y-59093100D02*
X99079200Y-59093100D01*
X118398000Y-35146000D02*
X118397600Y-35146000D01*
X118397600Y-35146000D02*
X117602600Y-35941000D01*
X118398000Y-35146000D02*
X120143000Y-33401000D01*
X120143000Y-33401000D02*
X132842600Y-33401000D01*
X117603000Y-35941000D02*
X118398000Y-35146000D01*
X107404300Y-49583300D02*
X104864300Y-49583300D01*
X109944000Y-49583300D02*
X107404300Y-49583300D01*
X109944300Y-49583300D02*
X109944000Y-49583300D01*
X112484000Y-49583300D02*
X109944300Y-49583300D01*
X104864300Y-49583300D02*
X104864000Y-49583300D01*
X107404300Y-59093100D02*
X107404000Y-59093100D01*
X109944300Y-59093100D02*
X107404300Y-59093100D01*
X112484000Y-59093100D02*
X109944300Y-59093100D01*
X67445400Y-52767300D02*
X67445400Y-51417000D01*
X67445400Y-51417000D02*
X85020900Y-51417000D01*
X85020900Y-51417000D02*
X86357400Y-52753500D01*
X99079200Y-59093100D02*
X96539200Y-59093100D01*
X96539200Y-59093100D02*
X93999200Y-59093100D01*
X93999200Y-59093100D02*
X91459200Y-59093100D01*
X91459200Y-59093100D02*
X90108900Y-59093100D01*
X90108900Y-59093100D02*
X90096200Y-59105800D01*
X90096200Y-59105800D02*
X85674200Y-59105800D01*
X85674200Y-59105800D02*
X83134200Y-59105800D01*
X83134200Y-59105800D02*
X80594200Y-59105800D01*
X80594200Y-59105800D02*
X78054200Y-59105800D01*
X88366600Y-33167000D02*
X90672600Y-30861000D01*
X90672600Y-30861000D02*
X96215000Y-30861000D01*
X96215000Y-30861000D02*
X113995000Y-30861000D01*
X126582000Y-40608500D02*
X126933000Y-40608500D01*
X126933000Y-40608500D02*
X128090000Y-41765800D01*
X130162000Y-62372200D02*
X130162000Y-61021900D01*
X130162000Y-61021900D02*
X124306000Y-55165600D01*
X124306000Y-55165600D02*
X124306000Y-49655100D01*
X124306000Y-49655100D02*
X123955000Y-49304800D01*
X73228200Y-55903500D02*
X70581600Y-55903500D01*
X70581600Y-55903500D02*
X67445400Y-52767300D01*
X137004000Y-64441100D02*
X138502000Y-62943100D01*
X132842600Y-33401000D02*
X132843000Y-33401000D01*
X132843000Y-33401000D02*
X133884000Y-32359800D01*
X133884000Y-32359800D02*
X137320000Y-32359800D01*
X137320000Y-32359800D02*
X138480000Y-33520400D01*
X138480000Y-33520400D02*
X138480000Y-51230500D01*
X138480000Y-51230500D02*
X137004000Y-52706900D01*
X67640200Y-38481000D02*
X70266500Y-38481000D01*
X70266500Y-38481000D02*
X75387200Y-43601700D01*
X137004000Y-52821222D02*
X135102600Y-54722622D01*
X137004000Y-52706900D02*
X137004000Y-52821222D01*
X138502000Y-61404898D02*
X138502000Y-62943100D01*
X135102600Y-58005498D02*
X138502000Y-61404898D01*
X135102600Y-54722622D02*
X135102600Y-58005498D01*
X109944000Y-49583300D02*
X109944000Y-48564900D01*
X109944000Y-48564900D02*
X108432600Y-47053500D01*
%TO.N,+5V*%
X80340200Y-28321000D02*
X81754700Y-29735500D01*
X81754700Y-29735500D02*
X81754700Y-39312900D01*
X81754700Y-39312900D02*
X84882500Y-42440700D01*
X84882500Y-42440700D02*
X92284300Y-42440700D01*
X92284300Y-42440700D02*
X92284300Y-43841000D01*
%TO.N,/SRC_FOR_VDD*%
X65860400Y-42601300D02*
X65860400Y-44920200D01*
X65860400Y-44920200D02*
X67445400Y-46505200D01*
X84754800Y-43841000D02*
X84754800Y-45241300D01*
X84754800Y-45241300D02*
X80312700Y-45241300D01*
X80312700Y-45241300D02*
X77179700Y-48374300D01*
X77179700Y-48374300D02*
X74277400Y-48374300D01*
X74277400Y-48374300D02*
X68504400Y-42601300D01*
X68504400Y-42601300D02*
X65860400Y-42601300D01*
X65860400Y-42601300D02*
X64229400Y-42601300D01*
X64229400Y-42601300D02*
X62570600Y-40942500D01*
X62570600Y-40942500D02*
X62570600Y-38938200D01*
X88484300Y-43841000D02*
X84754800Y-43841000D01*
%TO.N,+BATT*%
X80340200Y-38481000D02*
X80340200Y-41826100D01*
X80340200Y-41826100D02*
X80954800Y-42440700D01*
X80954800Y-42440700D02*
X80954800Y-43841000D01*
D26*
%TO.N,/D0*%
X81006400Y-70045900D02*
X83546400Y-70045900D01*
X78466400Y-70045900D02*
X81006400Y-70045900D01*
X73386400Y-70045900D02*
X75926400Y-70045900D01*
X70846400Y-70045900D02*
X73386400Y-70045900D01*
X83546400Y-70045900D02*
X86086400Y-70045900D01*
X67121600Y-71230700D02*
X68306400Y-70045900D01*
X67121600Y-73580400D02*
X67121600Y-71230700D01*
X67302500Y-73761300D02*
X67121600Y-73580400D01*
X69337500Y-73761300D02*
X67302500Y-73761300D01*
X69671100Y-71221200D02*
X69671100Y-73427700D01*
X69671100Y-73427700D02*
X69337500Y-73761300D01*
X70846400Y-70045900D02*
X69671100Y-71221200D01*
X104877000Y-54663300D02*
X103777000Y-54663300D01*
X98899132Y-55338800D02*
X98157232Y-56080700D01*
X98157232Y-56080700D02*
X94696800Y-56080700D01*
X103101500Y-55338800D02*
X98899132Y-55338800D01*
X103777000Y-54663300D02*
X103101500Y-55338800D01*
D25*
%TO.N,VDD*%
X101396800Y-35991800D02*
X101397000Y-35991800D01*
X136899000Y-38481000D02*
X132843000Y-38481000D01*
X132842600Y-38481000D02*
X132843000Y-38481000D01*
X94011900Y-61633100D02*
X96551900Y-61633100D01*
X91471900Y-61633100D02*
X94011900Y-61633100D01*
X109957000Y-52123300D02*
X107417000Y-52123300D01*
X112497000Y-52123300D02*
X109957000Y-52123300D01*
X107417000Y-52123300D02*
X104877000Y-52123300D01*
X96551900Y-61633100D02*
X99091900Y-61633100D01*
X101397000Y-35991800D02*
X101397000Y-39649400D01*
X101397000Y-39649400D02*
X101410000Y-39662100D01*
X127622000Y-64912200D02*
X124792000Y-67741800D01*
X124792000Y-67741800D02*
X114054000Y-67741800D01*
X114054000Y-67741800D02*
X114049000Y-67747000D01*
X91471900Y-61633100D02*
X90121600Y-61633100D01*
X90121600Y-61633100D02*
X89994400Y-61505900D01*
X89994400Y-61505900D02*
X85826800Y-61505900D01*
X85826800Y-61505900D02*
X85686900Y-61645800D01*
X104877000Y-61633100D02*
X99091900Y-61633100D01*
X85686900Y-61645800D02*
X83146900Y-61645800D01*
X83146900Y-61645800D02*
X80606900Y-61645800D01*
X112497000Y-61633100D02*
X109957000Y-61633100D01*
X137004000Y-61941100D02*
X135479000Y-63466200D01*
X135479000Y-63466200D02*
X135479000Y-68501300D01*
X135479000Y-68501300D02*
X135977000Y-68999200D01*
X114033000Y-63391900D02*
X114033000Y-63169100D01*
X114033000Y-63169100D02*
X112497000Y-61633100D01*
X67445400Y-44005200D02*
X68976700Y-45536500D01*
X68976700Y-45536500D02*
X68976700Y-48034800D01*
X68976700Y-48034800D02*
X65944000Y-51067500D01*
X65944000Y-51067500D02*
X65944000Y-56198300D01*
X65944000Y-56198300D02*
X68149200Y-58403500D01*
X68149200Y-58403500D02*
X73228200Y-58403500D01*
X62532500Y-34683700D02*
X62532500Y-36268900D01*
X62532500Y-36268900D02*
X62560200Y-36296600D01*
X104877000Y-52123300D02*
X102694700Y-52123300D01*
X102694700Y-52123300D02*
X102565200Y-51993800D01*
X73228200Y-58403500D02*
X74803200Y-58403500D01*
X102165203Y-57461099D02*
X102565202Y-57061100D01*
X75745601Y-57461099D02*
X102165203Y-57461099D01*
X74803200Y-58403500D02*
X75745601Y-57461099D01*
X132843000Y-38481000D02*
X127685800Y-43638200D01*
X127685800Y-43638200D02*
X127685800Y-47345600D01*
D26*
%TO.N,/A3*%
X123005000Y-55203700D02*
X121059000Y-57149500D01*
X121059000Y-57149500D02*
X120250000Y-57149500D01*
X122570000Y-51032000D02*
X122570000Y-52258200D01*
X123005000Y-52693200D02*
X123005000Y-55203700D01*
X122570000Y-52258200D02*
X123005000Y-52693200D01*
%TO.N,/COL1*%
X99600600Y-50446000D02*
X92082700Y-50446000D01*
X92082700Y-50446000D02*
X88084600Y-54444200D01*
X88084600Y-54444200D02*
X88084600Y-54495000D01*
X115311000Y-44736400D02*
X101511000Y-44736400D01*
X118054000Y-57525600D02*
X110827500Y-57525600D01*
X109957000Y-56655100D02*
X109957000Y-54663300D01*
X118796000Y-58268300D02*
X118054000Y-57525600D01*
X110827500Y-57525600D02*
X109957000Y-56655100D01*
X118796000Y-59277100D02*
X118796000Y-58268300D01*
X117602000Y-60471100D02*
X118796000Y-59277100D01*
X116964000Y-60471100D02*
X117602000Y-60471100D01*
X87455100Y-68572300D02*
X91468700Y-72585900D01*
X83843000Y-68572300D02*
X87455100Y-68572300D01*
X68306400Y-71949490D02*
X68306400Y-72585900D01*
X69481700Y-70774190D02*
X68306400Y-71949490D01*
X69481700Y-69747900D02*
X69481700Y-70774190D01*
X70554300Y-68675300D02*
X69481700Y-69747900D01*
X72219400Y-68675300D02*
X70554300Y-68675300D01*
%TO.N,/A0*%
X132842600Y-48641000D02*
X132843000Y-48641000D01*
X122122000Y-46042100D02*
X124721000Y-48641000D01*
X124721000Y-48641000D02*
X132842600Y-48641000D01*
X72544700Y-65431900D02*
X81101400Y-65431900D01*
X81101400Y-65431900D02*
X81876900Y-64656400D01*
X81876900Y-64656400D02*
X81876900Y-63730500D01*
X81876900Y-63730500D02*
X82615700Y-62991700D01*
X82615700Y-62991700D02*
X86749800Y-62991700D01*
X86749800Y-62991700D02*
X87200100Y-63442000D01*
X87200100Y-63442000D02*
X88355500Y-63442000D01*
X88355500Y-63442000D02*
X90301600Y-65388100D01*
X90301600Y-65388100D02*
X99816900Y-65388100D01*
X99816900Y-65388100D02*
X101032000Y-64173100D01*
X101032000Y-64173100D02*
X104877000Y-64173100D01*
%TO.N,/COL2*%
X117603000Y-51181000D02*
X117602600Y-51181000D01*
X121879000Y-55219700D02*
X117840000Y-51181000D01*
X117840000Y-51181000D02*
X117603000Y-51181000D01*
X76413700Y-73806600D02*
X77196400Y-73023900D01*
X77196400Y-73023900D02*
X77196400Y-72116300D01*
X77196400Y-72116300D02*
X77902200Y-71410500D01*
X77902200Y-71410500D02*
X88602200Y-71410500D01*
X88602200Y-71410500D02*
X88777600Y-71585900D01*
X70846400Y-72585900D02*
X70846400Y-73424500D01*
X71228500Y-73806600D02*
X70846400Y-73424500D01*
X76413700Y-73806600D02*
X71228500Y-73806600D01*
X81283700Y-56344300D02*
X90857200Y-56344300D01*
X91846200Y-55355300D02*
X98246222Y-55355300D01*
X101608000Y-53393300D02*
X114448000Y-53393300D01*
X98713022Y-54888500D02*
X100113000Y-54888500D01*
X90857200Y-56344300D02*
X91846200Y-55355300D01*
X100113000Y-54888500D02*
X101608000Y-53393300D01*
X98246222Y-55355300D02*
X98713022Y-54888500D01*
X81004900Y-56065500D02*
X81283700Y-56344300D01*
%TO.N,/COL3*%
X104554000Y-68191800D02*
X104406000Y-68339600D01*
X104406000Y-68339600D02*
X99113700Y-68339600D01*
X99113700Y-68339600D02*
X97724000Y-69729300D01*
X97724000Y-69729300D02*
X97724000Y-70778200D01*
X97724000Y-70778200D02*
X96548700Y-71953500D01*
X96548700Y-71953500D02*
X96548700Y-72585900D01*
X91471900Y-64173100D02*
X92647200Y-64173100D01*
X92647200Y-64173100D02*
X92647200Y-63805700D01*
X92647200Y-63805700D02*
X93455100Y-62997800D01*
X93455100Y-62997800D02*
X97438800Y-62997800D01*
X112597000Y-68759000D02*
X120614000Y-68759000D01*
X73386400Y-72585900D02*
X74561700Y-72585900D01*
X74561700Y-72585900D02*
X74561700Y-72218500D01*
X74561700Y-72218500D02*
X75369600Y-71410600D01*
X75369600Y-71410600D02*
X76225900Y-71410600D01*
X76225900Y-71410600D02*
X77196400Y-70440100D01*
X77196400Y-70440100D02*
X77196400Y-69557100D01*
X77196400Y-69557100D02*
X78040000Y-68713500D01*
X78040000Y-68713500D02*
X82609400Y-68713500D01*
X87190000Y-62406200D02*
X88529700Y-62406200D01*
X88529700Y-62406200D02*
X90296600Y-64173100D01*
X90296600Y-64173100D02*
X91471900Y-64173100D01*
%TO.N,/COL5*%
X132843000Y-53721000D02*
X134071000Y-54949300D01*
X134071000Y-54949300D02*
X134071000Y-72655500D01*
X134071000Y-72655500D02*
X132064000Y-74661900D01*
X132064000Y-74661900D02*
X104513000Y-74661900D01*
X104513000Y-74661900D02*
X102804000Y-72953200D01*
X132842600Y-53721000D02*
X132843000Y-53721000D01*
X101628700Y-72585900D02*
X101629000Y-72585900D01*
X99098100Y-53213000D02*
X99098100Y-52037700D01*
X99098100Y-52037700D02*
X100326000Y-50809900D01*
X100326000Y-50809900D02*
X100326000Y-49383900D01*
X100326000Y-49383900D02*
X99976700Y-49034700D01*
X101629000Y-72585900D02*
X102804000Y-72585900D01*
X102804000Y-72585900D02*
X102804000Y-72953200D01*
X85207300Y-74661900D02*
X84523200Y-73977800D01*
X101095000Y-74661900D02*
X85207300Y-74661900D01*
X101628700Y-74128200D02*
X101095000Y-74661900D01*
X101628700Y-72585900D02*
X101628700Y-74128200D01*
X127584200Y-53721000D02*
X126504700Y-54800500D01*
X132842600Y-53721000D02*
X127584200Y-53721000D01*
X97922800Y-54405900D02*
X90896600Y-54405900D01*
X90896600Y-54405900D02*
X90170300Y-55132200D01*
X97922800Y-54388300D02*
X99098100Y-53213000D01*
X97922800Y-54405900D02*
X97922800Y-54388300D01*
%TO.N,/A1*%
X101164000Y-56806000D02*
X79931400Y-56806000D01*
X102938601Y-56297999D02*
X102925901Y-56285299D01*
X106134000Y-58700800D02*
X103731199Y-56297999D01*
X77916208Y-52753500D02*
X78663800Y-52753500D01*
X77558100Y-53111608D02*
X77916208Y-52753500D01*
X106134000Y-62890100D02*
X106134000Y-58700800D01*
X102925901Y-56285299D02*
X101684701Y-56285299D01*
X107417000Y-64173100D02*
X106134000Y-62890100D01*
X101684701Y-56285299D02*
X101164000Y-56806000D01*
X79931400Y-56806000D02*
X77558100Y-54432700D01*
X103731199Y-56297999D02*
X102938601Y-56297999D01*
X77558100Y-54432700D02*
X77558100Y-53111608D01*
%TO.N,/A2*%
X112855000Y-72259400D02*
X111140000Y-72259400D01*
X111140000Y-72259400D02*
X110878000Y-71997100D01*
X82510600Y-52753500D02*
X81168600Y-52753500D01*
X81168600Y-52753500D02*
X81101100Y-52821000D01*
X126155700Y-73761200D02*
X127331000Y-72585900D01*
X113604000Y-73761200D02*
X126155700Y-73761200D01*
X112855000Y-73012100D02*
X113604000Y-73761200D01*
X112855000Y-72259400D02*
X112855000Y-73012100D01*
X107979000Y-69557100D02*
X109390000Y-68145600D01*
X107008000Y-71410600D02*
X107979000Y-70440100D01*
X107979000Y-70440100D02*
X107979000Y-69557100D01*
X105344000Y-71410600D02*
X107008000Y-71410600D01*
X109390000Y-68145600D02*
X110566000Y-68145600D01*
X104168700Y-72585900D02*
X105344000Y-71410600D01*
D25*
%TO.N,/SPK2*%
X67445400Y-63965900D02*
X70928900Y-67449400D01*
X70928900Y-67449400D02*
X88960400Y-67449400D01*
X88960400Y-67449400D02*
X89225300Y-67714300D01*
X89225300Y-67714300D02*
X101006000Y-67714300D01*
X101006000Y-67714300D02*
X101456000Y-67264000D01*
X101456000Y-67264000D02*
X110174000Y-67264000D01*
X110174000Y-67264000D02*
X110592000Y-66846700D01*
X110592000Y-66846700D02*
X118091000Y-66846700D01*
X118091000Y-66846700D02*
X119380000Y-65557400D01*
X122229000Y-53485400D02*
X120561000Y-51817600D01*
X120561000Y-51817600D02*
X120561000Y-47451800D01*
%TO.N,/SPK1*%
X67445400Y-61465900D02*
X71256800Y-65277300D01*
X71256800Y-65277300D02*
X71256800Y-65417200D01*
X71256800Y-65417200D02*
X72303300Y-66463700D01*
X72303300Y-66463700D02*
X89106600Y-66463700D01*
X89106600Y-66463700D02*
X89556900Y-66914000D01*
X89556900Y-66914000D02*
X100674000Y-66914000D01*
X100674000Y-66914000D02*
X101125000Y-66463700D01*
X101125000Y-66463700D02*
X109843000Y-66463700D01*
X109843000Y-66463700D02*
X110260000Y-66046400D01*
X110260000Y-66046400D02*
X113486000Y-66046400D01*
X113486000Y-66046400D02*
X116638000Y-62894500D01*
X118965000Y-29478300D02*
X117047000Y-29478300D01*
X117047000Y-29478300D02*
X115799000Y-30726500D01*
X115799000Y-30726500D02*
X115799000Y-31597200D01*
X115799000Y-31597200D02*
X113995000Y-33401000D01*
X120978000Y-56145200D02*
X120978000Y-55345100D01*
X120978000Y-55345100D02*
X119804000Y-54171200D01*
D26*
%TO.N,/D1*%
X101629000Y-70045900D02*
X101628700Y-70045900D01*
X101629000Y-70045900D02*
X104168700Y-70045900D01*
X104168700Y-70045900D02*
X106708700Y-70045900D01*
X106708700Y-70045900D02*
X106709000Y-70045900D01*
X106709000Y-70045900D02*
X106709000Y-68870600D01*
X106709000Y-68870600D02*
X107370000Y-68870600D01*
X107370000Y-68870600D02*
X108076000Y-68164300D01*
X96548700Y-70045900D02*
X95365400Y-71229200D01*
X95365400Y-71229200D02*
X95365400Y-73072900D01*
X95365400Y-73072900D02*
X96053800Y-73761300D01*
X96053800Y-73761300D02*
X97037700Y-73761300D01*
X97037700Y-73761300D02*
X97913400Y-72885600D01*
X97913400Y-72885600D02*
X97913400Y-71225200D01*
X97913400Y-71225200D02*
X99088700Y-70049900D01*
X99088700Y-70049900D02*
X99088700Y-70045900D01*
X94008700Y-70045900D02*
X96548700Y-70045900D01*
X91468700Y-70045900D02*
X94008700Y-70045900D01*
X103112301Y-55835288D02*
X103125001Y-55847988D01*
X99224800Y-56064200D02*
X99453712Y-55835288D01*
X103125001Y-55847988D02*
X106232312Y-55847988D01*
X99453712Y-55835288D02*
X103112301Y-55835288D01*
X106232312Y-55847988D02*
X107417000Y-54663300D01*
%TO.N,Net-(R1-Pad2)*%
X136804000Y-33705700D02*
X133299000Y-37211000D01*
X133299000Y-37211000D02*
X131891000Y-37211000D01*
X131891000Y-37211000D02*
X129351000Y-39751000D01*
X129351000Y-39751000D02*
X113574000Y-39751000D01*
X113574000Y-39751000D02*
X112807000Y-40517900D01*
X112807000Y-40517900D02*
X112807000Y-42373400D01*
X112807000Y-42373400D02*
X113995000Y-43561000D01*
%TO.N,/D7*%
X77189000Y-60464100D02*
X76159700Y-61493400D01*
X76159700Y-61493400D02*
X72220500Y-61493400D01*
X72220500Y-61493400D02*
X72215200Y-61498700D01*
X69877000Y-46403100D02*
X69877000Y-47817200D01*
X69877000Y-47817200D02*
X71804600Y-49744800D01*
X122793000Y-28680200D02*
X116355000Y-28680200D01*
X116355000Y-28680200D02*
X115539000Y-29496300D01*
X115539000Y-29496300D02*
X85687900Y-29496300D01*
X79431600Y-63010500D02*
X80606900Y-64185800D01*
X79431600Y-61306400D02*
X79431600Y-63010500D01*
X78589300Y-60464100D02*
X79431600Y-61306400D01*
X77189000Y-60464100D02*
X78589300Y-60464100D01*
%TO.N,/COL7*%
X132842800Y-56261200D02*
X132843000Y-56261000D01*
X128659000Y-70566200D02*
X128659000Y-69595300D01*
X128659000Y-69595300D02*
X131478000Y-66776600D01*
X131478000Y-66776600D02*
X131478000Y-57625600D01*
X131478000Y-57625600D02*
X132842800Y-56261200D01*
X132842600Y-56261000D02*
X132842800Y-56261200D01*
X129871000Y-72585900D02*
X129871000Y-71410600D01*
X129871000Y-71410600D02*
X129504000Y-71410600D01*
X129504000Y-71410600D02*
X128659000Y-70566200D01*
X84759800Y-48602900D02*
X85935100Y-48602900D01*
X85935100Y-48602900D02*
X85935100Y-48235600D01*
X85935100Y-48235600D02*
X87896300Y-46274400D01*
X87896300Y-46274400D02*
X92133800Y-46274400D01*
X83546400Y-72585900D02*
X84721700Y-72585900D01*
X84721700Y-72585900D02*
X84721700Y-72953200D01*
X84721700Y-72953200D02*
X85980100Y-74211600D01*
X85980100Y-74211600D02*
X99127200Y-74211600D01*
X99127200Y-74211600D02*
X100264000Y-73074700D01*
X100264000Y-73074700D02*
X100264000Y-69132100D01*
X127995000Y-71230900D02*
X128659000Y-70566200D01*
X108063700Y-71230900D02*
X127995000Y-71230900D01*
X106708700Y-72585900D02*
X108063700Y-71230900D01*
%TO.N,/D3*%
X117602600Y-43561000D02*
X117603000Y-43561000D01*
X125082000Y-62372200D02*
X125082000Y-61196900D01*
X125082000Y-61196900D02*
X123680000Y-59795300D01*
X123680000Y-59795300D02*
X123680000Y-50891500D01*
X123680000Y-50891500D02*
X123230000Y-50441200D01*
X123230000Y-50441200D02*
X123230000Y-49077500D01*
X123230000Y-49077500D02*
X117714000Y-43561000D01*
X117714000Y-43561000D02*
X117603000Y-43561000D01*
%TO.N,/D2*%
X122542000Y-62372200D02*
X122542000Y-60466800D01*
X119412000Y-57337000D02*
X119412000Y-55193800D01*
X122542000Y-60466800D02*
X119412000Y-57337000D01*
%TO.N,/D8*%
X117602800Y-56260800D02*
X117603000Y-56261000D01*
X117603000Y-56261000D02*
X119297000Y-57955200D01*
X119297000Y-57955200D02*
X119297000Y-59413600D01*
X119297000Y-59413600D02*
X116541000Y-62169500D01*
X116541000Y-62169500D02*
X116290000Y-62169500D01*
X116290000Y-62169500D02*
X113038000Y-65421100D01*
X113038000Y-65421100D02*
X109566000Y-65421100D01*
X109566000Y-65421100D02*
X109148000Y-65838400D01*
X109148000Y-65838400D02*
X100866000Y-65838400D01*
X100866000Y-65838400D02*
X100415000Y-66288700D01*
X100415000Y-66288700D02*
X89816000Y-66288700D01*
X89816000Y-66288700D02*
X89365700Y-65838400D01*
X89365700Y-65838400D02*
X84799500Y-65838400D01*
X84799500Y-65838400D02*
X83146900Y-64185800D01*
X113995000Y-41021000D02*
X116238000Y-43264000D01*
X116238000Y-43264000D02*
X116238000Y-54896400D01*
X116238000Y-54896400D02*
X117602800Y-56260800D01*
X117602600Y-56261000D02*
X117602800Y-56260800D01*
%TO.N,/D9*%
X117602600Y-58801000D02*
X117603000Y-58801000D01*
X123844000Y-63547600D02*
X117954000Y-63547600D01*
X117954000Y-63547600D02*
X117818000Y-63411100D01*
X88351100Y-64185800D02*
X90003700Y-65838400D01*
X113182496Y-60356800D02*
X114738296Y-58801000D01*
X90003700Y-65838400D02*
X100229000Y-65838400D01*
X100679000Y-65388100D02*
X107935000Y-65388100D01*
X109542000Y-60356800D02*
X113182496Y-60356800D01*
X114738296Y-58801000D02*
X117602600Y-58801000D01*
X85686900Y-64185800D02*
X88351100Y-64185800D01*
X107935000Y-65388100D02*
X108782000Y-64541900D01*
X108782000Y-64541900D02*
X108782000Y-61117600D01*
X100229000Y-65838400D02*
X100679000Y-65388100D01*
X108782000Y-61117600D02*
X109542000Y-60356800D01*
%TO.N,/LCD_RST*%
X132842600Y-35941000D02*
X132206000Y-35941000D01*
X132206000Y-35941000D02*
X130936000Y-37211000D01*
X132843000Y-35941000D02*
X132842600Y-35941000D01*
X107400000Y-37211000D02*
X107842000Y-37211000D01*
X99779900Y-44831000D02*
X107400000Y-37211000D01*
X92678400Y-47427600D02*
X95275000Y-44831000D01*
X88475100Y-47427600D02*
X92678400Y-47427600D01*
X95275000Y-44831000D02*
X99779900Y-44831000D01*
X87299800Y-48602900D02*
X88475100Y-47427600D01*
X109016800Y-37084000D02*
X108889800Y-37211000D01*
X109016800Y-35991800D02*
X109016800Y-37084000D01*
X108889800Y-37211000D02*
X107842000Y-37211000D01*
X130936000Y-37211000D02*
X108889800Y-37211000D01*
%TO.N,/LCD_CS*%
X91204500Y-50349700D02*
X87500700Y-54053500D01*
X87500700Y-54053500D02*
X86357400Y-54053500D01*
X82510600Y-54053500D02*
X86357400Y-54053500D01*
X91204500Y-49778200D02*
X91204500Y-50349700D01*
X92379800Y-48602900D02*
X91204500Y-49778200D01*
%TO.N,/DFP_BUSY*%
X96215000Y-46101000D02*
X98676700Y-48562700D01*
X98676700Y-48562700D02*
X98676700Y-49034700D01*
%TO.N,/D5*%
X117171000Y-70045900D02*
X119711000Y-70045900D01*
X114631000Y-70045900D02*
X117171000Y-70045900D01*
X119711000Y-70045900D02*
X122251000Y-70045900D01*
X122251000Y-70045900D02*
X124791000Y-70045900D01*
X124791000Y-70045900D02*
X127331000Y-70045900D01*
X129871000Y-70045900D02*
X132411000Y-70045900D01*
X127331000Y-70045900D02*
X127331000Y-68870600D01*
X127331000Y-68870600D02*
X128337000Y-68870600D01*
X128337000Y-68870600D02*
X129551000Y-67656400D01*
X114211100Y-61387000D02*
X114211100Y-60439302D01*
X114821000Y-61996900D02*
X114211100Y-61387000D01*
X101205199Y-52770501D02*
X101205199Y-52280799D01*
X112841000Y-50758700D02*
X115178000Y-53095900D01*
X114251000Y-54663300D02*
X112497000Y-54663300D01*
X90445300Y-55894000D02*
X91434300Y-54905000D01*
X102727298Y-50758700D02*
X112841000Y-50758700D01*
X101205199Y-52280799D02*
X102727298Y-50758700D01*
X98526911Y-54438200D02*
X99537500Y-54438200D01*
X98060111Y-54905000D02*
X98526911Y-54438200D01*
X91434300Y-54905000D02*
X98060111Y-54905000D01*
X85016300Y-55894000D02*
X90445300Y-55894000D01*
X84713700Y-55591400D02*
X85016300Y-55894000D01*
X115178000Y-53736100D02*
X114251000Y-54663300D01*
X99537500Y-54438200D02*
X101205199Y-52770501D01*
X115178000Y-53095900D02*
X115178000Y-53736100D01*
%TO.N,Net-(J13-Pad1)*%
X78663800Y-54053500D02*
X79511200Y-54900900D01*
X79511200Y-54900900D02*
X83990500Y-54900900D01*
X83990500Y-54900900D02*
X84047700Y-54843700D01*
X84047700Y-54843700D02*
X84991800Y-54843700D01*
X84991800Y-54843700D02*
X85368100Y-55220000D01*
X85368100Y-55220000D02*
X88432600Y-55220000D01*
X88432600Y-55220000D02*
X90439500Y-53213000D01*
X90439500Y-53213000D02*
X91478100Y-53213000D01*
%TO.N,/COL8*%
X103936800Y-35991800D02*
X103937000Y-35991800D01*
X103937000Y-35991800D02*
X103937000Y-38258600D01*
X103937000Y-38258600D02*
X99904400Y-42291000D01*
X99904400Y-42291000D02*
X95752700Y-42291000D01*
X95752700Y-42291000D02*
X94347600Y-43696100D01*
X94347600Y-43696100D02*
X94347600Y-44164600D01*
X94347600Y-44164600D02*
X92963100Y-45549100D01*
X92963100Y-45549100D02*
X86081600Y-45549100D01*
X86081600Y-45549100D02*
X83395100Y-48235600D01*
X83395100Y-48235600D02*
X83395100Y-48527600D01*
X83395100Y-48527600D02*
X83319800Y-48602900D01*
X83319800Y-48602900D02*
X82219800Y-48602900D01*
X130078800Y-74211500D02*
X131704400Y-72585900D01*
X112050000Y-74211500D02*
X130078800Y-74211500D01*
X110424000Y-72585900D02*
X112050000Y-74211500D01*
X131704400Y-72585900D02*
X132411000Y-72585900D01*
X109248700Y-72585900D02*
X110424000Y-72585900D01*
%TO.N,Net-(J18-PadS)*%
X113995000Y-38481000D02*
X113413000Y-39062600D01*
X113413000Y-39062600D02*
X106591000Y-39062600D01*
%TO.N,Net-(J18-PadT)*%
X83281600Y-38277800D02*
X83281600Y-36452500D01*
X83281600Y-36452500D02*
X83292500Y-36441600D01*
X83292500Y-36441600D02*
X90857200Y-36441600D01*
X90857200Y-36441600D02*
X92564600Y-34734200D01*
X92564600Y-34734200D02*
X112788000Y-34734200D01*
X112788000Y-34734200D02*
X113995000Y-35941000D01*
%TD*%
D27*
%TO.N,GND*%
X136638865Y-27498849D02*
X136233287Y-27666845D01*
X135868276Y-27910737D01*
X135557859Y-28221154D01*
X135313967Y-28586165D01*
X135145971Y-28991743D01*
X135060327Y-29422303D01*
X135060327Y-29861297D01*
X135145971Y-30291857D01*
X135313967Y-30697435D01*
X135557859Y-31062446D01*
X135868276Y-31372863D01*
X136233287Y-31616755D01*
X136638865Y-31784751D01*
X137069425Y-31870395D01*
X137508419Y-31870395D01*
X137938979Y-31784751D01*
X138344557Y-31616755D01*
X138709568Y-31372863D01*
X139019985Y-31062446D01*
X139263877Y-30697435D01*
X139319800Y-30562425D01*
X139319801Y-72331086D01*
X139312395Y-72406618D01*
X139312395Y-72145103D01*
X139226751Y-71714543D01*
X139058755Y-71308965D01*
X138814863Y-70943954D01*
X138504446Y-70633537D01*
X138139435Y-70389645D01*
X137733857Y-70221649D01*
X137303297Y-70136005D01*
X136864303Y-70136005D01*
X136433743Y-70221649D01*
X136028165Y-70389645D01*
X135663154Y-70633537D01*
X135352737Y-70943954D01*
X135108845Y-71308965D01*
X134940849Y-71714543D01*
X134855205Y-72145103D01*
X134855205Y-72584097D01*
X134940849Y-73014657D01*
X135108845Y-73420235D01*
X135352737Y-73785246D01*
X135663154Y-74095663D01*
X136028165Y-74339555D01*
X136433743Y-74507551D01*
X136864303Y-74593195D01*
X137303297Y-74593195D01*
X137733857Y-74507551D01*
X138139435Y-74339555D01*
X138504446Y-74095663D01*
X138791629Y-73808480D01*
X138649627Y-73982592D01*
X138304327Y-74268249D01*
X137910119Y-74481396D01*
X137482016Y-74613916D01*
X137004547Y-74664100D01*
X133136761Y-74664100D01*
X134581959Y-73219335D01*
X134611001Y-73195501D01*
X134658193Y-73137997D01*
X134705910Y-73079872D01*
X134705938Y-73079820D01*
X134705974Y-73079776D01*
X134742043Y-73012297D01*
X134776502Y-72947853D01*
X134776519Y-72947798D01*
X134776546Y-72947747D01*
X134799095Y-72873412D01*
X134819980Y-72804599D01*
X134819985Y-72804544D01*
X134820003Y-72804486D01*
X134828112Y-72722154D01*
X134834676Y-72655615D01*
X134831000Y-72618236D01*
X134831000Y-69179056D01*
X134850375Y-69194957D01*
X134999613Y-69344166D01*
X135059795Y-69489456D01*
X135173063Y-69658974D01*
X135317226Y-69803137D01*
X135486744Y-69916405D01*
X135675102Y-69994426D01*
X135875061Y-70034200D01*
X136078939Y-70034200D01*
X136278898Y-69994426D01*
X136467256Y-69916405D01*
X136636774Y-69803137D01*
X136780937Y-69658974D01*
X136894205Y-69489456D01*
X136972226Y-69301098D01*
X137012000Y-69101139D01*
X137012000Y-68897261D01*
X136972226Y-68697302D01*
X136894205Y-68508944D01*
X136840903Y-68429172D01*
X137729000Y-68429172D01*
X137902254Y-68412108D01*
X138068850Y-68361572D01*
X138222386Y-68279505D01*
X138356962Y-68169062D01*
X138467405Y-68034486D01*
X138549472Y-67880950D01*
X138600008Y-67714354D01*
X138617072Y-67541100D01*
X138617072Y-66341100D01*
X138600008Y-66167846D01*
X138549472Y-66001250D01*
X138467405Y-65847714D01*
X138356962Y-65713138D01*
X138222386Y-65602695D01*
X138117039Y-65546386D01*
X138138429Y-65530149D01*
X138331496Y-65312293D01*
X138478352Y-65060958D01*
X138570476Y-64797990D01*
X138449155Y-64568100D01*
X137131000Y-64568100D01*
X137131000Y-64588100D01*
X136877000Y-64588100D01*
X136877000Y-64568100D01*
X136857000Y-64568100D01*
X136857000Y-64314100D01*
X136877000Y-64314100D01*
X136877000Y-64294100D01*
X137131000Y-64294100D01*
X137131000Y-64314100D01*
X138449155Y-64314100D01*
X138570476Y-64084210D01*
X138478352Y-63821242D01*
X138331496Y-63569907D01*
X138138429Y-63352051D01*
X137932278Y-63195562D01*
X137958014Y-63181806D01*
X138184134Y-62996234D01*
X138369706Y-62770114D01*
X138507599Y-62512134D01*
X138592513Y-62232211D01*
X138621185Y-61941100D01*
X138592513Y-61649989D01*
X138507599Y-61370066D01*
X138369706Y-61112086D01*
X138184134Y-60885966D01*
X137958014Y-60700394D01*
X137700034Y-60562501D01*
X137420111Y-60477587D01*
X137201950Y-60456100D01*
X136806050Y-60456100D01*
X136587889Y-60477587D01*
X136307966Y-60562501D01*
X136049986Y-60700394D01*
X135823866Y-60885966D01*
X135638294Y-61112086D01*
X135500401Y-61370066D01*
X135415487Y-61649989D01*
X135386815Y-61941100D01*
X135413261Y-62209610D01*
X134850328Y-62772580D01*
X134831000Y-62788443D01*
X134831000Y-54986669D01*
X134834676Y-54949392D01*
X134831000Y-54912023D01*
X134831000Y-54911967D01*
X134826126Y-54862476D01*
X134820020Y-54800405D01*
X134820008Y-54800366D01*
X134820003Y-54800314D01*
X134795740Y-54720327D01*
X134776581Y-54657139D01*
X134776560Y-54657100D01*
X134776546Y-54657053D01*
X134749739Y-54606900D01*
X135390928Y-54606900D01*
X135390928Y-55806900D01*
X135407992Y-55980154D01*
X135458528Y-56146750D01*
X135540595Y-56300286D01*
X135651038Y-56434862D01*
X135785614Y-56545305D01*
X135939150Y-56627372D01*
X136105746Y-56677908D01*
X136279000Y-56694972D01*
X137729000Y-56694972D01*
X137902254Y-56677908D01*
X138068850Y-56627372D01*
X138222386Y-56545305D01*
X138356962Y-56434862D01*
X138467405Y-56300286D01*
X138549472Y-56146750D01*
X138600008Y-55980154D01*
X138617072Y-55806900D01*
X138617072Y-54606900D01*
X138600008Y-54433646D01*
X138549472Y-54267050D01*
X138467405Y-54113514D01*
X138356962Y-53978938D01*
X138222386Y-53868495D01*
X138117039Y-53812186D01*
X138138429Y-53795949D01*
X138331496Y-53578093D01*
X138478352Y-53326758D01*
X138570476Y-53063790D01*
X138449155Y-52833900D01*
X137131000Y-52833900D01*
X137131000Y-52853900D01*
X136877000Y-52853900D01*
X136877000Y-52833900D01*
X135558845Y-52833900D01*
X135437524Y-53063790D01*
X135529648Y-53326758D01*
X135676504Y-53578093D01*
X135869571Y-53795949D01*
X135890961Y-53812186D01*
X135785614Y-53868495D01*
X135651038Y-53978938D01*
X135540595Y-54113514D01*
X135458528Y-54267050D01*
X135407992Y-54433646D01*
X135390928Y-54606900D01*
X134749739Y-54606900D01*
X134739200Y-54587185D01*
X134706025Y-54525101D01*
X134705997Y-54525067D01*
X134705974Y-54525024D01*
X134658757Y-54467490D01*
X134634861Y-54438365D01*
X134634827Y-54438331D01*
X134611001Y-54409299D01*
X134582042Y-54385533D01*
X134283839Y-54087258D01*
X134327600Y-53867260D01*
X134327600Y-53574740D01*
X134270532Y-53287842D01*
X134158590Y-53017589D01*
X133996075Y-52774368D01*
X133789232Y-52567525D01*
X133614840Y-52451000D01*
X133789232Y-52334475D01*
X133996075Y-52127632D01*
X134158590Y-51884411D01*
X134270532Y-51614158D01*
X134327600Y-51327260D01*
X134327600Y-51034740D01*
X134270532Y-50747842D01*
X134158590Y-50477589D01*
X133996075Y-50234368D01*
X133968607Y-50206900D01*
X135386815Y-50206900D01*
X135415487Y-50498011D01*
X135500401Y-50777934D01*
X135638294Y-51035914D01*
X135823866Y-51262034D01*
X136049986Y-51447606D01*
X136075722Y-51461362D01*
X135869571Y-51617851D01*
X135676504Y-51835707D01*
X135529648Y-52087042D01*
X135437524Y-52350010D01*
X135558845Y-52579900D01*
X136877000Y-52579900D01*
X136877000Y-52559900D01*
X137131000Y-52559900D01*
X137131000Y-52579900D01*
X138449155Y-52579900D01*
X138570476Y-52350010D01*
X138478352Y-52087042D01*
X138331496Y-51835707D01*
X138138429Y-51617851D01*
X137932278Y-51461362D01*
X137958014Y-51447606D01*
X138184134Y-51262034D01*
X138369706Y-51035914D01*
X138507599Y-50777934D01*
X138592513Y-50498011D01*
X138621185Y-50206900D01*
X138592513Y-49915789D01*
X138507599Y-49635866D01*
X138369706Y-49377886D01*
X138184134Y-49151766D01*
X137958014Y-48966194D01*
X137700034Y-48828301D01*
X137420111Y-48743387D01*
X137201950Y-48721900D01*
X136806050Y-48721900D01*
X136587889Y-48743387D01*
X136307966Y-48828301D01*
X136049986Y-48966194D01*
X135823866Y-49151766D01*
X135638294Y-49377886D01*
X135500401Y-49635866D01*
X135415487Y-49915789D01*
X135386815Y-50206900D01*
X133968607Y-50206900D01*
X133789232Y-50027525D01*
X133614840Y-49911000D01*
X133789232Y-49794475D01*
X133996075Y-49587632D01*
X134158590Y-49344411D01*
X134270532Y-49074158D01*
X134327600Y-48787260D01*
X134327600Y-48494740D01*
X134270532Y-48207842D01*
X134158590Y-47937589D01*
X133996075Y-47694368D01*
X133789232Y-47487525D01*
X133614840Y-47371000D01*
X133789232Y-47254475D01*
X133996075Y-47047632D01*
X134158590Y-46804411D01*
X134270532Y-46534158D01*
X134327600Y-46247260D01*
X134327600Y-45954740D01*
X134270532Y-45667842D01*
X134158590Y-45397589D01*
X133996075Y-45154368D01*
X133789232Y-44947525D01*
X133614840Y-44831000D01*
X133789232Y-44714475D01*
X133996075Y-44507632D01*
X134158590Y-44264411D01*
X134270532Y-43994158D01*
X134327600Y-43707260D01*
X134327600Y-43564365D01*
X135369000Y-43564365D01*
X135369000Y-43847035D01*
X135424147Y-44124274D01*
X135532320Y-44385427D01*
X135689363Y-44620459D01*
X135889241Y-44820337D01*
X136124273Y-44977380D01*
X136385426Y-45085553D01*
X136662665Y-45140700D01*
X136945335Y-45140700D01*
X137222574Y-45085553D01*
X137483727Y-44977380D01*
X137718759Y-44820337D01*
X137918637Y-44620459D01*
X138075680Y-44385427D01*
X138183853Y-44124274D01*
X138239000Y-43847035D01*
X138239000Y-43564365D01*
X138183853Y-43287126D01*
X138075680Y-43025973D01*
X137918637Y-42790941D01*
X137718759Y-42591063D01*
X137483727Y-42434020D01*
X137222574Y-42325847D01*
X136945335Y-42270700D01*
X136662665Y-42270700D01*
X136385426Y-42325847D01*
X136124273Y-42434020D01*
X135889241Y-42591063D01*
X135689363Y-42790941D01*
X135532320Y-43025973D01*
X135424147Y-43287126D01*
X135369000Y-43564365D01*
X134327600Y-43564365D01*
X134327600Y-43414740D01*
X134270532Y-43127842D01*
X134158590Y-42857589D01*
X133996075Y-42614368D01*
X133789232Y-42407525D01*
X133614840Y-42291000D01*
X133789232Y-42174475D01*
X133996075Y-41967632D01*
X134158590Y-41724411D01*
X134270532Y-41454158D01*
X134327600Y-41167260D01*
X134327600Y-40874740D01*
X134270532Y-40587842D01*
X134158590Y-40317589D01*
X133996075Y-40074368D01*
X133864220Y-39942513D01*
X133936780Y-39920502D01*
X134047094Y-39861537D01*
X134143785Y-39782185D01*
X134223137Y-39685494D01*
X134282102Y-39575180D01*
X134318412Y-39455482D01*
X134322301Y-39416000D01*
X136451705Y-39416000D01*
X136597102Y-39476226D01*
X136797061Y-39516000D01*
X137000939Y-39516000D01*
X137200898Y-39476226D01*
X137389256Y-39398205D01*
X137558774Y-39284937D01*
X137702937Y-39140774D01*
X137816205Y-38971256D01*
X137894226Y-38782898D01*
X137934000Y-38582939D01*
X137934000Y-38379061D01*
X137894226Y-38179102D01*
X137816205Y-37990744D01*
X137702937Y-37821226D01*
X137558774Y-37677063D01*
X137389256Y-37563795D01*
X137200898Y-37485774D01*
X137000939Y-37446000D01*
X136797061Y-37446000D01*
X136597102Y-37485774D01*
X136451705Y-37546000D01*
X134322301Y-37546000D01*
X134318412Y-37506518D01*
X134282102Y-37386820D01*
X134252788Y-37331978D01*
X136480175Y-35104400D01*
X136662665Y-35140700D01*
X136945335Y-35140700D01*
X137222574Y-35085553D01*
X137483727Y-34977380D01*
X137718759Y-34820337D01*
X137918637Y-34620459D01*
X138075680Y-34385427D01*
X138183853Y-34124274D01*
X138239000Y-33847035D01*
X138239000Y-33564365D01*
X138183853Y-33287126D01*
X138075680Y-33025973D01*
X137918637Y-32790941D01*
X137718759Y-32591063D01*
X137483727Y-32434020D01*
X137222574Y-32325847D01*
X136945335Y-32270700D01*
X136662665Y-32270700D01*
X136385426Y-32325847D01*
X136124273Y-32434020D01*
X135889241Y-32591063D01*
X135689363Y-32790941D01*
X135532320Y-33025973D01*
X135424147Y-33287126D01*
X135369000Y-33564365D01*
X135369000Y-33847035D01*
X135405324Y-34029648D01*
X134169983Y-35265095D01*
X134158590Y-35237589D01*
X133996075Y-34994368D01*
X133789232Y-34787525D01*
X133615871Y-34671689D01*
X133691392Y-34429397D01*
X132842600Y-33580605D01*
X131993808Y-34429397D01*
X132069329Y-34671689D01*
X131895968Y-34787525D01*
X131689125Y-34994368D01*
X131526610Y-35237589D01*
X131414668Y-35507842D01*
X131377500Y-35694699D01*
X130621199Y-36451000D01*
X119004596Y-36451000D01*
X119005971Y-36448117D01*
X119077939Y-36164589D01*
X119093211Y-35872469D01*
X119051199Y-35582981D01*
X118953519Y-35307253D01*
X118880072Y-35169843D01*
X118630997Y-35092208D01*
X117782205Y-35941000D01*
X117796348Y-35955143D01*
X117616743Y-36134748D01*
X117602600Y-36120605D01*
X117588458Y-36134748D01*
X117408853Y-35955143D01*
X117422995Y-35941000D01*
X116574203Y-35092208D01*
X116325128Y-35169843D01*
X116199229Y-35433883D01*
X116127261Y-35717411D01*
X116111989Y-36009531D01*
X116154001Y-36299019D01*
X116207842Y-36451000D01*
X115391103Y-36451000D01*
X115422932Y-36374158D01*
X115480000Y-36087260D01*
X115480000Y-35794740D01*
X115422932Y-35507842D01*
X115310990Y-35237589D01*
X115148475Y-34994368D01*
X114941632Y-34787525D01*
X114767240Y-34671000D01*
X114941632Y-34554475D01*
X115148475Y-34347632D01*
X115310990Y-34104411D01*
X115422932Y-33834158D01*
X115480000Y-33547260D01*
X115480000Y-33254740D01*
X115477286Y-33241094D01*
X116427641Y-32290845D01*
X116463344Y-32261544D01*
X116532736Y-32176990D01*
X116580156Y-32119215D01*
X116580166Y-32119197D01*
X116580186Y-32119172D01*
X116630063Y-32025858D01*
X116643053Y-32001560D01*
X116655968Y-32014475D01*
X116830360Y-32131000D01*
X116655968Y-32247525D01*
X116449125Y-32454368D01*
X116286610Y-32697589D01*
X116174668Y-32967842D01*
X116117600Y-33254740D01*
X116117600Y-33547260D01*
X116174668Y-33834158D01*
X116286610Y-34104411D01*
X116449125Y-34347632D01*
X116655968Y-34554475D01*
X116829329Y-34670311D01*
X116753808Y-34912603D01*
X117602600Y-35761395D01*
X118451392Y-34912603D01*
X118375871Y-34670311D01*
X118549232Y-34554475D01*
X118756075Y-34347632D01*
X118918590Y-34104411D01*
X119030532Y-33834158D01*
X119087600Y-33547260D01*
X119087600Y-33469531D01*
X131351989Y-33469531D01*
X131394001Y-33759019D01*
X131491681Y-34034747D01*
X131565128Y-34172157D01*
X131814203Y-34249792D01*
X132662995Y-33401000D01*
X133022205Y-33401000D01*
X133870997Y-34249792D01*
X134120072Y-34172157D01*
X134245971Y-33908117D01*
X134317939Y-33624589D01*
X134333211Y-33332469D01*
X134291199Y-33042981D01*
X134193519Y-32767253D01*
X134120072Y-32629843D01*
X133870997Y-32552208D01*
X133022205Y-33401000D01*
X132662995Y-33401000D01*
X131814203Y-32552208D01*
X131565128Y-32629843D01*
X131439229Y-32893883D01*
X131367261Y-33177411D01*
X131351989Y-33469531D01*
X119087600Y-33469531D01*
X119087600Y-33254740D01*
X119030532Y-32967842D01*
X118918590Y-32697589D01*
X118756075Y-32454368D01*
X118549232Y-32247525D01*
X118374840Y-32131000D01*
X118549232Y-32014475D01*
X118756075Y-31807632D01*
X118918590Y-31564411D01*
X119030532Y-31294158D01*
X119087600Y-31007260D01*
X119087600Y-30714740D01*
X119047531Y-30513300D01*
X119066939Y-30513300D01*
X119266898Y-30473526D01*
X119455256Y-30395505D01*
X119624774Y-30282237D01*
X119768937Y-30138074D01*
X119853844Y-30011000D01*
X131354528Y-30011000D01*
X131354528Y-31711000D01*
X131366788Y-31835482D01*
X131403098Y-31955180D01*
X131462063Y-32065494D01*
X131541415Y-32162185D01*
X131638106Y-32241537D01*
X131748420Y-32300502D01*
X131868118Y-32336812D01*
X131992600Y-32349072D01*
X132001142Y-32349072D01*
X131993808Y-32372603D01*
X132842600Y-33221395D01*
X133691392Y-32372603D01*
X133684058Y-32349072D01*
X133692600Y-32349072D01*
X133817082Y-32336812D01*
X133936780Y-32300502D01*
X134047094Y-32241537D01*
X134143785Y-32162185D01*
X134223137Y-32065494D01*
X134282102Y-31955180D01*
X134318412Y-31835482D01*
X134330672Y-31711000D01*
X134330672Y-30011000D01*
X134318412Y-29886518D01*
X134282102Y-29766820D01*
X134223137Y-29656506D01*
X134143785Y-29559815D01*
X134047094Y-29480463D01*
X133936780Y-29421498D01*
X133817082Y-29385188D01*
X133692600Y-29372928D01*
X131992600Y-29372928D01*
X131868118Y-29385188D01*
X131748420Y-29421498D01*
X131638106Y-29480463D01*
X131541415Y-29559815D01*
X131462063Y-29656506D01*
X131403098Y-29766820D01*
X131366788Y-29886518D01*
X131354528Y-30011000D01*
X119853844Y-30011000D01*
X119882205Y-29968556D01*
X119960226Y-29780198D01*
X120000000Y-29580239D01*
X120000000Y-29440200D01*
X122089289Y-29440200D01*
X122133226Y-29484137D01*
X122302744Y-29597405D01*
X122491102Y-29675426D01*
X122691061Y-29715200D01*
X122894939Y-29715200D01*
X123094898Y-29675426D01*
X123283256Y-29597405D01*
X123452774Y-29484137D01*
X123596937Y-29339974D01*
X123710205Y-29170456D01*
X123788226Y-28982098D01*
X123828000Y-28782139D01*
X123828000Y-28578261D01*
X123788226Y-28378302D01*
X123710205Y-28189944D01*
X123596937Y-28020426D01*
X123452774Y-27876263D01*
X123283256Y-27762995D01*
X123094898Y-27684974D01*
X122894939Y-27645200D01*
X122691061Y-27645200D01*
X122491102Y-27684974D01*
X122302744Y-27762995D01*
X122133226Y-27876263D01*
X122089289Y-27920200D01*
X116392299Y-27920200D01*
X116354953Y-27916524D01*
X116295785Y-27922355D01*
X116206014Y-27931197D01*
X116205987Y-27931205D01*
X116205968Y-27931207D01*
X116142399Y-27950494D01*
X116062753Y-27974654D01*
X116062732Y-27974665D01*
X116062710Y-27974672D01*
X115997801Y-28009372D01*
X115930724Y-28045226D01*
X115930706Y-28045241D01*
X115930685Y-28045252D01*
X115868024Y-28096682D01*
X115814999Y-28140199D01*
X115791189Y-28169211D01*
X115476727Y-28483712D01*
X115480000Y-28467260D01*
X115480000Y-28174740D01*
X115422932Y-27887842D01*
X115310990Y-27617589D01*
X115220392Y-27482000D01*
X136723570Y-27482000D01*
X136638865Y-27498849D01*
%TA.AperFunction,Conductor*%
D28*
G36*
X136638865Y-27498849D02*
G01*
X136233287Y-27666845D01*
X135868276Y-27910737D01*
X135557859Y-28221154D01*
X135313967Y-28586165D01*
X135145971Y-28991743D01*
X135060327Y-29422303D01*
X135060327Y-29861297D01*
X135145971Y-30291857D01*
X135313967Y-30697435D01*
X135557859Y-31062446D01*
X135868276Y-31372863D01*
X136233287Y-31616755D01*
X136638865Y-31784751D01*
X137069425Y-31870395D01*
X137508419Y-31870395D01*
X137938979Y-31784751D01*
X138344557Y-31616755D01*
X138709568Y-31372863D01*
X139019985Y-31062446D01*
X139263877Y-30697435D01*
X139319800Y-30562425D01*
X139319801Y-72331086D01*
X139312395Y-72406618D01*
X139312395Y-72145103D01*
X139226751Y-71714543D01*
X139058755Y-71308965D01*
X138814863Y-70943954D01*
X138504446Y-70633537D01*
X138139435Y-70389645D01*
X137733857Y-70221649D01*
X137303297Y-70136005D01*
X136864303Y-70136005D01*
X136433743Y-70221649D01*
X136028165Y-70389645D01*
X135663154Y-70633537D01*
X135352737Y-70943954D01*
X135108845Y-71308965D01*
X134940849Y-71714543D01*
X134855205Y-72145103D01*
X134855205Y-72584097D01*
X134940849Y-73014657D01*
X135108845Y-73420235D01*
X135352737Y-73785246D01*
X135663154Y-74095663D01*
X136028165Y-74339555D01*
X136433743Y-74507551D01*
X136864303Y-74593195D01*
X137303297Y-74593195D01*
X137733857Y-74507551D01*
X138139435Y-74339555D01*
X138504446Y-74095663D01*
X138791629Y-73808480D01*
X138649627Y-73982592D01*
X138304327Y-74268249D01*
X137910119Y-74481396D01*
X137482016Y-74613916D01*
X137004547Y-74664100D01*
X133136761Y-74664100D01*
X134581959Y-73219335D01*
X134611001Y-73195501D01*
X134658193Y-73137997D01*
X134705910Y-73079872D01*
X134705938Y-73079820D01*
X134705974Y-73079776D01*
X134742043Y-73012297D01*
X134776502Y-72947853D01*
X134776519Y-72947798D01*
X134776546Y-72947747D01*
X134799095Y-72873412D01*
X134819980Y-72804599D01*
X134819985Y-72804544D01*
X134820003Y-72804486D01*
X134828112Y-72722154D01*
X134834676Y-72655615D01*
X134831000Y-72618236D01*
X134831000Y-69179056D01*
X134850375Y-69194957D01*
X134999613Y-69344166D01*
X135059795Y-69489456D01*
X135173063Y-69658974D01*
X135317226Y-69803137D01*
X135486744Y-69916405D01*
X135675102Y-69994426D01*
X135875061Y-70034200D01*
X136078939Y-70034200D01*
X136278898Y-69994426D01*
X136467256Y-69916405D01*
X136636774Y-69803137D01*
X136780937Y-69658974D01*
X136894205Y-69489456D01*
X136972226Y-69301098D01*
X137012000Y-69101139D01*
X137012000Y-68897261D01*
X136972226Y-68697302D01*
X136894205Y-68508944D01*
X136840903Y-68429172D01*
X137729000Y-68429172D01*
X137902254Y-68412108D01*
X138068850Y-68361572D01*
X138222386Y-68279505D01*
X138356962Y-68169062D01*
X138467405Y-68034486D01*
X138549472Y-67880950D01*
X138600008Y-67714354D01*
X138617072Y-67541100D01*
X138617072Y-66341100D01*
X138600008Y-66167846D01*
X138549472Y-66001250D01*
X138467405Y-65847714D01*
X138356962Y-65713138D01*
X138222386Y-65602695D01*
X138117039Y-65546386D01*
X138138429Y-65530149D01*
X138331496Y-65312293D01*
X138478352Y-65060958D01*
X138570476Y-64797990D01*
X138449155Y-64568100D01*
X137131000Y-64568100D01*
X137131000Y-64588100D01*
X136877000Y-64588100D01*
X136877000Y-64568100D01*
X136857000Y-64568100D01*
X136857000Y-64314100D01*
X136877000Y-64314100D01*
X136877000Y-64294100D01*
X137131000Y-64294100D01*
X137131000Y-64314100D01*
X138449155Y-64314100D01*
X138570476Y-64084210D01*
X138478352Y-63821242D01*
X138331496Y-63569907D01*
X138138429Y-63352051D01*
X137932278Y-63195562D01*
X137958014Y-63181806D01*
X138184134Y-62996234D01*
X138369706Y-62770114D01*
X138507599Y-62512134D01*
X138592513Y-62232211D01*
X138621185Y-61941100D01*
X138592513Y-61649989D01*
X138507599Y-61370066D01*
X138369706Y-61112086D01*
X138184134Y-60885966D01*
X137958014Y-60700394D01*
X137700034Y-60562501D01*
X137420111Y-60477587D01*
X137201950Y-60456100D01*
X136806050Y-60456100D01*
X136587889Y-60477587D01*
X136307966Y-60562501D01*
X136049986Y-60700394D01*
X135823866Y-60885966D01*
X135638294Y-61112086D01*
X135500401Y-61370066D01*
X135415487Y-61649989D01*
X135386815Y-61941100D01*
X135413261Y-62209610D01*
X134850328Y-62772580D01*
X134831000Y-62788443D01*
X134831000Y-54986669D01*
X134834676Y-54949392D01*
X134831000Y-54912023D01*
X134831000Y-54911967D01*
X134826126Y-54862476D01*
X134820020Y-54800405D01*
X134820008Y-54800366D01*
X134820003Y-54800314D01*
X134795740Y-54720327D01*
X134776581Y-54657139D01*
X134776560Y-54657100D01*
X134776546Y-54657053D01*
X134749739Y-54606900D01*
X135390928Y-54606900D01*
X135390928Y-55806900D01*
X135407992Y-55980154D01*
X135458528Y-56146750D01*
X135540595Y-56300286D01*
X135651038Y-56434862D01*
X135785614Y-56545305D01*
X135939150Y-56627372D01*
X136105746Y-56677908D01*
X136279000Y-56694972D01*
X137729000Y-56694972D01*
X137902254Y-56677908D01*
X138068850Y-56627372D01*
X138222386Y-56545305D01*
X138356962Y-56434862D01*
X138467405Y-56300286D01*
X138549472Y-56146750D01*
X138600008Y-55980154D01*
X138617072Y-55806900D01*
X138617072Y-54606900D01*
X138600008Y-54433646D01*
X138549472Y-54267050D01*
X138467405Y-54113514D01*
X138356962Y-53978938D01*
X138222386Y-53868495D01*
X138117039Y-53812186D01*
X138138429Y-53795949D01*
X138331496Y-53578093D01*
X138478352Y-53326758D01*
X138570476Y-53063790D01*
X138449155Y-52833900D01*
X137131000Y-52833900D01*
X137131000Y-52853900D01*
X136877000Y-52853900D01*
X136877000Y-52833900D01*
X135558845Y-52833900D01*
X135437524Y-53063790D01*
X135529648Y-53326758D01*
X135676504Y-53578093D01*
X135869571Y-53795949D01*
X135890961Y-53812186D01*
X135785614Y-53868495D01*
X135651038Y-53978938D01*
X135540595Y-54113514D01*
X135458528Y-54267050D01*
X135407992Y-54433646D01*
X135390928Y-54606900D01*
X134749739Y-54606900D01*
X134739200Y-54587185D01*
X134706025Y-54525101D01*
X134705997Y-54525067D01*
X134705974Y-54525024D01*
X134658757Y-54467490D01*
X134634861Y-54438365D01*
X134634827Y-54438331D01*
X134611001Y-54409299D01*
X134582042Y-54385533D01*
X134283839Y-54087258D01*
X134327600Y-53867260D01*
X134327600Y-53574740D01*
X134270532Y-53287842D01*
X134158590Y-53017589D01*
X133996075Y-52774368D01*
X133789232Y-52567525D01*
X133614840Y-52451000D01*
X133789232Y-52334475D01*
X133996075Y-52127632D01*
X134158590Y-51884411D01*
X134270532Y-51614158D01*
X134327600Y-51327260D01*
X134327600Y-51034740D01*
X134270532Y-50747842D01*
X134158590Y-50477589D01*
X133996075Y-50234368D01*
X133968607Y-50206900D01*
X135386815Y-50206900D01*
X135415487Y-50498011D01*
X135500401Y-50777934D01*
X135638294Y-51035914D01*
X135823866Y-51262034D01*
X136049986Y-51447606D01*
X136075722Y-51461362D01*
X135869571Y-51617851D01*
X135676504Y-51835707D01*
X135529648Y-52087042D01*
X135437524Y-52350010D01*
X135558845Y-52579900D01*
X136877000Y-52579900D01*
X136877000Y-52559900D01*
X137131000Y-52559900D01*
X137131000Y-52579900D01*
X138449155Y-52579900D01*
X138570476Y-52350010D01*
X138478352Y-52087042D01*
X138331496Y-51835707D01*
X138138429Y-51617851D01*
X137932278Y-51461362D01*
X137958014Y-51447606D01*
X138184134Y-51262034D01*
X138369706Y-51035914D01*
X138507599Y-50777934D01*
X138592513Y-50498011D01*
X138621185Y-50206900D01*
X138592513Y-49915789D01*
X138507599Y-49635866D01*
X138369706Y-49377886D01*
X138184134Y-49151766D01*
X137958014Y-48966194D01*
X137700034Y-48828301D01*
X137420111Y-48743387D01*
X137201950Y-48721900D01*
X136806050Y-48721900D01*
X136587889Y-48743387D01*
X136307966Y-48828301D01*
X136049986Y-48966194D01*
X135823866Y-49151766D01*
X135638294Y-49377886D01*
X135500401Y-49635866D01*
X135415487Y-49915789D01*
X135386815Y-50206900D01*
X133968607Y-50206900D01*
X133789232Y-50027525D01*
X133614840Y-49911000D01*
X133789232Y-49794475D01*
X133996075Y-49587632D01*
X134158590Y-49344411D01*
X134270532Y-49074158D01*
X134327600Y-48787260D01*
X134327600Y-48494740D01*
X134270532Y-48207842D01*
X134158590Y-47937589D01*
X133996075Y-47694368D01*
X133789232Y-47487525D01*
X133614840Y-47371000D01*
X133789232Y-47254475D01*
X133996075Y-47047632D01*
X134158590Y-46804411D01*
X134270532Y-46534158D01*
X134327600Y-46247260D01*
X134327600Y-45954740D01*
X134270532Y-45667842D01*
X134158590Y-45397589D01*
X133996075Y-45154368D01*
X133789232Y-44947525D01*
X133614840Y-44831000D01*
X133789232Y-44714475D01*
X133996075Y-44507632D01*
X134158590Y-44264411D01*
X134270532Y-43994158D01*
X134327600Y-43707260D01*
X134327600Y-43564365D01*
X135369000Y-43564365D01*
X135369000Y-43847035D01*
X135424147Y-44124274D01*
X135532320Y-44385427D01*
X135689363Y-44620459D01*
X135889241Y-44820337D01*
X136124273Y-44977380D01*
X136385426Y-45085553D01*
X136662665Y-45140700D01*
X136945335Y-45140700D01*
X137222574Y-45085553D01*
X137483727Y-44977380D01*
X137718759Y-44820337D01*
X137918637Y-44620459D01*
X138075680Y-44385427D01*
X138183853Y-44124274D01*
X138239000Y-43847035D01*
X138239000Y-43564365D01*
X138183853Y-43287126D01*
X138075680Y-43025973D01*
X137918637Y-42790941D01*
X137718759Y-42591063D01*
X137483727Y-42434020D01*
X137222574Y-42325847D01*
X136945335Y-42270700D01*
X136662665Y-42270700D01*
X136385426Y-42325847D01*
X136124273Y-42434020D01*
X135889241Y-42591063D01*
X135689363Y-42790941D01*
X135532320Y-43025973D01*
X135424147Y-43287126D01*
X135369000Y-43564365D01*
X134327600Y-43564365D01*
X134327600Y-43414740D01*
X134270532Y-43127842D01*
X134158590Y-42857589D01*
X133996075Y-42614368D01*
X133789232Y-42407525D01*
X133614840Y-42291000D01*
X133789232Y-42174475D01*
X133996075Y-41967632D01*
X134158590Y-41724411D01*
X134270532Y-41454158D01*
X134327600Y-41167260D01*
X134327600Y-40874740D01*
X134270532Y-40587842D01*
X134158590Y-40317589D01*
X133996075Y-40074368D01*
X133864220Y-39942513D01*
X133936780Y-39920502D01*
X134047094Y-39861537D01*
X134143785Y-39782185D01*
X134223137Y-39685494D01*
X134282102Y-39575180D01*
X134318412Y-39455482D01*
X134322301Y-39416000D01*
X136451705Y-39416000D01*
X136597102Y-39476226D01*
X136797061Y-39516000D01*
X137000939Y-39516000D01*
X137200898Y-39476226D01*
X137389256Y-39398205D01*
X137558774Y-39284937D01*
X137702937Y-39140774D01*
X137816205Y-38971256D01*
X137894226Y-38782898D01*
X137934000Y-38582939D01*
X137934000Y-38379061D01*
X137894226Y-38179102D01*
X137816205Y-37990744D01*
X137702937Y-37821226D01*
X137558774Y-37677063D01*
X137389256Y-37563795D01*
X137200898Y-37485774D01*
X137000939Y-37446000D01*
X136797061Y-37446000D01*
X136597102Y-37485774D01*
X136451705Y-37546000D01*
X134322301Y-37546000D01*
X134318412Y-37506518D01*
X134282102Y-37386820D01*
X134252788Y-37331978D01*
X136480175Y-35104400D01*
X136662665Y-35140700D01*
X136945335Y-35140700D01*
X137222574Y-35085553D01*
X137483727Y-34977380D01*
X137718759Y-34820337D01*
X137918637Y-34620459D01*
X138075680Y-34385427D01*
X138183853Y-34124274D01*
X138239000Y-33847035D01*
X138239000Y-33564365D01*
X138183853Y-33287126D01*
X138075680Y-33025973D01*
X137918637Y-32790941D01*
X137718759Y-32591063D01*
X137483727Y-32434020D01*
X137222574Y-32325847D01*
X136945335Y-32270700D01*
X136662665Y-32270700D01*
X136385426Y-32325847D01*
X136124273Y-32434020D01*
X135889241Y-32591063D01*
X135689363Y-32790941D01*
X135532320Y-33025973D01*
X135424147Y-33287126D01*
X135369000Y-33564365D01*
X135369000Y-33847035D01*
X135405324Y-34029648D01*
X134169983Y-35265095D01*
X134158590Y-35237589D01*
X133996075Y-34994368D01*
X133789232Y-34787525D01*
X133615871Y-34671689D01*
X133691392Y-34429397D01*
X132842600Y-33580605D01*
X131993808Y-34429397D01*
X132069329Y-34671689D01*
X131895968Y-34787525D01*
X131689125Y-34994368D01*
X131526610Y-35237589D01*
X131414668Y-35507842D01*
X131377500Y-35694699D01*
X130621199Y-36451000D01*
X119004596Y-36451000D01*
X119005971Y-36448117D01*
X119077939Y-36164589D01*
X119093211Y-35872469D01*
X119051199Y-35582981D01*
X118953519Y-35307253D01*
X118880072Y-35169843D01*
X118630997Y-35092208D01*
X117782205Y-35941000D01*
X117796348Y-35955143D01*
X117616743Y-36134748D01*
X117602600Y-36120605D01*
X117588458Y-36134748D01*
X117408853Y-35955143D01*
X117422995Y-35941000D01*
X116574203Y-35092208D01*
X116325128Y-35169843D01*
X116199229Y-35433883D01*
X116127261Y-35717411D01*
X116111989Y-36009531D01*
X116154001Y-36299019D01*
X116207842Y-36451000D01*
X115391103Y-36451000D01*
X115422932Y-36374158D01*
X115480000Y-36087260D01*
X115480000Y-35794740D01*
X115422932Y-35507842D01*
X115310990Y-35237589D01*
X115148475Y-34994368D01*
X114941632Y-34787525D01*
X114767240Y-34671000D01*
X114941632Y-34554475D01*
X115148475Y-34347632D01*
X115310990Y-34104411D01*
X115422932Y-33834158D01*
X115480000Y-33547260D01*
X115480000Y-33254740D01*
X115477286Y-33241094D01*
X116427641Y-32290845D01*
X116463344Y-32261544D01*
X116532736Y-32176990D01*
X116580156Y-32119215D01*
X116580166Y-32119197D01*
X116580186Y-32119172D01*
X116630063Y-32025858D01*
X116643053Y-32001560D01*
X116655968Y-32014475D01*
X116830360Y-32131000D01*
X116655968Y-32247525D01*
X116449125Y-32454368D01*
X116286610Y-32697589D01*
X116174668Y-32967842D01*
X116117600Y-33254740D01*
X116117600Y-33547260D01*
X116174668Y-33834158D01*
X116286610Y-34104411D01*
X116449125Y-34347632D01*
X116655968Y-34554475D01*
X116829329Y-34670311D01*
X116753808Y-34912603D01*
X117602600Y-35761395D01*
X118451392Y-34912603D01*
X118375871Y-34670311D01*
X118549232Y-34554475D01*
X118756075Y-34347632D01*
X118918590Y-34104411D01*
X119030532Y-33834158D01*
X119087600Y-33547260D01*
X119087600Y-33469531D01*
X131351989Y-33469531D01*
X131394001Y-33759019D01*
X131491681Y-34034747D01*
X131565128Y-34172157D01*
X131814203Y-34249792D01*
X132662995Y-33401000D01*
X133022205Y-33401000D01*
X133870997Y-34249792D01*
X134120072Y-34172157D01*
X134245971Y-33908117D01*
X134317939Y-33624589D01*
X134333211Y-33332469D01*
X134291199Y-33042981D01*
X134193519Y-32767253D01*
X134120072Y-32629843D01*
X133870997Y-32552208D01*
X133022205Y-33401000D01*
X132662995Y-33401000D01*
X131814203Y-32552208D01*
X131565128Y-32629843D01*
X131439229Y-32893883D01*
X131367261Y-33177411D01*
X131351989Y-33469531D01*
X119087600Y-33469531D01*
X119087600Y-33254740D01*
X119030532Y-32967842D01*
X118918590Y-32697589D01*
X118756075Y-32454368D01*
X118549232Y-32247525D01*
X118374840Y-32131000D01*
X118549232Y-32014475D01*
X118756075Y-31807632D01*
X118918590Y-31564411D01*
X119030532Y-31294158D01*
X119087600Y-31007260D01*
X119087600Y-30714740D01*
X119047531Y-30513300D01*
X119066939Y-30513300D01*
X119266898Y-30473526D01*
X119455256Y-30395505D01*
X119624774Y-30282237D01*
X119768937Y-30138074D01*
X119853844Y-30011000D01*
X131354528Y-30011000D01*
X131354528Y-31711000D01*
X131366788Y-31835482D01*
X131403098Y-31955180D01*
X131462063Y-32065494D01*
X131541415Y-32162185D01*
X131638106Y-32241537D01*
X131748420Y-32300502D01*
X131868118Y-32336812D01*
X131992600Y-32349072D01*
X132001142Y-32349072D01*
X131993808Y-32372603D01*
X132842600Y-33221395D01*
X133691392Y-32372603D01*
X133684058Y-32349072D01*
X133692600Y-32349072D01*
X133817082Y-32336812D01*
X133936780Y-32300502D01*
X134047094Y-32241537D01*
X134143785Y-32162185D01*
X134223137Y-32065494D01*
X134282102Y-31955180D01*
X134318412Y-31835482D01*
X134330672Y-31711000D01*
X134330672Y-30011000D01*
X134318412Y-29886518D01*
X134282102Y-29766820D01*
X134223137Y-29656506D01*
X134143785Y-29559815D01*
X134047094Y-29480463D01*
X133936780Y-29421498D01*
X133817082Y-29385188D01*
X133692600Y-29372928D01*
X131992600Y-29372928D01*
X131868118Y-29385188D01*
X131748420Y-29421498D01*
X131638106Y-29480463D01*
X131541415Y-29559815D01*
X131462063Y-29656506D01*
X131403098Y-29766820D01*
X131366788Y-29886518D01*
X131354528Y-30011000D01*
X119853844Y-30011000D01*
X119882205Y-29968556D01*
X119960226Y-29780198D01*
X120000000Y-29580239D01*
X120000000Y-29440200D01*
X122089289Y-29440200D01*
X122133226Y-29484137D01*
X122302744Y-29597405D01*
X122491102Y-29675426D01*
X122691061Y-29715200D01*
X122894939Y-29715200D01*
X123094898Y-29675426D01*
X123283256Y-29597405D01*
X123452774Y-29484137D01*
X123596937Y-29339974D01*
X123710205Y-29170456D01*
X123788226Y-28982098D01*
X123828000Y-28782139D01*
X123828000Y-28578261D01*
X123788226Y-28378302D01*
X123710205Y-28189944D01*
X123596937Y-28020426D01*
X123452774Y-27876263D01*
X123283256Y-27762995D01*
X123094898Y-27684974D01*
X122894939Y-27645200D01*
X122691061Y-27645200D01*
X122491102Y-27684974D01*
X122302744Y-27762995D01*
X122133226Y-27876263D01*
X122089289Y-27920200D01*
X116392299Y-27920200D01*
X116354953Y-27916524D01*
X116295785Y-27922355D01*
X116206014Y-27931197D01*
X116205987Y-27931205D01*
X116205968Y-27931207D01*
X116142399Y-27950494D01*
X116062753Y-27974654D01*
X116062732Y-27974665D01*
X116062710Y-27974672D01*
X115997801Y-28009372D01*
X115930724Y-28045226D01*
X115930706Y-28045241D01*
X115930685Y-28045252D01*
X115868024Y-28096682D01*
X115814999Y-28140199D01*
X115791189Y-28169211D01*
X115476727Y-28483712D01*
X115480000Y-28467260D01*
X115480000Y-28174740D01*
X115422932Y-27887842D01*
X115310990Y-27617589D01*
X115220392Y-27482000D01*
X136723570Y-27482000D01*
X136638865Y-27498849D01*
G37*
%TD.AperFunction*%
D27*
X66105200Y-28035250D02*
X66263950Y-28194000D01*
X67513200Y-28194000D01*
X67513200Y-28174000D01*
X67767200Y-28174000D01*
X67767200Y-28194000D01*
X69016450Y-28194000D01*
X69175200Y-28035250D01*
X69177967Y-27482000D01*
X78876645Y-27482000D01*
X78823035Y-27658728D01*
X78802128Y-27871000D01*
X78802128Y-28771000D01*
X78823035Y-28983272D01*
X78884953Y-29187387D01*
X78985501Y-29375500D01*
X79120817Y-29540383D01*
X79285700Y-29675699D01*
X79473813Y-29776247D01*
X79677928Y-29838165D01*
X79890200Y-29859072D01*
X80555982Y-29859072D01*
X80819700Y-30122790D01*
X80819701Y-36945834D01*
X80790200Y-36942928D01*
X79890200Y-36942928D01*
X79677928Y-36963835D01*
X79473813Y-37025753D01*
X79285700Y-37126301D01*
X79120817Y-37261617D01*
X78985501Y-37426500D01*
X78884953Y-37614613D01*
X78823035Y-37818728D01*
X78802128Y-38031000D01*
X78802128Y-38931000D01*
X78823035Y-39143272D01*
X78884953Y-39347387D01*
X78985501Y-39535500D01*
X79120817Y-39700383D01*
X79285700Y-39835699D01*
X79405200Y-39899573D01*
X79405201Y-41780158D01*
X79400676Y-41826100D01*
X79418729Y-42009391D01*
X79468807Y-42174475D01*
X79472194Y-42185640D01*
X79559015Y-42348072D01*
X79607196Y-42406780D01*
X79600306Y-42410463D01*
X79503615Y-42489815D01*
X79424263Y-42586506D01*
X79365298Y-42696820D01*
X79328988Y-42816518D01*
X79316728Y-42941000D01*
X79316728Y-44741000D01*
X79328988Y-44865482D01*
X79337655Y-44894055D01*
X76792411Y-47439300D01*
X76775272Y-47439300D01*
X76775272Y-46351700D01*
X76763012Y-46227218D01*
X76726702Y-46107520D01*
X76667737Y-45997206D01*
X76588385Y-45900515D01*
X76491694Y-45821163D01*
X76381380Y-45762198D01*
X76261682Y-45725888D01*
X76137200Y-45713628D01*
X74637200Y-45713628D01*
X74512718Y-45725888D01*
X74393020Y-45762198D01*
X74282706Y-45821163D01*
X74225555Y-45868065D01*
X72916183Y-44558693D01*
X74609812Y-44558693D01*
X74675337Y-44797560D01*
X74922316Y-44913460D01*
X75187160Y-44978950D01*
X75459692Y-44991512D01*
X75729438Y-44950665D01*
X75986032Y-44857977D01*
X76099063Y-44797560D01*
X76164588Y-44558693D01*
X75387200Y-43781305D01*
X74609812Y-44558693D01*
X72916183Y-44558693D01*
X72031682Y-43674192D01*
X73997388Y-43674192D01*
X74038235Y-43943938D01*
X74130923Y-44200532D01*
X74191340Y-44313563D01*
X74430207Y-44379088D01*
X75207595Y-43601700D01*
X75566805Y-43601700D01*
X76344193Y-44379088D01*
X76583060Y-44313563D01*
X76698960Y-44066584D01*
X76764450Y-43801740D01*
X76777012Y-43529208D01*
X76736165Y-43259462D01*
X76643477Y-43002868D01*
X76583060Y-42889837D01*
X76344193Y-42824312D01*
X75566805Y-43601700D01*
X75207595Y-43601700D01*
X74430207Y-42824312D01*
X74191340Y-42889837D01*
X74075440Y-43136816D01*
X74009950Y-43401660D01*
X73997388Y-43674192D01*
X72031682Y-43674192D01*
X71002197Y-42644707D01*
X74609812Y-42644707D01*
X75387200Y-43422095D01*
X76164588Y-42644707D01*
X76099063Y-42405840D01*
X75852084Y-42289940D01*
X75587240Y-42224450D01*
X75314708Y-42211888D01*
X75044962Y-42252735D01*
X74788368Y-42345423D01*
X74675337Y-42405840D01*
X74609812Y-42644707D01*
X71002197Y-42644707D01*
X68919830Y-40562341D01*
X68890544Y-40526656D01*
X68748172Y-40409814D01*
X68585740Y-40322993D01*
X68409492Y-40269529D01*
X68272132Y-40256000D01*
X68226200Y-40251476D01*
X68180268Y-40256000D01*
X66510690Y-40256000D01*
X65635690Y-39381000D01*
X66102128Y-39381000D01*
X66114388Y-39505482D01*
X66150698Y-39625180D01*
X66209663Y-39735494D01*
X66289015Y-39832185D01*
X66385706Y-39911537D01*
X66496020Y-39970502D01*
X66615718Y-40006812D01*
X66740200Y-40019072D01*
X67354450Y-40016000D01*
X67513200Y-39857250D01*
X67513200Y-38608000D01*
X67767200Y-38608000D01*
X67767200Y-39857250D01*
X67925950Y-40016000D01*
X68540200Y-40019072D01*
X68664682Y-40006812D01*
X68784380Y-39970502D01*
X68894694Y-39911537D01*
X68991385Y-39832185D01*
X69070737Y-39735494D01*
X69129702Y-39625180D01*
X69166012Y-39505482D01*
X69178272Y-39381000D01*
X69175200Y-38766750D01*
X69016450Y-38608000D01*
X67767200Y-38608000D01*
X67513200Y-38608000D01*
X66263950Y-38608000D01*
X66105200Y-38766750D01*
X66102128Y-39381000D01*
X65635690Y-39381000D01*
X65008672Y-38753983D01*
X65008672Y-38688200D01*
X65006264Y-38663750D01*
X65006264Y-38639191D01*
X64994004Y-38514710D01*
X64974882Y-38418577D01*
X64938573Y-38298881D01*
X64901064Y-38208325D01*
X64842098Y-38098008D01*
X64805600Y-38043385D01*
X64805600Y-37581000D01*
X66102128Y-37581000D01*
X66105200Y-38195250D01*
X66263950Y-38354000D01*
X67513200Y-38354000D01*
X67513200Y-37104750D01*
X67767200Y-37104750D01*
X67767200Y-38354000D01*
X69016450Y-38354000D01*
X69175200Y-38195250D01*
X69178272Y-37581000D01*
X69166012Y-37456518D01*
X69129702Y-37336820D01*
X69070737Y-37226506D01*
X68991385Y-37129815D01*
X68894694Y-37050463D01*
X68784380Y-36991498D01*
X68664682Y-36955188D01*
X68540200Y-36942928D01*
X67925950Y-36946000D01*
X67767200Y-37104750D01*
X67513200Y-37104750D01*
X67354450Y-36946000D01*
X66740200Y-36942928D01*
X66615718Y-36955188D01*
X66496020Y-36991498D01*
X66385706Y-37050463D01*
X66289015Y-37129815D01*
X66209663Y-37226506D01*
X66150698Y-37336820D01*
X66114388Y-37456518D01*
X66102128Y-37581000D01*
X64805600Y-37581000D01*
X64805600Y-35520895D01*
X64862964Y-35413575D01*
X64900473Y-35323019D01*
X64936782Y-35203323D01*
X64955904Y-35107190D01*
X64968164Y-34982709D01*
X64968164Y-34958150D01*
X64970572Y-34933700D01*
X64970572Y-34433700D01*
X64968164Y-34409250D01*
X64968164Y-34384691D01*
X64955904Y-34260210D01*
X64936782Y-34164077D01*
X64900473Y-34044381D01*
X64862964Y-33953825D01*
X64803998Y-33843508D01*
X64749542Y-33762009D01*
X64670190Y-33665318D01*
X64600882Y-33596010D01*
X64504191Y-33516658D01*
X64422692Y-33462202D01*
X64312375Y-33403236D01*
X64221819Y-33365727D01*
X64102123Y-33329418D01*
X64005990Y-33310296D01*
X63881509Y-33298036D01*
X63856950Y-33298036D01*
X63832500Y-33295628D01*
X63332500Y-33295628D01*
X63208018Y-33307888D01*
X63182500Y-33315629D01*
X63156982Y-33307888D01*
X63032500Y-33295628D01*
X62532500Y-33295628D01*
X62508050Y-33298036D01*
X62483491Y-33298036D01*
X62359010Y-33310296D01*
X62262877Y-33329418D01*
X62143181Y-33365727D01*
X62052625Y-33403236D01*
X61942308Y-33462202D01*
X61860809Y-33516658D01*
X61764118Y-33596010D01*
X61694810Y-33665318D01*
X61615458Y-33762009D01*
X61561002Y-33843508D01*
X61502036Y-33953825D01*
X61464527Y-34044381D01*
X61428218Y-34164077D01*
X61409096Y-34260210D01*
X61396836Y-34384691D01*
X61396836Y-34409250D01*
X61394428Y-34433700D01*
X61394428Y-34933700D01*
X61396836Y-34958150D01*
X61396836Y-34982709D01*
X61409096Y-35107190D01*
X61428218Y-35203323D01*
X61464527Y-35323019D01*
X61502036Y-35413575D01*
X61561002Y-35523892D01*
X61597501Y-35578516D01*
X61597501Y-35916176D01*
X61564974Y-35994702D01*
X61525200Y-36194661D01*
X61525200Y-36398539D01*
X61564974Y-36598498D01*
X61642995Y-36786856D01*
X61756263Y-36956374D01*
X61900426Y-37100537D01*
X62069944Y-37213805D01*
X62258302Y-37291826D01*
X62458261Y-37331600D01*
X62662139Y-37331600D01*
X62862098Y-37291826D01*
X62935601Y-37261380D01*
X62935601Y-37550128D01*
X62570600Y-37550128D01*
X62546150Y-37552536D01*
X62521591Y-37552536D01*
X62397110Y-37564796D01*
X62300977Y-37583918D01*
X62181281Y-37620227D01*
X62090725Y-37657736D01*
X61980408Y-37716702D01*
X61898909Y-37771158D01*
X61802218Y-37850510D01*
X61732910Y-37919818D01*
X61653558Y-38016509D01*
X61599102Y-38098008D01*
X61540136Y-38208325D01*
X61502627Y-38298881D01*
X61466318Y-38418577D01*
X61447196Y-38514710D01*
X61434936Y-38639191D01*
X61434936Y-38663750D01*
X61432528Y-38688200D01*
X61432528Y-39188200D01*
X61434936Y-39212650D01*
X61434936Y-39237209D01*
X61447196Y-39361690D01*
X61466318Y-39457823D01*
X61502627Y-39577519D01*
X61540136Y-39668075D01*
X61599102Y-39778392D01*
X61635601Y-39833016D01*
X61635600Y-40896568D01*
X61631076Y-40942500D01*
X61637499Y-41007708D01*
X61649129Y-41125791D01*
X61702593Y-41302039D01*
X61789414Y-41464471D01*
X61906256Y-41606844D01*
X61941941Y-41636130D01*
X63535774Y-43229964D01*
X63565056Y-43265644D01*
X63707428Y-43382486D01*
X63869860Y-43469307D01*
X63992643Y-43506553D01*
X64046107Y-43522771D01*
X64064510Y-43524583D01*
X64183468Y-43536300D01*
X64183474Y-43536300D01*
X64229399Y-43540823D01*
X64275324Y-43536300D01*
X64925400Y-43536300D01*
X64925401Y-44874258D01*
X64920876Y-44920200D01*
X64938929Y-45103491D01*
X64983676Y-45251000D01*
X64992394Y-45279740D01*
X65079215Y-45442172D01*
X65196057Y-45584544D01*
X65231736Y-45613825D01*
X65807328Y-46189417D01*
X65807328Y-47105200D01*
X65824392Y-47278454D01*
X65874928Y-47445050D01*
X65956995Y-47598586D01*
X66067438Y-47733162D01*
X66202014Y-47843605D01*
X66355550Y-47925672D01*
X66522146Y-47976208D01*
X66695400Y-47993272D01*
X67695938Y-47993272D01*
X65315341Y-50373870D01*
X65279656Y-50403156D01*
X65162814Y-50545529D01*
X65075993Y-50707961D01*
X65022891Y-50883015D01*
X65022529Y-50884209D01*
X65004476Y-51067500D01*
X65009000Y-51113432D01*
X65009001Y-56152358D01*
X65004476Y-56198300D01*
X65022529Y-56381591D01*
X65074540Y-56553046D01*
X65075994Y-56557840D01*
X65162815Y-56720272D01*
X65279657Y-56862644D01*
X65315336Y-56891925D01*
X67455570Y-59032159D01*
X67484856Y-59067844D01*
X67627228Y-59184686D01*
X67789660Y-59271507D01*
X67862028Y-59293459D01*
X67965908Y-59324972D01*
X68149200Y-59343024D01*
X68195135Y-59338500D01*
X71949475Y-59338500D01*
X72048066Y-59458634D01*
X72274186Y-59644206D01*
X72532166Y-59782099D01*
X72812089Y-59867013D01*
X73030250Y-59888500D01*
X73426150Y-59888500D01*
X73644311Y-59867013D01*
X73924234Y-59782099D01*
X74182214Y-59644206D01*
X74408334Y-59458634D01*
X74506925Y-59338500D01*
X74757268Y-59338500D01*
X74803200Y-59343024D01*
X74849132Y-59338500D01*
X74986492Y-59324971D01*
X75162740Y-59271507D01*
X75325172Y-59184686D01*
X75467544Y-59067844D01*
X75496830Y-59032159D01*
X76132891Y-58396099D01*
X76756773Y-58396099D01*
X76710043Y-58474548D01*
X76612719Y-58748909D01*
X76733386Y-58978800D01*
X77927200Y-58978800D01*
X77927200Y-58958800D01*
X78181200Y-58958800D01*
X78181200Y-58978800D01*
X80467200Y-58978800D01*
X80467200Y-58958800D01*
X80721200Y-58958800D01*
X80721200Y-58978800D01*
X83007200Y-58978800D01*
X83007200Y-58958800D01*
X83261200Y-58958800D01*
X83261200Y-58978800D01*
X85547200Y-58978800D01*
X85547200Y-58958800D01*
X85801200Y-58958800D01*
X85801200Y-58978800D01*
X86995014Y-58978800D01*
X87115681Y-58748909D01*
X87018357Y-58474548D01*
X86971627Y-58396099D01*
X90154208Y-58396099D01*
X90115043Y-58461848D01*
X90017719Y-58736209D01*
X90138386Y-58966100D01*
X91332200Y-58966100D01*
X91332200Y-58946100D01*
X91586200Y-58946100D01*
X91586200Y-58966100D01*
X93872200Y-58966100D01*
X93872200Y-58946100D01*
X94126200Y-58946100D01*
X94126200Y-58966100D01*
X96412200Y-58966100D01*
X96412200Y-58946100D01*
X96666200Y-58946100D01*
X96666200Y-58966100D01*
X98952200Y-58966100D01*
X98952200Y-58946100D01*
X99206200Y-58946100D01*
X99206200Y-58966100D01*
X100400014Y-58966100D01*
X100520681Y-58736209D01*
X100423357Y-58461848D01*
X100384192Y-58396099D01*
X102119271Y-58396099D01*
X102165203Y-58400623D01*
X102211135Y-58396099D01*
X102348495Y-58382570D01*
X102524743Y-58329106D01*
X102687175Y-58242285D01*
X102829547Y-58125443D01*
X102858833Y-58089758D01*
X102910060Y-58038531D01*
X103055458Y-57978305D01*
X103224976Y-57865037D01*
X103369139Y-57720874D01*
X103482407Y-57551356D01*
X103560428Y-57362998D01*
X103587134Y-57228735D01*
X104153247Y-57794849D01*
X104097380Y-57821459D01*
X103864031Y-57995512D01*
X103669122Y-58211745D01*
X103520143Y-58461848D01*
X103422819Y-58736209D01*
X103543486Y-58966100D01*
X104737300Y-58966100D01*
X104737300Y-58946100D01*
X104991300Y-58946100D01*
X104991300Y-58966100D01*
X105011300Y-58966100D01*
X105011300Y-59220100D01*
X104991300Y-59220100D01*
X104991300Y-59240100D01*
X104737300Y-59240100D01*
X104737300Y-59220100D01*
X103543486Y-59220100D01*
X103422819Y-59449991D01*
X103520143Y-59724352D01*
X103669122Y-59974455D01*
X103864031Y-60190688D01*
X104097380Y-60364741D01*
X104100255Y-60366110D01*
X103930368Y-60479625D01*
X103723525Y-60686468D01*
X103715753Y-60698100D01*
X100253147Y-60698100D01*
X100245375Y-60686468D01*
X100038532Y-60479625D01*
X99855795Y-60357524D01*
X100079469Y-60190688D01*
X100274378Y-59974455D01*
X100423357Y-59724352D01*
X100520681Y-59449991D01*
X100400014Y-59220100D01*
X99206200Y-59220100D01*
X99206200Y-59240100D01*
X98952200Y-59240100D01*
X98952200Y-59220100D01*
X96666200Y-59220100D01*
X96666200Y-59240100D01*
X96412200Y-59240100D01*
X96412200Y-59220100D01*
X94126200Y-59220100D01*
X94126200Y-59240100D01*
X93872200Y-59240100D01*
X93872200Y-59220100D01*
X91586200Y-59220100D01*
X91586200Y-59240100D01*
X91332200Y-59240100D01*
X91332200Y-59220100D01*
X90138386Y-59220100D01*
X90017719Y-59449991D01*
X90115043Y-59724352D01*
X90264022Y-59974455D01*
X90458931Y-60190688D01*
X90692280Y-60364741D01*
X90695155Y-60366110D01*
X90525268Y-60479625D01*
X90362451Y-60642442D01*
X90353940Y-60637893D01*
X90177692Y-60584429D01*
X90040332Y-60570900D01*
X89994400Y-60566376D01*
X89948468Y-60570900D01*
X86712107Y-60570900D01*
X86633532Y-60492325D01*
X86450795Y-60370224D01*
X86674469Y-60203388D01*
X86869378Y-59987155D01*
X87018357Y-59737052D01*
X87115681Y-59462691D01*
X86995014Y-59232800D01*
X85801200Y-59232800D01*
X85801200Y-59252800D01*
X85547200Y-59252800D01*
X85547200Y-59232800D01*
X83261200Y-59232800D01*
X83261200Y-59252800D01*
X83007200Y-59252800D01*
X83007200Y-59232800D01*
X80721200Y-59232800D01*
X80721200Y-59252800D01*
X80467200Y-59252800D01*
X80467200Y-59232800D01*
X78181200Y-59232800D01*
X78181200Y-59252800D01*
X77927200Y-59252800D01*
X77927200Y-59232800D01*
X76733386Y-59232800D01*
X76612719Y-59462691D01*
X76653348Y-59577227D01*
X76529226Y-59660163D01*
X76385063Y-59804326D01*
X76271795Y-59973844D01*
X76193774Y-60162202D01*
X76154000Y-60362161D01*
X76154000Y-60424298D01*
X75844899Y-60733400D01*
X72913611Y-60733400D01*
X72874974Y-60694763D01*
X72705456Y-60581495D01*
X72517098Y-60503474D01*
X72317139Y-60463700D01*
X72113261Y-60463700D01*
X71913302Y-60503474D01*
X71724944Y-60581495D01*
X71555426Y-60694763D01*
X71411263Y-60838926D01*
X71297995Y-61008444D01*
X71219974Y-61196802D01*
X71180200Y-61396761D01*
X71180200Y-61600639D01*
X71219974Y-61800598D01*
X71297995Y-61988956D01*
X71411263Y-62158474D01*
X71555426Y-62302637D01*
X71724944Y-62415905D01*
X71913302Y-62493926D01*
X72113261Y-62533700D01*
X72317139Y-62533700D01*
X72517098Y-62493926D01*
X72705456Y-62415905D01*
X72874974Y-62302637D01*
X72924211Y-62253400D01*
X76122378Y-62253400D01*
X76159700Y-62257076D01*
X76197022Y-62253400D01*
X76197033Y-62253400D01*
X76308686Y-62242403D01*
X76451947Y-62198946D01*
X76583976Y-62128374D01*
X76640293Y-62082156D01*
X76750910Y-62349211D01*
X76913425Y-62592432D01*
X77045280Y-62724287D01*
X76972720Y-62746298D01*
X76862406Y-62805263D01*
X76765715Y-62884615D01*
X76686363Y-62981306D01*
X76627398Y-63091620D01*
X76591088Y-63211318D01*
X76578828Y-63335800D01*
X76578828Y-64671900D01*
X73248411Y-64671900D01*
X73204474Y-64627963D01*
X73034956Y-64514695D01*
X72846598Y-64436674D01*
X72646639Y-64396900D01*
X72442761Y-64396900D01*
X72242802Y-64436674D01*
X72054444Y-64514695D01*
X71914969Y-64607889D01*
X71885460Y-64583671D01*
X69058887Y-61757098D01*
X69058913Y-61757011D01*
X69087585Y-61465900D01*
X69058913Y-61174789D01*
X68973999Y-60894866D01*
X68836106Y-60636886D01*
X68650534Y-60410766D01*
X68424414Y-60225194D01*
X68166434Y-60087301D01*
X67886511Y-60002387D01*
X67668350Y-59980900D01*
X67222450Y-59980900D01*
X67004289Y-60002387D01*
X66724366Y-60087301D01*
X66466386Y-60225194D01*
X66240266Y-60410766D01*
X66054694Y-60636886D01*
X65916801Y-60894866D01*
X65831887Y-61174789D01*
X65803215Y-61465900D01*
X65831887Y-61757011D01*
X65916801Y-62036934D01*
X66054694Y-62294914D01*
X66240266Y-62521034D01*
X66303737Y-62573123D01*
X66202014Y-62627495D01*
X66067438Y-62737938D01*
X65956995Y-62872514D01*
X65874928Y-63026050D01*
X65824392Y-63192646D01*
X65807328Y-63365900D01*
X65807328Y-64565900D01*
X65824392Y-64739154D01*
X65874928Y-64905750D01*
X65956995Y-65059286D01*
X66067438Y-65193862D01*
X66202014Y-65304305D01*
X66355550Y-65386372D01*
X66522146Y-65436908D01*
X66695400Y-65453972D01*
X67611183Y-65453972D01*
X70174020Y-68016809D01*
X70130024Y-68040326D01*
X70130022Y-68040327D01*
X70130023Y-68040327D01*
X70043296Y-68111501D01*
X70043292Y-68111505D01*
X70014299Y-68135299D01*
X69990505Y-68164292D01*
X69257703Y-68897096D01*
X69253032Y-68892425D01*
X69009811Y-68729910D01*
X68739558Y-68617968D01*
X68452660Y-68560900D01*
X68160140Y-68560900D01*
X67873242Y-68617968D01*
X67602989Y-68729910D01*
X67359768Y-68892425D01*
X67152925Y-69099268D01*
X66990410Y-69342489D01*
X66878468Y-69612742D01*
X66821400Y-69899640D01*
X66821400Y-70192160D01*
X66865191Y-70412308D01*
X66610598Y-70666901D01*
X66581600Y-70690699D01*
X66557802Y-70719697D01*
X66557801Y-70719698D01*
X66486626Y-70806424D01*
X66416054Y-70938454D01*
X66396817Y-71001874D01*
X66372598Y-71081714D01*
X66362537Y-71183867D01*
X66357924Y-71230700D01*
X66361601Y-71268032D01*
X66361600Y-73543077D01*
X66357924Y-73580400D01*
X66361600Y-73617722D01*
X66361600Y-73617732D01*
X66372597Y-73729385D01*
X66403696Y-73831906D01*
X66416054Y-73872646D01*
X66486626Y-74004676D01*
X66505141Y-74027236D01*
X66581599Y-74120401D01*
X66610603Y-74144204D01*
X66738696Y-74272297D01*
X66762499Y-74301301D01*
X66878224Y-74396274D01*
X67010253Y-74466846D01*
X67153514Y-74510303D01*
X67265167Y-74521300D01*
X67265176Y-74521300D01*
X67302499Y-74524976D01*
X67339822Y-74521300D01*
X69300178Y-74521300D01*
X69337500Y-74524976D01*
X69374822Y-74521300D01*
X69374833Y-74521300D01*
X69486486Y-74510303D01*
X69629747Y-74466846D01*
X69761776Y-74396274D01*
X69877501Y-74301301D01*
X69901304Y-74272297D01*
X70182097Y-73991504D01*
X70211101Y-73967701D01*
X70234129Y-73939641D01*
X70318888Y-73974749D01*
X70335398Y-73988299D01*
X70664696Y-74317597D01*
X70688499Y-74346601D01*
X70804224Y-74441574D01*
X70936253Y-74512146D01*
X71079514Y-74555603D01*
X71191167Y-74566600D01*
X71191177Y-74566600D01*
X71228499Y-74570276D01*
X71265822Y-74566600D01*
X76376378Y-74566600D01*
X76413700Y-74570276D01*
X76451022Y-74566600D01*
X76451033Y-74566600D01*
X76562686Y-74555603D01*
X76705947Y-74512146D01*
X76837976Y-74441574D01*
X76953701Y-74346601D01*
X76977503Y-74317598D01*
X77541324Y-73753778D01*
X77762989Y-73901890D01*
X78033242Y-74013832D01*
X78320140Y-74070900D01*
X78612660Y-74070900D01*
X78899558Y-74013832D01*
X79169811Y-73901890D01*
X79413032Y-73739375D01*
X79619875Y-73532532D01*
X79736400Y-73358140D01*
X79852925Y-73532532D01*
X80059768Y-73739375D01*
X80302989Y-73901890D01*
X80573242Y-74013832D01*
X80860140Y-74070900D01*
X81152660Y-74070900D01*
X81439558Y-74013832D01*
X81709811Y-73901890D01*
X81953032Y-73739375D01*
X82159875Y-73532532D01*
X82276400Y-73358140D01*
X82392925Y-73532532D01*
X82599768Y-73739375D01*
X82842989Y-73901890D01*
X83113242Y-74013832D01*
X83400140Y-74070900D01*
X83488200Y-74070900D01*
X83488200Y-74079739D01*
X83527974Y-74279698D01*
X83605995Y-74468056D01*
X83719263Y-74637574D01*
X83745789Y-74664100D01*
X63216005Y-74664100D01*
X62724161Y-74615874D01*
X62283281Y-74482764D01*
X61876655Y-74266557D01*
X61519764Y-73975485D01*
X61226206Y-73620634D01*
X61007167Y-73215531D01*
X60870981Y-72775583D01*
X60819500Y-72285779D01*
X60819500Y-72068903D01*
X61093605Y-72068903D01*
X61093605Y-72507897D01*
X61179249Y-72938457D01*
X61347245Y-73344035D01*
X61591137Y-73709046D01*
X61901554Y-74019463D01*
X62266565Y-74263355D01*
X62672143Y-74431351D01*
X63102703Y-74516995D01*
X63541697Y-74516995D01*
X63972257Y-74431351D01*
X64377835Y-74263355D01*
X64742846Y-74019463D01*
X65053263Y-73709046D01*
X65297155Y-73344035D01*
X65465151Y-72938457D01*
X65550795Y-72507897D01*
X65550795Y-72068903D01*
X65465151Y-71638343D01*
X65297155Y-71232765D01*
X65053263Y-70867754D01*
X64742846Y-70557337D01*
X64377835Y-70313445D01*
X63972257Y-70145449D01*
X63541697Y-70059805D01*
X63102703Y-70059805D01*
X62672143Y-70145449D01*
X62266565Y-70313445D01*
X61901554Y-70557337D01*
X61591137Y-70867754D01*
X61347245Y-71232765D01*
X61179249Y-71638343D01*
X61093605Y-72068903D01*
X60819500Y-72068903D01*
X60819500Y-29815004D01*
X60866516Y-29335495D01*
X60996043Y-28906481D01*
X61206433Y-28510796D01*
X61489673Y-28163508D01*
X61834973Y-27877851D01*
X62229178Y-27664704D01*
X62657284Y-27532184D01*
X62849509Y-27511980D01*
X62532443Y-27575049D01*
X62126865Y-27743045D01*
X61761854Y-27986937D01*
X61451437Y-28297354D01*
X61207545Y-28662365D01*
X61039549Y-29067943D01*
X60953905Y-29498503D01*
X60953905Y-29937497D01*
X61039549Y-30368057D01*
X61207545Y-30773635D01*
X61451437Y-31138646D01*
X61761854Y-31449063D01*
X62126865Y-31692955D01*
X62532443Y-31860951D01*
X62963003Y-31946595D01*
X63401997Y-31946595D01*
X63832557Y-31860951D01*
X64238135Y-31692955D01*
X64603146Y-31449063D01*
X64913563Y-31138646D01*
X65157455Y-30773635D01*
X65325451Y-30368057D01*
X65411095Y-29937497D01*
X65411095Y-29498503D01*
X65355897Y-29221000D01*
X66102128Y-29221000D01*
X66114388Y-29345482D01*
X66150698Y-29465180D01*
X66209663Y-29575494D01*
X66289015Y-29672185D01*
X66385706Y-29751537D01*
X66496020Y-29810502D01*
X66615718Y-29846812D01*
X66740200Y-29859072D01*
X67354450Y-29856000D01*
X67513200Y-29697250D01*
X67513200Y-28448000D01*
X67767200Y-28448000D01*
X67767200Y-29697250D01*
X67925950Y-29856000D01*
X68540200Y-29859072D01*
X68664682Y-29846812D01*
X68784380Y-29810502D01*
X68894694Y-29751537D01*
X68991385Y-29672185D01*
X69070737Y-29575494D01*
X69129702Y-29465180D01*
X69166012Y-29345482D01*
X69178272Y-29221000D01*
X69175200Y-28606750D01*
X69016450Y-28448000D01*
X67767200Y-28448000D01*
X67513200Y-28448000D01*
X66263950Y-28448000D01*
X66105200Y-28606750D01*
X66102128Y-29221000D01*
X65355897Y-29221000D01*
X65325451Y-29067943D01*
X65157455Y-28662365D01*
X64913563Y-28297354D01*
X64603146Y-27986937D01*
X64238135Y-27743045D01*
X63832557Y-27575049D01*
X63401997Y-27489405D01*
X63064299Y-27489405D01*
X63134753Y-27482000D01*
X66102433Y-27482000D01*
X66105200Y-28035250D01*
%TA.AperFunction,Conductor*%
D28*
G36*
X66105200Y-28035250D02*
G01*
X66263950Y-28194000D01*
X67513200Y-28194000D01*
X67513200Y-28174000D01*
X67767200Y-28174000D01*
X67767200Y-28194000D01*
X69016450Y-28194000D01*
X69175200Y-28035250D01*
X69177967Y-27482000D01*
X78876645Y-27482000D01*
X78823035Y-27658728D01*
X78802128Y-27871000D01*
X78802128Y-28771000D01*
X78823035Y-28983272D01*
X78884953Y-29187387D01*
X78985501Y-29375500D01*
X79120817Y-29540383D01*
X79285700Y-29675699D01*
X79473813Y-29776247D01*
X79677928Y-29838165D01*
X79890200Y-29859072D01*
X80555982Y-29859072D01*
X80819700Y-30122790D01*
X80819701Y-36945834D01*
X80790200Y-36942928D01*
X79890200Y-36942928D01*
X79677928Y-36963835D01*
X79473813Y-37025753D01*
X79285700Y-37126301D01*
X79120817Y-37261617D01*
X78985501Y-37426500D01*
X78884953Y-37614613D01*
X78823035Y-37818728D01*
X78802128Y-38031000D01*
X78802128Y-38931000D01*
X78823035Y-39143272D01*
X78884953Y-39347387D01*
X78985501Y-39535500D01*
X79120817Y-39700383D01*
X79285700Y-39835699D01*
X79405200Y-39899573D01*
X79405201Y-41780158D01*
X79400676Y-41826100D01*
X79418729Y-42009391D01*
X79468807Y-42174475D01*
X79472194Y-42185640D01*
X79559015Y-42348072D01*
X79607196Y-42406780D01*
X79600306Y-42410463D01*
X79503615Y-42489815D01*
X79424263Y-42586506D01*
X79365298Y-42696820D01*
X79328988Y-42816518D01*
X79316728Y-42941000D01*
X79316728Y-44741000D01*
X79328988Y-44865482D01*
X79337655Y-44894055D01*
X76792411Y-47439300D01*
X76775272Y-47439300D01*
X76775272Y-46351700D01*
X76763012Y-46227218D01*
X76726702Y-46107520D01*
X76667737Y-45997206D01*
X76588385Y-45900515D01*
X76491694Y-45821163D01*
X76381380Y-45762198D01*
X76261682Y-45725888D01*
X76137200Y-45713628D01*
X74637200Y-45713628D01*
X74512718Y-45725888D01*
X74393020Y-45762198D01*
X74282706Y-45821163D01*
X74225555Y-45868065D01*
X72916183Y-44558693D01*
X74609812Y-44558693D01*
X74675337Y-44797560D01*
X74922316Y-44913460D01*
X75187160Y-44978950D01*
X75459692Y-44991512D01*
X75729438Y-44950665D01*
X75986032Y-44857977D01*
X76099063Y-44797560D01*
X76164588Y-44558693D01*
X75387200Y-43781305D01*
X74609812Y-44558693D01*
X72916183Y-44558693D01*
X72031682Y-43674192D01*
X73997388Y-43674192D01*
X74038235Y-43943938D01*
X74130923Y-44200532D01*
X74191340Y-44313563D01*
X74430207Y-44379088D01*
X75207595Y-43601700D01*
X75566805Y-43601700D01*
X76344193Y-44379088D01*
X76583060Y-44313563D01*
X76698960Y-44066584D01*
X76764450Y-43801740D01*
X76777012Y-43529208D01*
X76736165Y-43259462D01*
X76643477Y-43002868D01*
X76583060Y-42889837D01*
X76344193Y-42824312D01*
X75566805Y-43601700D01*
X75207595Y-43601700D01*
X74430207Y-42824312D01*
X74191340Y-42889837D01*
X74075440Y-43136816D01*
X74009950Y-43401660D01*
X73997388Y-43674192D01*
X72031682Y-43674192D01*
X71002197Y-42644707D01*
X74609812Y-42644707D01*
X75387200Y-43422095D01*
X76164588Y-42644707D01*
X76099063Y-42405840D01*
X75852084Y-42289940D01*
X75587240Y-42224450D01*
X75314708Y-42211888D01*
X75044962Y-42252735D01*
X74788368Y-42345423D01*
X74675337Y-42405840D01*
X74609812Y-42644707D01*
X71002197Y-42644707D01*
X68919830Y-40562341D01*
X68890544Y-40526656D01*
X68748172Y-40409814D01*
X68585740Y-40322993D01*
X68409492Y-40269529D01*
X68272132Y-40256000D01*
X68226200Y-40251476D01*
X68180268Y-40256000D01*
X66510690Y-40256000D01*
X65635690Y-39381000D01*
X66102128Y-39381000D01*
X66114388Y-39505482D01*
X66150698Y-39625180D01*
X66209663Y-39735494D01*
X66289015Y-39832185D01*
X66385706Y-39911537D01*
X66496020Y-39970502D01*
X66615718Y-40006812D01*
X66740200Y-40019072D01*
X67354450Y-40016000D01*
X67513200Y-39857250D01*
X67513200Y-38608000D01*
X67767200Y-38608000D01*
X67767200Y-39857250D01*
X67925950Y-40016000D01*
X68540200Y-40019072D01*
X68664682Y-40006812D01*
X68784380Y-39970502D01*
X68894694Y-39911537D01*
X68991385Y-39832185D01*
X69070737Y-39735494D01*
X69129702Y-39625180D01*
X69166012Y-39505482D01*
X69178272Y-39381000D01*
X69175200Y-38766750D01*
X69016450Y-38608000D01*
X67767200Y-38608000D01*
X67513200Y-38608000D01*
X66263950Y-38608000D01*
X66105200Y-38766750D01*
X66102128Y-39381000D01*
X65635690Y-39381000D01*
X65008672Y-38753983D01*
X65008672Y-38688200D01*
X65006264Y-38663750D01*
X65006264Y-38639191D01*
X64994004Y-38514710D01*
X64974882Y-38418577D01*
X64938573Y-38298881D01*
X64901064Y-38208325D01*
X64842098Y-38098008D01*
X64805600Y-38043385D01*
X64805600Y-37581000D01*
X66102128Y-37581000D01*
X66105200Y-38195250D01*
X66263950Y-38354000D01*
X67513200Y-38354000D01*
X67513200Y-37104750D01*
X67767200Y-37104750D01*
X67767200Y-38354000D01*
X69016450Y-38354000D01*
X69175200Y-38195250D01*
X69178272Y-37581000D01*
X69166012Y-37456518D01*
X69129702Y-37336820D01*
X69070737Y-37226506D01*
X68991385Y-37129815D01*
X68894694Y-37050463D01*
X68784380Y-36991498D01*
X68664682Y-36955188D01*
X68540200Y-36942928D01*
X67925950Y-36946000D01*
X67767200Y-37104750D01*
X67513200Y-37104750D01*
X67354450Y-36946000D01*
X66740200Y-36942928D01*
X66615718Y-36955188D01*
X66496020Y-36991498D01*
X66385706Y-37050463D01*
X66289015Y-37129815D01*
X66209663Y-37226506D01*
X66150698Y-37336820D01*
X66114388Y-37456518D01*
X66102128Y-37581000D01*
X64805600Y-37581000D01*
X64805600Y-35520895D01*
X64862964Y-35413575D01*
X64900473Y-35323019D01*
X64936782Y-35203323D01*
X64955904Y-35107190D01*
X64968164Y-34982709D01*
X64968164Y-34958150D01*
X64970572Y-34933700D01*
X64970572Y-34433700D01*
X64968164Y-34409250D01*
X64968164Y-34384691D01*
X64955904Y-34260210D01*
X64936782Y-34164077D01*
X64900473Y-34044381D01*
X64862964Y-33953825D01*
X64803998Y-33843508D01*
X64749542Y-33762009D01*
X64670190Y-33665318D01*
X64600882Y-33596010D01*
X64504191Y-33516658D01*
X64422692Y-33462202D01*
X64312375Y-33403236D01*
X64221819Y-33365727D01*
X64102123Y-33329418D01*
X64005990Y-33310296D01*
X63881509Y-33298036D01*
X63856950Y-33298036D01*
X63832500Y-33295628D01*
X63332500Y-33295628D01*
X63208018Y-33307888D01*
X63182500Y-33315629D01*
X63156982Y-33307888D01*
X63032500Y-33295628D01*
X62532500Y-33295628D01*
X62508050Y-33298036D01*
X62483491Y-33298036D01*
X62359010Y-33310296D01*
X62262877Y-33329418D01*
X62143181Y-33365727D01*
X62052625Y-33403236D01*
X61942308Y-33462202D01*
X61860809Y-33516658D01*
X61764118Y-33596010D01*
X61694810Y-33665318D01*
X61615458Y-33762009D01*
X61561002Y-33843508D01*
X61502036Y-33953825D01*
X61464527Y-34044381D01*
X61428218Y-34164077D01*
X61409096Y-34260210D01*
X61396836Y-34384691D01*
X61396836Y-34409250D01*
X61394428Y-34433700D01*
X61394428Y-34933700D01*
X61396836Y-34958150D01*
X61396836Y-34982709D01*
X61409096Y-35107190D01*
X61428218Y-35203323D01*
X61464527Y-35323019D01*
X61502036Y-35413575D01*
X61561002Y-35523892D01*
X61597501Y-35578516D01*
X61597501Y-35916176D01*
X61564974Y-35994702D01*
X61525200Y-36194661D01*
X61525200Y-36398539D01*
X61564974Y-36598498D01*
X61642995Y-36786856D01*
X61756263Y-36956374D01*
X61900426Y-37100537D01*
X62069944Y-37213805D01*
X62258302Y-37291826D01*
X62458261Y-37331600D01*
X62662139Y-37331600D01*
X62862098Y-37291826D01*
X62935601Y-37261380D01*
X62935601Y-37550128D01*
X62570600Y-37550128D01*
X62546150Y-37552536D01*
X62521591Y-37552536D01*
X62397110Y-37564796D01*
X62300977Y-37583918D01*
X62181281Y-37620227D01*
X62090725Y-37657736D01*
X61980408Y-37716702D01*
X61898909Y-37771158D01*
X61802218Y-37850510D01*
X61732910Y-37919818D01*
X61653558Y-38016509D01*
X61599102Y-38098008D01*
X61540136Y-38208325D01*
X61502627Y-38298881D01*
X61466318Y-38418577D01*
X61447196Y-38514710D01*
X61434936Y-38639191D01*
X61434936Y-38663750D01*
X61432528Y-38688200D01*
X61432528Y-39188200D01*
X61434936Y-39212650D01*
X61434936Y-39237209D01*
X61447196Y-39361690D01*
X61466318Y-39457823D01*
X61502627Y-39577519D01*
X61540136Y-39668075D01*
X61599102Y-39778392D01*
X61635601Y-39833016D01*
X61635600Y-40896568D01*
X61631076Y-40942500D01*
X61637499Y-41007708D01*
X61649129Y-41125791D01*
X61702593Y-41302039D01*
X61789414Y-41464471D01*
X61906256Y-41606844D01*
X61941941Y-41636130D01*
X63535774Y-43229964D01*
X63565056Y-43265644D01*
X63707428Y-43382486D01*
X63869860Y-43469307D01*
X63992643Y-43506553D01*
X64046107Y-43522771D01*
X64064510Y-43524583D01*
X64183468Y-43536300D01*
X64183474Y-43536300D01*
X64229399Y-43540823D01*
X64275324Y-43536300D01*
X64925400Y-43536300D01*
X64925401Y-44874258D01*
X64920876Y-44920200D01*
X64938929Y-45103491D01*
X64983676Y-45251000D01*
X64992394Y-45279740D01*
X65079215Y-45442172D01*
X65196057Y-45584544D01*
X65231736Y-45613825D01*
X65807328Y-46189417D01*
X65807328Y-47105200D01*
X65824392Y-47278454D01*
X65874928Y-47445050D01*
X65956995Y-47598586D01*
X66067438Y-47733162D01*
X66202014Y-47843605D01*
X66355550Y-47925672D01*
X66522146Y-47976208D01*
X66695400Y-47993272D01*
X67695938Y-47993272D01*
X65315341Y-50373870D01*
X65279656Y-50403156D01*
X65162814Y-50545529D01*
X65075993Y-50707961D01*
X65022891Y-50883015D01*
X65022529Y-50884209D01*
X65004476Y-51067500D01*
X65009000Y-51113432D01*
X65009001Y-56152358D01*
X65004476Y-56198300D01*
X65022529Y-56381591D01*
X65074540Y-56553046D01*
X65075994Y-56557840D01*
X65162815Y-56720272D01*
X65279657Y-56862644D01*
X65315336Y-56891925D01*
X67455570Y-59032159D01*
X67484856Y-59067844D01*
X67627228Y-59184686D01*
X67789660Y-59271507D01*
X67862028Y-59293459D01*
X67965908Y-59324972D01*
X68149200Y-59343024D01*
X68195135Y-59338500D01*
X71949475Y-59338500D01*
X72048066Y-59458634D01*
X72274186Y-59644206D01*
X72532166Y-59782099D01*
X72812089Y-59867013D01*
X73030250Y-59888500D01*
X73426150Y-59888500D01*
X73644311Y-59867013D01*
X73924234Y-59782099D01*
X74182214Y-59644206D01*
X74408334Y-59458634D01*
X74506925Y-59338500D01*
X74757268Y-59338500D01*
X74803200Y-59343024D01*
X74849132Y-59338500D01*
X74986492Y-59324971D01*
X75162740Y-59271507D01*
X75325172Y-59184686D01*
X75467544Y-59067844D01*
X75496830Y-59032159D01*
X76132891Y-58396099D01*
X76756773Y-58396099D01*
X76710043Y-58474548D01*
X76612719Y-58748909D01*
X76733386Y-58978800D01*
X77927200Y-58978800D01*
X77927200Y-58958800D01*
X78181200Y-58958800D01*
X78181200Y-58978800D01*
X80467200Y-58978800D01*
X80467200Y-58958800D01*
X80721200Y-58958800D01*
X80721200Y-58978800D01*
X83007200Y-58978800D01*
X83007200Y-58958800D01*
X83261200Y-58958800D01*
X83261200Y-58978800D01*
X85547200Y-58978800D01*
X85547200Y-58958800D01*
X85801200Y-58958800D01*
X85801200Y-58978800D01*
X86995014Y-58978800D01*
X87115681Y-58748909D01*
X87018357Y-58474548D01*
X86971627Y-58396099D01*
X90154208Y-58396099D01*
X90115043Y-58461848D01*
X90017719Y-58736209D01*
X90138386Y-58966100D01*
X91332200Y-58966100D01*
X91332200Y-58946100D01*
X91586200Y-58946100D01*
X91586200Y-58966100D01*
X93872200Y-58966100D01*
X93872200Y-58946100D01*
X94126200Y-58946100D01*
X94126200Y-58966100D01*
X96412200Y-58966100D01*
X96412200Y-58946100D01*
X96666200Y-58946100D01*
X96666200Y-58966100D01*
X98952200Y-58966100D01*
X98952200Y-58946100D01*
X99206200Y-58946100D01*
X99206200Y-58966100D01*
X100400014Y-58966100D01*
X100520681Y-58736209D01*
X100423357Y-58461848D01*
X100384192Y-58396099D01*
X102119271Y-58396099D01*
X102165203Y-58400623D01*
X102211135Y-58396099D01*
X102348495Y-58382570D01*
X102524743Y-58329106D01*
X102687175Y-58242285D01*
X102829547Y-58125443D01*
X102858833Y-58089758D01*
X102910060Y-58038531D01*
X103055458Y-57978305D01*
X103224976Y-57865037D01*
X103369139Y-57720874D01*
X103482407Y-57551356D01*
X103560428Y-57362998D01*
X103587134Y-57228735D01*
X104153247Y-57794849D01*
X104097380Y-57821459D01*
X103864031Y-57995512D01*
X103669122Y-58211745D01*
X103520143Y-58461848D01*
X103422819Y-58736209D01*
X103543486Y-58966100D01*
X104737300Y-58966100D01*
X104737300Y-58946100D01*
X104991300Y-58946100D01*
X104991300Y-58966100D01*
X105011300Y-58966100D01*
X105011300Y-59220100D01*
X104991300Y-59220100D01*
X104991300Y-59240100D01*
X104737300Y-59240100D01*
X104737300Y-59220100D01*
X103543486Y-59220100D01*
X103422819Y-59449991D01*
X103520143Y-59724352D01*
X103669122Y-59974455D01*
X103864031Y-60190688D01*
X104097380Y-60364741D01*
X104100255Y-60366110D01*
X103930368Y-60479625D01*
X103723525Y-60686468D01*
X103715753Y-60698100D01*
X100253147Y-60698100D01*
X100245375Y-60686468D01*
X100038532Y-60479625D01*
X99855795Y-60357524D01*
X100079469Y-60190688D01*
X100274378Y-59974455D01*
X100423357Y-59724352D01*
X100520681Y-59449991D01*
X100400014Y-59220100D01*
X99206200Y-59220100D01*
X99206200Y-59240100D01*
X98952200Y-59240100D01*
X98952200Y-59220100D01*
X96666200Y-59220100D01*
X96666200Y-59240100D01*
X96412200Y-59240100D01*
X96412200Y-59220100D01*
X94126200Y-59220100D01*
X94126200Y-59240100D01*
X93872200Y-59240100D01*
X93872200Y-59220100D01*
X91586200Y-59220100D01*
X91586200Y-59240100D01*
X91332200Y-59240100D01*
X91332200Y-59220100D01*
X90138386Y-59220100D01*
X90017719Y-59449991D01*
X90115043Y-59724352D01*
X90264022Y-59974455D01*
X90458931Y-60190688D01*
X90692280Y-60364741D01*
X90695155Y-60366110D01*
X90525268Y-60479625D01*
X90362451Y-60642442D01*
X90353940Y-60637893D01*
X90177692Y-60584429D01*
X90040332Y-60570900D01*
X89994400Y-60566376D01*
X89948468Y-60570900D01*
X86712107Y-60570900D01*
X86633532Y-60492325D01*
X86450795Y-60370224D01*
X86674469Y-60203388D01*
X86869378Y-59987155D01*
X87018357Y-59737052D01*
X87115681Y-59462691D01*
X86995014Y-59232800D01*
X85801200Y-59232800D01*
X85801200Y-59252800D01*
X85547200Y-59252800D01*
X85547200Y-59232800D01*
X83261200Y-59232800D01*
X83261200Y-59252800D01*
X83007200Y-59252800D01*
X83007200Y-59232800D01*
X80721200Y-59232800D01*
X80721200Y-59252800D01*
X80467200Y-59252800D01*
X80467200Y-59232800D01*
X78181200Y-59232800D01*
X78181200Y-59252800D01*
X77927200Y-59252800D01*
X77927200Y-59232800D01*
X76733386Y-59232800D01*
X76612719Y-59462691D01*
X76653348Y-59577227D01*
X76529226Y-59660163D01*
X76385063Y-59804326D01*
X76271795Y-59973844D01*
X76193774Y-60162202D01*
X76154000Y-60362161D01*
X76154000Y-60424298D01*
X75844899Y-60733400D01*
X72913611Y-60733400D01*
X72874974Y-60694763D01*
X72705456Y-60581495D01*
X72517098Y-60503474D01*
X72317139Y-60463700D01*
X72113261Y-60463700D01*
X71913302Y-60503474D01*
X71724944Y-60581495D01*
X71555426Y-60694763D01*
X71411263Y-60838926D01*
X71297995Y-61008444D01*
X71219974Y-61196802D01*
X71180200Y-61396761D01*
X71180200Y-61600639D01*
X71219974Y-61800598D01*
X71297995Y-61988956D01*
X71411263Y-62158474D01*
X71555426Y-62302637D01*
X71724944Y-62415905D01*
X71913302Y-62493926D01*
X72113261Y-62533700D01*
X72317139Y-62533700D01*
X72517098Y-62493926D01*
X72705456Y-62415905D01*
X72874974Y-62302637D01*
X72924211Y-62253400D01*
X76122378Y-62253400D01*
X76159700Y-62257076D01*
X76197022Y-62253400D01*
X76197033Y-62253400D01*
X76308686Y-62242403D01*
X76451947Y-62198946D01*
X76583976Y-62128374D01*
X76640293Y-62082156D01*
X76750910Y-62349211D01*
X76913425Y-62592432D01*
X77045280Y-62724287D01*
X76972720Y-62746298D01*
X76862406Y-62805263D01*
X76765715Y-62884615D01*
X76686363Y-62981306D01*
X76627398Y-63091620D01*
X76591088Y-63211318D01*
X76578828Y-63335800D01*
X76578828Y-64671900D01*
X73248411Y-64671900D01*
X73204474Y-64627963D01*
X73034956Y-64514695D01*
X72846598Y-64436674D01*
X72646639Y-64396900D01*
X72442761Y-64396900D01*
X72242802Y-64436674D01*
X72054444Y-64514695D01*
X71914969Y-64607889D01*
X71885460Y-64583671D01*
X69058887Y-61757098D01*
X69058913Y-61757011D01*
X69087585Y-61465900D01*
X69058913Y-61174789D01*
X68973999Y-60894866D01*
X68836106Y-60636886D01*
X68650534Y-60410766D01*
X68424414Y-60225194D01*
X68166434Y-60087301D01*
X67886511Y-60002387D01*
X67668350Y-59980900D01*
X67222450Y-59980900D01*
X67004289Y-60002387D01*
X66724366Y-60087301D01*
X66466386Y-60225194D01*
X66240266Y-60410766D01*
X66054694Y-60636886D01*
X65916801Y-60894866D01*
X65831887Y-61174789D01*
X65803215Y-61465900D01*
X65831887Y-61757011D01*
X65916801Y-62036934D01*
X66054694Y-62294914D01*
X66240266Y-62521034D01*
X66303737Y-62573123D01*
X66202014Y-62627495D01*
X66067438Y-62737938D01*
X65956995Y-62872514D01*
X65874928Y-63026050D01*
X65824392Y-63192646D01*
X65807328Y-63365900D01*
X65807328Y-64565900D01*
X65824392Y-64739154D01*
X65874928Y-64905750D01*
X65956995Y-65059286D01*
X66067438Y-65193862D01*
X66202014Y-65304305D01*
X66355550Y-65386372D01*
X66522146Y-65436908D01*
X66695400Y-65453972D01*
X67611183Y-65453972D01*
X70174020Y-68016809D01*
X70130024Y-68040326D01*
X70130022Y-68040327D01*
X70130023Y-68040327D01*
X70043296Y-68111501D01*
X70043292Y-68111505D01*
X70014299Y-68135299D01*
X69990505Y-68164292D01*
X69257703Y-68897096D01*
X69253032Y-68892425D01*
X69009811Y-68729910D01*
X68739558Y-68617968D01*
X68452660Y-68560900D01*
X68160140Y-68560900D01*
X67873242Y-68617968D01*
X67602989Y-68729910D01*
X67359768Y-68892425D01*
X67152925Y-69099268D01*
X66990410Y-69342489D01*
X66878468Y-69612742D01*
X66821400Y-69899640D01*
X66821400Y-70192160D01*
X66865191Y-70412308D01*
X66610598Y-70666901D01*
X66581600Y-70690699D01*
X66557802Y-70719697D01*
X66557801Y-70719698D01*
X66486626Y-70806424D01*
X66416054Y-70938454D01*
X66396817Y-71001874D01*
X66372598Y-71081714D01*
X66362537Y-71183867D01*
X66357924Y-71230700D01*
X66361601Y-71268032D01*
X66361600Y-73543077D01*
X66357924Y-73580400D01*
X66361600Y-73617722D01*
X66361600Y-73617732D01*
X66372597Y-73729385D01*
X66403696Y-73831906D01*
X66416054Y-73872646D01*
X66486626Y-74004676D01*
X66505141Y-74027236D01*
X66581599Y-74120401D01*
X66610603Y-74144204D01*
X66738696Y-74272297D01*
X66762499Y-74301301D01*
X66878224Y-74396274D01*
X67010253Y-74466846D01*
X67153514Y-74510303D01*
X67265167Y-74521300D01*
X67265176Y-74521300D01*
X67302499Y-74524976D01*
X67339822Y-74521300D01*
X69300178Y-74521300D01*
X69337500Y-74524976D01*
X69374822Y-74521300D01*
X69374833Y-74521300D01*
X69486486Y-74510303D01*
X69629747Y-74466846D01*
X69761776Y-74396274D01*
X69877501Y-74301301D01*
X69901304Y-74272297D01*
X70182097Y-73991504D01*
X70211101Y-73967701D01*
X70234129Y-73939641D01*
X70318888Y-73974749D01*
X70335398Y-73988299D01*
X70664696Y-74317597D01*
X70688499Y-74346601D01*
X70804224Y-74441574D01*
X70936253Y-74512146D01*
X71079514Y-74555603D01*
X71191167Y-74566600D01*
X71191177Y-74566600D01*
X71228499Y-74570276D01*
X71265822Y-74566600D01*
X76376378Y-74566600D01*
X76413700Y-74570276D01*
X76451022Y-74566600D01*
X76451033Y-74566600D01*
X76562686Y-74555603D01*
X76705947Y-74512146D01*
X76837976Y-74441574D01*
X76953701Y-74346601D01*
X76977503Y-74317598D01*
X77541324Y-73753778D01*
X77762989Y-73901890D01*
X78033242Y-74013832D01*
X78320140Y-74070900D01*
X78612660Y-74070900D01*
X78899558Y-74013832D01*
X79169811Y-73901890D01*
X79413032Y-73739375D01*
X79619875Y-73532532D01*
X79736400Y-73358140D01*
X79852925Y-73532532D01*
X80059768Y-73739375D01*
X80302989Y-73901890D01*
X80573242Y-74013832D01*
X80860140Y-74070900D01*
X81152660Y-74070900D01*
X81439558Y-74013832D01*
X81709811Y-73901890D01*
X81953032Y-73739375D01*
X82159875Y-73532532D01*
X82276400Y-73358140D01*
X82392925Y-73532532D01*
X82599768Y-73739375D01*
X82842989Y-73901890D01*
X83113242Y-74013832D01*
X83400140Y-74070900D01*
X83488200Y-74070900D01*
X83488200Y-74079739D01*
X83527974Y-74279698D01*
X83605995Y-74468056D01*
X83719263Y-74637574D01*
X83745789Y-74664100D01*
X63216005Y-74664100D01*
X62724161Y-74615874D01*
X62283281Y-74482764D01*
X61876655Y-74266557D01*
X61519764Y-73975485D01*
X61226206Y-73620634D01*
X61007167Y-73215531D01*
X60870981Y-72775583D01*
X60819500Y-72285779D01*
X60819500Y-72068903D01*
X61093605Y-72068903D01*
X61093605Y-72507897D01*
X61179249Y-72938457D01*
X61347245Y-73344035D01*
X61591137Y-73709046D01*
X61901554Y-74019463D01*
X62266565Y-74263355D01*
X62672143Y-74431351D01*
X63102703Y-74516995D01*
X63541697Y-74516995D01*
X63972257Y-74431351D01*
X64377835Y-74263355D01*
X64742846Y-74019463D01*
X65053263Y-73709046D01*
X65297155Y-73344035D01*
X65465151Y-72938457D01*
X65550795Y-72507897D01*
X65550795Y-72068903D01*
X65465151Y-71638343D01*
X65297155Y-71232765D01*
X65053263Y-70867754D01*
X64742846Y-70557337D01*
X64377835Y-70313445D01*
X63972257Y-70145449D01*
X63541697Y-70059805D01*
X63102703Y-70059805D01*
X62672143Y-70145449D01*
X62266565Y-70313445D01*
X61901554Y-70557337D01*
X61591137Y-70867754D01*
X61347245Y-71232765D01*
X61179249Y-71638343D01*
X61093605Y-72068903D01*
X60819500Y-72068903D01*
X60819500Y-29815004D01*
X60866516Y-29335495D01*
X60996043Y-28906481D01*
X61206433Y-28510796D01*
X61489673Y-28163508D01*
X61834973Y-27877851D01*
X62229178Y-27664704D01*
X62657284Y-27532184D01*
X62849509Y-27511980D01*
X62532443Y-27575049D01*
X62126865Y-27743045D01*
X61761854Y-27986937D01*
X61451437Y-28297354D01*
X61207545Y-28662365D01*
X61039549Y-29067943D01*
X60953905Y-29498503D01*
X60953905Y-29937497D01*
X61039549Y-30368057D01*
X61207545Y-30773635D01*
X61451437Y-31138646D01*
X61761854Y-31449063D01*
X62126865Y-31692955D01*
X62532443Y-31860951D01*
X62963003Y-31946595D01*
X63401997Y-31946595D01*
X63832557Y-31860951D01*
X64238135Y-31692955D01*
X64603146Y-31449063D01*
X64913563Y-31138646D01*
X65157455Y-30773635D01*
X65325451Y-30368057D01*
X65411095Y-29937497D01*
X65411095Y-29498503D01*
X65355897Y-29221000D01*
X66102128Y-29221000D01*
X66114388Y-29345482D01*
X66150698Y-29465180D01*
X66209663Y-29575494D01*
X66289015Y-29672185D01*
X66385706Y-29751537D01*
X66496020Y-29810502D01*
X66615718Y-29846812D01*
X66740200Y-29859072D01*
X67354450Y-29856000D01*
X67513200Y-29697250D01*
X67513200Y-28448000D01*
X67767200Y-28448000D01*
X67767200Y-29697250D01*
X67925950Y-29856000D01*
X68540200Y-29859072D01*
X68664682Y-29846812D01*
X68784380Y-29810502D01*
X68894694Y-29751537D01*
X68991385Y-29672185D01*
X69070737Y-29575494D01*
X69129702Y-29465180D01*
X69166012Y-29345482D01*
X69178272Y-29221000D01*
X69175200Y-28606750D01*
X69016450Y-28448000D01*
X67767200Y-28448000D01*
X67513200Y-28448000D01*
X66263950Y-28448000D01*
X66105200Y-28606750D01*
X66102128Y-29221000D01*
X65355897Y-29221000D01*
X65325451Y-29067943D01*
X65157455Y-28662365D01*
X64913563Y-28297354D01*
X64603146Y-27986937D01*
X64238135Y-27743045D01*
X63832557Y-27575049D01*
X63401997Y-27489405D01*
X63064299Y-27489405D01*
X63134753Y-27482000D01*
X66102433Y-27482000D01*
X66105200Y-28035250D01*
G37*
%TD.AperFunction*%
D27*
X124157210Y-49152014D02*
X124180999Y-49181001D01*
X124209997Y-49204799D01*
X124210007Y-49204809D01*
X124264801Y-49249775D01*
X124296724Y-49275974D01*
X124296728Y-49275976D01*
X124296735Y-49275982D01*
X124363567Y-49311703D01*
X124428753Y-49346546D01*
X124428761Y-49346549D01*
X124428766Y-49346551D01*
X124474588Y-49360450D01*
X124572014Y-49390003D01*
X124572025Y-49390004D01*
X124572028Y-49390005D01*
X124602607Y-49393016D01*
X124683667Y-49401000D01*
X124683684Y-49401000D01*
X124721014Y-49404676D01*
X124758329Y-49401000D01*
X131564422Y-49401000D01*
X131689125Y-49587632D01*
X131895968Y-49794475D01*
X132070360Y-49911000D01*
X131895968Y-50027525D01*
X131689125Y-50234368D01*
X131526610Y-50477589D01*
X131414668Y-50747842D01*
X131357600Y-51034740D01*
X131357600Y-51327260D01*
X131414668Y-51614158D01*
X131526610Y-51884411D01*
X131689125Y-52127632D01*
X131895968Y-52334475D01*
X132070360Y-52451000D01*
X131895968Y-52567525D01*
X131689125Y-52774368D01*
X131564422Y-52961000D01*
X127621533Y-52961000D01*
X127584200Y-52957323D01*
X127546867Y-52961000D01*
X127435214Y-52971997D01*
X127291953Y-53015454D01*
X127159924Y-53086026D01*
X127044199Y-53180999D01*
X127020401Y-53209997D01*
X126464899Y-53765500D01*
X126402761Y-53765500D01*
X126202802Y-53805274D01*
X126014444Y-53883295D01*
X125844926Y-53996563D01*
X125700763Y-54140726D01*
X125587495Y-54310244D01*
X125509474Y-54498602D01*
X125469700Y-54698561D01*
X125469700Y-54902439D01*
X125509474Y-55102398D01*
X125587495Y-55290756D01*
X125700763Y-55460274D01*
X125844926Y-55604437D01*
X126014444Y-55717705D01*
X126202802Y-55795726D01*
X126402761Y-55835500D01*
X126606639Y-55835500D01*
X126806598Y-55795726D01*
X126994956Y-55717705D01*
X127164474Y-55604437D01*
X127308637Y-55460274D01*
X127421905Y-55290756D01*
X127499926Y-55102398D01*
X127539700Y-54902439D01*
X127539700Y-54840301D01*
X127899002Y-54481000D01*
X131564422Y-54481000D01*
X131689125Y-54667632D01*
X131895968Y-54874475D01*
X132070360Y-54991000D01*
X131895968Y-55107525D01*
X131689125Y-55314368D01*
X131526610Y-55557589D01*
X131414668Y-55827842D01*
X131357600Y-56114740D01*
X131357600Y-56407260D01*
X131401413Y-56627521D01*
X130967040Y-57061767D01*
X130938000Y-57085599D01*
X130893005Y-57140426D01*
X130843089Y-57201231D01*
X130843062Y-57201281D01*
X130843027Y-57201324D01*
X130808122Y-57266626D01*
X130772497Y-57333251D01*
X130772481Y-57333305D01*
X130772455Y-57333353D01*
X130751703Y-57401765D01*
X130729019Y-57476505D01*
X130729013Y-57476564D01*
X130728998Y-57476614D01*
X130721894Y-57548737D01*
X130714324Y-57625489D01*
X130718001Y-57662878D01*
X130718001Y-61000096D01*
X130666099Y-60975375D01*
X130518890Y-60930724D01*
X130289000Y-61052045D01*
X130289000Y-62245200D01*
X130309000Y-62245200D01*
X130309000Y-62499200D01*
X130289000Y-62499200D01*
X130289000Y-64785200D01*
X130309000Y-64785200D01*
X130309000Y-65039200D01*
X130289000Y-65039200D01*
X130289000Y-66232355D01*
X130518890Y-66353676D01*
X130666099Y-66309025D01*
X130718000Y-66284304D01*
X130718000Y-66461775D01*
X130269019Y-66910708D01*
X130210774Y-66852463D01*
X130041256Y-66739195D01*
X129852898Y-66661174D01*
X129652939Y-66621400D01*
X129449061Y-66621400D01*
X129249102Y-66661174D01*
X129060744Y-66739195D01*
X128891226Y-66852463D01*
X128747063Y-66996626D01*
X128633795Y-67166144D01*
X128555774Y-67354502D01*
X128516000Y-67554461D01*
X128516000Y-67616680D01*
X128022162Y-68110600D01*
X127368333Y-68110600D01*
X127331000Y-68106923D01*
X127293667Y-68110600D01*
X127182014Y-68121597D01*
X127038753Y-68165054D01*
X126906724Y-68235626D01*
X126790999Y-68330599D01*
X126696026Y-68446324D01*
X126625454Y-68578353D01*
X126581997Y-68721614D01*
X126577911Y-68763104D01*
X126384368Y-68892425D01*
X126177525Y-69099268D01*
X126061000Y-69273660D01*
X125944475Y-69099268D01*
X125737632Y-68892425D01*
X125494411Y-68729910D01*
X125224158Y-68617968D01*
X125160108Y-68605228D01*
X125241829Y-68561547D01*
X125313916Y-68523022D01*
X125313937Y-68523005D01*
X125313972Y-68522986D01*
X125397803Y-68454187D01*
X125420616Y-68435468D01*
X125420631Y-68435453D01*
X125456344Y-68406144D01*
X125485611Y-68370482D01*
X127461922Y-66394451D01*
X127475740Y-66397200D01*
X127768260Y-66397200D01*
X128055158Y-66340132D01*
X128325411Y-66228190D01*
X128568632Y-66065675D01*
X128775475Y-65858832D01*
X128897195Y-65676666D01*
X128966822Y-65793555D01*
X129161731Y-66009788D01*
X129395080Y-66183841D01*
X129657901Y-66309025D01*
X129805110Y-66353676D01*
X130035000Y-66232355D01*
X130035000Y-65039200D01*
X130015000Y-65039200D01*
X130015000Y-64785200D01*
X130035000Y-64785200D01*
X130035000Y-62499200D01*
X130015000Y-62499200D01*
X130015000Y-62245200D01*
X130035000Y-62245200D01*
X130035000Y-61052045D01*
X129805110Y-60930724D01*
X129657901Y-60975375D01*
X129395080Y-61100559D01*
X129161731Y-61274612D01*
X128966822Y-61490845D01*
X128897195Y-61607734D01*
X128775475Y-61425568D01*
X128568632Y-61218725D01*
X128325411Y-61056210D01*
X128055158Y-60944268D01*
X127768260Y-60887200D01*
X127475740Y-60887200D01*
X127188842Y-60944268D01*
X126918589Y-61056210D01*
X126675368Y-61218725D01*
X126468525Y-61425568D01*
X126352000Y-61599960D01*
X126235475Y-61425568D01*
X126028632Y-61218725D01*
X125835089Y-61089404D01*
X125831003Y-61047914D01*
X125830986Y-61047858D01*
X125830981Y-61047807D01*
X125810430Y-60980092D01*
X125787546Y-60904653D01*
X125787519Y-60904603D01*
X125787504Y-60904553D01*
X125753553Y-60841057D01*
X125716974Y-60772624D01*
X125716939Y-60772581D01*
X125716913Y-60772533D01*
X125670661Y-60716191D01*
X125622001Y-60656899D01*
X125592958Y-60633064D01*
X124440000Y-59480435D01*
X124440000Y-50928949D01*
X124443676Y-50891754D01*
X124440000Y-50854302D01*
X124440000Y-50854167D01*
X124436137Y-50814946D01*
X124429052Y-50742763D01*
X124429016Y-50742643D01*
X124429003Y-50742514D01*
X124407008Y-50670005D01*
X124385643Y-50599488D01*
X124385583Y-50599377D01*
X124385546Y-50599253D01*
X124350134Y-50533002D01*
X124315115Y-50467435D01*
X124315034Y-50467336D01*
X124314974Y-50467224D01*
X124267288Y-50409119D01*
X124243969Y-50380685D01*
X124243881Y-50380597D01*
X124220001Y-50351499D01*
X124191099Y-50327780D01*
X123990000Y-50126547D01*
X123990000Y-49114849D01*
X123993677Y-49077534D01*
X123990000Y-49040186D01*
X123990000Y-49040167D01*
X123984761Y-48986976D01*
X123983953Y-48978763D01*
X124157210Y-49152014D01*
%TA.AperFunction,Conductor*%
D28*
G36*
X124157210Y-49152014D02*
G01*
X124180999Y-49181001D01*
X124209997Y-49204799D01*
X124210007Y-49204809D01*
X124264801Y-49249775D01*
X124296724Y-49275974D01*
X124296728Y-49275976D01*
X124296735Y-49275982D01*
X124363567Y-49311703D01*
X124428753Y-49346546D01*
X124428761Y-49346549D01*
X124428766Y-49346551D01*
X124474588Y-49360450D01*
X124572014Y-49390003D01*
X124572025Y-49390004D01*
X124572028Y-49390005D01*
X124602607Y-49393016D01*
X124683667Y-49401000D01*
X124683684Y-49401000D01*
X124721014Y-49404676D01*
X124758329Y-49401000D01*
X131564422Y-49401000D01*
X131689125Y-49587632D01*
X131895968Y-49794475D01*
X132070360Y-49911000D01*
X131895968Y-50027525D01*
X131689125Y-50234368D01*
X131526610Y-50477589D01*
X131414668Y-50747842D01*
X131357600Y-51034740D01*
X131357600Y-51327260D01*
X131414668Y-51614158D01*
X131526610Y-51884411D01*
X131689125Y-52127632D01*
X131895968Y-52334475D01*
X132070360Y-52451000D01*
X131895968Y-52567525D01*
X131689125Y-52774368D01*
X131564422Y-52961000D01*
X127621533Y-52961000D01*
X127584200Y-52957323D01*
X127546867Y-52961000D01*
X127435214Y-52971997D01*
X127291953Y-53015454D01*
X127159924Y-53086026D01*
X127044199Y-53180999D01*
X127020401Y-53209997D01*
X126464899Y-53765500D01*
X126402761Y-53765500D01*
X126202802Y-53805274D01*
X126014444Y-53883295D01*
X125844926Y-53996563D01*
X125700763Y-54140726D01*
X125587495Y-54310244D01*
X125509474Y-54498602D01*
X125469700Y-54698561D01*
X125469700Y-54902439D01*
X125509474Y-55102398D01*
X125587495Y-55290756D01*
X125700763Y-55460274D01*
X125844926Y-55604437D01*
X126014444Y-55717705D01*
X126202802Y-55795726D01*
X126402761Y-55835500D01*
X126606639Y-55835500D01*
X126806598Y-55795726D01*
X126994956Y-55717705D01*
X127164474Y-55604437D01*
X127308637Y-55460274D01*
X127421905Y-55290756D01*
X127499926Y-55102398D01*
X127539700Y-54902439D01*
X127539700Y-54840301D01*
X127899002Y-54481000D01*
X131564422Y-54481000D01*
X131689125Y-54667632D01*
X131895968Y-54874475D01*
X132070360Y-54991000D01*
X131895968Y-55107525D01*
X131689125Y-55314368D01*
X131526610Y-55557589D01*
X131414668Y-55827842D01*
X131357600Y-56114740D01*
X131357600Y-56407260D01*
X131401413Y-56627521D01*
X130967040Y-57061767D01*
X130938000Y-57085599D01*
X130893005Y-57140426D01*
X130843089Y-57201231D01*
X130843062Y-57201281D01*
X130843027Y-57201324D01*
X130808122Y-57266626D01*
X130772497Y-57333251D01*
X130772481Y-57333305D01*
X130772455Y-57333353D01*
X130751703Y-57401765D01*
X130729019Y-57476505D01*
X130729013Y-57476564D01*
X130728998Y-57476614D01*
X130721894Y-57548737D01*
X130714324Y-57625489D01*
X130718001Y-57662878D01*
X130718001Y-61000096D01*
X130666099Y-60975375D01*
X130518890Y-60930724D01*
X130289000Y-61052045D01*
X130289000Y-62245200D01*
X130309000Y-62245200D01*
X130309000Y-62499200D01*
X130289000Y-62499200D01*
X130289000Y-64785200D01*
X130309000Y-64785200D01*
X130309000Y-65039200D01*
X130289000Y-65039200D01*
X130289000Y-66232355D01*
X130518890Y-66353676D01*
X130666099Y-66309025D01*
X130718000Y-66284304D01*
X130718000Y-66461775D01*
X130269019Y-66910708D01*
X130210774Y-66852463D01*
X130041256Y-66739195D01*
X129852898Y-66661174D01*
X129652939Y-66621400D01*
X129449061Y-66621400D01*
X129249102Y-66661174D01*
X129060744Y-66739195D01*
X128891226Y-66852463D01*
X128747063Y-66996626D01*
X128633795Y-67166144D01*
X128555774Y-67354502D01*
X128516000Y-67554461D01*
X128516000Y-67616680D01*
X128022162Y-68110600D01*
X127368333Y-68110600D01*
X127331000Y-68106923D01*
X127293667Y-68110600D01*
X127182014Y-68121597D01*
X127038753Y-68165054D01*
X126906724Y-68235626D01*
X126790999Y-68330599D01*
X126696026Y-68446324D01*
X126625454Y-68578353D01*
X126581997Y-68721614D01*
X126577911Y-68763104D01*
X126384368Y-68892425D01*
X126177525Y-69099268D01*
X126061000Y-69273660D01*
X125944475Y-69099268D01*
X125737632Y-68892425D01*
X125494411Y-68729910D01*
X125224158Y-68617968D01*
X125160108Y-68605228D01*
X125241829Y-68561547D01*
X125313916Y-68523022D01*
X125313937Y-68523005D01*
X125313972Y-68522986D01*
X125397803Y-68454187D01*
X125420616Y-68435468D01*
X125420631Y-68435453D01*
X125456344Y-68406144D01*
X125485611Y-68370482D01*
X127461922Y-66394451D01*
X127475740Y-66397200D01*
X127768260Y-66397200D01*
X128055158Y-66340132D01*
X128325411Y-66228190D01*
X128568632Y-66065675D01*
X128775475Y-65858832D01*
X128897195Y-65676666D01*
X128966822Y-65793555D01*
X129161731Y-66009788D01*
X129395080Y-66183841D01*
X129657901Y-66309025D01*
X129805110Y-66353676D01*
X130035000Y-66232355D01*
X130035000Y-65039200D01*
X130015000Y-65039200D01*
X130015000Y-64785200D01*
X130035000Y-64785200D01*
X130035000Y-62499200D01*
X130015000Y-62499200D01*
X130015000Y-62245200D01*
X130035000Y-62245200D01*
X130035000Y-61052045D01*
X129805110Y-60930724D01*
X129657901Y-60975375D01*
X129395080Y-61100559D01*
X129161731Y-61274612D01*
X128966822Y-61490845D01*
X128897195Y-61607734D01*
X128775475Y-61425568D01*
X128568632Y-61218725D01*
X128325411Y-61056210D01*
X128055158Y-60944268D01*
X127768260Y-60887200D01*
X127475740Y-60887200D01*
X127188842Y-60944268D01*
X126918589Y-61056210D01*
X126675368Y-61218725D01*
X126468525Y-61425568D01*
X126352000Y-61599960D01*
X126235475Y-61425568D01*
X126028632Y-61218725D01*
X125835089Y-61089404D01*
X125831003Y-61047914D01*
X125830986Y-61047858D01*
X125830981Y-61047807D01*
X125810430Y-60980092D01*
X125787546Y-60904653D01*
X125787519Y-60904603D01*
X125787504Y-60904553D01*
X125753553Y-60841057D01*
X125716974Y-60772624D01*
X125716939Y-60772581D01*
X125716913Y-60772533D01*
X125670661Y-60716191D01*
X125622001Y-60656899D01*
X125592958Y-60633064D01*
X124440000Y-59480435D01*
X124440000Y-50928949D01*
X124443676Y-50891754D01*
X124440000Y-50854302D01*
X124440000Y-50854167D01*
X124436137Y-50814946D01*
X124429052Y-50742763D01*
X124429016Y-50742643D01*
X124429003Y-50742514D01*
X124407008Y-50670005D01*
X124385643Y-50599488D01*
X124385583Y-50599377D01*
X124385546Y-50599253D01*
X124350134Y-50533002D01*
X124315115Y-50467435D01*
X124315034Y-50467336D01*
X124314974Y-50467224D01*
X124267288Y-50409119D01*
X124243969Y-50380685D01*
X124243881Y-50380597D01*
X124220001Y-50351499D01*
X124191099Y-50327780D01*
X123990000Y-50126547D01*
X123990000Y-49114849D01*
X123993677Y-49077534D01*
X123990000Y-49040186D01*
X123990000Y-49040167D01*
X123984761Y-48986976D01*
X123983953Y-48978763D01*
X124157210Y-49152014D01*
G37*
%TD.AperFunction*%
D27*
X108803525Y-55609932D02*
X109010368Y-55816775D01*
X109197000Y-55941479D01*
X109197000Y-56617777D01*
X109193324Y-56655100D01*
X109197000Y-56692422D01*
X109197000Y-56692432D01*
X109207997Y-56804085D01*
X109239549Y-56908099D01*
X109251454Y-56947346D01*
X109322026Y-57079376D01*
X109342481Y-57104300D01*
X109416999Y-57195101D01*
X109446002Y-57218903D01*
X109835198Y-57608100D01*
X109817298Y-57608100D01*
X109817298Y-57772944D01*
X109587410Y-57651624D01*
X109440201Y-57696275D01*
X109177380Y-57821459D01*
X108944031Y-57995512D01*
X108749122Y-58211745D01*
X108674300Y-58337355D01*
X108599478Y-58211745D01*
X108404569Y-57995512D01*
X108171220Y-57821459D01*
X107908399Y-57696275D01*
X107761190Y-57651624D01*
X107531300Y-57772945D01*
X107531300Y-58966100D01*
X109817300Y-58966100D01*
X109817300Y-58946100D01*
X110071300Y-58946100D01*
X110071300Y-58966100D01*
X112357300Y-58966100D01*
X112357300Y-58946100D01*
X112611300Y-58946100D01*
X112611300Y-58966100D01*
X112631300Y-58966100D01*
X112631300Y-59220100D01*
X112611300Y-59220100D01*
X112611300Y-59240100D01*
X112357300Y-59240100D01*
X112357300Y-59220100D01*
X110071300Y-59220100D01*
X110071300Y-59240100D01*
X109817300Y-59240100D01*
X109817300Y-59220100D01*
X107531300Y-59220100D01*
X107531300Y-59240100D01*
X107277300Y-59240100D01*
X107277300Y-59220100D01*
X107257300Y-59220100D01*
X107257300Y-58966100D01*
X107277300Y-58966100D01*
X107277300Y-57772945D01*
X107047410Y-57651624D01*
X106900201Y-57696275D01*
X106637380Y-57821459D01*
X106461012Y-57953010D01*
X105115989Y-56607988D01*
X106194990Y-56607988D01*
X106232312Y-56611664D01*
X106269634Y-56607988D01*
X106269645Y-56607988D01*
X106381298Y-56596991D01*
X106524559Y-56553534D01*
X106656588Y-56482962D01*
X106772313Y-56387989D01*
X106796116Y-56358985D01*
X107050592Y-56104509D01*
X107270740Y-56148300D01*
X107563260Y-56148300D01*
X107850158Y-56091232D01*
X108120411Y-55979290D01*
X108363632Y-55816775D01*
X108570475Y-55609932D01*
X108687000Y-55435540D01*
X108803525Y-55609932D01*
%TA.AperFunction,Conductor*%
D28*
G36*
X108803525Y-55609932D02*
G01*
X109010368Y-55816775D01*
X109197000Y-55941479D01*
X109197000Y-56617777D01*
X109193324Y-56655100D01*
X109197000Y-56692422D01*
X109197000Y-56692432D01*
X109207997Y-56804085D01*
X109239549Y-56908099D01*
X109251454Y-56947346D01*
X109322026Y-57079376D01*
X109342481Y-57104300D01*
X109416999Y-57195101D01*
X109446002Y-57218903D01*
X109835198Y-57608100D01*
X109817298Y-57608100D01*
X109817298Y-57772944D01*
X109587410Y-57651624D01*
X109440201Y-57696275D01*
X109177380Y-57821459D01*
X108944031Y-57995512D01*
X108749122Y-58211745D01*
X108674300Y-58337355D01*
X108599478Y-58211745D01*
X108404569Y-57995512D01*
X108171220Y-57821459D01*
X107908399Y-57696275D01*
X107761190Y-57651624D01*
X107531300Y-57772945D01*
X107531300Y-58966100D01*
X109817300Y-58966100D01*
X109817300Y-58946100D01*
X110071300Y-58946100D01*
X110071300Y-58966100D01*
X112357300Y-58966100D01*
X112357300Y-58946100D01*
X112611300Y-58946100D01*
X112611300Y-58966100D01*
X112631300Y-58966100D01*
X112631300Y-59220100D01*
X112611300Y-59220100D01*
X112611300Y-59240100D01*
X112357300Y-59240100D01*
X112357300Y-59220100D01*
X110071300Y-59220100D01*
X110071300Y-59240100D01*
X109817300Y-59240100D01*
X109817300Y-59220100D01*
X107531300Y-59220100D01*
X107531300Y-59240100D01*
X107277300Y-59240100D01*
X107277300Y-59220100D01*
X107257300Y-59220100D01*
X107257300Y-58966100D01*
X107277300Y-58966100D01*
X107277300Y-57772945D01*
X107047410Y-57651624D01*
X106900201Y-57696275D01*
X106637380Y-57821459D01*
X106461012Y-57953010D01*
X105115989Y-56607988D01*
X106194990Y-56607988D01*
X106232312Y-56611664D01*
X106269634Y-56607988D01*
X106269645Y-56607988D01*
X106381298Y-56596991D01*
X106524559Y-56553534D01*
X106656588Y-56482962D01*
X106772313Y-56387989D01*
X106796116Y-56358985D01*
X107050592Y-56104509D01*
X107270740Y-56148300D01*
X107563260Y-56148300D01*
X107850158Y-56091232D01*
X108120411Y-55979290D01*
X108363632Y-55816775D01*
X108570475Y-55609932D01*
X108687000Y-55435540D01*
X108803525Y-55609932D01*
G37*
%TD.AperFunction*%
D27*
X83365150Y-47190749D02*
X83313980Y-47163398D01*
X83194282Y-47127088D01*
X83069800Y-47114828D01*
X81369800Y-47114828D01*
X81245318Y-47127088D01*
X81125620Y-47163398D01*
X81015306Y-47222363D01*
X80918615Y-47301715D01*
X80839263Y-47398406D01*
X80780298Y-47508720D01*
X80743988Y-47628418D01*
X80731728Y-47752900D01*
X80731728Y-49452900D01*
X80743988Y-49577382D01*
X80780298Y-49697080D01*
X80839263Y-49807394D01*
X80918615Y-49904085D01*
X81015306Y-49983437D01*
X81125620Y-50042402D01*
X81245318Y-50078712D01*
X81369800Y-50090972D01*
X83069800Y-50090972D01*
X83194282Y-50078712D01*
X83313980Y-50042402D01*
X83424294Y-49983437D01*
X83520985Y-49904085D01*
X83600337Y-49807394D01*
X83659302Y-49697080D01*
X83681313Y-49624520D01*
X83813168Y-49756375D01*
X84056389Y-49918890D01*
X84326642Y-50030832D01*
X84613540Y-50087900D01*
X84906060Y-50087900D01*
X85192958Y-50030832D01*
X85463211Y-49918890D01*
X85706432Y-49756375D01*
X85913275Y-49549532D01*
X86029800Y-49375140D01*
X86146325Y-49549532D01*
X86353168Y-49756375D01*
X86596389Y-49918890D01*
X86866642Y-50030832D01*
X87153540Y-50087900D01*
X87446060Y-50087900D01*
X87732958Y-50030832D01*
X88003211Y-49918890D01*
X88246432Y-49756375D01*
X88453275Y-49549532D01*
X88569800Y-49375140D01*
X88686325Y-49549532D01*
X88893168Y-49756375D01*
X89136389Y-49918890D01*
X89406642Y-50030832D01*
X89693540Y-50087900D01*
X89986060Y-50087900D01*
X90272958Y-50030832D01*
X90444500Y-49959777D01*
X90444500Y-50034898D01*
X87458337Y-53021062D01*
X87351580Y-52963998D01*
X87251460Y-52933627D01*
X87246162Y-52915625D01*
X87245131Y-52913653D01*
X87244487Y-52911520D01*
X87216412Y-52858719D01*
X87188745Y-52805797D01*
X87187351Y-52804063D01*
X87186305Y-52802096D01*
X87148517Y-52755763D01*
X87111090Y-52709214D01*
X87109385Y-52707783D01*
X87107977Y-52706057D01*
X87061927Y-52667961D01*
X87016154Y-52629553D01*
X87014202Y-52628480D01*
X87012487Y-52627061D01*
X86959939Y-52598649D01*
X86907553Y-52569849D01*
X86905429Y-52569175D01*
X86903472Y-52568117D01*
X86846450Y-52550466D01*
X86789424Y-52532376D01*
X86787208Y-52532127D01*
X86785084Y-52531470D01*
X86725657Y-52525224D01*
X86666266Y-52518562D01*
X86661996Y-52518532D01*
X86661833Y-52518515D01*
X86661670Y-52518530D01*
X86657400Y-52518500D01*
X86057400Y-52518500D01*
X85997895Y-52524334D01*
X85938413Y-52529748D01*
X85936282Y-52530375D01*
X85934061Y-52530593D01*
X85876779Y-52547888D01*
X85819525Y-52564738D01*
X85817553Y-52565769D01*
X85815420Y-52566413D01*
X85762619Y-52594488D01*
X85709697Y-52622155D01*
X85707963Y-52623549D01*
X85705996Y-52624595D01*
X85659663Y-52662383D01*
X85613114Y-52699810D01*
X85611683Y-52701515D01*
X85609957Y-52702923D01*
X85571861Y-52748973D01*
X85533453Y-52794746D01*
X85532380Y-52796698D01*
X85530961Y-52798413D01*
X85502549Y-52850961D01*
X85473749Y-52903347D01*
X85473075Y-52905471D01*
X85472017Y-52907428D01*
X85463966Y-52933437D01*
X85363220Y-52963998D01*
X85252906Y-53022963D01*
X85156215Y-53102315D01*
X85076863Y-53199006D01*
X85026354Y-53293500D01*
X83894732Y-53293500D01*
X83898672Y-53253500D01*
X83898672Y-52753500D01*
X83896264Y-52729050D01*
X83896264Y-52704491D01*
X83884004Y-52580010D01*
X83864882Y-52483877D01*
X83828573Y-52364181D01*
X83791064Y-52273625D01*
X83732098Y-52163308D01*
X83677642Y-52081809D01*
X83598290Y-51985118D01*
X83528982Y-51915810D01*
X83432291Y-51836458D01*
X83350792Y-51782002D01*
X83240475Y-51723036D01*
X83149919Y-51685527D01*
X83030223Y-51649218D01*
X82934090Y-51630096D01*
X82809609Y-51617836D01*
X82785050Y-51617836D01*
X82760600Y-51615428D01*
X82260600Y-51615428D01*
X82236150Y-51617836D01*
X82211591Y-51617836D01*
X82087110Y-51630096D01*
X81990977Y-51649218D01*
X81871281Y-51685527D01*
X81780725Y-51723036D01*
X81670408Y-51782002D01*
X81588909Y-51836458D01*
X81535201Y-51880535D01*
X81402998Y-51825774D01*
X81203039Y-51786000D01*
X80999161Y-51786000D01*
X80799202Y-51825774D01*
X80610844Y-51903795D01*
X80441326Y-52017063D01*
X80297163Y-52161226D01*
X80183895Y-52330744D01*
X80105874Y-52519102D01*
X80066100Y-52719061D01*
X80066100Y-52922939D01*
X80105874Y-53122898D01*
X80183895Y-53311256D01*
X80297163Y-53480774D01*
X80441326Y-53624937D01*
X80610844Y-53738205D01*
X80799202Y-53816226D01*
X80999161Y-53856000D01*
X81122528Y-53856000D01*
X81122528Y-54053500D01*
X81124936Y-54077950D01*
X81124936Y-54102509D01*
X81128717Y-54140900D01*
X80045683Y-54140900D01*
X80049464Y-54102509D01*
X80049464Y-54077950D01*
X80051872Y-54053500D01*
X80051872Y-53553500D01*
X80039612Y-53429018D01*
X80031871Y-53403500D01*
X80039612Y-53377982D01*
X80051872Y-53253500D01*
X80051872Y-52753500D01*
X80049464Y-52729050D01*
X80049464Y-52704491D01*
X80037204Y-52580010D01*
X80018082Y-52483877D01*
X79981773Y-52364181D01*
X79944264Y-52273625D01*
X79885298Y-52163308D01*
X79830842Y-52081809D01*
X79751490Y-51985118D01*
X79682182Y-51915810D01*
X79585491Y-51836458D01*
X79503992Y-51782002D01*
X79393675Y-51723036D01*
X79303119Y-51685527D01*
X79183423Y-51649218D01*
X79087290Y-51630096D01*
X78962809Y-51617836D01*
X78938250Y-51617836D01*
X78913800Y-51615428D01*
X78413800Y-51615428D01*
X78389350Y-51617836D01*
X78364791Y-51617836D01*
X78240310Y-51630096D01*
X78144177Y-51649218D01*
X78024481Y-51685527D01*
X77933925Y-51723036D01*
X77823608Y-51782002D01*
X77742109Y-51836458D01*
X77645418Y-51915810D01*
X77576110Y-51985118D01*
X77496758Y-52081809D01*
X77448296Y-52154337D01*
X77376207Y-52213499D01*
X77352404Y-52242503D01*
X77047098Y-52547809D01*
X77018100Y-52571607D01*
X76994302Y-52600605D01*
X76994301Y-52600606D01*
X76923126Y-52687332D01*
X76852554Y-52819362D01*
X76826733Y-52904485D01*
X76809098Y-52962622D01*
X76803891Y-53015490D01*
X76794424Y-53111608D01*
X76798101Y-53148940D01*
X76798100Y-54395377D01*
X76794424Y-54432700D01*
X76798100Y-54470022D01*
X76798100Y-54470032D01*
X76809097Y-54581685D01*
X76847391Y-54707924D01*
X76852554Y-54724946D01*
X76923126Y-54856976D01*
X76955572Y-54896511D01*
X77018099Y-54972701D01*
X77047103Y-54996504D01*
X78576697Y-56526099D01*
X75791532Y-56526099D01*
X75745600Y-56521575D01*
X75562308Y-56539628D01*
X75517555Y-56553204D01*
X75386061Y-56593092D01*
X75223629Y-56679913D01*
X75081257Y-56796755D01*
X75051977Y-56832433D01*
X74465900Y-57418511D01*
X74408334Y-57348366D01*
X74182214Y-57162794D01*
X74156478Y-57149038D01*
X74362629Y-56992549D01*
X74555696Y-56774693D01*
X74702552Y-56523358D01*
X74794676Y-56260390D01*
X74673355Y-56030500D01*
X73355200Y-56030500D01*
X73355200Y-56050500D01*
X73101200Y-56050500D01*
X73101200Y-56030500D01*
X71783045Y-56030500D01*
X71661724Y-56260390D01*
X71753848Y-56523358D01*
X71900704Y-56774693D01*
X72093771Y-56992549D01*
X72299922Y-57149038D01*
X72274186Y-57162794D01*
X72048066Y-57348366D01*
X71949475Y-57468500D01*
X68536489Y-57468500D01*
X67823361Y-56755372D01*
X68195400Y-56755372D01*
X68368654Y-56738308D01*
X68535250Y-56687772D01*
X68688786Y-56605705D01*
X68823362Y-56495262D01*
X68933805Y-56360686D01*
X69015872Y-56207150D01*
X69066408Y-56040554D01*
X69083472Y-55867300D01*
X69083472Y-54667300D01*
X69066408Y-54494046D01*
X69015872Y-54327450D01*
X68933805Y-54173914D01*
X68823362Y-54039338D01*
X68688786Y-53928895D01*
X68586807Y-53874386D01*
X68587195Y-53874102D01*
X68784064Y-53659346D01*
X68935254Y-53410309D01*
X69034954Y-53136561D01*
X69036876Y-53124190D01*
X68915555Y-52894300D01*
X67572400Y-52894300D01*
X67572400Y-52914300D01*
X67318400Y-52914300D01*
X67318400Y-52894300D01*
X67298400Y-52894300D01*
X67298400Y-52803500D01*
X71615128Y-52803500D01*
X71615128Y-54003500D01*
X71632192Y-54176754D01*
X71682728Y-54343350D01*
X71764795Y-54496886D01*
X71875238Y-54631462D01*
X72009814Y-54741905D01*
X72115161Y-54798214D01*
X72093771Y-54814451D01*
X71900704Y-55032307D01*
X71753848Y-55283642D01*
X71661724Y-55546610D01*
X71783045Y-55776500D01*
X73101200Y-55776500D01*
X73101200Y-55756500D01*
X73355200Y-55756500D01*
X73355200Y-55776500D01*
X74673355Y-55776500D01*
X74794676Y-55546610D01*
X74702552Y-55283642D01*
X74555696Y-55032307D01*
X74362629Y-54814451D01*
X74341239Y-54798214D01*
X74446586Y-54741905D01*
X74581162Y-54631462D01*
X74691605Y-54496886D01*
X74773672Y-54343350D01*
X74824208Y-54176754D01*
X74841272Y-54003500D01*
X74841272Y-52803500D01*
X74824208Y-52630246D01*
X74773672Y-52463650D01*
X74691605Y-52310114D01*
X74581162Y-52175538D01*
X74446586Y-52065095D01*
X74293050Y-51983028D01*
X74126454Y-51932492D01*
X73953200Y-51915428D01*
X72503200Y-51915428D01*
X72329946Y-51932492D01*
X72163350Y-51983028D01*
X72009814Y-52065095D01*
X71875238Y-52175538D01*
X71764795Y-52310114D01*
X71682728Y-52463650D01*
X71632192Y-52630246D01*
X71615128Y-52803500D01*
X67298400Y-52803500D01*
X67298400Y-52640300D01*
X67318400Y-52640300D01*
X67318400Y-51440068D01*
X67572400Y-51440068D01*
X67572400Y-52640300D01*
X68915555Y-52640300D01*
X69036876Y-52410410D01*
X69034954Y-52398039D01*
X68935254Y-52124291D01*
X68784064Y-51875254D01*
X68587195Y-51660498D01*
X68352212Y-51488275D01*
X68088145Y-51365204D01*
X67805142Y-51296015D01*
X67572400Y-51440068D01*
X67318400Y-51440068D01*
X67085658Y-51296015D01*
X67022279Y-51311510D01*
X69605364Y-48728426D01*
X69641044Y-48699144D01*
X69660471Y-48675472D01*
X70769600Y-49784602D01*
X70769600Y-49846739D01*
X70809374Y-50046698D01*
X70887395Y-50235056D01*
X71000663Y-50404574D01*
X71144826Y-50548737D01*
X71314344Y-50662005D01*
X71502702Y-50740026D01*
X71702661Y-50779800D01*
X71906539Y-50779800D01*
X72106498Y-50740026D01*
X72294856Y-50662005D01*
X72464374Y-50548737D01*
X72608537Y-50404574D01*
X72721805Y-50235056D01*
X72799826Y-50046698D01*
X72839600Y-49846739D01*
X72839600Y-49642861D01*
X72799826Y-49442902D01*
X72721805Y-49254544D01*
X72608537Y-49085026D01*
X72464374Y-48940863D01*
X72294856Y-48827595D01*
X72106498Y-48749574D01*
X71906539Y-48709800D01*
X71844402Y-48709800D01*
X70637000Y-47502399D01*
X70637000Y-47106811D01*
X70680937Y-47062874D01*
X70794205Y-46893356D01*
X70872226Y-46704998D01*
X70912000Y-46505039D01*
X70912000Y-46331189D01*
X73583770Y-49002959D01*
X73613056Y-49038644D01*
X73755428Y-49155486D01*
X73917860Y-49242307D01*
X74057612Y-49284700D01*
X74094108Y-49295771D01*
X74277400Y-49313824D01*
X74323332Y-49309300D01*
X77133768Y-49309300D01*
X77179700Y-49313824D01*
X77225632Y-49309300D01*
X77362992Y-49295771D01*
X77539240Y-49242307D01*
X77701672Y-49155486D01*
X77844044Y-49038644D01*
X77873330Y-49002959D01*
X80699990Y-46176300D01*
X84379598Y-46176300D01*
X83365150Y-47190749D01*
%TA.AperFunction,Conductor*%
D28*
G36*
X83365150Y-47190749D02*
G01*
X83313980Y-47163398D01*
X83194282Y-47127088D01*
X83069800Y-47114828D01*
X81369800Y-47114828D01*
X81245318Y-47127088D01*
X81125620Y-47163398D01*
X81015306Y-47222363D01*
X80918615Y-47301715D01*
X80839263Y-47398406D01*
X80780298Y-47508720D01*
X80743988Y-47628418D01*
X80731728Y-47752900D01*
X80731728Y-49452900D01*
X80743988Y-49577382D01*
X80780298Y-49697080D01*
X80839263Y-49807394D01*
X80918615Y-49904085D01*
X81015306Y-49983437D01*
X81125620Y-50042402D01*
X81245318Y-50078712D01*
X81369800Y-50090972D01*
X83069800Y-50090972D01*
X83194282Y-50078712D01*
X83313980Y-50042402D01*
X83424294Y-49983437D01*
X83520985Y-49904085D01*
X83600337Y-49807394D01*
X83659302Y-49697080D01*
X83681313Y-49624520D01*
X83813168Y-49756375D01*
X84056389Y-49918890D01*
X84326642Y-50030832D01*
X84613540Y-50087900D01*
X84906060Y-50087900D01*
X85192958Y-50030832D01*
X85463211Y-49918890D01*
X85706432Y-49756375D01*
X85913275Y-49549532D01*
X86029800Y-49375140D01*
X86146325Y-49549532D01*
X86353168Y-49756375D01*
X86596389Y-49918890D01*
X86866642Y-50030832D01*
X87153540Y-50087900D01*
X87446060Y-50087900D01*
X87732958Y-50030832D01*
X88003211Y-49918890D01*
X88246432Y-49756375D01*
X88453275Y-49549532D01*
X88569800Y-49375140D01*
X88686325Y-49549532D01*
X88893168Y-49756375D01*
X89136389Y-49918890D01*
X89406642Y-50030832D01*
X89693540Y-50087900D01*
X89986060Y-50087900D01*
X90272958Y-50030832D01*
X90444500Y-49959777D01*
X90444500Y-50034898D01*
X87458337Y-53021062D01*
X87351580Y-52963998D01*
X87251460Y-52933627D01*
X87246162Y-52915625D01*
X87245131Y-52913653D01*
X87244487Y-52911520D01*
X87216412Y-52858719D01*
X87188745Y-52805797D01*
X87187351Y-52804063D01*
X87186305Y-52802096D01*
X87148517Y-52755763D01*
X87111090Y-52709214D01*
X87109385Y-52707783D01*
X87107977Y-52706057D01*
X87061927Y-52667961D01*
X87016154Y-52629553D01*
X87014202Y-52628480D01*
X87012487Y-52627061D01*
X86959939Y-52598649D01*
X86907553Y-52569849D01*
X86905429Y-52569175D01*
X86903472Y-52568117D01*
X86846450Y-52550466D01*
X86789424Y-52532376D01*
X86787208Y-52532127D01*
X86785084Y-52531470D01*
X86725657Y-52525224D01*
X86666266Y-52518562D01*
X86661996Y-52518532D01*
X86661833Y-52518515D01*
X86661670Y-52518530D01*
X86657400Y-52518500D01*
X86057400Y-52518500D01*
X85997895Y-52524334D01*
X85938413Y-52529748D01*
X85936282Y-52530375D01*
X85934061Y-52530593D01*
X85876779Y-52547888D01*
X85819525Y-52564738D01*
X85817553Y-52565769D01*
X85815420Y-52566413D01*
X85762619Y-52594488D01*
X85709697Y-52622155D01*
X85707963Y-52623549D01*
X85705996Y-52624595D01*
X85659663Y-52662383D01*
X85613114Y-52699810D01*
X85611683Y-52701515D01*
X85609957Y-52702923D01*
X85571861Y-52748973D01*
X85533453Y-52794746D01*
X85532380Y-52796698D01*
X85530961Y-52798413D01*
X85502549Y-52850961D01*
X85473749Y-52903347D01*
X85473075Y-52905471D01*
X85472017Y-52907428D01*
X85463966Y-52933437D01*
X85363220Y-52963998D01*
X85252906Y-53022963D01*
X85156215Y-53102315D01*
X85076863Y-53199006D01*
X85026354Y-53293500D01*
X83894732Y-53293500D01*
X83898672Y-53253500D01*
X83898672Y-52753500D01*
X83896264Y-52729050D01*
X83896264Y-52704491D01*
X83884004Y-52580010D01*
X83864882Y-52483877D01*
X83828573Y-52364181D01*
X83791064Y-52273625D01*
X83732098Y-52163308D01*
X83677642Y-52081809D01*
X83598290Y-51985118D01*
X83528982Y-51915810D01*
X83432291Y-51836458D01*
X83350792Y-51782002D01*
X83240475Y-51723036D01*
X83149919Y-51685527D01*
X83030223Y-51649218D01*
X82934090Y-51630096D01*
X82809609Y-51617836D01*
X82785050Y-51617836D01*
X82760600Y-51615428D01*
X82260600Y-51615428D01*
X82236150Y-51617836D01*
X82211591Y-51617836D01*
X82087110Y-51630096D01*
X81990977Y-51649218D01*
X81871281Y-51685527D01*
X81780725Y-51723036D01*
X81670408Y-51782002D01*
X81588909Y-51836458D01*
X81535201Y-51880535D01*
X81402998Y-51825774D01*
X81203039Y-51786000D01*
X80999161Y-51786000D01*
X80799202Y-51825774D01*
X80610844Y-51903795D01*
X80441326Y-52017063D01*
X80297163Y-52161226D01*
X80183895Y-52330744D01*
X80105874Y-52519102D01*
X80066100Y-52719061D01*
X80066100Y-52922939D01*
X80105874Y-53122898D01*
X80183895Y-53311256D01*
X80297163Y-53480774D01*
X80441326Y-53624937D01*
X80610844Y-53738205D01*
X80799202Y-53816226D01*
X80999161Y-53856000D01*
X81122528Y-53856000D01*
X81122528Y-54053500D01*
X81124936Y-54077950D01*
X81124936Y-54102509D01*
X81128717Y-54140900D01*
X80045683Y-54140900D01*
X80049464Y-54102509D01*
X80049464Y-54077950D01*
X80051872Y-54053500D01*
X80051872Y-53553500D01*
X80039612Y-53429018D01*
X80031871Y-53403500D01*
X80039612Y-53377982D01*
X80051872Y-53253500D01*
X80051872Y-52753500D01*
X80049464Y-52729050D01*
X80049464Y-52704491D01*
X80037204Y-52580010D01*
X80018082Y-52483877D01*
X79981773Y-52364181D01*
X79944264Y-52273625D01*
X79885298Y-52163308D01*
X79830842Y-52081809D01*
X79751490Y-51985118D01*
X79682182Y-51915810D01*
X79585491Y-51836458D01*
X79503992Y-51782002D01*
X79393675Y-51723036D01*
X79303119Y-51685527D01*
X79183423Y-51649218D01*
X79087290Y-51630096D01*
X78962809Y-51617836D01*
X78938250Y-51617836D01*
X78913800Y-51615428D01*
X78413800Y-51615428D01*
X78389350Y-51617836D01*
X78364791Y-51617836D01*
X78240310Y-51630096D01*
X78144177Y-51649218D01*
X78024481Y-51685527D01*
X77933925Y-51723036D01*
X77823608Y-51782002D01*
X77742109Y-51836458D01*
X77645418Y-51915810D01*
X77576110Y-51985118D01*
X77496758Y-52081809D01*
X77448296Y-52154337D01*
X77376207Y-52213499D01*
X77352404Y-52242503D01*
X77047098Y-52547809D01*
X77018100Y-52571607D01*
X76994302Y-52600605D01*
X76994301Y-52600606D01*
X76923126Y-52687332D01*
X76852554Y-52819362D01*
X76826733Y-52904485D01*
X76809098Y-52962622D01*
X76803891Y-53015490D01*
X76794424Y-53111608D01*
X76798101Y-53148940D01*
X76798100Y-54395377D01*
X76794424Y-54432700D01*
X76798100Y-54470022D01*
X76798100Y-54470032D01*
X76809097Y-54581685D01*
X76847391Y-54707924D01*
X76852554Y-54724946D01*
X76923126Y-54856976D01*
X76955572Y-54896511D01*
X77018099Y-54972701D01*
X77047103Y-54996504D01*
X78576697Y-56526099D01*
X75791532Y-56526099D01*
X75745600Y-56521575D01*
X75562308Y-56539628D01*
X75517555Y-56553204D01*
X75386061Y-56593092D01*
X75223629Y-56679913D01*
X75081257Y-56796755D01*
X75051977Y-56832433D01*
X74465900Y-57418511D01*
X74408334Y-57348366D01*
X74182214Y-57162794D01*
X74156478Y-57149038D01*
X74362629Y-56992549D01*
X74555696Y-56774693D01*
X74702552Y-56523358D01*
X74794676Y-56260390D01*
X74673355Y-56030500D01*
X73355200Y-56030500D01*
X73355200Y-56050500D01*
X73101200Y-56050500D01*
X73101200Y-56030500D01*
X71783045Y-56030500D01*
X71661724Y-56260390D01*
X71753848Y-56523358D01*
X71900704Y-56774693D01*
X72093771Y-56992549D01*
X72299922Y-57149038D01*
X72274186Y-57162794D01*
X72048066Y-57348366D01*
X71949475Y-57468500D01*
X68536489Y-57468500D01*
X67823361Y-56755372D01*
X68195400Y-56755372D01*
X68368654Y-56738308D01*
X68535250Y-56687772D01*
X68688786Y-56605705D01*
X68823362Y-56495262D01*
X68933805Y-56360686D01*
X69015872Y-56207150D01*
X69066408Y-56040554D01*
X69083472Y-55867300D01*
X69083472Y-54667300D01*
X69066408Y-54494046D01*
X69015872Y-54327450D01*
X68933805Y-54173914D01*
X68823362Y-54039338D01*
X68688786Y-53928895D01*
X68586807Y-53874386D01*
X68587195Y-53874102D01*
X68784064Y-53659346D01*
X68935254Y-53410309D01*
X69034954Y-53136561D01*
X69036876Y-53124190D01*
X68915555Y-52894300D01*
X67572400Y-52894300D01*
X67572400Y-52914300D01*
X67318400Y-52914300D01*
X67318400Y-52894300D01*
X67298400Y-52894300D01*
X67298400Y-52803500D01*
X71615128Y-52803500D01*
X71615128Y-54003500D01*
X71632192Y-54176754D01*
X71682728Y-54343350D01*
X71764795Y-54496886D01*
X71875238Y-54631462D01*
X72009814Y-54741905D01*
X72115161Y-54798214D01*
X72093771Y-54814451D01*
X71900704Y-55032307D01*
X71753848Y-55283642D01*
X71661724Y-55546610D01*
X71783045Y-55776500D01*
X73101200Y-55776500D01*
X73101200Y-55756500D01*
X73355200Y-55756500D01*
X73355200Y-55776500D01*
X74673355Y-55776500D01*
X74794676Y-55546610D01*
X74702552Y-55283642D01*
X74555696Y-55032307D01*
X74362629Y-54814451D01*
X74341239Y-54798214D01*
X74446586Y-54741905D01*
X74581162Y-54631462D01*
X74691605Y-54496886D01*
X74773672Y-54343350D01*
X74824208Y-54176754D01*
X74841272Y-54003500D01*
X74841272Y-52803500D01*
X74824208Y-52630246D01*
X74773672Y-52463650D01*
X74691605Y-52310114D01*
X74581162Y-52175538D01*
X74446586Y-52065095D01*
X74293050Y-51983028D01*
X74126454Y-51932492D01*
X73953200Y-51915428D01*
X72503200Y-51915428D01*
X72329946Y-51932492D01*
X72163350Y-51983028D01*
X72009814Y-52065095D01*
X71875238Y-52175538D01*
X71764795Y-52310114D01*
X71682728Y-52463650D01*
X71632192Y-52630246D01*
X71615128Y-52803500D01*
X67298400Y-52803500D01*
X67298400Y-52640300D01*
X67318400Y-52640300D01*
X67318400Y-51440068D01*
X67572400Y-51440068D01*
X67572400Y-52640300D01*
X68915555Y-52640300D01*
X69036876Y-52410410D01*
X69034954Y-52398039D01*
X68935254Y-52124291D01*
X68784064Y-51875254D01*
X68587195Y-51660498D01*
X68352212Y-51488275D01*
X68088145Y-51365204D01*
X67805142Y-51296015D01*
X67572400Y-51440068D01*
X67318400Y-51440068D01*
X67085658Y-51296015D01*
X67022279Y-51311510D01*
X69605364Y-48728426D01*
X69641044Y-48699144D01*
X69660471Y-48675472D01*
X70769600Y-49784602D01*
X70769600Y-49846739D01*
X70809374Y-50046698D01*
X70887395Y-50235056D01*
X71000663Y-50404574D01*
X71144826Y-50548737D01*
X71314344Y-50662005D01*
X71502702Y-50740026D01*
X71702661Y-50779800D01*
X71906539Y-50779800D01*
X72106498Y-50740026D01*
X72294856Y-50662005D01*
X72464374Y-50548737D01*
X72608537Y-50404574D01*
X72721805Y-50235056D01*
X72799826Y-50046698D01*
X72839600Y-49846739D01*
X72839600Y-49642861D01*
X72799826Y-49442902D01*
X72721805Y-49254544D01*
X72608537Y-49085026D01*
X72464374Y-48940863D01*
X72294856Y-48827595D01*
X72106498Y-48749574D01*
X71906539Y-48709800D01*
X71844402Y-48709800D01*
X70637000Y-47502399D01*
X70637000Y-47106811D01*
X70680937Y-47062874D01*
X70794205Y-46893356D01*
X70872226Y-46704998D01*
X70912000Y-46505039D01*
X70912000Y-46331189D01*
X73583770Y-49002959D01*
X73613056Y-49038644D01*
X73755428Y-49155486D01*
X73917860Y-49242307D01*
X74057612Y-49284700D01*
X74094108Y-49295771D01*
X74277400Y-49313824D01*
X74323332Y-49309300D01*
X77133768Y-49309300D01*
X77179700Y-49313824D01*
X77225632Y-49309300D01*
X77362992Y-49295771D01*
X77539240Y-49242307D01*
X77701672Y-49155486D01*
X77844044Y-49038644D01*
X77873330Y-49002959D01*
X80699990Y-46176300D01*
X84379598Y-46176300D01*
X83365150Y-47190749D01*
G37*
%TD.AperFunction*%
D27*
X115478001Y-52321078D02*
X113652103Y-50495025D01*
X113679478Y-50464655D01*
X113828457Y-50214552D01*
X113925781Y-49940191D01*
X113805114Y-49710300D01*
X112611300Y-49710300D01*
X112611300Y-49730300D01*
X112357300Y-49730300D01*
X112357300Y-49710300D01*
X110071300Y-49710300D01*
X110071300Y-49730300D01*
X109817300Y-49730300D01*
X109817300Y-49710300D01*
X107531300Y-49710300D01*
X107531300Y-49730300D01*
X107277300Y-49730300D01*
X107277300Y-49710300D01*
X104991300Y-49710300D01*
X104991300Y-49730300D01*
X104737300Y-49730300D01*
X104737300Y-49710300D01*
X103543486Y-49710300D01*
X103422819Y-49940191D01*
X103443574Y-49998700D01*
X102764620Y-49998700D01*
X102727297Y-49995024D01*
X102689974Y-49998700D01*
X102689965Y-49998700D01*
X102578312Y-50009697D01*
X102457897Y-50046224D01*
X102435051Y-50053154D01*
X102303021Y-50123726D01*
X102227197Y-50185954D01*
X102187297Y-50218699D01*
X102163499Y-50247697D01*
X100694197Y-51717000D01*
X100665199Y-51740798D01*
X100570225Y-51856523D01*
X100499653Y-51988552D01*
X100456196Y-52131813D01*
X100445199Y-52243466D01*
X100445199Y-52243477D01*
X100441523Y-52280799D01*
X100445199Y-52318121D01*
X100445199Y-52455699D01*
X100404965Y-52495933D01*
X100251575Y-52266368D01*
X100097923Y-52112716D01*
X100836991Y-51373709D01*
X100866001Y-51349901D01*
X100916230Y-51288697D01*
X100960956Y-51234203D01*
X100960964Y-51234188D01*
X100960974Y-51234176D01*
X100996579Y-51167564D01*
X101031534Y-51102176D01*
X101031539Y-51102161D01*
X101031546Y-51102147D01*
X101056364Y-51020332D01*
X101074996Y-50958917D01*
X101074997Y-50958905D01*
X101075003Y-50958886D01*
X101085317Y-50854167D01*
X101089676Y-50809932D01*
X101086000Y-50772594D01*
X101086000Y-49529096D01*
X101100104Y-49458190D01*
X101112364Y-49333709D01*
X101112364Y-49309150D01*
X101114772Y-49284700D01*
X101114772Y-49226409D01*
X103422819Y-49226409D01*
X103543486Y-49456300D01*
X104737300Y-49456300D01*
X104737300Y-48263145D01*
X104991300Y-48263145D01*
X104991300Y-49456300D01*
X107277300Y-49456300D01*
X107277300Y-48263145D01*
X107531300Y-48263145D01*
X107531300Y-49456300D01*
X109817300Y-49456300D01*
X109817300Y-48263145D01*
X110071300Y-48263145D01*
X110071300Y-49456300D01*
X112357300Y-49456300D01*
X112357300Y-48263145D01*
X112611300Y-48263145D01*
X112611300Y-49456300D01*
X113805114Y-49456300D01*
X113925781Y-49226409D01*
X113828457Y-48952048D01*
X113679478Y-48701945D01*
X113484569Y-48485712D01*
X113251220Y-48311659D01*
X112988399Y-48186475D01*
X112841190Y-48141824D01*
X112611300Y-48263145D01*
X112357300Y-48263145D01*
X112127410Y-48141824D01*
X111980201Y-48186475D01*
X111717380Y-48311659D01*
X111484031Y-48485712D01*
X111289122Y-48701945D01*
X111214300Y-48827555D01*
X111139478Y-48701945D01*
X110944569Y-48485712D01*
X110711220Y-48311659D01*
X110448399Y-48186475D01*
X110301190Y-48141824D01*
X110071300Y-48263145D01*
X109817300Y-48263145D01*
X109587410Y-48141824D01*
X109440201Y-48186475D01*
X109177380Y-48311659D01*
X108944031Y-48485712D01*
X108749122Y-48701945D01*
X108674300Y-48827555D01*
X108599478Y-48701945D01*
X108404569Y-48485712D01*
X108171220Y-48311659D01*
X107908399Y-48186475D01*
X107761190Y-48141824D01*
X107531300Y-48263145D01*
X107277300Y-48263145D01*
X107047410Y-48141824D01*
X106900201Y-48186475D01*
X106637380Y-48311659D01*
X106404031Y-48485712D01*
X106209122Y-48701945D01*
X106134300Y-48827555D01*
X106059478Y-48701945D01*
X105864569Y-48485712D01*
X105631220Y-48311659D01*
X105368399Y-48186475D01*
X105221190Y-48141824D01*
X104991300Y-48263145D01*
X104737300Y-48263145D01*
X104507410Y-48141824D01*
X104360201Y-48186475D01*
X104097380Y-48311659D01*
X103864031Y-48485712D01*
X103669122Y-48701945D01*
X103520143Y-48952048D01*
X103422819Y-49226409D01*
X101114772Y-49226409D01*
X101114772Y-48784700D01*
X101112364Y-48760250D01*
X101112364Y-48735691D01*
X101100104Y-48611210D01*
X101080982Y-48515077D01*
X101044673Y-48395381D01*
X101007164Y-48304825D01*
X100948198Y-48194508D01*
X100893742Y-48113009D01*
X100814390Y-48016318D01*
X100745082Y-47947010D01*
X100648391Y-47867658D01*
X100566892Y-47813202D01*
X100456575Y-47754236D01*
X100366019Y-47716727D01*
X100246323Y-47680418D01*
X100150190Y-47661296D01*
X100025709Y-47649036D01*
X100001150Y-47649036D01*
X99976700Y-47646628D01*
X99476700Y-47646628D01*
X99352218Y-47658888D01*
X99326700Y-47666629D01*
X99301182Y-47658888D01*
X99176700Y-47646628D01*
X98835430Y-47646628D01*
X98309467Y-47120665D01*
X98386561Y-47136000D01*
X98590439Y-47136000D01*
X98790398Y-47096226D01*
X98935795Y-47036000D01*
X112515299Y-47036000D01*
X112519188Y-47075482D01*
X112555498Y-47195180D01*
X112614463Y-47305494D01*
X112693815Y-47402185D01*
X112790506Y-47481537D01*
X112900820Y-47540502D01*
X113020518Y-47576812D01*
X113145000Y-47589072D01*
X114845000Y-47589072D01*
X114969482Y-47576812D01*
X115089180Y-47540502D01*
X115199494Y-47481537D01*
X115296185Y-47402185D01*
X115375537Y-47305494D01*
X115434502Y-47195180D01*
X115470812Y-47075482D01*
X115478000Y-47002495D01*
X115478001Y-52321078D01*
%TA.AperFunction,Conductor*%
D28*
G36*
X115478001Y-52321078D02*
G01*
X113652103Y-50495025D01*
X113679478Y-50464655D01*
X113828457Y-50214552D01*
X113925781Y-49940191D01*
X113805114Y-49710300D01*
X112611300Y-49710300D01*
X112611300Y-49730300D01*
X112357300Y-49730300D01*
X112357300Y-49710300D01*
X110071300Y-49710300D01*
X110071300Y-49730300D01*
X109817300Y-49730300D01*
X109817300Y-49710300D01*
X107531300Y-49710300D01*
X107531300Y-49730300D01*
X107277300Y-49730300D01*
X107277300Y-49710300D01*
X104991300Y-49710300D01*
X104991300Y-49730300D01*
X104737300Y-49730300D01*
X104737300Y-49710300D01*
X103543486Y-49710300D01*
X103422819Y-49940191D01*
X103443574Y-49998700D01*
X102764620Y-49998700D01*
X102727297Y-49995024D01*
X102689974Y-49998700D01*
X102689965Y-49998700D01*
X102578312Y-50009697D01*
X102457897Y-50046224D01*
X102435051Y-50053154D01*
X102303021Y-50123726D01*
X102227197Y-50185954D01*
X102187297Y-50218699D01*
X102163499Y-50247697D01*
X100694197Y-51717000D01*
X100665199Y-51740798D01*
X100570225Y-51856523D01*
X100499653Y-51988552D01*
X100456196Y-52131813D01*
X100445199Y-52243466D01*
X100445199Y-52243477D01*
X100441523Y-52280799D01*
X100445199Y-52318121D01*
X100445199Y-52455699D01*
X100404965Y-52495933D01*
X100251575Y-52266368D01*
X100097923Y-52112716D01*
X100836991Y-51373709D01*
X100866001Y-51349901D01*
X100916230Y-51288697D01*
X100960956Y-51234203D01*
X100960964Y-51234188D01*
X100960974Y-51234176D01*
X100996579Y-51167564D01*
X101031534Y-51102176D01*
X101031539Y-51102161D01*
X101031546Y-51102147D01*
X101056364Y-51020332D01*
X101074996Y-50958917D01*
X101074997Y-50958905D01*
X101075003Y-50958886D01*
X101085317Y-50854167D01*
X101089676Y-50809932D01*
X101086000Y-50772594D01*
X101086000Y-49529096D01*
X101100104Y-49458190D01*
X101112364Y-49333709D01*
X101112364Y-49309150D01*
X101114772Y-49284700D01*
X101114772Y-49226409D01*
X103422819Y-49226409D01*
X103543486Y-49456300D01*
X104737300Y-49456300D01*
X104737300Y-48263145D01*
X104991300Y-48263145D01*
X104991300Y-49456300D01*
X107277300Y-49456300D01*
X107277300Y-48263145D01*
X107531300Y-48263145D01*
X107531300Y-49456300D01*
X109817300Y-49456300D01*
X109817300Y-48263145D01*
X110071300Y-48263145D01*
X110071300Y-49456300D01*
X112357300Y-49456300D01*
X112357300Y-48263145D01*
X112611300Y-48263145D01*
X112611300Y-49456300D01*
X113805114Y-49456300D01*
X113925781Y-49226409D01*
X113828457Y-48952048D01*
X113679478Y-48701945D01*
X113484569Y-48485712D01*
X113251220Y-48311659D01*
X112988399Y-48186475D01*
X112841190Y-48141824D01*
X112611300Y-48263145D01*
X112357300Y-48263145D01*
X112127410Y-48141824D01*
X111980201Y-48186475D01*
X111717380Y-48311659D01*
X111484031Y-48485712D01*
X111289122Y-48701945D01*
X111214300Y-48827555D01*
X111139478Y-48701945D01*
X110944569Y-48485712D01*
X110711220Y-48311659D01*
X110448399Y-48186475D01*
X110301190Y-48141824D01*
X110071300Y-48263145D01*
X109817300Y-48263145D01*
X109587410Y-48141824D01*
X109440201Y-48186475D01*
X109177380Y-48311659D01*
X108944031Y-48485712D01*
X108749122Y-48701945D01*
X108674300Y-48827555D01*
X108599478Y-48701945D01*
X108404569Y-48485712D01*
X108171220Y-48311659D01*
X107908399Y-48186475D01*
X107761190Y-48141824D01*
X107531300Y-48263145D01*
X107277300Y-48263145D01*
X107047410Y-48141824D01*
X106900201Y-48186475D01*
X106637380Y-48311659D01*
X106404031Y-48485712D01*
X106209122Y-48701945D01*
X106134300Y-48827555D01*
X106059478Y-48701945D01*
X105864569Y-48485712D01*
X105631220Y-48311659D01*
X105368399Y-48186475D01*
X105221190Y-48141824D01*
X104991300Y-48263145D01*
X104737300Y-48263145D01*
X104507410Y-48141824D01*
X104360201Y-48186475D01*
X104097380Y-48311659D01*
X103864031Y-48485712D01*
X103669122Y-48701945D01*
X103520143Y-48952048D01*
X103422819Y-49226409D01*
X101114772Y-49226409D01*
X101114772Y-48784700D01*
X101112364Y-48760250D01*
X101112364Y-48735691D01*
X101100104Y-48611210D01*
X101080982Y-48515077D01*
X101044673Y-48395381D01*
X101007164Y-48304825D01*
X100948198Y-48194508D01*
X100893742Y-48113009D01*
X100814390Y-48016318D01*
X100745082Y-47947010D01*
X100648391Y-47867658D01*
X100566892Y-47813202D01*
X100456575Y-47754236D01*
X100366019Y-47716727D01*
X100246323Y-47680418D01*
X100150190Y-47661296D01*
X100025709Y-47649036D01*
X100001150Y-47649036D01*
X99976700Y-47646628D01*
X99476700Y-47646628D01*
X99352218Y-47658888D01*
X99326700Y-47666629D01*
X99301182Y-47658888D01*
X99176700Y-47646628D01*
X98835430Y-47646628D01*
X98309467Y-47120665D01*
X98386561Y-47136000D01*
X98590439Y-47136000D01*
X98790398Y-47096226D01*
X98935795Y-47036000D01*
X112515299Y-47036000D01*
X112519188Y-47075482D01*
X112555498Y-47195180D01*
X112614463Y-47305494D01*
X112693815Y-47402185D01*
X112790506Y-47481537D01*
X112900820Y-47540502D01*
X113020518Y-47576812D01*
X113145000Y-47589072D01*
X114845000Y-47589072D01*
X114969482Y-47576812D01*
X115089180Y-47540502D01*
X115199494Y-47481537D01*
X115296185Y-47402185D01*
X115375537Y-47305494D01*
X115434502Y-47195180D01*
X115470812Y-47075482D01*
X115478000Y-47002495D01*
X115478001Y-52321078D01*
G37*
%TD.AperFunction*%
D27*
X127057141Y-42944570D02*
X127021456Y-42973856D01*
X126904614Y-43116229D01*
X126817793Y-43278661D01*
X126776514Y-43414740D01*
X126764329Y-43454909D01*
X126746276Y-43638200D01*
X126750800Y-43684132D01*
X126750801Y-46898303D01*
X126690574Y-47043702D01*
X126650800Y-47243661D01*
X126650800Y-47447539D01*
X126690574Y-47647498D01*
X126768595Y-47835856D01*
X126798759Y-47881000D01*
X125035793Y-47881000D01*
X123157000Y-46002280D01*
X123157000Y-45940161D01*
X123117226Y-45740202D01*
X123039205Y-45551844D01*
X122925937Y-45382326D01*
X122781774Y-45238163D01*
X122612256Y-45124895D01*
X122423898Y-45046874D01*
X122223939Y-45007100D01*
X122020061Y-45007100D01*
X121820102Y-45046874D01*
X121631744Y-45124895D01*
X121462226Y-45238163D01*
X121318063Y-45382326D01*
X121204795Y-45551844D01*
X121126774Y-45740202D01*
X121100390Y-45872846D01*
X119062280Y-43834552D01*
X119087600Y-43707260D01*
X119087600Y-43414740D01*
X119030532Y-43127842D01*
X118918590Y-42857589D01*
X118756075Y-42614368D01*
X118549232Y-42407525D01*
X118374840Y-42291000D01*
X118549232Y-42174475D01*
X118756075Y-41967632D01*
X118918590Y-41724411D01*
X119030532Y-41454158D01*
X119087600Y-41167260D01*
X119087600Y-40874740D01*
X119030532Y-40587842D01*
X118998703Y-40511000D01*
X129313678Y-40511000D01*
X129351000Y-40514676D01*
X129388322Y-40511000D01*
X129388333Y-40511000D01*
X129499986Y-40500003D01*
X129502457Y-40499253D01*
X127057141Y-42944570D01*
%TA.AperFunction,Conductor*%
D28*
G36*
X127057141Y-42944570D02*
G01*
X127021456Y-42973856D01*
X126904614Y-43116229D01*
X126817793Y-43278661D01*
X126776514Y-43414740D01*
X126764329Y-43454909D01*
X126746276Y-43638200D01*
X126750800Y-43684132D01*
X126750801Y-46898303D01*
X126690574Y-47043702D01*
X126650800Y-47243661D01*
X126650800Y-47447539D01*
X126690574Y-47647498D01*
X126768595Y-47835856D01*
X126798759Y-47881000D01*
X125035793Y-47881000D01*
X123157000Y-46002280D01*
X123157000Y-45940161D01*
X123117226Y-45740202D01*
X123039205Y-45551844D01*
X122925937Y-45382326D01*
X122781774Y-45238163D01*
X122612256Y-45124895D01*
X122423898Y-45046874D01*
X122223939Y-45007100D01*
X122020061Y-45007100D01*
X121820102Y-45046874D01*
X121631744Y-45124895D01*
X121462226Y-45238163D01*
X121318063Y-45382326D01*
X121204795Y-45551844D01*
X121126774Y-45740202D01*
X121100390Y-45872846D01*
X119062280Y-43834552D01*
X119087600Y-43707260D01*
X119087600Y-43414740D01*
X119030532Y-43127842D01*
X118918590Y-42857589D01*
X118756075Y-42614368D01*
X118549232Y-42407525D01*
X118374840Y-42291000D01*
X118549232Y-42174475D01*
X118756075Y-41967632D01*
X118918590Y-41724411D01*
X119030532Y-41454158D01*
X119087600Y-41167260D01*
X119087600Y-40874740D01*
X119030532Y-40587842D01*
X118998703Y-40511000D01*
X129313678Y-40511000D01*
X129351000Y-40514676D01*
X129388322Y-40511000D01*
X129388333Y-40511000D01*
X129499986Y-40500003D01*
X129502457Y-40499253D01*
X127057141Y-42944570D01*
G37*
%TD.AperFunction*%
D27*
X117796348Y-38466858D02*
X117782205Y-38481000D01*
X117796348Y-38495143D01*
X117616743Y-38674748D01*
X117602600Y-38660605D01*
X117588458Y-38674748D01*
X117408853Y-38495143D01*
X117422995Y-38481000D01*
X117408853Y-38466858D01*
X117588458Y-38287253D01*
X117602600Y-38301395D01*
X117616743Y-38287253D01*
X117796348Y-38466858D01*
%TA.AperFunction,Conductor*%
D28*
G36*
X117796348Y-38466858D02*
G01*
X117782205Y-38481000D01*
X117796348Y-38495143D01*
X117616743Y-38674748D01*
X117602600Y-38660605D01*
X117588458Y-38674748D01*
X117408853Y-38495143D01*
X117422995Y-38481000D01*
X117408853Y-38466858D01*
X117588458Y-38287253D01*
X117602600Y-38301395D01*
X117616743Y-38287253D01*
X117796348Y-38466858D01*
G37*
%TD.AperFunction*%
D27*
X111683800Y-35864800D02*
X111703800Y-35864800D01*
X111703800Y-36118800D01*
X111683800Y-36118800D01*
X111683800Y-36138800D01*
X111429800Y-36138800D01*
X111429800Y-36118800D01*
X111409800Y-36118800D01*
X111409800Y-35864800D01*
X111429800Y-35864800D01*
X111429800Y-35844800D01*
X111683800Y-35844800D01*
X111683800Y-35864800D01*
%TA.AperFunction,Conductor*%
D28*
G36*
X111683800Y-35864800D02*
G01*
X111703800Y-35864800D01*
X111703800Y-36118800D01*
X111683800Y-36118800D01*
X111683800Y-36138800D01*
X111429800Y-36138800D01*
X111429800Y-36118800D01*
X111409800Y-36118800D01*
X111409800Y-35864800D01*
X111429800Y-35864800D01*
X111429800Y-35844800D01*
X111683800Y-35844800D01*
X111683800Y-35864800D01*
G37*
%TD.AperFunction*%
D27*
X94899010Y-27617589D02*
X94787068Y-27887842D01*
X94730000Y-28174740D01*
X94730000Y-28467260D01*
X94783516Y-28736300D01*
X86391611Y-28736300D01*
X86347674Y-28692363D01*
X86178156Y-28579095D01*
X85989798Y-28501074D01*
X85789839Y-28461300D01*
X85585961Y-28461300D01*
X85386002Y-28501074D01*
X85197644Y-28579095D01*
X85028126Y-28692363D01*
X84883963Y-28836526D01*
X84770695Y-29006044D01*
X84692674Y-29194402D01*
X84652900Y-29394361D01*
X84652900Y-29598239D01*
X84692674Y-29798198D01*
X84770695Y-29986556D01*
X84883963Y-30156074D01*
X85028126Y-30300237D01*
X85197644Y-30413505D01*
X85386002Y-30491526D01*
X85585961Y-30531300D01*
X85789839Y-30531300D01*
X85989798Y-30491526D01*
X86178156Y-30413505D01*
X86347674Y-30300237D01*
X86391611Y-30256300D01*
X94858158Y-30256300D01*
X94811629Y-30353883D01*
X94739661Y-30637411D01*
X94724389Y-30929531D01*
X94766401Y-31219019D01*
X94864081Y-31494747D01*
X94937528Y-31632157D01*
X95186603Y-31709792D01*
X96035395Y-30861000D01*
X96021253Y-30846858D01*
X96200858Y-30667253D01*
X96215000Y-30681395D01*
X96229143Y-30667253D01*
X96408748Y-30846858D01*
X96394605Y-30861000D01*
X97243397Y-31709792D01*
X97492472Y-31632157D01*
X97618371Y-31368117D01*
X97690339Y-31084589D01*
X97705611Y-30792469D01*
X97663599Y-30502981D01*
X97576209Y-30256300D01*
X112638158Y-30256300D01*
X112591629Y-30353883D01*
X112519661Y-30637411D01*
X112504389Y-30929531D01*
X112546401Y-31219019D01*
X112644081Y-31494747D01*
X112717528Y-31632157D01*
X112966603Y-31709792D01*
X113815395Y-30861000D01*
X113801253Y-30846858D01*
X113980858Y-30667253D01*
X113995000Y-30681395D01*
X114009143Y-30667253D01*
X114188748Y-30846858D01*
X114174605Y-30861000D01*
X114188748Y-30875143D01*
X114009143Y-31054748D01*
X113995000Y-31040605D01*
X113146208Y-31889397D01*
X113221729Y-32131689D01*
X113048368Y-32247525D01*
X112841525Y-32454368D01*
X112679010Y-32697589D01*
X112567068Y-32967842D01*
X112510000Y-33254740D01*
X112510000Y-33547260D01*
X112567068Y-33834158D01*
X112625075Y-33974200D01*
X97584925Y-33974200D01*
X97642932Y-33834158D01*
X97700000Y-33547260D01*
X97700000Y-33254740D01*
X97642932Y-32967842D01*
X97530990Y-32697589D01*
X97368475Y-32454368D01*
X97161632Y-32247525D01*
X96988271Y-32131689D01*
X97063792Y-31889397D01*
X96215000Y-31040605D01*
X95366208Y-31889397D01*
X95441729Y-32131689D01*
X95268368Y-32247525D01*
X95061525Y-32454368D01*
X94899010Y-32697589D01*
X94787068Y-32967842D01*
X94730000Y-33254740D01*
X94730000Y-33547260D01*
X94787068Y-33834158D01*
X94845075Y-33974200D01*
X92601922Y-33974200D01*
X92564599Y-33970524D01*
X92527276Y-33974200D01*
X92527267Y-33974200D01*
X92415614Y-33985197D01*
X92272353Y-34028654D01*
X92140324Y-34099226D01*
X92024599Y-34194199D01*
X92000801Y-34223197D01*
X90542399Y-35681600D01*
X83329823Y-35681600D01*
X83292500Y-35677924D01*
X83255178Y-35681600D01*
X83255167Y-35681600D01*
X83143514Y-35692597D01*
X83000253Y-35736054D01*
X82868224Y-35806626D01*
X82752499Y-35901599D01*
X82747584Y-35907588D01*
X82741600Y-35912499D01*
X82717802Y-35941497D01*
X82717801Y-35941498D01*
X82689700Y-35975739D01*
X82689700Y-34667000D01*
X86228528Y-34667000D01*
X86240788Y-34791482D01*
X86277098Y-34911180D01*
X86336063Y-35021494D01*
X86415415Y-35118185D01*
X86512106Y-35197537D01*
X86622420Y-35256502D01*
X86742118Y-35292812D01*
X86866600Y-35305072D01*
X88080850Y-35302000D01*
X88239600Y-35143250D01*
X88239600Y-33294000D01*
X88493600Y-33294000D01*
X88493600Y-35143250D01*
X88652350Y-35302000D01*
X89866600Y-35305072D01*
X89991082Y-35292812D01*
X90110780Y-35256502D01*
X90221094Y-35197537D01*
X90317785Y-35118185D01*
X90397137Y-35021494D01*
X90456102Y-34911180D01*
X90492412Y-34791482D01*
X90504672Y-34667000D01*
X90501600Y-33452750D01*
X90342850Y-33294000D01*
X88493600Y-33294000D01*
X88239600Y-33294000D01*
X86390350Y-33294000D01*
X86231600Y-33452750D01*
X86228528Y-34667000D01*
X82689700Y-34667000D01*
X82689700Y-31667000D01*
X86228528Y-31667000D01*
X86231600Y-32881250D01*
X86390350Y-33040000D01*
X88239600Y-33040000D01*
X88239600Y-31190750D01*
X88493600Y-31190750D01*
X88493600Y-33040000D01*
X90342850Y-33040000D01*
X90501600Y-32881250D01*
X90504672Y-31667000D01*
X90492412Y-31542518D01*
X90456102Y-31422820D01*
X90397137Y-31312506D01*
X90317785Y-31215815D01*
X90221094Y-31136463D01*
X90110780Y-31077498D01*
X89991082Y-31041188D01*
X89866600Y-31028928D01*
X88652350Y-31032000D01*
X88493600Y-31190750D01*
X88239600Y-31190750D01*
X88080850Y-31032000D01*
X86866600Y-31028928D01*
X86742118Y-31041188D01*
X86622420Y-31077498D01*
X86512106Y-31136463D01*
X86415415Y-31215815D01*
X86336063Y-31312506D01*
X86277098Y-31422820D01*
X86240788Y-31542518D01*
X86228528Y-31667000D01*
X82689700Y-31667000D01*
X82689700Y-29781431D01*
X82694224Y-29735499D01*
X82676171Y-29552207D01*
X82653751Y-29478300D01*
X82622707Y-29375960D01*
X82535886Y-29213528D01*
X82419044Y-29071156D01*
X82383365Y-29041876D01*
X81878272Y-28536782D01*
X81878272Y-27871000D01*
X81857365Y-27658728D01*
X81803755Y-27482000D01*
X94989608Y-27482000D01*
X94899010Y-27617589D01*
%TA.AperFunction,Conductor*%
D28*
G36*
X94899010Y-27617589D02*
G01*
X94787068Y-27887842D01*
X94730000Y-28174740D01*
X94730000Y-28467260D01*
X94783516Y-28736300D01*
X86391611Y-28736300D01*
X86347674Y-28692363D01*
X86178156Y-28579095D01*
X85989798Y-28501074D01*
X85789839Y-28461300D01*
X85585961Y-28461300D01*
X85386002Y-28501074D01*
X85197644Y-28579095D01*
X85028126Y-28692363D01*
X84883963Y-28836526D01*
X84770695Y-29006044D01*
X84692674Y-29194402D01*
X84652900Y-29394361D01*
X84652900Y-29598239D01*
X84692674Y-29798198D01*
X84770695Y-29986556D01*
X84883963Y-30156074D01*
X85028126Y-30300237D01*
X85197644Y-30413505D01*
X85386002Y-30491526D01*
X85585961Y-30531300D01*
X85789839Y-30531300D01*
X85989798Y-30491526D01*
X86178156Y-30413505D01*
X86347674Y-30300237D01*
X86391611Y-30256300D01*
X94858158Y-30256300D01*
X94811629Y-30353883D01*
X94739661Y-30637411D01*
X94724389Y-30929531D01*
X94766401Y-31219019D01*
X94864081Y-31494747D01*
X94937528Y-31632157D01*
X95186603Y-31709792D01*
X96035395Y-30861000D01*
X96021253Y-30846858D01*
X96200858Y-30667253D01*
X96215000Y-30681395D01*
X96229143Y-30667253D01*
X96408748Y-30846858D01*
X96394605Y-30861000D01*
X97243397Y-31709792D01*
X97492472Y-31632157D01*
X97618371Y-31368117D01*
X97690339Y-31084589D01*
X97705611Y-30792469D01*
X97663599Y-30502981D01*
X97576209Y-30256300D01*
X112638158Y-30256300D01*
X112591629Y-30353883D01*
X112519661Y-30637411D01*
X112504389Y-30929531D01*
X112546401Y-31219019D01*
X112644081Y-31494747D01*
X112717528Y-31632157D01*
X112966603Y-31709792D01*
X113815395Y-30861000D01*
X113801253Y-30846858D01*
X113980858Y-30667253D01*
X113995000Y-30681395D01*
X114009143Y-30667253D01*
X114188748Y-30846858D01*
X114174605Y-30861000D01*
X114188748Y-30875143D01*
X114009143Y-31054748D01*
X113995000Y-31040605D01*
X113146208Y-31889397D01*
X113221729Y-32131689D01*
X113048368Y-32247525D01*
X112841525Y-32454368D01*
X112679010Y-32697589D01*
X112567068Y-32967842D01*
X112510000Y-33254740D01*
X112510000Y-33547260D01*
X112567068Y-33834158D01*
X112625075Y-33974200D01*
X97584925Y-33974200D01*
X97642932Y-33834158D01*
X97700000Y-33547260D01*
X97700000Y-33254740D01*
X97642932Y-32967842D01*
X97530990Y-32697589D01*
X97368475Y-32454368D01*
X97161632Y-32247525D01*
X96988271Y-32131689D01*
X97063792Y-31889397D01*
X96215000Y-31040605D01*
X95366208Y-31889397D01*
X95441729Y-32131689D01*
X95268368Y-32247525D01*
X95061525Y-32454368D01*
X94899010Y-32697589D01*
X94787068Y-32967842D01*
X94730000Y-33254740D01*
X94730000Y-33547260D01*
X94787068Y-33834158D01*
X94845075Y-33974200D01*
X92601922Y-33974200D01*
X92564599Y-33970524D01*
X92527276Y-33974200D01*
X92527267Y-33974200D01*
X92415614Y-33985197D01*
X92272353Y-34028654D01*
X92140324Y-34099226D01*
X92024599Y-34194199D01*
X92000801Y-34223197D01*
X90542399Y-35681600D01*
X83329823Y-35681600D01*
X83292500Y-35677924D01*
X83255178Y-35681600D01*
X83255167Y-35681600D01*
X83143514Y-35692597D01*
X83000253Y-35736054D01*
X82868224Y-35806626D01*
X82752499Y-35901599D01*
X82747584Y-35907588D01*
X82741600Y-35912499D01*
X82717802Y-35941497D01*
X82717801Y-35941498D01*
X82689700Y-35975739D01*
X82689700Y-34667000D01*
X86228528Y-34667000D01*
X86240788Y-34791482D01*
X86277098Y-34911180D01*
X86336063Y-35021494D01*
X86415415Y-35118185D01*
X86512106Y-35197537D01*
X86622420Y-35256502D01*
X86742118Y-35292812D01*
X86866600Y-35305072D01*
X88080850Y-35302000D01*
X88239600Y-35143250D01*
X88239600Y-33294000D01*
X88493600Y-33294000D01*
X88493600Y-35143250D01*
X88652350Y-35302000D01*
X89866600Y-35305072D01*
X89991082Y-35292812D01*
X90110780Y-35256502D01*
X90221094Y-35197537D01*
X90317785Y-35118185D01*
X90397137Y-35021494D01*
X90456102Y-34911180D01*
X90492412Y-34791482D01*
X90504672Y-34667000D01*
X90501600Y-33452750D01*
X90342850Y-33294000D01*
X88493600Y-33294000D01*
X88239600Y-33294000D01*
X86390350Y-33294000D01*
X86231600Y-33452750D01*
X86228528Y-34667000D01*
X82689700Y-34667000D01*
X82689700Y-31667000D01*
X86228528Y-31667000D01*
X86231600Y-32881250D01*
X86390350Y-33040000D01*
X88239600Y-33040000D01*
X88239600Y-31190750D01*
X88493600Y-31190750D01*
X88493600Y-33040000D01*
X90342850Y-33040000D01*
X90501600Y-32881250D01*
X90504672Y-31667000D01*
X90492412Y-31542518D01*
X90456102Y-31422820D01*
X90397137Y-31312506D01*
X90317785Y-31215815D01*
X90221094Y-31136463D01*
X90110780Y-31077498D01*
X89991082Y-31041188D01*
X89866600Y-31028928D01*
X88652350Y-31032000D01*
X88493600Y-31190750D01*
X88239600Y-31190750D01*
X88080850Y-31032000D01*
X86866600Y-31028928D01*
X86742118Y-31041188D01*
X86622420Y-31077498D01*
X86512106Y-31136463D01*
X86415415Y-31215815D01*
X86336063Y-31312506D01*
X86277098Y-31422820D01*
X86240788Y-31542518D01*
X86228528Y-31667000D01*
X82689700Y-31667000D01*
X82689700Y-29781431D01*
X82694224Y-29735499D01*
X82676171Y-29552207D01*
X82653751Y-29478300D01*
X82622707Y-29375960D01*
X82535886Y-29213528D01*
X82419044Y-29071156D01*
X82383365Y-29041876D01*
X81878272Y-28536782D01*
X81878272Y-27871000D01*
X81857365Y-27658728D01*
X81803755Y-27482000D01*
X94989608Y-27482000D01*
X94899010Y-27617589D01*
G37*
%TD.AperFunction*%
%TD*%
M02*
